<?xml version="1.0" standalone="yes"?>

<svg version="1.1" viewBox="0.0 0.0 960.0 540.0" fill="none" stroke="none" stroke-linecap="square" stroke-miterlimit="10" xmlns="http://www.w3.org/2000/svg" xmlns:xlink="http://www.w3.org/1999/xlink"><clipPath id="gcbb876190_0_0.0"><path d="m0 0l960.0 0l0 540.0l-960.0 0l0 -540.0z" clip-rule="nonzero"></path></clipPath><g clip-path="url(#gcbb876190_0_0.0)"><path fill="#ffffff" d="m0 0l960.0 0l0 540.0l-960.0 0z" fill-rule="nonzero"></path><path fill="#000000" fill-opacity="0.0" d="m32.72441 46.721786l894.55115 0l0 60.125984l-894.55115 0z" fill-rule="nonzero"></path><path fill="#000000" d="m53.490036 91.56178l-3.078125 0l0 -23.6875l-8.359375 0l0 -2.71875l19.796875 0l0 2.71875l-8.359375 0l0 23.6875zm25.619522 0l0 -12.8125q0 -2.421875 -1.109375 -3.609375q-1.09375 -1.1875 -3.453125 -1.1875q-3.125 0 -4.5625 1.703125q-1.4375 1.6875 -1.4375 5.546875l0 10.359375l-2.984375 0l0 -28.109375l2.984375 0l0 8.5q0 1.546875 -0.140625 2.546875l0.1875 0q0.875 -1.421875 2.515625 -2.234375q1.640625 -0.828125 3.734375 -0.828125q3.625 0 5.4375 1.734375q1.828125 1.71875 1.828125 5.46875l0 12.921875l-3.0 0zm17.723373 0.359375q-4.390625 0 -6.9375 -2.671875q-2.53125 -2.671875 -2.53125 -7.421875q0 -4.796875 2.359375 -7.609375q2.359375 -2.8125 6.328125 -2.8125q3.71875 0 5.890625 2.453125q2.171875 2.4375 2.171875 6.453125l0 1.890625l-13.640625 0q0.09375 3.484375 1.765625 5.296875q1.671875 1.796875 4.703125 1.796875q3.1875 0 6.3125 -1.328125l0 2.671875q-1.578125 0.6875 -3.0 0.984375q-1.421875 0.296875 -3.421875 0.296875zm-0.8125 -18.015625q-2.390625 0 -3.8125 1.5625q-1.40625 1.546875 -1.671875 4.296875l10.359375 0q0 -2.84375 -1.265625 -4.34375q-1.265625 -1.515625 -3.609375 -1.515625zm40.279587 -1.0625q0 4.015625 -2.734375 6.171875q-2.734375 2.15625 -7.828125 2.15625l-3.109375 0l0 10.390625l-3.078125 0l0 -26.40625l6.859375 0q9.890625 0 9.890625 7.6875zm-13.671875 5.6875l2.765625 0q4.078125 0 5.90625 -1.3125q1.828125 -1.3125 1.828125 -4.234375q0 -2.609375 -1.71875 -3.890625q-1.71875 -1.28125 -5.34375 -1.28125l-3.4375 0l0 10.71875zm27.98906 -7.125q1.3125 0 2.359375 0.203125l-0.40625 2.796875q-1.234375 -0.28125 -2.171875 -0.28125q-2.40625 0 -4.125 1.953125q-1.703125 1.953125 -1.703125 4.859375l0 10.625l-2.984375 0l0 -19.796875l2.46875 0l0.34375 3.65625l0.140625 0q1.109375 -1.921875 2.65625 -2.96875q1.5625 -1.046875 3.421875 -1.046875zm23.284332 10.234375q0 4.84375 -2.4375 7.5625q-2.4375 2.71875 -6.734375 2.71875q-2.65625 0 -4.71875 -1.234375q-2.0625 -1.25 -3.1875 -3.578125q-1.109375 -2.34375 -1.109375 -5.46875q0 -4.84375 2.421875 -7.53125q2.421875 -2.703125 6.71875 -2.703125q4.15625 0 6.59375 2.765625q2.453125 2.75 2.453125 7.46875zm-15.078125 0q0 3.796875 1.515625 5.78125q1.515625 1.984375 4.46875 1.984375q2.9375 0 4.453125 -1.96875q1.53125 -1.984375 1.53125 -5.796875q0 -3.765625 -1.53125 -5.71875q-1.515625 -1.96875 -4.5 -1.96875q-2.9375 0 -4.4375 1.9375q-1.5 1.921875 -1.5 5.75zm29.749466 -10.203125q3.90625 0 6.0625 2.671875q2.15625 2.65625 2.15625 7.53125q0 4.875 -2.171875 7.578125q-2.171875 2.703125 -6.046875 2.703125q-1.9375 0 -3.53125 -0.703125q-1.59375 -0.71875 -2.6875 -2.203125l-0.203125 0l-0.640625 2.546875l-2.140625 0l0 -28.109375l2.984375 0l0 6.828125q0 2.296875 -0.140625 4.125l0.140625 0q2.109375 -2.96875 6.21875 -2.96875zm-0.4375 2.515625q-3.0625 0 -4.421875 1.765625q-1.359375 1.75 -1.359375 5.921875q0 4.171875 1.390625 5.96875q1.40625 1.796875 4.46875 1.796875q2.765625 0 4.109375 -2.0q1.359375 -2.015625 1.359375 -5.796875q0 -3.875 -1.359375 -5.765625q-1.34375 -1.890625 -4.1875 -1.890625zm17.09317 17.609375l-2.984375 0l0 -28.109375l2.984375 0l0 28.109375zm14.816391 0.359375q-4.390625 0 -6.9375 -2.671875q-2.53125 -2.671875 -2.53125 -7.421875q0 -4.796875 2.359375 -7.609375q2.359375 -2.8125 6.328125 -2.8125q3.71875 0 5.890625 2.453125q2.171875 2.4375 2.171875 6.453125l0 1.890625l-13.640625 0q0.09375 3.484375 1.765625 5.296875q1.671875 1.796875 4.703125 1.796875q3.1875 0 6.3125 -1.328125l0 2.671875q-1.578125 0.6875 -3.0 0.984375q-1.421875 0.296875 -3.421875 0.296875zm-0.8125 -18.015625q-2.390625 0 -3.8125 1.5625q-1.40625 1.546875 -1.671875 4.296875l10.359375 0q0 -2.84375 -1.265625 -4.34375q-1.265625 -1.515625 -3.609375 -1.515625zm38.629898 17.65625l0 -12.875q0 -2.375 -1.015625 -3.546875q-1.015625 -1.1875 -3.140625 -1.1875q-2.796875 0 -4.140625 1.609375q-1.328125 1.59375 -1.328125 4.9375l0 11.0625l-3.0 0l0 -12.875q0 -2.375 -1.015625 -3.546875q-1.015625 -1.1875 -3.171875 -1.1875q-2.8125 0 -4.125 1.6875q-1.3125 1.6875 -1.3125 5.53125l0 10.390625l-2.984375 0l0 -19.796875l2.4375 0l0.484375 2.703125l0.140625 0q0.84375 -1.4375 2.390625 -2.25q1.546875 -0.8125 3.46875 -0.8125q4.640625 0 6.0625 3.359375l0.140625 0q0.890625 -1.5625 2.5625 -2.453125q1.6875 -0.90625 3.84375 -0.90625q3.359375 0 5.03125 1.71875q1.671875 1.71875 1.671875 5.515625l0 12.921875l-3.0 0z" fill-rule="nonzero"></path><path fill="#cfe2f3" d="m382.54712 160.4086l0 0c-1.4757996 -6.631958 3.3695679 -13.197189 12.480011 -16.909836c9.110443 -3.7126465 20.888184 -3.9215698 30.33551 -0.538147l0 0c3.3465576 -3.8560944 9.47168 -6.518463 16.522675 -7.181778c7.050995 -0.6633301 14.199707 0.7502899 19.283752 3.8132782l0 0c2.85083 -3.4961853 8.448456 -5.845169 14.80658 -6.2134247c6.3580933 -0.36825562 12.576874 1.2963562 16.449554 4.403122l0 0c5.150421 -3.7059479 13.344849 -5.2662964 21.037567 -4.00589c7.692688 1.2604065 13.501892 5.115204 14.9140625 9.896378l0 0c6.3101196 1.0525055 11.566345 3.728119 14.4105835 7.335541c2.8442383 3.6074066 2.9974976 7.792755 0.42022705 11.474686l0 0c6.213623 4.945221 7.6671753 11.534668 3.8181152 17.309265c-3.848999 5.7746124 -12.422302 9.866821 -22.520447 10.749466c-0.07116699 5.4196777 -4.931946 10.392715 -12.708679 13.002274c-7.7767334 2.609558 -17.255127 2.4481506 -24.7818 -0.42199707c-3.2059631 6.4909973 -12.229645 11.267014 -23.172516 12.264633c-10.942902 0.9976196 -21.8432 -1.9620056 -27.991638 -7.6002045c-7.536682 2.7790833 -16.580078 3.5796509 -25.090149 2.221115c-8.510101 -1.358551 -15.77005 -4.7617645 -20.14215 -9.441971l0 0c-7.701538 0.5511017 -15.147858 -1.8888702 -18.643402 -6.1089935c-3.495514 -4.2201233 -2.2961426 -9.3220215 3.0029297 -12.773636l0 0c-6.869995 -2.4725647 -10.375458 -7.3789673 -8.688477 -12.160706c1.6870117 -4.7817383 8.184174 -8.355255 16.103516 -8.857086z" fill-rule="nonzero"></path><path fill="#000000" fill-opacity="0.0" d="m374.97983 181.682l0 0c3.2419739 1.1668243 6.9871826 1.696106 10.732819 1.5168152m4.9059753 17.366241c1.6107788 -0.11526489 3.1896362 -0.35934448 4.6958313 -0.72595215m40.53424 7.9465027c-1.132904 -1.0388947 -2.081421 -2.1490326 -2.8294067 -3.3115234m53.995514 -1.3531036l0 0c0.5845032 -1.1833954 0.9631958 -2.4013824 1.1297913 -3.6336212m36.359253 -8.9461975c0.075805664 -5.7700806 -5.2836914 -11.053223 -13.776276 -13.58017m32.478424 -14.477966c-1.3753662 1.9648285 -3.4749756 3.7077942 -6.1342773 5.0922394m-8.695251 -23.90297l0 0c0.234375 0.7934418 0.34277344 1.5988159 0.32385254 2.4049377m-36.27487 -8.295181l0 0c-1.2847595 0.92445374 -2.3432312 1.9575195 -3.1424866 3.0670166m-28.113922 -1.2571259l0 0c-0.68466187 0.8396759 -1.1959229 1.7281952 -1.5220032 2.6450806m-34.284943 0.7234955l0 0c1.999054 0.7159424 3.8484497 1.5776367 5.5075684 2.5661774m-48.32254 14.881897l0 0c0.20343018 0.9140625 0.5248108 1.8168488 0.96118164 2.6999207" fill-rule="nonzero"></path><path stroke="#000000" stroke-width="2.0" stroke-linejoin="round" stroke-linecap="butt" d="m382.54712 160.4086l0 0c-1.4757996 -6.631958 3.3695679 -13.197189 12.480011 -16.909836c9.110443 -3.7126465 20.888184 -3.9215698 30.33551 -0.538147l0 0c3.3465576 -3.8560944 9.47168 -6.518463 16.522675 -7.181778c7.050995 -0.6633301 14.199707 0.7502899 19.283752 3.8132782l0 0c2.85083 -3.4961853 8.448456 -5.845169 14.80658 -6.2134247c6.3580933 -0.36825562 12.576874 1.2963562 16.449554 4.403122l0 0c5.150421 -3.7059479 13.344849 -5.2662964 21.037567 -4.00589c7.692688 1.2604065 13.501892 5.115204 14.9140625 9.896378l0 0c6.3101196 1.0525055 11.566345 3.728119 14.4105835 7.335541c2.8442383 3.6074066 2.9974976 7.792755 0.42022705 11.474686l0 0c6.213623 4.945221 7.6671753 11.534668 3.8181152 17.309265c-3.848999 5.7746124 -12.422302 9.866821 -22.520447 10.749466c-0.07116699 5.4196777 -4.931946 10.392715 -12.708679 13.002274c-7.7767334 2.609558 -17.255127 2.4481506 -24.7818 -0.42199707c-3.2059631 6.4909973 -12.229645 11.267014 -23.172516 12.264633c-10.942902 0.9976196 -21.8432 -1.9620056 -27.991638 -7.6002045c-7.536682 2.7790833 -16.580078 3.5796509 -25.090149 2.221115c-8.510101 -1.358551 -15.77005 -4.7617645 -20.14215 -9.441971l0 0c-7.701538 0.5511017 -15.147858 -1.8888702 -18.643402 -6.1089935c-3.495514 -4.2201233 -2.2961426 -9.3220215 3.0029297 -12.773636l0 0c-6.869995 -2.4725647 -10.375458 -7.3789673 -8.688477 -12.160706c1.6870117 -4.7817383 8.184174 -8.355255 16.103516 -8.857086z" fill-rule="nonzero"></path><path stroke="#000000" stroke-width="2.0" stroke-linejoin="round" stroke-linecap="butt" d="m374.97983 181.682l0 0c3.2419739 1.1668243 6.9871826 1.696106 10.732819 1.5168152m4.9059753 17.366241c1.6107788 -0.11526489 3.1896362 -0.35934448 4.6958313 -0.72595215m40.53424 7.9465027c-1.132904 -1.0388947 -2.081421 -2.1490326 -2.8294067 -3.3115234m53.995514 -1.3531036l0 0c0.5845032 -1.1833954 0.9631958 -2.4013824 1.1297913 -3.6336212m36.359253 -8.9461975c0.075805664 -5.7700806 -5.2836914 -11.053223 -13.776276 -13.58017m32.478424 -14.477966c-1.3753662 1.9648285 -3.4749756 3.7077942 -6.1342773 5.0922394m-8.695251 -23.90297l0 0c0.234375 0.7934418 0.34277344 1.5988159 0.32385254 2.4049377m-36.27487 -8.295181l0 0c-1.2847595 0.92445374 -2.3432312 1.9575195 -3.1424866 3.0670166m-28.113922 -1.2571259l0 0c-0.68466187 0.8396759 -1.1959229 1.7281952 -1.5220032 2.6450806m-34.284943 0.7234955l0 0c1.999054 0.7159424 3.8484497 1.5776367 5.5075684 2.5661774m-48.32254 14.881897l0 0c0.20343018 0.9140625 0.5248108 1.8168488 0.96118164 2.6999207" fill-rule="nonzero"></path><path fill="#efefef" d="m279.44016 319.05084l143.43304 0l0 61.921265l-143.43304 0z" fill-rule="nonzero"></path><path stroke="#000000" stroke-width="2.0" stroke-linejoin="round" stroke-linecap="butt" d="m279.44016 319.05084l143.43304 0l0 61.921265l-143.43304 0z" fill-rule="nonzero"></path><path fill="#efefef" d="m455.34277 319.0506l143.43304 0l0 61.921265l-143.43304 0z" fill-rule="nonzero"></path><path stroke="#000000" stroke-width="2.0" stroke-linejoin="round" stroke-linecap="butt" d="m455.34277 319.0506l143.43304 0l0 61.921265l-143.43304 0z" fill-rule="nonzero"></path><path fill="#92c68c" d="m470.24118 333.10046l113.63779 0l0 31.716553l-113.63779 0z" fill-rule="nonzero"></path><path stroke="#000000" stroke-width="2.0" stroke-linejoin="round" stroke-linecap="butt" d="m470.24118 333.10046l113.63779 0l0 31.716553l-113.63779 0z" fill-rule="nonzero"></path><path fill="#000000" d="m516.63574 355.87875l0 -13.59375l6.03125 0q1.8125 0 2.75 0.359375q0.953125 0.359375 1.515625 1.296875q0.5625 0.921875 0.5625 2.046875q0 1.453125 -0.9375 2.453125q-0.921875 0.984375 -2.890625 1.25q0.71875 0.34375 1.09375 0.671875q0.78125 0.734375 1.484375 1.8125l2.375 3.703125l-2.265625 0l-1.796875 -2.828125q-0.796875 -1.21875 -1.3125 -1.875q-0.5 -0.65625 -0.90625 -0.90625q-0.40625 -0.265625 -0.8125 -0.359375q-0.3125 -0.078125 -1.015625 -0.078125l-2.078125 0l0 6.046875l-1.796875 0zm1.796875 -7.59375l3.859375 0q1.234375 0 1.921875 -0.25q0.703125 -0.265625 1.0625 -0.828125q0.375 -0.5625 0.375 -1.21875q0 -0.96875 -0.703125 -1.578125q-0.703125 -0.625 -2.21875 -0.625l-4.296875 0l0 4.5zm19.738586 5.984375l0 1.609375l-8.984375 0q-0.015625 -0.609375 0.1875 -1.15625q0.34375 -0.921875 1.09375 -1.8125q0.765625 -0.890625 2.1875 -2.0625q2.21875 -1.8125 3.0 -2.875q0.78125 -1.0625 0.78125 -2.015625q0 -0.984375 -0.71875 -1.671875q-0.703125 -0.6875 -1.84375 -0.6875q-1.203125 0 -1.9375 0.734375q-0.71875 0.71875 -0.71875 2.0l-1.71875 -0.171875q0.171875 -1.921875 1.328125 -2.921875q1.15625 -1.015625 3.09375 -1.015625q1.953125 0 3.09375 1.09375q1.140625 1.078125 1.140625 2.6875q0 0.8125 -0.34375 1.609375q-0.328125 0.78125 -1.109375 1.65625q-0.765625 0.859375 -2.5625 2.390625q-1.5 1.265625 -1.9375 1.71875q-0.421875 0.4375 -0.703125 0.890625l6.671875 0z" fill-rule="nonzero"></path><path fill="#000000" fill-opacity="0.0" d="m271.44064 283.43787l143.43307 0l0 31.716553l-143.43307 0z" fill-rule="nonzero"></path><path fill="#000000" d="m282.30002 310.35788l0 -13.5625l1.578125 0l0 12.140625l5.984375 0l0 1.421875l-7.5625 0zm17.15213 -10.375q0 1.296875 -0.734375 2.125q-0.71875 0.828125 -2.046875 1.109375l0 0.078125q1.625 0.203125 2.40625 1.03125q0.796875 0.828125 0.796875 2.1875q0 1.9375 -1.34375 2.984375q-1.34375 1.046875 -3.828125 1.046875q-1.078125 0 -1.96875 -0.171875q-0.890625 -0.15625 -1.734375 -0.5625l0 -1.46875q0.875 0.4375 1.875 0.671875q1.0 0.21875 1.890625 0.21875q3.515625 0 3.515625 -2.75q0 -2.46875 -3.875 -2.46875l-1.34375 0l0 -1.328125l1.359375 0q1.578125 0 2.5 -0.703125q0.9375 -0.703125 0.9375 -1.9375q0 -1.0 -0.6875 -1.5625q-0.671875 -0.5625 -1.84375 -0.5625q-0.890625 0 -1.6875 0.25q-0.78125 0.234375 -1.796875 0.875l-0.765625 -1.03125q0.828125 -0.65625 1.921875 -1.03125q1.09375 -0.390625 2.296875 -0.390625q1.96875 0 3.0625 0.90625q1.09375 0.90625 1.09375 2.484375zm16.575989 10.375l-1.6875 -4.3125l-5.4375 0l-1.671875 4.3125l-1.59375 0l5.359375 -13.625l1.328125 0l5.34375 13.625l-1.640625 0zm-2.1875 -5.734375l-1.5625 -4.203125q-0.3125 -0.796875 -0.640625 -1.953125q-0.203125 0.890625 -0.578125 1.953125l-1.59375 4.203125l4.375 0zm13.555908 -4.4375l0 0.984375l-1.875 0.21875q0.25 0.328125 0.453125 0.859375q0.203125 0.515625 0.203125 1.171875q0 1.484375 -1.015625 2.375q-1.015625 0.890625 -2.796875 0.890625q-0.453125 0 -0.859375 -0.0625q-0.984375 0.515625 -0.984375 1.296875q0 0.421875 0.34375 0.625q0.34375 0.203125 1.1875 0.203125l1.796875 0q1.640625 0 2.53125 0.703125q0.890625 0.6875 0.890625 2.015625q0 1.6875 -1.359375 2.5625q-1.359375 0.890625 -3.953125 0.890625q-1.984375 0 -3.078125 -0.75q-1.078125 -0.734375 -1.078125 -2.09375q0 -0.921875 0.59375 -1.609375q0.59375 -0.671875 1.671875 -0.90625q-0.390625 -0.171875 -0.65625 -0.546875q-0.265625 -0.375 -0.265625 -0.859375q0 -0.5625 0.296875 -0.96875q0.296875 -0.421875 0.9375 -0.8125q-0.78125 -0.328125 -1.28125 -1.109375q-0.5 -0.78125 -0.5 -1.78125q0 -1.671875 1.0 -2.578125q1.0 -0.90625 2.84375 -0.90625q0.796875 0 1.4375 0.1875l3.515625 0zm-8.109375 11.875q0 0.828125 0.6875 1.25q0.703125 0.4375 2.0 0.4375q1.9375 0 2.875 -0.578125q0.9375 -0.578125 0.9375 -1.578125q0 -0.828125 -0.515625 -1.15625q-0.515625 -0.3125 -1.921875 -0.3125l-1.84375 0q-1.046875 0 -1.640625 0.5q-0.578125 0.5 -0.578125 1.4375zm0.84375 -8.609375q0 1.0625 0.59375 1.609375q0.609375 0.546875 1.6875 0.546875q2.25 0 2.25 -2.1875q0 -2.296875 -2.28125 -2.296875q-1.09375 0 -1.671875 0.59375q-0.578125 0.578125 -0.578125 1.734375zm13.455231 7.09375q-2.25 0 -3.5625 -1.375q-1.296875 -1.375 -1.296875 -3.8125q0 -2.453125 1.203125 -3.90625q1.21875 -1.453125 3.265625 -1.453125q1.90625 0 3.015625 1.265625q1.125 1.25 1.125 3.3125l0 0.96875l-7.015625 0q0.046875 1.796875 0.90625 2.734375q0.859375 0.921875 2.421875 0.921875q1.640625 0 3.25 -0.6875l0 1.375q-0.8125 0.34375 -1.546875 0.5q-0.734375 0.15625 -1.765625 0.15625zm-0.40625 -9.25q-1.234375 0 -1.96875 0.796875q-0.71875 0.796875 -0.84375 2.203125l5.3125 0q0 -1.453125 -0.65625 -2.21875q-0.640625 -0.78125 -1.84375 -0.78125zm13.544922 9.0625l0 -6.578125q0 -1.25 -0.578125 -1.859375q-0.5625 -0.609375 -1.765625 -0.609375q-1.59375 0 -2.34375 0.875q-0.734375 0.859375 -0.734375 2.84375l0 5.328125l-1.53125 0l0 -10.171875l1.25 0l0.25 1.390625l0.0625 0q0.484375 -0.75 1.328125 -1.15625q0.859375 -0.421875 1.90625 -0.421875q1.84375 0 2.765625 0.890625q0.921875 0.890625 0.921875 2.828125l0 6.640625l-1.53125 0zm7.778778 -1.078125q0.40625 0 0.78125 -0.0625q0.390625 -0.0625 0.609375 -0.125l0 1.171875q-0.25 0.125 -0.75 0.203125q-0.484375 0.078125 -0.875 0.078125q-2.9375 0 -2.9375 -3.109375l0 -6.046875l-1.46875 0l0 -0.75l1.46875 -0.640625l0.640625 -2.171875l0.890625 0l0 2.359375l2.953125 0l0 1.203125l-2.953125 0l0 5.984375q0 0.921875 0.4375 1.421875q0.4375 0.484375 1.203125 0.484375zm13.151154 1.078125l-1.515625 0l0 -9.671875q0 -1.203125 0.078125 -2.28125q-0.1875 0.203125 -0.4375 0.421875q-0.234375 0.203125 -2.203125 1.796875l-0.8125 -1.0625l3.578125 -2.765625l1.3125 0l0 13.5625z" fill-rule="nonzero"></path><path fill="#000000" fill-opacity="0.0" d="m439.3426 283.43787l143.4331 0l0 31.716553l-143.4331 0z" fill-rule="nonzero"></path><path fill="#000000" d="m450.20197 310.35788l0 -13.5625l1.578125 0l0 12.140625l5.984375 0l0 1.421875l-7.5625 0zm17.15216 -10.375q0 1.296875 -0.734375 2.125q-0.71875 0.828125 -2.046875 1.109375l0 0.078125q1.625 0.203125 2.40625 1.03125q0.796875 0.828125 0.796875 2.1875q0 1.9375 -1.34375 2.984375q-1.34375 1.046875 -3.828125 1.046875q-1.078125 0 -1.96875 -0.171875q-0.890625 -0.15625 -1.734375 -0.5625l0 -1.46875q0.875 0.4375 1.875 0.671875q1.0 0.21875 1.890625 0.21875q3.515625 0 3.515625 -2.75q0 -2.46875 -3.875 -2.46875l-1.34375 0l0 -1.328125l1.359375 0q1.578125 0 2.5 -0.703125q0.9375 -0.703125 0.9375 -1.9375q0 -1.0 -0.6875 -1.5625q-0.671875 -0.5625 -1.84375 -0.5625q-0.890625 0 -1.6875 0.25q-0.78125 0.234375 -1.796875 0.875l-0.765625 -1.03125q0.828125 -0.65625 1.921875 -1.03125q1.09375 -0.390625 2.296875 -0.390625q1.96875 0 3.0625 0.90625q1.09375 0.90625 1.09375 2.484375zm16.575958 10.375l-1.6875 -4.3125l-5.4375 0l-1.671875 4.3125l-1.59375 0l5.359375 -13.625l1.328125 0l5.34375 13.625l-1.640625 0zm-2.1875 -5.734375l-1.5625 -4.203125q-0.3125 -0.796875 -0.640625 -1.953125q-0.203125 0.890625 -0.578125 1.953125l-1.59375 4.203125l4.375 0zm13.555908 -4.4375l0 0.984375l-1.875 0.21875q0.25 0.328125 0.453125 0.859375q0.203125 0.515625 0.203125 1.171875q0 1.484375 -1.015625 2.375q-1.015625 0.890625 -2.796875 0.890625q-0.453125 0 -0.859375 -0.0625q-0.984375 0.515625 -0.984375 1.296875q0 0.421875 0.34375 0.625q0.34375 0.203125 1.1875 0.203125l1.796875 0q1.640625 0 2.53125 0.703125q0.890625 0.6875 0.890625 2.015625q0 1.6875 -1.359375 2.5625q-1.359375 0.890625 -3.953125 0.890625q-1.984375 0 -3.078125 -0.75q-1.078125 -0.734375 -1.078125 -2.09375q0 -0.921875 0.59375 -1.609375q0.59375 -0.671875 1.671875 -0.90625q-0.390625 -0.171875 -0.65625 -0.546875q-0.265625 -0.375 -0.265625 -0.859375q0 -0.5625 0.296875 -0.96875q0.296875 -0.421875 0.9375 -0.8125q-0.78125 -0.328125 -1.28125 -1.109375q-0.5 -0.78125 -0.5 -1.78125q0 -1.671875 1.0 -2.578125q1.0 -0.90625 2.84375 -0.90625q0.796875 0 1.4375 0.1875l3.515625 0zm-8.109375 11.875q0 0.828125 0.6875 1.25q0.703125 0.4375 2.0 0.4375q1.9375 0 2.875 -0.578125q0.9375 -0.578125 0.9375 -1.578125q0 -0.828125 -0.515625 -1.15625q-0.515625 -0.3125 -1.921875 -0.3125l-1.84375 0q-1.046875 0 -1.640625 0.5q-0.578125 0.5 -0.578125 1.4375zm0.84375 -8.609375q0 1.0625 0.59375 1.609375q0.609375 0.546875 1.6875 0.546875q2.25 0 2.25 -2.1875q0 -2.296875 -2.28125 -2.296875q-1.09375 0 -1.671875 0.59375q-0.578125 0.578125 -0.578125 1.734375zm13.455231 7.09375q-2.25 0 -3.5625 -1.375q-1.296875 -1.375 -1.296875 -3.8125q0 -2.453125 1.203125 -3.90625q1.21875 -1.453125 3.265625 -1.453125q1.90625 0 3.015625 1.265625q1.125 1.25 1.125 3.3125l0 0.96875l-7.015625 0q0.046875 1.796875 0.90625 2.734375q0.859375 0.921875 2.421875 0.921875q1.640625 0 3.25 -0.6875l0 1.375q-0.8125 0.34375 -1.546875 0.5q-0.734375 0.15625 -1.765625 0.15625zm-0.40625 -9.25q-1.234375 0 -1.96875 0.796875q-0.71875 0.796875 -0.84375 2.203125l5.3125 0q0 -1.453125 -0.65625 -2.21875q-0.640625 -0.78125 -1.84375 -0.78125zm13.544922 9.0625l0 -6.578125q0 -1.25 -0.578125 -1.859375q-0.5625 -0.609375 -1.765625 -0.609375q-1.5937195 0 -2.3437195 0.875q-0.734375 0.859375 -0.734375 2.84375l0 5.328125l-1.53125 0l0 -10.171875l1.25 0l0.25 1.390625l0.0625 0q0.484375 -0.75 1.328125 -1.15625q0.859375 -0.421875 1.9062195 -0.421875q1.84375 0 2.765625 0.890625q0.921875 0.890625 0.921875 2.828125l0 6.640625l-1.53125 0zm7.7788086 -1.078125q0.40625 0 0.78125 -0.0625q0.390625 -0.0625 0.609375 -0.125l0 1.171875q-0.25 0.125 -0.75 0.203125q-0.484375 0.078125 -0.875 0.078125q-2.9375 0 -2.9375 -3.109375l0 -6.046875l-1.46875 0l0 -0.75l1.46875 -0.640625l0.640625 -2.171875l0.890625 0l0 2.359375l2.953125 0l0 1.203125l-2.953125 0l0 5.984375q0 0.921875 0.4375 1.421875q0.4375 0.484375 1.203125 0.484375zm16.354248 1.078125l-8.921875 0l0 -1.328125l3.578125 -3.59375q1.625 -1.640625 2.140625 -2.34375q0.53125 -0.71875 0.78125 -1.375q0.265625 -0.671875 0.265625 -1.4375q0 -1.09375 -0.65625 -1.71875q-0.65625 -0.640625 -1.828125 -0.640625q-0.84375 0 -1.609375 0.28125q-0.75 0.265625 -1.671875 1.0l-0.8125 -1.046875q1.875 -1.5625 4.078125 -1.5625q1.90625 0 2.984375 0.984375q1.09375 0.984375 1.09375 2.625q0 1.296875 -0.71875 2.5625q-0.71875 1.25 -2.71875 3.1875l-2.96875 2.90625l0 0.078125l6.984375 0l0 1.421875z" fill-rule="nonzero"></path><path fill="#000000" fill-opacity="0.0" d="m195.33333 266.54874l524.4095 0" fill-rule="nonzero"></path><path stroke="#000000" stroke-width="2.0" stroke-linejoin="round" stroke-linecap="butt" d="m195.33333 266.54874l524.4095 0" fill-rule="nonzero"></path><path fill="#000000" fill-opacity="0.0" d="m385.26398 267.3627l0 51.275574" fill-rule="nonzero"></path><path stroke="#000000" stroke-width="2.0" stroke-linejoin="round" stroke-linecap="butt" d="m385.26398 267.3627l0 51.275574" fill-rule="nonzero"></path><path fill="#000000" fill-opacity="0.0" d="m457.54196 214.87961l0 51.275604" fill-rule="nonzero"></path><path stroke="#000000" stroke-width="2.0" stroke-linejoin="round" stroke-linecap="butt" d="m457.54196 214.87961l0 51.275604" fill-rule="nonzero"></path><path fill="#9fc5e8" d="m294.34222 334.10587l113.63782 0l0 31.716553l-113.63782 0z" fill-rule="nonzero"></path><path stroke="#000000" stroke-width="2.0" stroke-linejoin="round" stroke-linecap="butt" d="m294.34222 334.10587l113.63782 0l0 31.716553l-113.63782 0z" fill-rule="nonzero"></path><path fill="#000000" d="m343.49872 351.2435l0 5.640625l-1.578125 0l0 -13.5625l3.71875 0q2.5 0 3.6875 0.953125q1.203125 0.953125 1.203125 2.875q0 2.6875 -2.734375 3.640625l3.6875 6.09375l-1.859375 0l-3.296875 -5.640625l-2.828125 0zm0 -1.359375l2.171875 0q1.671875 0 2.4375 -0.65625q0.78125 -0.671875 0.78125 -2.0q0 -1.34375 -0.796875 -1.9375q-0.78125 -0.59375 -2.53125 -0.59375l-2.0625 0l0 5.1875zm14.735748 7.0l-1.515625 0l0 -9.671875q0 -1.203125 0.078125 -2.28125q-0.1875 0.203125 -0.4375 0.421875q-0.234375 0.203125 -2.203125 1.796875l-0.8125 -1.0625l3.578125 -2.765625l1.3125 0l0 13.5625z" fill-rule="nonzero"></path><path fill="#000000" fill-opacity="0.0" d="m606.10834 208.47292l124.91333 0l0 26.078735l-124.91333 0z" fill-rule="nonzero"></path><path fill="#000000" d="m624.5302 235.39291l-7.5625 0l0 -13.5625l7.5625 0l0 1.40625l-5.984375 0l0 4.359375l5.625 0l0 1.390625l-5.625 0l0 5.0l5.984375 0l0 1.40625zm5.0319214 -5.203125l-3.53125 -4.96875l1.75 0l2.6875 3.90625l2.671875 -3.90625l1.734375 0l-3.53125 4.96875l3.71875 5.203125l-1.75 0l-2.84375 -4.125l-2.875 4.125l-1.75 0l3.71875 -5.203125zm10.618286 4.125q0.40625 0 0.78125 -0.0625q0.390625 -0.0625 0.609375 -0.125l0 1.171875q-0.25 0.125 -0.75 0.203125q-0.484375 0.078125 -0.875 0.078125q-2.9375 0 -2.9375 -3.109375l0 -6.046875l-1.46875 0l0 -0.75l1.46875 -0.640625l0.640625 -2.171875l0.890625 0l0 2.359375l2.953125 0l0 1.203125l-2.953125 0l0 5.984375q0 0.921875 0.4375 1.421875q0.4375 0.484375 1.203125 0.484375zm7.5861206 1.265625q-2.25 0 -3.5625 -1.375q-1.296875 -1.375 -1.296875 -3.8125q0 -2.453125 1.203125 -3.90625q1.21875 -1.453125 3.265625 -1.453125q1.90625 0 3.015625 1.265625q1.125 1.25 1.125 3.3125l0 0.96875l-7.015625 0q0.046875 1.796875 0.90625 2.734375q0.859375 0.921875 2.421875 0.921875q1.640625 0 3.25 -0.6875l0 1.375q-0.8125 0.34375 -1.546875 0.5q-0.734375 0.15625 -1.765625 0.15625zm-0.40625 -9.25q-1.234375 0 -1.96875 0.796875q-0.71875 0.796875 -0.84375 2.203125l5.3125 0q0 -1.453125 -0.65625 -2.21875q-0.640625 -0.78125 -1.84375 -0.78125zm11.216858 -1.296875q0.6875 0 1.21875 0.109375l-0.203125 1.4375q-0.640625 -0.140625 -1.125 -0.140625q-1.234375 0 -2.109375 1.0q-0.875 1.0 -0.875 2.5l0 5.453125l-1.53125 0l0 -10.171875l1.265625 0l0.171875 1.890625l0.078125 0q0.5625 -1.0 1.359375 -1.53125q0.796875 -0.546875 1.75 -0.546875zm9.943665 10.359375l0 -6.578125q0 -1.25 -0.578125 -1.859375q-0.5625 -0.609375 -1.765625 -0.609375q-1.59375 0 -2.34375 0.875q-0.734375 0.859375 -0.734375 2.84375l0 5.328125l-1.53125 0l0 -10.171875l1.25 0l0.25 1.390625l0.0625 0q0.484375 -0.75 1.328125 -1.15625q0.859375 -0.421875 1.90625 -0.421875q1.84375 0 2.765625 0.890625q0.921875 0.890625 0.921875 2.828125l0 6.640625l-1.53125 0zm10.747498 0l-0.3125 -1.453125l-0.078125 0q-0.75 0.96875 -1.515625 1.3125q-0.75 0.328125 -1.890625 0.328125q-1.5 0 -2.359375 -0.78125q-0.859375 -0.78125 -0.859375 -2.21875q0 -3.078125 4.921875 -3.234375l1.734375 -0.046875l0 -0.625q0 -1.203125 -0.515625 -1.765625q-0.515625 -0.578125 -1.65625 -0.578125q-1.265625 0 -2.875 0.78125l-0.46875 -1.1875q0.75 -0.40625 1.640625 -0.625q0.90625 -0.234375 1.796875 -0.234375q1.828125 0 2.703125 0.8125q0.875 0.796875 0.875 2.578125l0 6.9375l-1.140625 0zm-3.484375 -1.078125q1.4375 0 2.25 -0.78125q0.828125 -0.796875 0.828125 -2.21875l0 -0.921875l-1.53125 0.0625q-1.84375 0.0625 -2.65625 0.578125q-0.8125 0.5 -0.8125 1.5625q0 0.84375 0.5 1.28125q0.515625 0.4375 1.421875 0.4375zm9.141357 1.078125l-1.53125 0l0 -14.4375l1.53125 0l0 14.4375z" fill-rule="nonzero"></path><path fill="#000000" d="m627.56146 257.3929l-1.796875 0l-7.40625 -11.390625l-0.078125 0q0.15625 2.015625 0.15625 3.6875l0 7.703125l-1.46875 0l0 -13.5625l1.78125 0l7.40625 11.328125l0.0625 0q-0.015625 -0.25 -0.078125 -1.609375q-0.0625 -1.359375 -0.046875 -1.9375l0 -7.78125l1.46875 0l0 13.5625zm7.5338135 0.1875q-2.25 0 -3.5625 -1.375q-1.296875 -1.375 -1.296875 -3.8125q0 -2.453125 1.203125 -3.90625q1.21875 -1.453125 3.265625 -1.453125q1.90625 0 3.015625 1.265625q1.125 1.25 1.125 3.3125l0 0.96875l-7.015625 0q0.046875 1.796875 0.90625 2.734375q0.859375 0.921875 2.421875 0.921875q1.640625 0 3.25 -0.6875l0 1.375q-0.8125 0.34375 -1.546875 0.5q-0.734375 0.15625 -1.765625 0.15625zm-0.40625 -9.25q-1.234375 0 -1.96875 0.796875q-0.71875 0.796875 -0.84375 2.203125l5.3125 0q0 -1.453125 -0.65625 -2.21875q-0.640625 -0.78125 -1.84375 -0.78125zm9.873047 7.984375q0.40625 0 0.78125 -0.0625q0.390625 -0.0625 0.609375 -0.125l0 1.171875q-0.25 0.125 -0.75 0.203125q-0.484375 0.078125 -0.875 0.078125q-2.9375 0 -2.9375 -3.109375l0 -6.046875l-1.46875 0l0 -0.75l1.46875 -0.640625l0.640625 -2.171875l0.890625 0l0 2.359375l2.953125 0l0 1.203125l-2.953125 0l0 5.984375q0 0.921875 0.4375 1.421875q0.4375 0.484375 1.203125 0.484375zm11.601807 1.078125l-1.859375 -5.96875q-0.1875 -0.546875 -0.671875 -2.484375l-0.0625 0q-0.375 1.625 -0.65625 2.5l-1.921875 5.953125l-1.78125 0l-2.765625 -10.171875l1.609375 0q0.984375 3.828125 1.5 5.84375q0.515625 2.0 0.59375 2.6875l0.0625 0q0.109375 -0.515625 0.328125 -1.359375q0.234375 -0.84375 0.40625 -1.328125l1.859375 -5.84375l1.671875 0l1.8125 5.84375q0.515625 1.59375 0.703125 2.671875l0.078125 0q0.03125 -0.328125 0.1875 -1.015625q0.171875 -0.703125 1.953125 -7.5l1.59375 0l-2.8125 10.171875l-1.828125 0zm14.980164 -5.09375q0 2.484375 -1.25 3.890625q-1.25 1.390625 -3.453125 1.390625q-1.375 0 -2.4375 -0.640625q-1.046875 -0.640625 -1.625 -1.828125q-0.578125 -1.203125 -0.578125 -2.8125q0 -2.484375 1.234375 -3.875q1.25 -1.390625 3.46875 -1.390625q2.125 0 3.375 1.421875q1.265625 1.421875 1.265625 3.84375zm-7.75 0q0 1.953125 0.78125 2.96875q0.78125 1.015625 2.296875 1.015625q1.515625 0 2.296875 -1.015625q0.78125 -1.015625 0.78125 -2.96875q0 -1.9375 -0.78125 -2.9375q-0.78125 -1.015625 -2.3125 -1.015625q-1.515625 0 -2.296875 1.0q-0.765625 0.984375 -0.765625 2.953125zm14.877808 -5.265625q0.6875 0 1.21875 0.109375l-0.203125 1.4375q-0.640625 -0.140625 -1.125 -0.140625q-1.234375 0 -2.109375 1.0q-0.875 1.0 -0.875 2.5l0 5.453125l-1.53125 0l0 -10.171875l1.265625 0l0.171875 1.890625l0.078125 0q0.5625 -1.0 1.359375 -1.53125q0.796875 -0.546875 1.75 -0.546875zm4.5061646 5.15625q0.390625 -0.5625 1.21875 -1.484375l3.28125 -3.484375l1.828125 0l-4.125 4.34375l4.40625 5.828125l-1.859375 0l-3.59375 -4.8125l-1.15625 1.015625l0 3.796875l-1.515625 0l0 -14.4375l1.515625 0l0 7.65625q0 0.515625 -0.078125 1.578125l0.078125 0z" fill-rule="nonzero"></path><path fill="#000000" fill-opacity="0.0" d="m549.3962 267.16522l0 51.275604" fill-rule="nonzero"></path><path stroke="#000000" stroke-width="2.0" stroke-linejoin="round" stroke-linecap="butt" d="m549.3962 267.16522l0 51.275604" fill-rule="nonzero"></path><path fill="#000000" fill-opacity="0.0" d="m385.26398 380.96722l0 51.275604" fill-rule="nonzero"></path><path stroke="#000000" stroke-width="2.0" stroke-linejoin="round" stroke-linecap="butt" d="m385.26398 380.96722l0 51.275604" fill-rule="nonzero"></path><path fill="#000000" fill-opacity="0.0" d="m549.3962 380.96628l0 51.275604" fill-rule="nonzero"></path><path stroke="#000000" stroke-width="2.0" stroke-linejoin="round" stroke-linecap="butt" d="m549.3962 380.96628l0 51.275604" fill-rule="nonzero"></path><path fill="#000000" fill-opacity="0.0" d="m606.10834 374.1609l124.91333 0l0 26.078735l-124.91333 0z" fill-rule="nonzero"></path><path fill="#000000" d="m621.1552 401.08087l-1.578125 0l0 -12.15625l-4.296875 0l0 -1.40625l10.15625 0l0 1.40625l-4.28125 0l0 12.15625zm10.196045 0.1875q-2.25 0 -3.5625 -1.375q-1.296875 -1.375 -1.296875 -3.8125q0 -2.453125 1.203125 -3.90625q1.21875 -1.453125 3.265625 -1.453125q1.90625 0 3.015625 1.265625q1.125 1.25 1.125 3.3125l0 0.96875l-7.015625 0q0.046875 1.796875 0.90625 2.734375q0.859375 0.921875 2.421875 0.921875q1.640625 0 3.25 -0.6875l0 1.375q-0.8125 0.34375 -1.546875 0.5q-0.734375 0.15625 -1.765625 0.15625zm-0.40625 -9.25q-1.234375 0 -1.96875 0.796875q-0.71875 0.796875 -0.84375 2.203125l5.3125 0q0 -1.453125 -0.65625 -2.21875q-0.640625 -0.78125 -1.84375 -0.78125zm13.544922 9.0625l0 -6.578125q0 -1.25 -0.578125 -1.859375q-0.5625 -0.609375 -1.765625 -0.609375q-1.59375 0 -2.34375 0.875q-0.734375 0.859375 -0.734375 2.84375l0 5.328125l-1.53125 0l0 -10.171875l1.25 0l0.25 1.390625l0.0625 0q0.484375 -0.75 1.328125 -1.15625q0.859375 -0.421875 1.90625 -0.421875q1.84375 0 2.765625 0.890625q0.921875 0.890625 0.921875 2.828125l0 6.640625l-1.53125 0zm10.747498 0l-0.3125 -1.453125l-0.078125 0q-0.75 0.96875 -1.515625 1.3125q-0.75 0.328125 -1.890625 0.328125q-1.5 0 -2.359375 -0.78125q-0.859375 -0.78125 -0.859375 -2.21875q0 -3.078125 4.921875 -3.234375l1.734375 -0.046875l0 -0.625q0 -1.203125 -0.515625 -1.765625q-0.515625 -0.578125 -1.65625 -0.578125q-1.265625 0 -2.875 0.78125l-0.46875 -1.1875q0.75 -0.40625 1.640625 -0.625q0.90625 -0.234375 1.796875 -0.234375q1.828125 0 2.703125 0.8125q0.875 0.796875 0.875 2.578125l0 6.9375l-1.140625 0zm-3.484375 -1.078125q1.4375 0 2.25 -0.78125q0.828125 -0.796875 0.828125 -2.21875l0 -0.921875l-1.53125 0.0625q-1.84375 0.0625 -2.65625 0.578125q-0.8125 0.5 -0.8125 1.5625q0 0.84375 0.5 1.28125q0.515625 0.4375 1.421875 0.4375zm14.563232 1.078125l0 -6.578125q0 -1.25 -0.578125 -1.859375q-0.5625 -0.609375 -1.765625 -0.609375q-1.59375 0 -2.34375 0.875q-0.734375 0.859375 -0.734375 2.84375l0 5.328125l-1.53125 0l0 -10.171875l1.25 0l0.25 1.390625l0.0625 0q0.484375 -0.75 1.328125 -1.15625q0.859375 -0.421875 1.90625 -0.421875q1.84375 0 2.765625 0.890625q0.921875 0.890625 0.921875 2.828125l0 6.640625l-1.53125 0zm7.7787476 -1.078125q0.40625 0 0.78125 -0.0625q0.390625 -0.0625 0.609375 -0.125l0 1.171875q-0.25 0.125 -0.75 0.203125q-0.484375 0.078125 -0.875 0.078125q-2.9375 0 -2.9375 -3.109375l0 -6.046875l-1.46875 0l0 -0.75l1.46875 -0.640625l0.640625 -2.171875l0.890625 0l0 2.359375l2.953125 0l0 1.203125l-2.953125 0l0 5.984375q0 0.921875 0.4375 1.421875q0.4375 0.484375 1.203125 0.484375z" fill-rule="nonzero"></path><path fill="#000000" d="m627.56146 423.08087l-1.796875 0l-7.40625 -11.390625l-0.078125 0q0.15625 2.015625 0.15625 3.6875l0 7.703125l-1.46875 0l0 -13.5625l1.78125 0l7.40625 11.328125l0.0625 0q-0.015625 -0.25 -0.078125 -1.609375q-0.0625 -1.359375 -0.046875 -1.9375l0 -7.78125l1.46875 0l0 13.5625zm7.5338135 0.1875q-2.25 0 -3.5625 -1.375q-1.296875 -1.375 -1.296875 -3.8125q0 -2.453125 1.203125 -3.90625q1.21875 -1.453125 3.265625 -1.453125q1.90625 0 3.015625 1.265625q1.125 1.25 1.125 3.3125l0 0.96875l-7.015625 0q0.046875 1.796875 0.90625 2.734375q0.859375 0.921875 2.421875 0.921875q1.640625 0 3.25 -0.6875l0 1.375q-0.8125 0.34375 -1.546875 0.5q-0.734375 0.15625 -1.765625 0.15625zm-0.40625 -9.25q-1.234375 0 -1.96875 0.796875q-0.71875 0.796875 -0.84375 2.203125l5.3125 0q0 -1.453125 -0.65625 -2.21875q-0.640625 -0.78125 -1.84375 -0.78125zm9.873047 7.984375q0.40625 0 0.78125 -0.0625q0.390625 -0.0625 0.609375 -0.125l0 1.171875q-0.25 0.125 -0.75 0.203125q-0.484375 0.078125 -0.875 0.078125q-2.9375 0 -2.9375 -3.109375l0 -6.046875l-1.46875 0l0 -0.75l1.46875 -0.640625l0.640625 -2.171875l0.890625 0l0 2.359375l2.953125 0l0 1.203125l-2.953125 0l0 5.984375q0 0.921875 0.4375 1.421875q0.4375 0.484375 1.203125 0.484375zm11.601807 1.078125l-1.859375 -5.96875q-0.1875 -0.546875 -0.671875 -2.484375l-0.0625 0q-0.375 1.625 -0.65625 2.5l-1.921875 5.953125l-1.78125 0l-2.765625 -10.171875l1.609375 0q0.984375 3.828125 1.5 5.84375q0.515625 2.0 0.59375 2.6875l0.0625 0q0.109375 -0.515625 0.328125 -1.359375q0.234375 -0.84375 0.40625 -1.328125l1.859375 -5.84375l1.671875 0l1.8125 5.84375q0.515625 1.59375 0.703125 2.671875l0.078125 0q0.03125 -0.328125 0.1875 -1.015625q0.171875 -0.703125 1.953125 -7.5l1.59375 0l-2.8125 10.171875l-1.828125 0zm14.980164 -5.09375q0 2.484375 -1.25 3.890625q-1.25 1.390625 -3.453125 1.390625q-1.375 0 -2.4375 -0.640625q-1.046875 -0.640625 -1.625 -1.828125q-0.578125 -1.203125 -0.578125 -2.8125q0 -2.484375 1.234375 -3.875q1.25 -1.390625 3.46875 -1.390625q2.125 0 3.375 1.421875q1.265625 1.421875 1.265625 3.84375zm-7.75 0q0 1.953125 0.78125 2.96875q0.78125 1.015625 2.296875 1.015625q1.515625 0 2.296875 -1.015625q0.78125 -1.015625 0.78125 -2.96875q0 -1.9375 -0.78125 -2.9375q-0.78125 -1.015625 -2.3125 -1.015625q-1.515625 0 -2.296875 1.0q-0.765625 0.984375 -0.765625 2.953125zm14.877808 -5.265625q0.6875 0 1.21875 0.109375l-0.203125 1.4375q-0.640625 -0.140625 -1.125 -0.140625q-1.234375 0 -2.109375 1.0q-0.875 1.0 -0.875 2.5l0 5.453125l-1.53125 0l0 -10.171875l1.265625 0l0.171875 1.890625l0.078125 0q0.5625 -1.0 1.359375 -1.53125q0.796875 -0.546875 1.75 -0.546875zm4.5061646 5.15625q0.390625 -0.5625 1.21875 -1.484375l3.28125 -3.484375l1.828125 0l-4.125 4.34375l4.40625 5.828125l-1.859375 0l-3.59375 -4.8125l-1.15625 1.015625l0 3.796875l-1.515625 0l0 -14.4375l1.515625 0l0 7.65625q0 0.515625 -0.078125 1.578125l0.078125 0z" fill-rule="nonzero"></path><path fill="#000000" fill-opacity="0.0" d="m195.33333 432.23672l231.43306 0" fill-rule="nonzero"></path><path stroke="#000000" stroke-width="2.0" stroke-linejoin="round" stroke-linecap="butt" d="m195.33333 432.23672l231.43306 0" fill-rule="nonzero"></path><path fill="#cfe2f3" d="m298.25485 482.74258l105.82675 0l0 44.283478l-105.82675 0z" fill-rule="nonzero"></path><path stroke="#000000" stroke-width="2.0" stroke-linejoin="round" stroke-linecap="butt" d="m298.25485 482.74258l105.82675 0l0 44.283478l-105.82675 0z" fill-rule="nonzero"></path><path fill="#000000" d="m346.80362 498.24182l1.703125 0l-4.890625 13.5625l-1.5625 0l-4.859375 -13.5625l1.671875 0l3.109375 8.78125q0.546875 1.5 0.859375 2.9375q0.328125 -1.5 0.875 -3.0l3.09375 -8.71875zm9.370117 13.5625l-4.609375 -12.03125l-0.078125 0q0.140625 1.4375 0.140625 3.40625l0 8.625l-1.46875 0l0 -13.5625l2.375 0l4.296875 11.1875l0.078125 0l4.328125 -11.1875l2.359375 0l0 13.5625l-1.578125 0l0 -8.734375q0 -1.515625 0.125 -3.265625l-0.0625 0l-4.640625 12.0l-1.265625 0z" fill-rule="nonzero"></path><path fill="#000000" fill-opacity="0.0" d="m351.16684 431.85962l0 51.275604" fill-rule="nonzero"></path><path stroke="#000000" stroke-width="2.0" stroke-linejoin="round" stroke-linecap="butt" d="m351.16684 431.85962l0 51.275604" fill-rule="nonzero"></path><path fill="#cfe2f3" d="m528.3907 483.11914l105.82672 0l0 44.283447l-105.82672 0z" fill-rule="nonzero"></path><path stroke="#000000" stroke-width="2.0" stroke-linejoin="round" stroke-linecap="butt" d="m528.3907 483.11914l105.82672 0l0 44.283447l-105.82672 0z" fill-rule="nonzero"></path><path fill="#000000" d="m576.93945 498.61838l1.703125 0l-4.890625 13.5624695l-1.5625 0l-4.859375 -13.5624695l1.671875 0l3.109375 8.78125q0.546875 1.5 0.859375 2.9375q0.328125 -1.5 0.875 -3.0l3.09375 -8.71875zm9.370117 13.5624695l-4.609375 -12.0312195l-0.078125 0q0.140625 1.4375 0.140625 3.40625l0 8.6249695l-1.46875 0l0 -13.5624695l2.375 0l4.296875 11.1875l0.078125 0l4.328125 -11.1875l2.359375 0l0 13.5624695l-1.578125 0l0 -8.7343445q0 -1.515625 0.125 -3.265625l-0.0625 0l-4.640625 11.9999695l-1.265625 0z" fill-rule="nonzero"></path><path fill="#000000" fill-opacity="0.0" d="m581.3027 432.23618l0 51.275604" fill-rule="nonzero"></path><path stroke="#000000" stroke-width="2.0" stroke-linejoin="round" stroke-linecap="butt" d="m581.3027 432.23618l0 51.275604" fill-rule="nonzero"></path><path fill="#000000" fill-opacity="0.0" d="m488.3158 432.23672l231.43304 0" fill-rule="nonzero"></path><path stroke="#000000" stroke-width="2.0" stroke-linejoin="round" stroke-linecap="butt" d="m488.3158 432.23672l231.43304 0" fill-rule="nonzero"></path><path fill="#000000" fill-opacity="0.0" d="m458.78894 215.16133c0 6.573105 0.80477905 31.2556 0 39.4386c-0.8048096 8.182999 -2.2800293 7.646988 -4.828827 9.659439c-2.548767 2.0124817 -1.342041 1.8786926 -10.463928 2.4153442c-9.121887 0.5366211 -34.74295 -0.939209 -44.267395 0.8044739c-9.524445 1.7436829 -10.732727 3.6211548 -12.879272 9.657623c-2.1465454 6.0364685 0 2.9513245 0 26.561157c0 23.609833 1.4755249 93.63422 0 115.09784c-1.4755249 21.463593 -4.694702 11.537201 -8.853119 13.683746c-4.158386 2.1465454 -11.804443 -1.8777771 -16.097229 -0.8045044c-4.2927856 1.0732727 -7.915436 -1.4752197 -9.659454 7.2441406c-1.743988 8.71933 -0.67041016 37.559906 -0.8044739 45.07187" fill-rule="nonzero"></path><path stroke="#ff9900" stroke-width="4.0" stroke-linejoin="round" stroke-linecap="butt" d="m458.78894 215.16133c0 6.573105 0.80477905 31.2556 0 39.4386c-0.8048096 8.182999 -2.2800293 7.646988 -4.828827 9.659439c-2.548767 2.0124817 -1.342041 1.8786926 -10.463928 2.4153442c-9.121887 0.5366211 -34.74295 -0.939209 -44.267395 0.8044739c-9.524445 1.7436829 -10.732727 3.6211548 -12.879272 9.657623c-2.1465454 6.0364685 0 2.9513245 0 26.561157c0 23.609833 1.4755249 93.63422 0 115.09784c-1.4755249 21.463593 -4.694702 11.537201 -8.853119 13.683746c-4.158386 2.1465454 -11.804443 -1.8777771 -16.097229 -0.8045044c-4.2927856 1.0732727 -7.915436 -1.4752197 -9.659454 7.2441406c-1.743988 8.71933 -0.67041016 37.559906 -0.8044739 45.07187" fill-rule="nonzero"></path><path fill="#000000" fill-opacity="0.0" d="m302.99258 297.81296l96.346466 102.77164" fill-rule="nonzero"></path><path stroke="#ff0000" stroke-width="8.0" stroke-linejoin="round" stroke-linecap="butt" d="m302.99258 297.81296l96.346466 102.77164" fill-rule="nonzero"></path><path fill="#000000" fill-opacity="0.0" d="m399.34067 297.81296l-96.346466 102.77164" fill-rule="nonzero"></path><path stroke="#ff0000" stroke-width="8.0" stroke-linejoin="round" stroke-linecap="butt" d="m399.34067 297.81296l-96.346466 102.77164" fill-rule="nonzero"></path></g></svg>

