<?xml version="1.0" standalone="yes"?>

<svg version="1.1" viewBox="0.0 0.0 960.0 540.0" fill="none" stroke="none" stroke-linecap="square" stroke-miterlimit="10" xmlns="http://www.w3.org/2000/svg" xmlns:xlink="http://www.w3.org/1999/xlink"><clipPath id="gcbb876190_0_29.0"><path d="m0 0l960.0 0l0 540.0l-960.0 0l0 -540.0z" clip-rule="nonzero"></path></clipPath><g clip-path="url(#gcbb876190_0_29.0)"><path fill="#ffffff" d="m0 0l960.0 0l0 540.0l-960.0 0z" fill-rule="nonzero"></path><path fill="#000000" fill-opacity="0.0" d="m32.72441 46.721786l894.55115 0l0 60.125984l-894.55115 0z" fill-rule="nonzero"></path><path fill="#000000" d="m57.083786 91.56178l-0.59375 -2.8125l-0.15625 0q-1.46875 1.859375 -2.953125 2.515625q-1.46875 0.65625 -3.671875 0.65625q-2.9375 0 -4.609375 -1.515625q-1.671875 -1.515625 -1.671875 -4.3125q0 -6.0 9.59375 -6.296875l3.359375 -0.109375l0 -1.21875q0 -2.328125 -1.015625 -3.4375q-1.0 -1.125 -3.203125 -1.125q-2.46875 0 -5.59375 1.515625l-0.921875 -2.28125q1.46875 -0.796875 3.203125 -1.25q1.75 -0.453125 3.5 -0.453125q3.546875 0 5.25 1.578125q1.703125 1.5625 1.703125 5.03125l0 13.515625l-2.21875 0zm-6.78125 -2.109375q2.796875 0 4.390625 -1.53125q1.609375 -1.546875 1.609375 -4.3125l0 -1.78125l-3.0 0.125q-3.578125 0.125 -5.15625 1.109375q-1.578125 0.984375 -1.578125 3.0625q0 1.625 0.984375 2.484375q0.984375 0.84375 2.75 0.84375zm18.353882 2.109375l-2.984375 0l0 -28.109375l2.984375 0l0 28.109375zm9.441391 0l-2.984375 0l0 -28.109375l2.984375 0l0 28.109375zm23.535141 -9.921875q0 4.84375 -2.4375 7.5625q-2.4375 2.71875 -6.734375 2.71875q-2.65625 0 -4.71875 -1.234375q-2.0625 -1.25 -3.1875 -3.578125q-1.109375 -2.34375 -1.109375 -5.46875q0 -4.84375 2.421875 -7.53125q2.421875 -2.703125 6.71875 -2.703125q4.15625 0 6.59375 2.765625q2.453125 2.75 2.453125 7.46875zm-15.078125 0q0 3.796875 1.515625 5.78125q1.515625 1.984375 4.46875 1.984375q2.9375 0 4.453125 -1.96875q1.53125 -1.984375 1.53125 -5.796875q0 -3.765625 -1.53125 -5.71875q-1.515625 -1.96875 -4.5 -1.96875q-2.9375 0 -4.4375 1.9375q-1.5 1.921875 -1.5 5.75zm36.70259 9.921875l-3.625 -11.609375q-0.34375 -1.078125 -1.28125 -4.84375l-0.140625 0q-0.734375 3.15625 -1.265625 4.875l-3.75 11.578125l-3.46875 0l-5.390625 -19.796875l3.140625 0q1.90625 7.453125 2.90625 11.359375q1.015625 3.90625 1.15625 5.25l0.140625 0q0.203125 -1.015625 0.640625 -2.65625q0.453125 -1.640625 0.765625 -2.59375l3.640625 -11.359375l3.25 0l3.546875 11.359375q1.0 3.109375 1.359375 5.21875l0.15625 0q0.0625 -0.640625 0.375 -2.0q0.328125 -1.359375 3.78125 -14.578125l3.09375 0l-5.46875 19.796875l-3.5625 0zm26.347519 5.6875l-16.734375 0l0 -2.359375l16.734375 0l0 2.359375zm15.435165 -5.6875l-0.59375 -2.8125l-0.15625 0q-1.46875 1.859375 -2.953125 2.515625q-1.46875 0.65625 -3.671875 0.65625q-2.9375 0 -4.609375 -1.515625q-1.671875 -1.515625 -1.671875 -4.3125q0 -6.0 9.59375 -6.296875l3.359375 -0.109375l0 -1.21875q0 -2.328125 -1.015625 -3.4375q-1.0 -1.125 -3.203125 -1.125q-2.46875 0 -5.59375 1.515625l-0.921875 -2.28125q1.46875 -0.796875 3.203125 -1.25q1.75 -0.453125 3.5 -0.453125q3.546875 0 5.25 1.578125q1.703125 1.5625 1.703125 5.03125l0 13.515625l-2.21875 0zm-6.78125 -2.109375q2.796875 0 4.390625 -1.53125q1.609375 -1.546875 1.609375 -4.3125l0 -1.78125l-3.0 0.125q-3.578125 0.125 -5.15625 1.109375q-1.578125 0.984375 -1.578125 3.0625q0 1.625 0.984375 2.484375q0.984375 0.84375 2.75 0.84375zm18.182007 -17.6875l0 12.84375q0 2.421875 1.09375 3.609375q1.109375 1.1875 3.453125 1.1875q3.109375 0 4.546875 -1.6875q1.4375 -1.703125 1.4375 -5.546875l0 -10.40625l3.0 0l0 19.796875l-2.46875 0l-0.4375 -2.65625l-0.171875 0q-0.921875 1.46875 -2.5625 2.25q-1.625 0.765625 -3.71875 0.765625q-3.609375 0 -5.40625 -1.71875q-1.796875 -1.71875 -1.796875 -5.484375l0 -12.953125l3.03125 0zm26.488998 17.6875q0.796875 0 1.53125 -0.109375q0.75 -0.125 1.171875 -0.25l0 2.28125q-0.484375 0.234375 -1.4375 0.390625q-0.9375 0.15625 -1.703125 0.15625q-5.75 0 -5.75 -6.046875l0 -11.78125l-2.828125 0l0 -1.453125l2.828125 -1.234375l1.265625 -4.234375l1.734375 0l0 4.59375l5.75 0l0 2.328125l-5.75 0l0 11.65625q0 1.78125 0.84375 2.75q0.859375 0.953125 2.34375 0.953125zm23.865356 -7.8125q0 4.84375 -2.4375 7.5625q-2.4375 2.71875 -6.734375 2.71875q-2.65625 0 -4.71875 -1.234375q-2.0625 -1.25 -3.1875 -3.578125q-1.109375 -2.34375 -1.109375 -5.46875q0 -4.84375 2.421875 -7.53125q2.421875 -2.703125 6.71875 -2.703125q4.15625 0 6.59375 2.765625q2.453125 2.75 2.453125 7.46875zm-15.078125 0q0 3.796875 1.515625 5.78125q1.515625 1.984375 4.46875 1.984375q2.9375 0 4.453125 -1.96875q1.53125 -1.984375 1.53125 -5.796875q0 -3.765625 -1.53125 -5.71875q-1.515625 -1.96875 -4.5 -1.96875q-2.9375 0 -4.4375 1.9375q-1.5 1.921875 -1.5 5.75zm45.780716 9.921875l0 -12.875q0 -2.375 -1.015625 -3.546875q-1.015625 -1.1875 -3.140625 -1.1875q-2.796875 0 -4.140625 1.609375q-1.328125 1.59375 -1.328125 4.9375l0 11.0625l-3.0 0l0 -12.875q0 -2.375 -1.015625 -3.546875q-1.015625 -1.1875 -3.171875 -1.1875q-2.8125 0 -4.125 1.6875q-1.3125 1.6875 -1.3125 5.53125l0 10.390625l-2.984375 0l0 -19.796875l2.4375 0l0.484375 2.703125l0.140625 0q0.84375 -1.4375 2.390625 -2.25q1.546875 -0.8125 3.46875 -0.8125q4.640625 0 6.0625 3.359375l0.140625 0q0.890625 -1.5625 2.5625 -2.453125q1.6875 -0.90625 3.84375 -0.90625q3.359375 0 5.03125 1.71875q1.671875 1.71875 1.671875 5.515625l0 12.921875l-3.0 0zm21.65921 0l-0.59375 -2.8125l-0.15625 0q-1.46875 1.859375 -2.953125 2.515625q-1.46875 0.65625 -3.671875 0.65625q-2.9375 0 -4.609375 -1.515625q-1.671875 -1.515625 -1.671875 -4.3125q0 -6.0 9.59375 -6.296875l3.359375 -0.109375l0 -1.21875q0 -2.328125 -1.015625 -3.4375q-1.0 -1.125 -3.203125 -1.125q-2.46875 0 -5.59375 1.515625l-0.921875 -2.28125q1.46875 -0.796875 3.203125 -1.25q1.75 -0.453125 3.5 -0.453125q3.546875 0 5.25 1.578125q1.703125 1.5625 1.703125 5.03125l0 13.515625l-2.21875 0zm-6.78125 -2.109375q2.796875 0 4.390625 -1.53125q1.609375 -1.546875 1.609375 -4.3125l0 -1.78125l-3.0 0.125q-3.578125 0.125 -5.15625 1.109375q-1.578125 0.984375 -1.578125 3.0625q0 1.625 0.984375 2.484375q0.984375 0.84375 2.75 0.84375zm21.760132 0q0.796875 0 1.53125 -0.109375q0.75 -0.125 1.171875 -0.25l0 2.28125q-0.484375 0.234375 -1.4375 0.390625q-0.9375 0.15625 -1.703125 0.15625q-5.75 0 -5.75 -6.046875l0 -11.78125l-2.828125 0l0 -1.453125l2.828125 -1.234375l1.265625 -4.234375l1.734375 0l0 4.59375l5.75 0l0 2.328125l-5.75 0l0 11.65625q0 1.78125 0.84375 2.75q0.859375 0.953125 2.34375 0.953125zm9.771606 2.109375l-2.984375 0l0 -19.796875l2.984375 0l0 19.796875zm-3.25 -25.171875q0 -1.03125 0.5 -1.5q0.515625 -0.484375 1.28125 -0.484375q0.71875 0 1.234375 0.5q0.53125 0.484375 0.53125 1.484375q0 1.015625 -0.53125 1.515625q-0.515625 0.5 -1.234375 0.5q-0.765625 0 -1.28125 -0.5q-0.5 -0.5 -0.5 -1.515625zm17.613281 25.53125q-4.296875 0 -6.65625 -2.640625q-2.359375 -2.65625 -2.359375 -7.5q0 -4.96875 2.390625 -7.671875q2.390625 -2.703125 6.828125 -2.703125q1.421875 0 2.84375 0.3125q1.4375 0.296875 2.25 0.71875l-0.921875 2.546875q-1.0 -0.40625 -2.171875 -0.65625q-1.171875 -0.265625 -2.078125 -0.265625q-6.03125 0 -6.03125 7.6875q0 3.65625 1.46875 5.609375q1.46875 1.9375 4.359375 1.9375q2.484375 0 5.078125 -1.0625l0 2.65625q-1.984375 1.03125 -5.0 1.03125zm23.333466 5.328125l-16.734375 0l0 -2.359375l16.734375 0l0 2.359375zm6.24765 -5.6875l-2.984375 0l0 -28.109375l2.984375 0l0 28.109375zm21.441406 -20.203125q0 2.53125 -1.421875 4.140625q-1.40625 1.609375 -4.015625 2.15625l0 0.140625q3.1875 0.390625 4.71875 2.015625q1.53125 1.625 1.53125 4.265625q0 3.78125 -2.625 5.8125q-2.609375 2.03125 -7.4375 2.03125q-2.09375 0 -3.84375 -0.3125q-1.734375 -0.3125 -3.375 -1.109375l0 -2.859375q1.71875 0.84375 3.65625 1.296875q1.9375 0.4375 3.671875 0.4375q6.84375 0 6.84375 -5.359375q0 -4.8125 -7.546875 -4.8125l-2.59375 0l0 -2.578125l2.625 0q3.09375 0 4.890625 -1.359375q1.8125 -1.375 1.8125 -3.796875q0 -1.921875 -1.328125 -3.03125q-1.328125 -1.109375 -3.59375 -1.109375q-1.734375 0 -3.28125 0.484375q-1.53125 0.46875 -3.5 1.734375l-1.515625 -2.03125q1.625 -1.28125 3.75 -2.015625q2.125 -0.734375 4.46875 -0.734375q3.84375 0 5.96875 1.765625q2.140625 1.765625 2.140625 4.828125zm18.530884 20.203125l-0.59375 -2.8125l-0.15625 0q-1.46875 1.859375 -2.953125 2.515625q-1.46875 0.65625 -3.671875 0.65625q-2.9375 0 -4.609375 -1.515625q-1.671875 -1.515625 -1.671875 -4.3125q0 -6.0 9.59375 -6.296875l3.359375 -0.109375l0 -1.21875q0 -2.328125 -1.015625 -3.4375q-1.0 -1.125 -3.203125 -1.125q-2.46875 0 -5.59375 1.515625l-0.921875 -2.28125q1.46875 -0.796875 3.203125 -1.25q1.75 -0.453125 3.5 -0.453125q3.546875 0 5.25 1.578125q1.703125 1.5625 1.703125 5.03125l0 13.515625l-2.21875 0zm-6.78125 -2.109375q2.796875 0 4.390625 -1.53125q1.609375 -1.546875 1.609375 -4.3125l0 -1.78125l-3.0 0.125q-3.578125 0.125 -5.15625 1.109375q-1.578125 0.984375 -1.578125 3.0625q0 1.625 0.984375 2.484375q0.984375 0.84375 2.75 0.84375zm31.572632 -17.6875l0 1.890625l-3.671875 0.4375q0.5 0.625 0.890625 1.65625q0.40625 1.015625 0.40625 2.296875q0 2.90625 -1.984375 4.640625q-1.984375 1.734375 -5.453125 1.734375q-0.890625 0 -1.671875 -0.140625q-1.90625 1.015625 -1.90625 2.546875q0 0.8125 0.65625 1.203125q0.671875 0.390625 2.3125 0.390625l3.5 0q3.21875 0 4.9375 1.359375q1.71875 1.34375 1.71875 3.9375q0 3.28125 -2.640625 5.0q-2.625 1.734375 -7.6875 1.734375q-3.875 0 -5.984375 -1.453125q-2.109375 -1.4375 -2.109375 -4.078125q0 -1.8125 1.15625 -3.125q1.15625 -1.3125 3.25 -1.78125q-0.75 -0.34375 -1.265625 -1.0625q-0.515625 -0.734375 -0.515625 -1.6875q0 -1.09375 0.578125 -1.90625q0.578125 -0.8125 1.828125 -1.5625q-1.546875 -0.640625 -2.515625 -2.15625q-0.953125 -1.515625 -0.953125 -3.46875q0 -3.25 1.9375 -5.0q1.953125 -1.765625 5.53125 -1.765625q1.5625 0 2.796875 0.359375l6.859375 0zm-15.796875 23.125q0 1.609375 1.359375 2.4375q1.359375 0.828125 3.875 0.828125q3.78125 0 5.59375 -1.125q1.8125 -1.125 1.8125 -3.0625q0 -1.609375 -1.0 -2.234375q-0.984375 -0.625 -3.71875 -0.625l-3.609375 0q-2.03125 0 -3.171875 0.96875q-1.140625 0.984375 -1.140625 2.8125zm1.625 -16.78125q0 2.078125 1.171875 3.140625q1.171875 1.0625 3.28125 1.0625q4.390625 0 4.390625 -4.265625q0 -4.453125 -4.453125 -4.453125q-2.109375 0 -3.25 1.140625q-1.140625 1.125 -1.140625 3.375zm26.778381 13.8125q-4.390625 0 -6.9375 -2.671875q-2.53125 -2.671875 -2.53125 -7.421875q0 -4.796875 2.359375 -7.609375q2.359375 -2.8125 6.328125 -2.8125q3.71875 0 5.890625 2.453125q2.171875 2.4375 2.171875 6.453125l0 1.890625l-13.640625 0q0.09375 3.484375 1.765625 5.296875q1.671875 1.796875 4.703125 1.796875q3.1875 0 6.3125 -1.328125l0 2.671875q-1.578125 0.6875 -3.0 0.984375q-1.421875 0.296875 -3.421875 0.296875zm-0.8125 -18.015625q-2.390625 0 -3.8125 1.5625q-1.40625 1.546875 -1.671875 4.296875l10.359375 0q0 -2.84375 -1.265625 -4.34375q-1.265625 -1.515625 -3.609375 -1.515625zm26.942383 17.65625l0 -12.8125q0 -2.421875 -1.109375 -3.609375q-1.09375 -1.1875 -3.453125 -1.1875q-3.109375 0 -4.5625 1.6875q-1.4375 1.671875 -1.4375 5.53125l0 10.390625l-2.984375 0l0 -19.796875l2.4375 0l0.484375 2.703125l0.140625 0q0.921875 -1.453125 2.578125 -2.25q1.671875 -0.8125 3.703125 -0.8125q3.578125 0 5.390625 1.71875q1.8125 1.71875 1.8125 5.515625l0 12.921875l-3.0 0zm15.754639 -2.109375q0.796875 0 1.53125 -0.109375q0.75 -0.125 1.171875 -0.25l0 2.28125q-0.484375 0.234375 -1.4375 0.390625q-0.9375 0.15625 -1.703125 0.15625q-5.75 0 -5.75 -6.046875l0 -11.78125l-2.828125 0l0 -1.453125l2.828125 -1.234375l1.265625 -4.234375l1.734375 0l0 4.59375l5.75 0l0 2.328125l-5.75 0l0 11.65625q0 1.78125 0.84375 2.75q0.859375 0.953125 2.34375 0.953125zm20.255981 7.796875l-16.734375 0l0 -2.359375l16.734375 0l0 2.359375zm12.185181 -23.15625l-5.046875 0l0 17.46875l-3.0 0l0 -17.46875l-3.53125 0l0 -1.359375l3.53125 -1.078125l0 -1.109375q0 -7.296875 6.375 -7.296875q1.578125 0 3.6875 0.640625l-0.78125 2.390625q-1.734375 -0.546875 -2.953125 -0.546875q-1.703125 0 -2.515625 1.125q-0.8125 1.125 -0.8125 3.625l0 1.28125l5.046875 0l0 2.328125zm15.8993225 17.46875l-0.59375 -2.8125l-0.15625 0q-1.46875 1.859375 -2.9531555 2.515625q-1.46875 0.65625 -3.671875 0.65625q-2.9375 0 -4.609375 -1.515625q-1.671875 -1.515625 -1.671875 -4.3125q0 -6.0 9.59375 -6.296875l3.3594055 -0.109375l0 -1.21875q0 -2.328125 -1.015625 -3.4375q-1.0 -1.125 -3.2031555 -1.125q-2.46875 0 -5.59375 1.515625l-0.921875 -2.28125q1.46875 -0.796875 3.203125 -1.25q1.75 -0.453125 3.5 -0.453125q3.5469055 0 5.2500305 1.578125q1.703125 1.5625 1.703125 5.03125l0 13.515625l-2.21875 0zm-6.7812805 -2.109375q2.796875 0 4.3906555 -1.53125q1.609375 -1.546875 1.609375 -4.3125l0 -1.78125l-3.0000305 0.125q-3.578125 0.125 -5.15625 1.109375q-1.578125 0.984375 -1.578125 3.0625q0 1.625 0.984375 2.484375q0.984375 0.84375 2.75 0.84375zm18.353912 2.109375l-2.984375 0l0 -19.796875l2.984375 0l0 19.796875zm-3.25 -25.171875q0 -1.03125 0.5 -1.5q0.515625 -0.484375 1.28125 -0.484375q0.71875 0 1.234375 0.5q0.53125 0.484375 0.53125 1.484375q0 1.015625 -0.53125 1.515625q-0.515625 0.5 -1.234375 0.5q-0.765625 0 -1.28125 -0.5q-0.5 -0.5 -0.5 -1.515625zm12.691406 25.171875l-2.984375 0l0 -28.109375l2.984375 0l0 28.109375zm23.535156 -9.921875q0 4.84375 -2.4375 7.5625q-2.4375 2.71875 -6.734375 2.71875q-2.65625 0 -4.71875 -1.234375q-2.0625 -1.25 -3.1875 -3.578125q-1.109375 -2.34375 -1.109375 -5.46875q0 -4.84375 2.421875 -7.53125q2.421875 -2.703125 6.71875 -2.703125q4.15625 0 6.59375 2.765625q2.453125 2.75 2.453125 7.46875zm-15.078125 0q0 3.796875 1.515625 5.78125q1.515625 1.984375 4.46875 1.984375q2.9375 0 4.453125 -1.96875q1.53125 -1.984375 1.53125 -5.796875q0 -3.765625 -1.53125 -5.71875q-1.515625 -1.96875 -4.5 -1.96875q-2.9375 0 -4.4375 1.9375q-1.5 1.921875 -1.5 5.75zm24.87445 9.921875l-7.515625 -19.796875l3.21875 0l4.265625 11.734375q1.4375 4.125 1.6875 5.359375l0.15625 0q0.1875 -0.96875 1.25 -3.96875q1.0625 -3.015625 4.75 -13.125l3.203125 0l-7.515625 19.796875l-3.5 0zm22.73175 0.359375q-4.390625 0 -6.9375 -2.671875q-2.53125 -2.671875 -2.53125 -7.421875q0 -4.796875 2.359375 -7.609375q2.359375 -2.8125 6.328125 -2.8125q3.71875 0 5.890625 2.453125q2.171875 2.4375 2.171875 6.453125l0 1.890625l-13.640625 0q0.09375 3.484375 1.765625 5.296875q1.671875 1.796875 4.703125 1.796875q3.1875 0 6.3125 -1.328125l0 2.671875q-1.578125 0.6875 -3.0 0.984375q-1.421875 0.296875 -3.421875 0.296875zm-0.8125 -18.015625q-2.390625 0 -3.8125 1.5625q-1.40625 1.546875 -1.671875 4.296875l10.359375 0q0 -2.84375 -1.265625 -4.34375q-1.265625 -1.515625 -3.609375 -1.515625zm22.426758 -2.5q1.3125 0 2.359375 0.203125l-0.40625 2.796875q-1.234375 -0.28125 -2.171875 -0.28125q-2.40625 0 -4.125 1.953125q-1.703125 1.953125 -1.703125 4.859375l0 10.625l-2.984375 0l0 -19.796875l2.46875 0l0.34375 3.65625l0.140625 0q1.109375 -1.921875 2.65625 -2.96875q1.5625 -1.046875 3.421875 -1.046875zm14.87146 4.65625l0 -2.46875l16.796875 0l0 2.46875l-16.796875 0zm0 7.390625l0 -2.484375l16.796875 0l0 2.484375l-16.796875 0zm40.649292 8.109375l-3.078125 0l0 -23.6875l-8.359375 0l0 -2.71875l19.796875 0l0 2.71875l-8.359375 0l0 23.6875zm21.103882 -20.15625q1.3125 0 2.359375 0.203125l-0.40625 2.796875q-1.234375 -0.28125 -2.171875 -0.28125q-2.40625 0 -4.125 1.953125q-1.703125 1.953125 -1.703125 4.859375l0 10.625l-2.984375 0l0 -19.796875l2.46875 0l0.34375 3.65625l0.140625 0q1.109375 -1.921875 2.65625 -2.96875q1.5625 -1.046875 3.421875 -1.046875zm9.018677 0.359375l0 12.84375q0 2.421875 1.09375 3.609375q1.109375 1.1875 3.453125 1.1875q3.109375 0 4.546875 -1.6875q1.4375 -1.703125 1.4375 -5.546875l0 -10.40625l3.0 0l0 19.796875l-2.46875 0l-0.4375 -2.65625l-0.171875 0q-0.921875 1.46875 -2.5625 2.25q-1.625 0.765625 -3.71875 0.765625q-3.609375 0 -5.40625 -1.71875q-1.796875 -1.71875 -1.796875 -5.484375l0 -12.953125l3.03125 0zm28.457764 20.15625q-4.390625 0 -6.9375 -2.671875q-2.53125 -2.671875 -2.53125 -7.421875q0 -4.796875 2.359375 -7.609375q2.359375 -2.8125 6.328125 -2.8125q3.71875 0 5.890625 2.453125q2.171875 2.4375 2.171875 6.453125l0 1.890625l-13.640625 0q0.09375 3.484375 1.765625 5.296875q1.671875 1.796875 4.703125 1.796875q3.1875 0 6.3125 -1.328125l0 2.671875q-1.578125 0.6875 -3.0 0.984375q-1.421875 0.296875 -3.421875 0.296875zm-0.8125 -18.015625q-2.390625 0 -3.8125 1.5625q-1.40625 1.546875 -1.671875 4.296875l10.359375 0q0 -2.84375 -1.265625 -4.34375q-1.265625 -1.515625 -3.609375 -1.515625z" fill-rule="nonzero"></path><path fill="#efefef" d="m177.53198 337.9623l174.36221 0l0 191.02365l-174.36221 0z" fill-rule="nonzero"></path><path stroke="#000000" stroke-width="2.0" stroke-linejoin="round" stroke-linecap="butt" d="m177.53198 337.9623l174.36221 0l0 191.02365l-174.36221 0z" fill-rule="nonzero"></path><path fill="#cfe2f3" d="m387.35825 152.26485l0 0c-1.7937622 -7.762451 4.0954895 -15.446793 15.168793 -19.792282c11.073273 -4.3455048 25.38852 -4.5900497 36.871277 -0.62986755l0 0c4.067566 -4.5134125 11.51236 -7.629608 20.082489 -8.405998c8.570129 -0.7763977 17.259003 0.8781967 23.438416 4.463295l0 0c3.4650269 -4.092148 10.268677 -6.841545 17.996643 -7.27256c7.7279663 -0.43102264 15.28653 1.5173264 19.993622 5.153679l0 0c6.260071 -4.3376617 16.21997 -6.163994 25.570068 -4.6887436c9.350037 1.4752579 16.410889 5.987137 18.127258 11.583321l0 0c7.6696777 1.2319183 14.05835 4.3636017 17.51538 8.5859375c3.4570312 4.222336 3.6433105 9.121109 0.5107422 13.430649l0 0c7.552368 5.7881775 9.319092 13.5008545 4.640808 20.259796c-4.6783447 6.758957 -15.098694 11.548706 -27.372559 12.581818c-0.08648682 6.343506 -5.994446 12.164246 -15.446716 15.218628c-9.452209 3.0543823 -20.972717 2.8654633 -30.121033 -0.493927c-3.8966675 7.597458 -14.864532 13.187576 -28.16504 14.355255c-13.300507 1.1676636 -26.549286 -2.2964478 -34.0224 -8.895737c-9.160431 3.2528076 -20.152222 4.1898346 -30.49582 2.5997162c-10.343597 -1.5901184 -19.167694 -5.573456 -24.48175 -11.051422l0 0c-9.36084 0.6450348 -18.411469 -2.2108612 -22.660095 -7.150345c-4.248657 -4.9394836 -2.790863 -10.911041 3.6498718 -14.951004l0 0c-8.350098 -2.894043 -12.61084 -8.636795 -10.560394 -14.233627c2.050476 -5.596817 9.947449 -9.779465 19.573029 -10.366852z" fill-rule="nonzero"></path><path fill="#000000" fill-opacity="0.0" d="m378.16055 177.16449l0 0c3.9404602 1.3657074 8.492584 1.9852295 13.045227 1.7753754m5.9629517 20.326477c1.9577942 -0.13491821 3.8768005 -0.42060852 5.70755 -0.8497009m49.267303 9.301056c-1.3769836 -1.2159729 -2.5298767 -2.5153656 -3.4390259 -3.8759918m65.628815 -1.5837555l0 0c0.7104492 -1.3851318 1.1707153 -2.81073 1.37323 -4.253006m44.19281 -10.471161c0.09210205 -6.753647 -6.421997 -12.937347 -16.744324 -15.895035m39.47589 -16.945862c-1.6716919 2.2997437 -4.223694 4.339813 -7.4559326 5.960251m-10.5686035 -27.977448l0 0c0.28479004 0.9286804 0.41662598 1.8713379 0.39361572 2.814865m-44.09027 -9.70916l0 0c-1.5615845 1.0820312 -2.8481445 2.291191 -3.81958 3.5898209m-34.17102 -1.4714127l0 0c-0.83218384 0.9827957 -1.4536133 2.0227737 -1.8499451 3.095955m-41.6716 0.846817l0 0c2.4297485 0.8379822 4.6776123 1.8465576 6.694153 3.0036163m-58.73355 17.418655l0 0c0.2472229 1.0698547 0.6378479 2.1265411 1.1682129 3.1601257" fill-rule="nonzero"></path><path stroke="#000000" stroke-width="2.0" stroke-linejoin="round" stroke-linecap="butt" d="m387.35825 152.26485l0 0c-1.7937622 -7.762451 4.0954895 -15.446793 15.168793 -19.792282c11.073273 -4.3455048 25.38852 -4.5900497 36.871277 -0.62986755l0 0c4.067566 -4.5134125 11.51236 -7.629608 20.082489 -8.405998c8.570129 -0.7763977 17.259003 0.8781967 23.438416 4.463295l0 0c3.4650269 -4.092148 10.268677 -6.841545 17.996643 -7.27256c7.7279663 -0.43102264 15.28653 1.5173264 19.993622 5.153679l0 0c6.260071 -4.3376617 16.21997 -6.163994 25.570068 -4.6887436c9.350037 1.4752579 16.410889 5.987137 18.127258 11.583321l0 0c7.6696777 1.2319183 14.05835 4.3636017 17.51538 8.5859375c3.4570312 4.222336 3.6433105 9.121109 0.5107422 13.430649l0 0c7.552368 5.7881775 9.319092 13.5008545 4.640808 20.259796c-4.6783447 6.758957 -15.098694 11.548706 -27.372559 12.581818c-0.08648682 6.343506 -5.994446 12.164246 -15.446716 15.218628c-9.452209 3.0543823 -20.972717 2.8654633 -30.121033 -0.493927c-3.8966675 7.597458 -14.864532 13.187576 -28.16504 14.355255c-13.300507 1.1676636 -26.549286 -2.2964478 -34.0224 -8.895737c-9.160431 3.2528076 -20.152222 4.1898346 -30.49582 2.5997162c-10.343597 -1.5901184 -19.167694 -5.573456 -24.48175 -11.051422l0 0c-9.36084 0.6450348 -18.411469 -2.2108612 -22.660095 -7.150345c-4.248657 -4.9394836 -2.790863 -10.911041 3.6498718 -14.951004l0 0c-8.350098 -2.894043 -12.61084 -8.636795 -10.560394 -14.233627c2.050476 -5.596817 9.947449 -9.779465 19.573029 -10.366852z" fill-rule="nonzero"></path><path stroke="#000000" stroke-width="2.0" stroke-linejoin="round" stroke-linecap="butt" d="m378.16055 177.16449l0 0c3.9404602 1.3657074 8.492584 1.9852295 13.045227 1.7753754m5.9629517 20.326477c1.9577942 -0.13491821 3.8768005 -0.42060852 5.70755 -0.8497009m49.267303 9.301056c-1.3769836 -1.2159729 -2.5298767 -2.5153656 -3.4390259 -3.8759918m65.628815 -1.5837555l0 0c0.7104492 -1.3851318 1.1707153 -2.81073 1.37323 -4.253006m44.19281 -10.471161c0.09210205 -6.753647 -6.421997 -12.937347 -16.744324 -15.895035m39.47589 -16.945862c-1.6716919 2.2997437 -4.223694 4.339813 -7.4559326 5.960251m-10.5686035 -27.977448l0 0c0.28479004 0.9286804 0.41662598 1.8713379 0.39361572 2.814865m-44.09027 -9.70916l0 0c-1.5615845 1.0820312 -2.8481445 2.291191 -3.81958 3.5898209m-34.17102 -1.4714127l0 0c-0.83218384 0.9827957 -1.4536133 2.0227737 -1.8499451 3.095955m-41.6716 0.846817l0 0c2.4297485 0.8379822 4.6776123 1.8465576 6.694153 3.0036163m-58.73355 17.418655l0 0c0.2472229 1.0698547 0.6378479 2.1265411 1.1682129 3.1601257" fill-rule="nonzero"></path><path fill="#efefef" d="m391.33047 337.9623l174.36221 0l0 191.02365l-174.36221 0z" fill-rule="nonzero"></path><path stroke="#000000" stroke-width="2.0" stroke-linejoin="round" stroke-linecap="butt" d="m391.33047 337.9623l174.36221 0l0 191.02365l-174.36221 0z" fill-rule="nonzero"></path><path fill="#efefef" d="m605.12897 337.9623l174.36224 0l0 191.02365l-174.36224 0z" fill-rule="nonzero"></path><path stroke="#000000" stroke-width="2.0" stroke-linejoin="round" stroke-linecap="butt" d="m605.12897 337.9623l174.36224 0l0 191.02365l-174.36224 0z" fill-rule="nonzero"></path><path fill="#92c68c" d="m623.2362 354.40945l143.90546 0l0 37.165344l-143.90546 0z" fill-rule="nonzero"></path><path stroke="#000000" stroke-width="2.0" stroke-linejoin="round" stroke-linecap="butt" d="m623.2362 354.40945l143.90546 0l0 37.165344l-143.90546 0z" fill-rule="nonzero"></path><path fill="#000000" d="m687.5265 374.2715l0 5.640625l-1.578125 0l0 -13.5625l3.71875 0q2.5 0 3.6875 0.953125q1.203125 0.953125 1.203125 2.875q0 2.6875 -2.734375 3.640625l3.6875 6.09375l-1.859375 0l-3.296875 -5.640625l-2.828125 0zm0 -1.359375l2.171875 0q1.671875 0 2.4375 -0.65625q0.78125 -0.671875 0.78125 -2.0q0 -1.34375 -0.796875 -1.9375q-0.78125 -0.59375 -2.53125 -0.59375l-2.0625 0l0 5.1875zm17.938904 7.0l-8.921875 0l0 -1.328125l3.578125 -3.59375q1.625 -1.640625 2.140625 -2.34375q0.53125 -0.71875 0.78125 -1.375q0.265625 -0.671875 0.265625 -1.4375q0 -1.09375 -0.65625 -1.71875q-0.65625 -0.640625 -1.828125 -0.640625q-0.84375 0 -1.609375 0.28125q-0.75 0.265625 -1.671875 1.0l-0.8125 -1.046875q1.875 -1.5625 4.078125 -1.5625q1.90625 0 2.984375 0.984375q1.09375 0.984375 1.09375 2.625q0 1.296875 -0.71875 2.5625q-0.71875 1.25 -2.71875 3.1875l-2.96875 2.90625l0 0.078125l6.984375 0l0 1.421875z" fill-rule="nonzero"></path><path fill="#000000" fill-opacity="0.0" d="m177.53198 296.27667l174.36221 0l0 37.165375l-174.36221 0z" fill-rule="nonzero"></path><path fill="#000000" d="m194.20386 310.85294q-2.234375 0 -3.53125 1.484375q-1.296875 1.484375 -1.296875 4.078125q0 2.65625 1.25 4.109375q1.25 1.453125 3.5625 1.453125q1.421875 0 3.234375 -0.5l0 1.375q-1.40625 0.53125 -3.484375 0.53125q-2.984375 0 -4.625 -1.8125q-1.625 -1.828125 -1.625 -5.171875q0 -2.09375 0.78125 -3.671875q0.796875 -1.578125 2.265625 -2.4375q1.484375 -0.859375 3.484375 -0.859375q2.140625 0 3.734375 0.78125l-0.671875 1.359375q-1.53125 -0.71875 -3.078125 -0.71875zm14.503845 7.25q0 2.484375 -1.25 3.890625q-1.25 1.390625 -3.453125 1.390625q-1.375 0 -2.4375 -0.640625q-1.046875 -0.640625 -1.625 -1.828125q-0.578125 -1.203125 -0.578125 -2.8125q0 -2.484375 1.234375 -3.875q1.25 -1.390625 3.46875 -1.390625q2.125 0 3.375 1.421875q1.265625 1.421875 1.265625 3.84375zm-7.75 0q0 1.953125 0.78125 2.96875q0.78125 1.015625 2.296875 1.015625q1.515625 0 2.296875 -1.015625q0.78125 -1.015625 0.78125 -2.96875q0 -1.9375 -0.78125 -2.9375q-0.78125 -1.015625 -2.3125 -1.015625q-1.515625 0 -2.296875 1.0q-0.765625 0.984375 -0.765625 2.953125zm17.205948 5.09375l0 -6.578125q0 -1.25 -0.578125 -1.859375q-0.5625 -0.609375 -1.765625 -0.609375q-1.59375 0 -2.34375 0.875q-0.734375 0.859375 -0.734375 2.84375l0 5.328125l-1.53125 0l0 -10.171875l1.25 0l0.25 1.390625l0.0625 0q0.484375 -0.75 1.328125 -1.15625q0.859375 -0.421875 1.90625 -0.421875q1.84375 0 2.765625 0.890625q0.921875 0.890625 0.921875 2.828125l0 6.640625l-1.53125 0zm7.778763 -1.078125q0.40625 0 0.78125 -0.0625q0.390625 -0.0625 0.609375 -0.125l0 1.171875q-0.25 0.125 -0.75 0.203125q-0.484375 0.078125 -0.875 0.078125q-2.9375 0 -2.9375 -3.109375l0 -6.046875l-1.46875 0l0 -0.75l1.46875 -0.640625l0.640625 -2.171875l0.890625 0l0 2.359375l2.953125 0l0 1.203125l-2.953125 0l0 5.984375q0 0.921875 0.4375 1.421875q0.4375 0.484375 1.203125 0.484375zm7.9299164 -9.28125q0.6875 0 1.21875 0.109375l-0.203125 1.4375q-0.640625 -0.140625 -1.125 -0.140625q-1.234375 0 -2.109375 1.0q-0.875 1.0 -0.875 2.5l0 5.453125l-1.53125 0l0 -10.171875l1.265625 0l0.171875 1.890625l0.078125 0q0.5625 -1.0 1.359375 -1.53125q0.796875 -0.546875 1.75 -0.546875zm11.756165 5.265625q0 2.484375 -1.25 3.890625q-1.25 1.390625 -3.453125 1.390625q-1.375 0 -2.4375 -0.640625q-1.046875 -0.640625 -1.625 -1.828125q-0.578125 -1.203125 -0.578125 -2.8125q0 -2.484375 1.234375 -3.875q1.25 -1.390625 3.46875 -1.390625q2.125 0 3.375 1.421875q1.265625 1.421875 1.265625 3.84375zm-7.75 0q0 1.953125 0.78125 2.96875q0.78125 1.015625 2.296875 1.015625q1.515625 0 2.296875 -1.015625q0.78125 -1.015625 0.78125 -2.96875q0 -1.9375 -0.78125 -2.9375q-0.78125 -1.015625 -2.3125 -1.015625q-1.515625 0 -2.296875 1.0q-0.765625 0.984375 -0.765625 2.953125zm11.784073 5.09375l-1.53125 0l0 -14.4375l1.53125 0l0 14.4375zm4.7187195 0l-1.53125 0l0 -14.4375l1.53125 0l0 14.4375zm7.4687195 0.1875q-2.25 0 -3.5625 -1.375q-1.296875 -1.375 -1.296875 -3.8125q0 -2.453125 1.203125 -3.90625q1.21875 -1.453125 3.265625 -1.453125q1.90625 0 3.015625 1.265625q1.125 1.25 1.125 3.3125l0 0.96875l-7.015625 0q0.046875 1.796875 0.90625 2.734375q0.859375 0.921875 2.421875 0.921875q1.640625 0 3.25 -0.6875l0 1.375q-0.8125 0.34375 -1.546875 0.5q-0.734375 0.15625 -1.765625 0.15625zm-0.40625 -9.25q-1.234375 0 -1.96875 0.796875q-0.71875 0.796875 -0.84375 2.203125l5.3125 0q0 -1.453125 -0.65625 -2.21875q-0.640625 -0.78125 -1.84375 -0.78125zm11.216827 -1.296875q0.6875 0 1.21875 0.109375l-0.203125 1.4375q-0.640625 -0.140625 -1.125 -0.140625q-1.234375 0 -2.109375 1.0q-0.875 1.0 -0.875 2.5l0 5.453125l-1.53125 0l0 -10.171875l1.265625 0l0.171875 1.890625l0.078125 0q0.5625 -1.0 1.359375 -1.53125q0.796875 -0.546875 1.75 -0.546875z" fill-rule="nonzero"></path><path fill="#000000" fill-opacity="0.0" d="m391.33047 296.27667l174.36221 0l0 37.165375l-174.36221 0z" fill-rule="nonzero"></path><path fill="#000000" d="m402.18985 323.1967l0 -13.5625l1.578125 0l0 12.140625l5.984375 0l0 1.421875l-7.5625 0zm17.15213 -10.375q0 1.296875 -0.734375 2.125q-0.71875 0.828125 -2.046875 1.109375l0 0.078125q1.625 0.203125 2.40625 1.03125q0.796875 0.828125 0.796875 2.1875q0 1.9375 -1.34375 2.984375q-1.34375 1.046875 -3.828125 1.046875q-1.078125 0 -1.96875 -0.171875q-0.890625 -0.15625 -1.734375 -0.5625l0 -1.46875q0.875 0.4375 1.875 0.671875q1.0 0.21875 1.890625 0.21875q3.515625 0 3.515625 -2.75q0 -2.46875 -3.875 -2.46875l-1.34375 0l0 -1.328125l1.359375 0q1.578125 0 2.5 -0.703125q0.9375 -0.703125 0.9375 -1.9375q0 -1.0 -0.6875 -1.5625q-0.671875 -0.5625 -1.84375 -0.5625q-0.890625 0 -1.6875 0.25q-0.78125 0.234375 -1.796875 0.875l-0.765625 -1.03125q0.828125 -0.65625 1.921875 -1.03125q1.09375 -0.390625 2.296875 -0.390625q1.96875 0 3.0625 0.90625q1.09375 0.90625 1.09375 2.484375zm16.575989 10.375l-1.6875 -4.3125l-5.4375 0l-1.671875 4.3125l-1.59375 0l5.359375 -13.625l1.328125 0l5.34375 13.625l-1.640625 0zm-2.1875 -5.734375l-1.5625 -4.203125q-0.3125 -0.796875 -0.640625 -1.953125q-0.203125 0.890625 -0.578125 1.953125l-1.59375 4.203125l4.375 0zm13.555908 -4.4375l0 0.984375l-1.875 0.21875q0.25 0.328125 0.453125 0.859375q0.203125 0.515625 0.203125 1.171875q0 1.484375 -1.015625 2.375q-1.015625 0.890625 -2.796875 0.890625q-0.453125 0 -0.859375 -0.0625q-0.984375 0.515625 -0.984375 1.296875q0 0.421875 0.34375 0.625q0.34375 0.203125 1.1875 0.203125l1.796875 0q1.640625 0 2.53125 0.703125q0.890625 0.6875 0.890625 2.015625q0 1.6875 -1.359375 2.5625q-1.359375 0.890625 -3.953125 0.890625q-1.984375 0 -3.078125 -0.75q-1.078125 -0.734375 -1.078125 -2.09375q0 -0.921875 0.59375 -1.609375q0.59375 -0.671875 1.671875 -0.90625q-0.390625 -0.171875 -0.65625 -0.546875q-0.265625 -0.375 -0.265625 -0.859375q0 -0.5625 0.296875 -0.96875q0.296875 -0.421875 0.9375 -0.8125q-0.78125 -0.328125 -1.28125 -1.109375q-0.5 -0.78125 -0.5 -1.78125q0 -1.671875 1.0 -2.578125q1.0 -0.90625 2.84375 -0.90625q0.796875 0 1.4375 0.1875l3.515625 0zm-8.109375 11.875q0 0.828125 0.6875 1.25q0.703125 0.4375 2.0 0.4375q1.9375 0 2.875 -0.578125q0.9375 -0.578125 0.9375 -1.578125q0 -0.828125 -0.515625 -1.15625q-0.515625 -0.3125 -1.921875 -0.3125l-1.84375 0q-1.046875 0 -1.640625 0.5q-0.578125 0.5 -0.578125 1.4375zm0.84375 -8.609375q0 1.0625 0.59375 1.609375q0.609375 0.546875 1.6875 0.546875q2.25 0 2.25 -2.1875q0 -2.296875 -2.28125 -2.296875q-1.09375 0 -1.671875 0.59375q-0.578125 0.578125 -0.578125 1.734375zm13.455231 7.09375q-2.25 0 -3.5625 -1.375q-1.296875 -1.375 -1.296875 -3.8125q0 -2.453125 1.203125 -3.90625q1.21875 -1.453125 3.265625 -1.453125q1.90625 0 3.015625 1.265625q1.125 1.25 1.125 3.3125l0 0.96875l-7.015625 0q0.046875 1.796875 0.90625 2.734375q0.859375 0.921875 2.421875 0.921875q1.640625 0 3.25 -0.6875l0 1.375q-0.8125 0.34375 -1.546875 0.5q-0.734375 0.15625 -1.765625 0.15625zm-0.40625 -9.25q-1.234375 0 -1.96875 0.796875q-0.71875 0.796875 -0.84375 2.203125l5.3125 0q0 -1.453125 -0.65625 -2.21875q-0.640625 -0.78125 -1.84375 -0.78125zm13.544922 9.0625l0 -6.578125q0 -1.25 -0.578125 -1.859375q-0.5625 -0.609375 -1.765625 -0.609375q-1.59375 0 -2.34375 0.875q-0.734375 0.859375 -0.734375 2.84375l0 5.328125l-1.53125 0l0 -10.171875l1.25 0l0.25 1.390625l0.0625 0q0.484375 -0.75 1.328125 -1.15625q0.859375 -0.421875 1.90625 -0.421875q1.84375 0 2.765625 0.890625q0.921875 0.890625 0.921875 2.828125l0 6.640625l-1.53125 0zm7.778778 -1.078125q0.40625 0 0.78125 -0.0625q0.390625 -0.0625 0.609375 -0.125l0 1.171875q-0.25 0.125 -0.75 0.203125q-0.484375 0.078125 -0.875 0.078125q-2.9375 0 -2.9375 -3.109375l0 -6.046875l-1.46875 0l0 -0.75l1.46875 -0.640625l0.640625 -2.171875l0.890625 0l0 2.359375l2.953125 0l0 1.203125l-2.953125 0l0 5.984375q0 0.921875 0.4375 1.421875q0.4375 0.484375 1.203125 0.484375zm13.151154 1.078125l-1.515625 0l0 -9.671875q0 -1.203125 0.078125 -2.28125q-0.1875 0.203125 -0.4375 0.421875q-0.234375 0.203125 -2.203125 1.796875l-0.8125 -1.0625l3.578125 -2.765625l1.3125 0l0 13.5625z" fill-rule="nonzero"></path><path fill="#000000" fill-opacity="0.0" d="m605.12897 296.27667l174.36224 0l0 37.165375l-174.36224 0z" fill-rule="nonzero"></path><path fill="#000000" d="m615.98834 323.1967l0 -13.5625l1.578125 0l0 12.140625l5.984375 0l0 1.421875l-7.5625 0zm17.15216 -10.375q0 1.296875 -0.734375 2.125q-0.71875 0.828125 -2.046875 1.109375l0 0.078125q1.625 0.203125 2.40625 1.03125q0.796875 0.828125 0.796875 2.1875q0 1.9375 -1.34375 2.984375q-1.34375 1.046875 -3.828125 1.046875q-1.078125 0 -1.96875 -0.171875q-0.890625 -0.15625 -1.734375 -0.5625l0 -1.46875q0.875 0.4375 1.875 0.671875q1.0 0.21875 1.890625 0.21875q3.515625 0 3.515625 -2.75q0 -2.46875 -3.875 -2.46875l-1.34375 0l0 -1.328125l1.359375 0q1.578125 0 2.5 -0.703125q0.9375 -0.703125 0.9375 -1.9375q0 -1.0 -0.6875 -1.5625q-0.671875 -0.5625 -1.84375 -0.5625q-0.890625 0 -1.6875 0.25q-0.78125 0.234375 -1.796875 0.875l-0.765625 -1.03125q0.828125 -0.65625 1.921875 -1.03125q1.09375 -0.390625 2.296875 -0.390625q1.96875 0 3.0625 0.90625q1.09375 0.90625 1.09375 2.484375zm16.575989 10.375l-1.6875 -4.3125l-5.4375 0l-1.671875 4.3125l-1.59375 0l5.359375 -13.625l1.328125 0l5.34375 13.625l-1.640625 0zm-2.1875 -5.734375l-1.5625 -4.203125q-0.3125 -0.796875 -0.640625 -1.953125q-0.203125 0.890625 -0.578125 1.953125l-1.59375 4.203125l4.375 0zm13.555908 -4.4375l0 0.984375l-1.875 0.21875q0.25 0.328125 0.453125 0.859375q0.203125 0.515625 0.203125 1.171875q0 1.484375 -1.015625 2.375q-1.015625 0.890625 -2.796875 0.890625q-0.453125 0 -0.859375 -0.0625q-0.984375 0.515625 -0.984375 1.296875q0 0.421875 0.34375 0.625q0.34375 0.203125 1.1875 0.203125l1.796875 0q1.640625 0 2.53125 0.703125q0.890625 0.6875 0.890625 2.015625q0 1.6875 -1.359375 2.5625q-1.359375 0.890625 -3.953125 0.890625q-1.984375 0 -3.078125 -0.75q-1.078125 -0.734375 -1.078125 -2.09375q0 -0.921875 0.59375 -1.609375q0.59375 -0.671875 1.671875 -0.90625q-0.390625 -0.171875 -0.65625 -0.546875q-0.265625 -0.375 -0.265625 -0.859375q0 -0.5625 0.296875 -0.96875q0.296875 -0.421875 0.9375 -0.8125q-0.78125 -0.328125 -1.28125 -1.109375q-0.5 -0.78125 -0.5 -1.78125q0 -1.671875 1.0 -2.578125q1.0 -0.90625 2.84375 -0.90625q0.796875 0 1.4375 0.1875l3.515625 0zm-8.109375 11.875q0 0.828125 0.6875 1.25q0.703125 0.4375 2.0 0.4375q1.9375 0 2.875 -0.578125q0.9375 -0.578125 0.9375 -1.578125q0 -0.828125 -0.515625 -1.15625q-0.515625 -0.3125 -1.921875 -0.3125l-1.84375 0q-1.046875 0 -1.640625 0.5q-0.578125 0.5 -0.578125 1.4375zm0.84375 -8.609375q0 1.0625 0.59375 1.609375q0.609375 0.546875 1.6875 0.546875q2.25 0 2.25 -2.1875q0 -2.296875 -2.28125 -2.296875q-1.09375 0 -1.671875 0.59375q-0.578125 0.578125 -0.578125 1.734375zm13.4552 7.09375q-2.25 0 -3.5625 -1.375q-1.296875 -1.375 -1.296875 -3.8125q0 -2.453125 1.203125 -3.90625q1.21875 -1.453125 3.265625 -1.453125q1.90625 0 3.015625 1.265625q1.125 1.25 1.125 3.3125l0 0.96875l-7.015625 0q0.046875 1.796875 0.90625 2.734375q0.859375 0.921875 2.421875 0.921875q1.640625 0 3.25 -0.6875l0 1.375q-0.8125 0.34375 -1.546875 0.5q-0.734375 0.15625 -1.765625 0.15625zm-0.40625 -9.25q-1.234375 0 -1.96875 0.796875q-0.71875 0.796875 -0.84375 2.203125l5.3125 0q0 -1.453125 -0.65625 -2.21875q-0.640625 -0.78125 -1.84375 -0.78125zm13.544922 9.0625l0 -6.578125q0 -1.25 -0.578125 -1.859375q-0.5625 -0.609375 -1.765625 -0.609375q-1.59375 0 -2.34375 0.875q-0.734375 0.859375 -0.734375 2.84375l0 5.328125l-1.53125 0l0 -10.171875l1.25 0l0.25 1.390625l0.0625 0q0.484375 -0.75 1.328125 -1.15625q0.859375 -0.421875 1.90625 -0.421875q1.84375 0 2.765625 0.890625q0.921875 0.890625 0.921875 2.828125l0 6.640625l-1.53125 0zm7.7788086 -1.078125q0.40625 0 0.78125 -0.0625q0.390625 -0.0625 0.609375 -0.125l0 1.171875q-0.25 0.125 -0.75 0.203125q-0.484375 0.078125 -0.875 0.078125q-2.9375 0 -2.9375 -3.109375l0 -6.046875l-1.46875 0l0 -0.75l1.46875 -0.640625l0.640625 -2.171875l0.890625 0l0 2.359375l2.953125 0l0 1.203125l-2.953125 0l0 5.984375q0 0.921875 0.4375 1.421875q0.4375 0.484375 1.203125 0.484375zm16.354248 1.078125l-8.921875 0l0 -1.328125l3.578125 -3.59375q1.625 -1.640625 2.140625 -2.34375q0.53125 -0.71875 0.78125 -1.375q0.265625 -0.671875 0.265625 -1.4375q0 -1.09375 -0.65625 -1.71875q-0.65625 -0.640625 -1.828125 -0.640625q-0.84375 0 -1.609375 0.28125q-0.75 0.265625 -1.671875 1.0l-0.8125 -1.046875q1.875 -1.5625 4.078125 -1.5625q1.90625 0 2.984375 0.984375q1.09375 0.984375 1.09375 2.625q0 1.296875 -0.71875 2.5625q-0.71875 1.25 -2.71875 3.1875l-2.96875 2.90625l0 0.078125l6.984375 0l0 1.421875z" fill-rule="nonzero"></path><path fill="#000000" fill-opacity="0.0" d="m159.81071 276.50735l637.3858 0" fill-rule="nonzero"></path><path stroke="#000000" stroke-width="2.0" stroke-linejoin="round" stroke-linecap="butt" d="m159.81071 276.50735l637.3858 0" fill-rule="nonzero"></path><path fill="#000000" fill-opacity="0.0" d="m300.43753 277.46014l0 60.0" fill-rule="nonzero"></path><path stroke="#000000" stroke-width="2.0" stroke-linejoin="round" stroke-linecap="butt" d="m300.43753 277.46014l0 60.0" fill-rule="nonzero"></path><path fill="#000000" fill-opacity="0.0" d="m519.9526 277.46014l0 60.0" fill-rule="nonzero"></path><path stroke="#000000" stroke-width="2.0" stroke-linejoin="round" stroke-linecap="butt" d="m519.9526 277.46014l0 60.0" fill-rule="nonzero"></path><path fill="#000000" fill-opacity="0.0" d="m729.56036 277.46014l0 60.0" fill-rule="nonzero"></path><path stroke="#000000" stroke-width="2.0" stroke-linejoin="round" stroke-linecap="butt" d="m729.56036 277.46014l0 60.0" fill-rule="nonzero"></path><path fill="#000000" fill-opacity="0.0" d="m478.5099 216.02695l0 60.0" fill-rule="nonzero"></path><path stroke="#000000" stroke-width="2.0" stroke-linejoin="round" stroke-linecap="butt" d="m478.5099 216.02695l0 60.0" fill-rule="nonzero"></path><path fill="#cfe2f3" d="m193.80057 355.5853l143.90552 0l0 37.165375l-143.90552 0z" fill-rule="nonzero"></path><path stroke="#000000" stroke-width="2.0" stroke-linejoin="round" stroke-linecap="butt" d="m193.80057 355.5853l143.90552 0l0 37.165375l-143.90552 0z" fill-rule="nonzero"></path><path fill="#000000" d="m212.74158 380.30798l0 -5.890625q0 -1.109375 -0.515625 -1.65625q-0.5 -0.546875 -1.578125 -0.546875q-1.421875 0 -2.09375 0.78125q-0.65625 0.765625 -0.65625 2.546875l0 4.765625l-1.375 0l0 -9.09375l1.109375 0l0.234375 1.234375l0.0625 0q0.421875 -0.671875 1.1875 -1.03125q0.765625 -0.375 1.703125 -0.375q1.640625 0 2.46875 0.796875q0.828125 0.796875 0.828125 2.53125l0 5.9375l-1.375 0zm8.244858 0.171875q-2.015625 0 -3.1875 -1.234375q-1.15625 -1.234375 -1.15625 -3.40625q0 -2.203125 1.078125 -3.5q1.09375 -1.296875 2.921875 -1.296875q1.703125 0 2.703125 1.125q1.0 1.125 1.0 2.96875l0 0.875l-6.28125 0q0.046875 1.59375 0.8125 2.4375q0.765625 0.828125 2.171875 0.828125q1.46875 0 2.90625 -0.625l0 1.234375q-0.734375 0.3125 -1.390625 0.453125q-0.65625 0.140625 -1.578125 0.140625zm-0.359375 -8.28125q-1.109375 0 -1.765625 0.71875q-0.640625 0.703125 -0.75 1.96875l4.75 0q0 -1.296875 -0.578125 -1.984375q-0.578125 -0.703125 -1.65625 -0.703125zm7.534195 -0.984375l0 5.890625q0 1.125 0.5 1.671875q0.515625 0.546875 1.59375 0.546875q1.4375 0 2.09375 -0.78125q0.65625 -0.78125 0.65625 -2.546875l0 -4.78125l1.375 0l0 9.09375l-1.125 0l-0.203125 -1.21875l-0.078125 0q-0.421875 0.671875 -1.171875 1.03125q-0.75 0.359375 -1.71875 0.359375q-1.65625 0 -2.484375 -0.78125q-0.828125 -0.796875 -0.828125 -2.53125l0 -5.953125l1.390625 0zm12.291733 8.125q0.359375 0 0.703125 -0.046875q0.34375 -0.0625 0.53125 -0.125l0 1.0625q-0.21875 0.109375 -0.65625 0.171875q-0.4375 0.078125 -0.78125 0.078125q-2.640625 0 -2.640625 -2.78125l0 -5.421875l-1.3125 0l0 -0.65625l1.3125 -0.578125l0.578125 -1.9375l0.796875 0l0 2.109375l2.640625 0l0 1.0625l-2.640625 0l0 5.359375q0 0.828125 0.390625 1.265625q0.390625 0.4375 1.078125 0.4375zm7.3204346 -8.296875q0.609375 0 1.09375 0.09375l-0.1875 1.28125q-0.578125 -0.125 -1.0 -0.125q-1.109375 0 -1.890625 0.90625q-0.78125 0.890625 -0.78125 2.234375l0 4.875l-1.375 0l0 -9.09375l1.125 0l0.15625 1.6875l0.078125 0q0.5 -0.890625 1.203125 -1.375q0.71875 -0.484375 1.578125 -0.484375zm10.7765045 4.703125q0 2.234375 -1.1249695 3.484375q-1.109375 1.25 -3.0937653 1.25q-1.21875 0 -2.171875 -0.578125q-0.9375 -0.578125 -1.453125 -1.640625q-0.515625 -1.078125 -0.515625 -2.515625q0 -2.21875 1.109375 -3.453125q1.109375 -1.25 3.09375 -1.25q1.9062653 0 3.0312653 1.28125q1.1249695 1.265625 1.1249695 3.421875zm-6.9374847 0q0 1.75 0.703125 2.671875q0.703125 0.90625 2.046875 0.90625q1.359375 0 2.0625153 -0.90625q0.703125 -0.921875 0.703125 -2.671875q0 -1.734375 -0.703125 -2.625q-0.70314026 -0.90625 -2.0781403 -0.90625q-1.34375 0 -2.046875 0.890625q-0.6875 0.890625 -0.6875 2.640625zm15.778763 4.5625l0 -5.890625q0 -1.109375 -0.515625 -1.65625q-0.5 -0.546875 -1.578125 -0.546875q-1.421875 0 -2.09375 0.78125q-0.65625 0.765625 -0.65625 2.546875l0 4.765625l-1.375 0l0 -9.09375l1.109375 0l0.234375 1.234375l0.0625 0q0.421875 -0.671875 1.1875 -1.03125q0.765625 -0.375 1.703125 -0.375q1.640625 0 2.46875 0.796875q0.828125 0.796875 0.828125 2.53125l0 5.9375l-1.375 0zm3.6510925 -3.921875l0 -1.265625l4.0625 0l0 1.265625l-4.0625 0zm12.200806 1.4375q0 1.265625 -0.953125 1.96875q-0.9375 0.6875 -2.640625 0.6875q-1.8125 0 -2.828125 -0.578125l0 -1.28125q0.65625 0.328125 1.40625 0.53125q0.75 0.1875 1.453125 0.1875q1.078125 0 1.65625 -0.34375q0.578125 -0.34375 0.578125 -1.046875q0 -0.53125 -0.46875 -0.90625q-0.453125 -0.390625 -1.78125 -0.90625q-1.28125 -0.46875 -1.8125 -0.8125q-0.53125 -0.359375 -0.796875 -0.8125q-0.265625 -0.453125 -0.265625 -1.0625q0 -1.125 0.90625 -1.765625q0.90625 -0.640625 2.484375 -0.640625q1.46875 0 2.875 0.59375l-0.484375 1.125q-1.375 -0.5625 -2.484375 -0.5625q-0.984375 0 -1.484375 0.3125q-0.5 0.296875 -0.5 0.84375q0 0.359375 0.1875 0.625q0.1875 0.25 0.59375 0.484375q0.421875 0.234375 1.609375 0.671875q1.609375 0.59375 2.171875 1.1875q0.578125 0.59375 0.578125 1.5zm6.2351685 2.65625q-2.015625 0 -3.1875 -1.234375q-1.15625 -1.234375 -1.15625 -3.40625q0 -2.203125 1.078125 -3.5q1.09375 -1.296875 2.921875 -1.296875q1.703125 0 2.703125 1.125q1.0 1.125 1.0 2.96875l0 0.875l-6.28125 0q0.046875 1.59375 0.8125 2.4375q0.765625 0.828125 2.171875 0.828125q1.46875 0 2.90625 -0.625l0 1.234375q-0.734375 0.3125 -1.390625 0.453125q-0.65625 0.140625 -1.578125 0.140625zm-0.359375 -8.28125q-1.109375 0 -1.765625 0.71875q-0.640625 0.703125 -0.75 1.96875l4.75 0q0 -1.296875 -0.578125 -1.984375q-0.578125 -0.703125 -1.65625 -0.703125zm10.393555 -1.15625q0.609375 0 1.09375 0.09375l-0.1875 1.28125q-0.578125 -0.125 -1.0 -0.125q-1.109375 0 -1.890625 0.90625q-0.78125 0.890625 -0.78125 2.234375l0 4.875l-1.375 0l0 -9.09375l1.125 0l0.15625 1.6875l0.078125 0q0.5 -0.890625 1.203125 -1.375q0.71875 -0.484375 1.578125 -0.484375zm4.917145 9.265625l-3.453125 -9.09375l1.484375 0l1.953125 5.390625q0.65625 1.890625 0.78125 2.453125l0.0625 0q0.09375 -0.4375 0.578125 -1.8125q0.484375 -1.390625 2.1875 -6.03125l1.46875 0l-3.453125 9.09375l-1.609375 0zm10.52475 0.171875q-2.015625 0 -3.1875 -1.234375q-1.15625 -1.234375 -1.15625 -3.40625q0 -2.203125 1.078125 -3.5q1.09375 -1.296875 2.921875 -1.296875q1.703125 0 2.703125 1.125q1.0 1.125 1.0 2.96875l0 0.875l-6.28125 0q0.046875 1.59375 0.8125 2.4375q0.765625 0.828125 2.171875 0.828125q1.46875 0 2.90625 -0.625l0 1.234375q-0.734375 0.3125 -1.390625 0.453125q-0.65625 0.140625 -1.578125 0.140625zm-0.359375 -8.28125q-1.109375 0 -1.765625 0.71875q-0.640625 0.703125 -0.75 1.96875l4.75 0q0 -1.296875 -0.578125 -1.984375q-0.578125 -0.703125 -1.65625 -0.703125zm10.393555 -1.15625q0.609375 0 1.09375 0.09375l-0.1875 1.28125q-0.578125 -0.125 -1.0 -0.125q-1.109375 0 -1.890625 0.90625q-0.78125 0.890625 -0.78125 2.234375l0 4.875l-1.375 0l0 -9.09375l1.125 0l0.15625 1.6875l0.078125 0q0.5 -0.890625 1.203125 -1.375q0.71875 -0.484375 1.578125 -0.484375z" fill-rule="nonzero"></path><path fill="#9fc5e8" d="m407.336 355.5853l143.90552 0l0 37.165375l-143.90552 0z" fill-rule="nonzero"></path><path stroke="#000000" stroke-width="2.0" stroke-linejoin="round" stroke-linecap="butt" d="m407.336 355.5853l143.90552 0l0 37.165375l-143.90552 0z" fill-rule="nonzero"></path><path fill="#000000" d="m471.62634 375.44736l0 5.640625l-1.578125 0l0 -13.5625l3.71875 0q2.5 0 3.6875 0.953125q1.203125 0.953125 1.203125 2.875q0 2.6875 -2.734375 3.640625l3.6875 6.09375l-1.859375 0l-3.296875 -5.640625l-2.828125 0zm0 -1.359375l2.171875 0q1.671875 0 2.4375 -0.65625q0.78125 -0.671875 0.78125 -2.0q0 -1.34375 -0.796875 -1.9375q-0.78125 -0.59375 -2.53125 -0.59375l-2.0625 0l0 5.1875zm14.735748 7.0l-1.515625 0l0 -9.671875q0 -1.203125 0.078125 -2.28125q-0.1875 0.203125 -0.4375 0.421875q-0.234375 0.203125 -2.203125 1.796875l-0.8125 -1.0625l3.578125 -2.765625l1.3125 0l0 13.5625z" fill-rule="nonzero"></path></g></svg>

