<?xml version="1.0" standalone="yes"?>

<svg version="1.1" viewBox="0.0 0.0 960.0 540.0" fill="none" stroke="none" stroke-linecap="square" stroke-miterlimit="10" xmlns="http://www.w3.org/2000/svg" xmlns:xlink="http://www.w3.org/1999/xlink"><clipPath id="gcbc0db0e7_0_0.0"><path d="m0 0l960.0 0l0 540.0l-960.0 0l0 -540.0z" clip-rule="nonzero"></path></clipPath><g clip-path="url(#gcbc0db0e7_0_0.0)"><path fill="#ffffff" d="m0 0l960.0 0l0 540.0l-960.0 0z" fill-rule="nonzero"></path><path fill="#efefef" d="m124.12035 275.66812l277.29132 0l0 249.88974l-277.29132 0z" fill-rule="nonzero"></path><path stroke="#000000" stroke-width="2.0" stroke-linejoin="round" stroke-linecap="butt" d="m124.12035 275.66812l277.29132 0l0 249.88974l-277.29132 0z" fill-rule="nonzero"></path><path fill="#efefef" d="m540.1559 275.66812l277.29132 0l0 249.88974l-277.29132 0z" fill-rule="nonzero"></path><path stroke="#000000" stroke-width="2.0" stroke-linejoin="round" stroke-linecap="butt" d="m540.1559 275.66812l277.29132 0l0 249.88974l-277.29132 0z" fill-rule="nonzero"></path><path fill="#b7b7b7" d="m592.2931 311.9163l197.10236 0l0 177.85825l-197.10236 0z" fill-rule="nonzero"></path><path stroke="#000000" stroke-width="2.0" stroke-linejoin="round" stroke-linecap="butt" d="m592.2931 311.9163l197.10236 0l0 177.85825l-197.10236 0z" fill-rule="nonzero"></path><path fill="#000000" d="m680.4199 407.7654l0 -13.59375l6.03125 0q1.8125 0 2.75 0.359375q0.953125 0.359375 1.515625 1.296875q0.5625 0.921875 0.5625 2.046875q0 1.453125 -0.9375 2.453125q-0.921875 0.984375 -2.890625 1.25q0.71875 0.34375 1.09375 0.671875q0.78125 0.734375 1.484375 1.8125l2.375 3.703125l-2.265625 0l-1.796875 -2.828125q-0.796875 -1.21875 -1.3125 -1.875q-0.5 -0.65625 -0.90625 -0.90625q-0.40625 -0.265625 -0.8125 -0.359375q-0.3125 -0.078125 -1.015625 -0.078125l-2.078125 0l0 6.046875l-1.796875 0zm1.796875 -7.59375l3.859375 0q1.234375 0 1.921875 -0.25q0.703125 -0.265625 1.0625 -0.828125q0.375 -0.5625 0.375 -1.21875q0 -0.96875 -0.703125 -1.578125q-0.703125 -0.625 -2.21875 -0.625l-4.296875 0l0 4.5zm17.254211 7.59375l-1.671875 0l0 -10.640625q-0.59375 0.578125 -1.578125 1.15625q-0.984375 0.5625 -1.765625 0.859375l0 -1.625q1.40625 -0.65625 2.453125 -1.59375q1.046875 -0.9375 1.484375 -1.8125l1.078125 0l0 13.65625z" fill-rule="nonzero"></path><path fill="#b7b7b7" d="m150.49448 311.9163l197.10236 0l0 177.85825l-197.10236 0z" fill-rule="nonzero"></path><path stroke="#000000" stroke-width="2.0" stroke-linejoin="round" stroke-linecap="butt" d="m150.49448 311.9163l197.10236 0l0 177.85825l-197.10236 0z" fill-rule="nonzero"></path><path fill="#000000" d="m238.62132 407.7654l0 -13.59375l6.03125 0q1.8125 0 2.75 0.359375q0.953125 0.359375 1.515625 1.296875q0.5625 0.921875 0.5625 2.046875q0 1.453125 -0.9375 2.453125q-0.921875 0.984375 -2.890625 1.25q0.71875 0.34375 1.09375 0.671875q0.78125 0.734375 1.484375 1.8125l2.375 3.703125l-2.265625 0l-1.796875 -2.828125q-0.796875 -1.21875 -1.3125 -1.875q-0.5 -0.65625 -0.90625 -0.90625q-0.40625 -0.265625 -0.8125 -0.359375q-0.3125 -0.078125 -1.015625 -0.078125l-2.078125 0l0 6.046875l-1.796875 0zm1.796875 -7.59375l3.859375 0q1.234375 0 1.921875 -0.25q0.703125 -0.265625 1.0625 -0.828125q0.375 -0.5625 0.375 -1.21875q0 -0.96875 -0.703125 -1.578125q-0.703125 -0.625 -2.21875 -0.625l-4.296875 0l0 4.5zm17.254196 7.59375l-1.671875 0l0 -10.640625q-0.59375 0.578125 -1.578125 1.15625q-0.984375 0.5625 -1.765625 0.859375l0 -1.625q1.40625 -0.65625 2.453125 -1.59375q1.046875 -0.9375 1.484375 -1.8125l1.078125 0l0 13.65625z" fill-rule="nonzero"></path><path fill="#000000" fill-opacity="0.0" d="m32.72441 46.721786l894.55115 0l0 60.125984l-894.55115 0z" fill-rule="nonzero"></path><path fill="#000000" d="m65.41191 91.56178l-3.078125 0l0 -12.4375l-13.90625 0l0 12.4375l-3.078125 0l0 -26.40625l3.078125 0l0 11.234375l13.90625 0l0 -11.234375l3.078125 0l0 26.40625zm10.024811 0l-2.984375 0l0 -19.796875l2.984375 0l0 19.796875zm-3.25 -25.171875q0 -1.03125 0.5 -1.5q0.515625 -0.484375 1.28125 -0.484375q0.71875 0 1.234375 0.5q0.53125 0.484375 0.53125 1.484375q0 1.015625 -0.53125 1.515625q-0.515625 0.5 -1.234375 0.5q-0.765625 0 -1.28125 -0.5q-0.5 -0.5 -0.5 -1.515625zm25.910141 5.375l0 1.890625l-3.671875 0.4375q0.5 0.625 0.890625 1.65625q0.40625 1.015625 0.40625 2.296875q0 2.90625 -1.984375 4.640625q-1.984375 1.734375 -5.453125 1.734375q-0.890625 0 -1.671875 -0.140625q-1.90625 1.015625 -1.90625 2.546875q0 0.8125 0.65625 1.203125q0.671875 0.390625 2.3125 0.390625l3.5 0q3.21875 0 4.9375 1.359375q1.71875 1.34375 1.71875 3.9375q0 3.28125 -2.640625 5.0q-2.625 1.734375 -7.6875 1.734375q-3.875 0 -5.984375 -1.453125q-2.109375 -1.4375 -2.109375 -4.078125q0 -1.8125 1.15625 -3.125q1.15625 -1.3125 3.25 -1.78125q-0.75 -0.34375 -1.265625 -1.0625q-0.515625 -0.734375 -0.515625 -1.6875q0 -1.09375 0.578125 -1.90625q0.578125 -0.8125 1.828125 -1.5625q-1.546875 -0.640625 -2.515625 -2.15625q-0.953125 -1.515625 -0.953125 -3.46875q0 -3.25 1.9375 -5.0q1.953125 -1.765625 5.53125 -1.765625q1.5625 0 2.796875 0.359375l6.859375 0zm-15.796875 23.125q0 1.609375 1.359375 2.4375q1.359375 0.828125 3.875 0.828125q3.78125 0 5.59375 -1.125q1.8125 -1.125 1.8125 -3.0625q0 -1.609375 -1.0 -2.234375q-0.984375 -0.625 -3.71875 -0.625l-3.609375 0q-2.03125 0 -3.171875 0.96875q-1.140625 0.984375 -1.140625 2.8125zm1.625 -16.78125q0 2.078125 1.171875 3.140625q1.171875 1.0625 3.28125 1.0625q4.390625 0 4.390625 -4.265625q0 -4.453125 -4.453125 -4.453125q-2.109375 0 -3.25 1.140625q-1.140625 1.125 -1.140625 3.375zm31.965897 13.453125l0 -12.8125q0 -2.421875 -1.109375 -3.609375q-1.09375 -1.1875 -3.453125 -1.1875q-3.125 0 -4.5625 1.703125q-1.4375 1.6875 -1.4375 5.546875l0 10.359375l-2.984375 0l0 -28.109375l2.984375 0l0 8.5q0 1.546875 -0.140625 2.546875l0.1875 0q0.875 -1.421875 2.515625 -2.234375q1.640625 -0.828125 3.734375 -0.828125q3.625 0 5.4375 1.734375q1.828125 1.71875 1.828125 5.46875l0 12.921875l-3.0 0zm12.348373 0l-2.984375 0l0 -28.109375l2.984375 0l0 28.109375zm3.300766 -19.796875l3.21875 0l4.34375 11.28125q1.421875 3.875 1.765625 5.59375l0.140625 0q0.234375 -0.921875 0.984375 -3.15625q0.75 -2.234375 4.90625 -13.71875l3.21875 0l-8.515625 22.546875q-1.265625 3.34375 -2.953125 4.734375q-1.6875 1.40625 -4.140625 1.40625q-1.375 0 -2.703125 -0.3125l0 -2.40625q0.984375 0.21875 2.21875 0.21875q3.078125 0 4.40625 -3.46875l1.09375 -2.8125l-7.984375 -19.90625zm48.709564 19.796875l-3.28125 -8.40625l-10.59375 0l-3.25 8.40625l-3.109375 0l10.4375 -26.515625l2.59375 0l10.390625 26.515625l-3.1875 0zm-4.25 -11.171875l-3.0625 -8.171875q-0.59375 -1.5625 -1.234375 -3.8125q-0.390625 1.734375 -1.140625 3.8125l-3.109375 8.171875l8.546875 0zm15.152954 11.171875l-7.515625 -19.796875l3.21875 0l4.265625 11.734375q1.4375 4.125 1.6875 5.359375l0.15625 0q0.1875 -0.96875 1.25 -3.96875q1.0625 -3.015625 4.75 -13.125l3.203125 0l-7.515625 19.796875l-3.5 0zm26.544266 0l-0.59375 -2.8125l-0.15625 0q-1.46875 1.859375 -2.953125 2.515625q-1.46875 0.65625 -3.671875 0.65625q-2.9375 0 -4.609375 -1.515625q-1.671875 -1.515625 -1.671875 -4.3125q0 -6.0 9.59375 -6.296875l3.359375 -0.109375l0 -1.21875q0 -2.328125 -1.015625 -3.4375q-1.0 -1.125 -3.203125 -1.125q-2.46875 0 -5.59375 1.515625l-0.921875 -2.28125q1.46875 -0.796875 3.203125 -1.25q1.75 -0.453125 3.5 -0.453125q3.546875 0 5.25 1.578125q1.703125 1.5625 1.703125 5.03125l0 13.515625l-2.21875 0zm-6.78125 -2.109375q2.796875 0 4.390625 -1.53125q1.609375 -1.546875 1.609375 -4.3125l0 -1.78125l-3.0 0.125q-3.578125 0.125 -5.15625 1.109375q-1.578125 0.984375 -1.578125 3.0625q0 1.625 0.984375 2.484375q0.984375 0.84375 2.75 0.84375zm18.353882 2.109375l-2.984375 0l0 -19.796875l2.984375 0l0 19.796875zm-3.25 -25.171875q0 -1.03125 0.5 -1.5q0.515625 -0.484375 1.28125 -0.484375q0.71875 0 1.234375 0.5q0.53125 0.484375 0.53125 1.484375q0 1.015625 -0.53125 1.515625q-0.515625 0.5 -1.234375 0.5q-0.765625 0 -1.28125 -0.5q-0.5 -0.5 -0.5 -1.515625zm12.691391 25.171875l-2.984375 0l0 -28.109375l2.984375 0l0 28.109375zm18.628891 0l-0.59375 -2.8125l-0.15625 0q-1.46875 1.859375 -2.953125 2.515625q-1.46875 0.65625 -3.671875 0.65625q-2.9375 0 -4.609375 -1.515625q-1.671875 -1.515625 -1.671875 -4.3125q0 -6.0 9.59375 -6.296875l3.359375 -0.109375l0 -1.21875q0 -2.328125 -1.015625 -3.4375q-1.0 -1.125 -3.203125 -1.125q-2.46875 0 -5.59375 1.515625l-0.921875 -2.28125q1.46875 -0.796875 3.203125 -1.25q1.75 -0.453125 3.5 -0.453125q3.546875 0 5.25 1.578125q1.703125 1.5625 1.703125 5.03125l0 13.515625l-2.21875 0zm-6.78125 -2.109375q2.796875 0 4.390625 -1.53125q1.609375 -1.546875 1.609375 -4.3125l0 -1.78125l-3.0 0.125q-3.578125 0.125 -5.15625 1.109375q-1.578125 0.984375 -1.578125 3.0625q0 1.625 0.984375 2.484375q0.984375 0.84375 2.75 0.84375zm24.572632 -18.015625q3.90625 0 6.0625 2.671875q2.15625 2.65625 2.15625 7.53125q0 4.875 -2.171875 7.578125q-2.171875 2.703125 -6.046875 2.703125q-1.9375 0 -3.53125 -0.703125q-1.59375 -0.71875 -2.6875 -2.203125l-0.203125 0l-0.640625 2.546875l-2.140625 0l0 -28.109375l2.984375 0l0 6.828125q0 2.296875 -0.140625 4.125l0.140625 0q2.109375 -2.96875 6.21875 -2.96875zm-0.4375 2.515625q-3.0625 0 -4.421875 1.765625q-1.359375 1.75 -1.359375 5.921875q0 4.171875 1.390625 5.96875q1.40625 1.796875 4.46875 1.796875q2.765625 0 4.109375 -2.0q1.359375 -2.015625 1.359375 -5.796875q0 -3.875 -1.359375 -5.765625q-1.34375 -1.890625 -4.1875 -1.890625zm17.09317 17.609375l-2.984375 0l0 -28.109375l2.984375 0l0 28.109375zm14.816376 0.359375q-4.390625 0 -6.9375 -2.671875q-2.53125 -2.671875 -2.53125 -7.421875q0 -4.796875 2.359375 -7.609375q2.359375 -2.8125 6.328125 -2.8125q3.71875 0 5.890625 2.453125q2.171875 2.4375 2.171875 6.453125l0 1.890625l-13.640625 0q0.09375 3.484375 1.765625 5.296875q1.671875 1.796875 4.703125 1.796875q3.1875 0 6.3125 -1.328125l0 2.671875q-1.578125 0.6875 -3.0 0.984375q-1.421875 0.296875 -3.421875 0.296875zm-0.8125 -18.015625q-2.390625 0 -3.8125 1.5625q-1.40625 1.546875 -1.671875 4.296875l10.359375 0q0 -2.84375 -1.265625 -4.34375q-1.265625 -1.515625 -3.609375 -1.515625zm26.607727 6.671875l0 10.984375l-3.078125 0l0 -26.40625l7.25 0q4.859375 0 7.171875 1.859375q2.328125 1.859375 2.328125 5.59375q0 5.234375 -5.3125 7.078125l7.171875 11.875l-3.625 0l-6.390625 -10.984375l-5.515625 0zm0 -2.640625l4.203125 0q3.265625 0 4.78125 -1.28125q1.515625 -1.296875 1.515625 -3.890625q0 -2.609375 -1.546875 -3.765625q-1.546875 -1.15625 -4.953125 -1.15625l-4.0 0l0 10.09375zm36.63742 3.703125q0 4.84375 -2.4375 7.5625q-2.4375 2.71875 -6.734375 2.71875q-2.65625 0 -4.71875 -1.234375q-2.0625 -1.25 -3.1875 -3.578125q-1.109375 -2.34375 -1.109375 -5.46875q0 -4.84375 2.421875 -7.53125q2.421875 -2.703125 6.71875 -2.703125q4.15625 0 6.59375 2.765625q2.453125 2.75 2.453125 7.46875zm-15.078125 0q0 3.796875 1.515625 5.78125q1.515625 1.984375 4.46875 1.984375q2.9375 0 4.453125 -1.96875q1.53125 -1.984375 1.53125 -5.796875q0 -3.765625 -1.53125 -5.71875q-1.515625 -1.96875 -4.5 -1.96875q-2.9375 0 -4.4375 1.9375q-1.5 1.921875 -1.5 5.75zm23.358826 -9.875l0 12.84375q0 2.421875 1.09375 3.609375q1.109375 1.1875 3.453125 1.1875q3.109375 0 4.546875 -1.6875q1.4375 -1.703125 1.4375 -5.546875l0 -10.40625l3.0 0l0 19.796875l-2.46875 0l-0.4375 -2.65625l-0.171875 0q-0.921875 1.46875 -2.5625 2.25q-1.625 0.765625 -3.71875 0.765625q-3.609375 0 -5.40625 -1.71875q-1.796875 -1.71875 -1.796875 -5.484375l0 -12.953125l3.03125 0zm26.489014 17.6875q0.796875 0 1.53125 -0.109375q0.75 -0.125 1.171875 -0.25l0 2.28125q-0.484375 0.234375 -1.4375 0.390625q-0.9375 0.15625 -1.703125 0.15625q-5.75 0 -5.75 -6.046875l0 -11.78125l-2.828125 0l0 -1.453125l2.828125 -1.234375l1.265625 -4.234375l1.734375 0l0 4.59375l5.75 0l0 2.328125l-5.75 0l0 11.65625q0 1.78125 0.84375 2.75q0.859375 0.953125 2.34375 0.953125zm15.146606 2.46875q-4.390625 0 -6.9375 -2.671875q-2.53125 -2.671875 -2.53125 -7.421875q0 -4.796875 2.359375 -7.609375q2.359375 -2.8125 6.328125 -2.8125q3.71875 0 5.890625 2.453125q2.171875 2.4375 2.171875 6.453125l0 1.890625l-13.640625 0q0.09375 3.484375 1.765625 5.296875q1.671875 1.796875 4.703125 1.796875q3.1875 0 6.3125 -1.328125l0 2.671875q-1.578125 0.6875 -3.0 0.984375q-1.421875 0.296875 -3.421875 0.296875zm-0.8125 -18.015625q-2.390625 0 -3.8125 1.5625q-1.40625 1.546875 -1.671875 4.296875l10.359375 0q0 -2.84375 -1.265625 -4.34375q-1.265625 -1.515625 -3.609375 -1.515625zm22.426758 -2.5q1.3125 0 2.359375 0.203125l-0.40625 2.796875q-1.234375 -0.28125 -2.171875 -0.28125q-2.40625 0 -4.125 1.953125q-1.703125 1.953125 -1.703125 4.859375l0 10.625l-2.984375 0l0 -19.796875l2.46875 0l0.34375 3.65625l0.140625 0q1.109375 -1.921875 2.65625 -2.96875q1.5625 -1.046875 3.421875 -1.046875zm18.971832 14.75q0 2.765625 -2.0625 4.265625q-2.0625 1.5 -5.78125 1.5q-3.9375 0 -6.140625 -1.25l0 -2.78125q1.421875 0.734375 3.0625 1.15625q1.640625 0.40625 3.15625 0.40625q2.34375 0 3.609375 -0.75q1.265625 -0.75 1.265625 -2.296875q0 -1.15625 -1.0 -1.96875q-1.0 -0.828125 -3.921875 -1.9375q-2.75 -1.03125 -3.921875 -1.796875q-1.171875 -0.78125 -1.734375 -1.75q-0.5625 -0.984375 -0.5625 -2.328125q0 -2.421875 1.96875 -3.8125q1.96875 -1.40625 5.390625 -1.40625q3.203125 0 6.25 1.296875l-1.0625 2.4375q-2.984375 -1.234375 -5.40625 -1.234375q-2.125 0 -3.21875 0.671875q-1.078125 0.671875 -1.078125 1.84375q0 0.796875 0.40625 1.359375q0.40625 0.5625 1.3125 1.0625q0.90625 0.5 3.46875 1.46875q3.53125 1.28125 4.765625 2.578125q1.234375 1.296875 1.234375 3.265625zm13.066467 -3.140625l0 -2.75l8.875 0l0 2.75l-8.875 0zm44.91107 -4.90625q0 6.53125 -3.5625 10.0q-3.5469055 3.453125 -10.2031555 3.453125l-7.328125 0l0 -26.40625l8.09375 0q6.171875 0 9.5781555 3.421875q3.421875 3.40625 3.421875 9.53125zm-3.25 0.109375q0 -5.171875 -2.5937805 -7.78125q-2.59375 -2.625 -7.703125 -2.625l-4.46875 0l0 21.09375l3.734375 0q5.5 0 8.265625 -2.703125q2.7656555 -2.703125 2.7656555 -7.984375zm17.290466 13.703125q-4.390625 0 -6.9375 -2.671875q-2.53125 -2.671875 -2.53125 -7.421875q0 -4.796875 2.359375 -7.609375q2.359375 -2.8125 6.328125 -2.8125q3.71875 0 5.890625 2.453125q2.171875 2.4375 2.171875 6.453125l0 1.890625l-13.640625 0q0.09375 3.484375 1.765625 5.296875q1.671875 1.796875 4.703125 1.796875q3.1875 0 6.3125 -1.328125l0 2.671875q-1.578125 0.6875 -3.0 0.984375q-1.421875 0.296875 -3.421875 0.296875zm-0.8125 -18.015625q-2.390625 0 -3.8125 1.5625q-1.40625 1.546875 -1.671875 4.296875l10.359375 0q0 -2.84375 -1.265625 -4.34375q-1.265625 -1.515625 -3.609375 -1.515625zm19.786133 15.546875q0.796875 0 1.53125 -0.109375q0.75 -0.125 1.171875 -0.25l0 2.28125q-0.484375 0.234375 -1.4375 0.390625q-0.9375 0.15625 -1.703125 0.15625q-5.75 0 -5.75 -6.046875l0 -11.78125l-2.828125 0l0 -1.453125l2.828125 -1.234375l1.265625 -4.234375l1.734375 0l0 4.59375l5.75 0l0 2.328125l-5.75 0l0 11.65625q0 1.78125 0.84375 2.75q0.859375 0.953125 2.34375 0.953125zm18.959106 2.109375l-0.59375 -2.8125l-0.15625 0q-1.46875 1.859375 -2.953125 2.515625q-1.46875 0.65625 -3.671875 0.65625q-2.9375 0 -4.609375 -1.515625q-1.671875 -1.515625 -1.671875 -4.3125q0 -6.0 9.59375 -6.296875l3.359375 -0.109375l0 -1.21875q0 -2.328125 -1.015625 -3.4375q-1.0 -1.125 -3.203125 -1.125q-2.46875 0 -5.59375 1.515625l-0.921875 -2.28125q1.46875 -0.796875 3.203125 -1.25q1.75 -0.453125 3.5 -0.453125q3.546875 0 5.25 1.578125q1.703125 1.5625 1.703125 5.03125l0 13.515625l-2.21875 0zm-6.78125 -2.109375q2.796875 0 4.390625 -1.53125q1.609375 -1.546875 1.609375 -4.3125l0 -1.78125l-3.0 0.125q-3.578125 0.125 -5.15625 1.109375q-1.578125 0.984375 -1.578125 3.0625q0 1.625 0.984375 2.484375q0.984375 0.84375 2.75 0.84375zm18.353882 2.109375l-2.984375 0l0 -19.796875l2.984375 0l0 19.796875zm-3.25 -25.171875q0 -1.03125 0.5 -1.5q0.515625 -0.484375 1.28125 -0.484375q0.71875 0 1.234375 0.5q0.53125 0.484375 0.53125 1.484375q0 1.015625 -0.53125 1.515625q-0.515625 0.5 -1.234375 0.5q-0.765625 0 -1.28125 -0.5q-0.5 -0.5 -0.5 -1.515625zm12.691406 25.171875l-2.984375 0l0 -28.109375l2.984375 0l0 28.109375zm19.222656 -5.40625q0 2.765625 -2.0625 4.265625q-2.0625 1.5 -5.78125 1.5q-3.9375 0 -6.140625 -1.25l0 -2.78125q1.421875 0.734375 3.0625 1.15625q1.640625 0.40625 3.15625 0.40625q2.34375 0 3.609375 -0.75q1.265625 -0.75 1.265625 -2.296875q0 -1.15625 -1.0 -1.96875q-1.0 -0.828125 -3.921875 -1.9375q-2.75 -1.03125 -3.921875 -1.796875q-1.171875 -0.78125 -1.734375 -1.75q-0.5625 -0.984375 -0.5625 -2.328125q0 -2.421875 1.96875 -3.8125q1.96875 -1.40625 5.390625 -1.40625q3.203125 0 6.25 1.296875l-1.0625 2.4375q-2.984375 -1.234375 -5.40625 -1.234375q-2.125 0 -3.21875 0.671875q-1.078125 0.671875 -1.078125 1.84375q0 0.796875 0.40625 1.359375q0.40625 0.5625 1.3125 1.0625q0.90625 0.5 3.46875 1.46875q3.53125 1.28125 4.765625 2.578125q1.234375 1.296875 1.234375 3.265625z" fill-rule="nonzero"></path><path fill="#000000" fill-opacity="0.0" d="m132.12036 233.37064l176.91336 0l0 37.700775l-176.91336 0z" fill-rule="nonzero"></path><path fill="#000000" d="m142.97974 260.29062l0 -13.562485l1.578125 0l0 12.14061l5.984375 0l0 1.421875l-7.5625 0zm17.152145 -10.374985q0 1.296875 -0.734375 2.125q-0.71875 0.828125 -2.046875 1.109375l0 0.078125q1.625 0.203125 2.40625 1.03125q0.796875 0.828125 0.796875 2.1874847q0 1.9375 -1.34375 2.984375q-1.34375 1.046875 -3.828125 1.046875q-1.078125 0 -1.96875 -0.171875q-0.890625 -0.15625 -1.734375 -0.5625l0 -1.46875q0.875 0.4375 1.875 0.671875q1.0 0.21875 1.890625 0.21875q3.515625 0 3.515625 -2.75q0 -2.4687347 -3.875 -2.4687347l-1.34375 0l0 -1.328125l1.359375 0q1.578125 0 2.5 -0.703125q0.9375 -0.703125 0.9375 -1.9375q0 -1.0 -0.6875 -1.5625q-0.671875 -0.5625 -1.84375 -0.5625q-0.890625 0 -1.6875 0.25q-0.78125 0.234375 -1.796875 0.875l-0.765625 -1.03125q0.828125 -0.65625 1.921875 -1.03125q1.09375 -0.390625 2.296875 -0.390625q1.96875 0 3.0625 0.90625q1.09375 0.90625 1.09375 2.484375zm16.575974 10.374985l-1.6875 -4.3124847l-5.4375 0l-1.671875 4.3124847l-1.59375 0l5.359375 -13.624985l1.328125 0l5.34375 13.624985l-1.640625 0zm-2.1875 -5.7343597l-1.5625 -4.203125q-0.3125 -0.796875 -0.640625 -1.953125q-0.203125 0.890625 -0.578125 1.953125l-1.59375 4.203125l4.375 0zm13.555908 -4.4375l0 0.984375l-1.875 0.21875q0.25 0.328125 0.453125 0.859375q0.203125 0.515625 0.203125 1.171875q0 1.484375 -1.015625 2.375q-1.015625 0.89060974 -2.796875 0.89060974q-0.453125 0 -0.859375 -0.0625q-0.984375 0.515625 -0.984375 1.296875q0 0.421875 0.34375 0.625q0.34375 0.203125 1.1875 0.203125l1.796875 0q1.640625 0 2.53125 0.703125q0.890625 0.6875 0.890625 2.015625q0 1.6875 -1.359375 2.5625q-1.359375 0.890625 -3.953125 0.890625q-1.984375 0 -3.078125 -0.75q-1.078125 -0.734375 -1.078125 -2.09375q0 -0.921875 0.59375 -1.609375q0.59375 -0.671875 1.671875 -0.90625q-0.390625 -0.171875 -0.65625 -0.546875q-0.265625 -0.375 -0.265625 -0.859375q0 -0.5625 0.296875 -0.96875q0.296875 -0.421875 0.9375 -0.8125q-0.78125 -0.32810974 -1.28125 -1.1093597q-0.5 -0.78125 -0.5 -1.78125q0 -1.671875 1.0 -2.578125q1.0 -0.90625 2.84375 -0.90625q0.796875 0 1.4375 0.1875l3.515625 0zm-8.109375 11.874985q0 0.828125 0.6875 1.25q0.703125 0.4375 2.0 0.4375q1.9375 0 2.875 -0.578125q0.9375 -0.578125 0.9375 -1.578125q0 -0.828125 -0.515625 -1.15625q-0.515625 -0.3125 -1.921875 -0.3125l-1.84375 0q-1.046875 0 -1.640625 0.5q-0.578125 0.5 -0.578125 1.4375zm0.84375 -8.60936q0 1.0625 0.59375 1.609375q0.609375 0.546875 1.6875 0.546875q2.25 0 2.25 -2.1875q0 -2.296875 -2.28125 -2.296875q-1.09375 0 -1.671875 0.59375q-0.578125 0.578125 -0.578125 1.734375zm13.455231 7.0937347q-2.25 0 -3.5625 -1.375q-1.296875 -1.375 -1.296875 -3.8124847q0 -2.453125 1.203125 -3.90625q1.21875 -1.453125 3.265625 -1.453125q1.90625 0 3.015625 1.265625q1.125 1.25 1.125 3.3125l0 0.96875l-7.015625 0q0.046875 1.7968597 0.90625 2.7343597q0.859375 0.921875 2.421875 0.921875q1.640625 0 3.25 -0.6875l0 1.375q-0.8125 0.34375 -1.546875 0.5q-0.734375 0.15625 -1.765625 0.15625zm-0.40625 -9.249985q-1.234375 0 -1.96875 0.796875q-0.71875 0.796875 -0.84375 2.203125l5.3125 0q0 -1.453125 -0.65625 -2.21875q-0.640625 -0.78125 -1.84375 -0.78125zm13.544937 9.062485l0 -6.5781097q0 -1.25 -0.578125 -1.859375q-0.5625 -0.609375 -1.765625 -0.609375q-1.59375 0 -2.34375 0.875q-0.734375 0.859375 -0.734375 2.84375l0 5.3281097l-1.53125 0l0 -10.17186l1.25 0l0.25 1.390625l0.0625 0q0.484375 -0.75 1.328125 -1.15625q0.859375 -0.421875 1.90625 -0.421875q1.84375 0 2.765625 0.890625q0.921875 0.890625 0.921875 2.828125l0 6.6406097l-1.53125 0zm7.778763 -1.078125q0.40625 0 0.78125 -0.0625q0.390625 -0.0625 0.609375 -0.125l0 1.171875q-0.25 0.125 -0.75 0.203125q-0.484375 0.078125 -0.875 0.078125q-2.9375 0 -2.9375 -3.109375l0 -6.0468597l-1.46875 0l0 -0.75l1.46875 -0.640625l0.640625 -2.171875l0.890625 0l0 2.359375l2.953125 0l0 1.203125l-2.953125 0l0 5.9843597q0 0.921875 0.4375 1.421875q0.4375 0.484375 1.203125 0.484375zm13.151169 1.078125l-1.515625 0l0 -9.67186q0 -1.203125 0.078125 -2.28125q-0.1875 0.203125 -0.4375 0.421875q-0.234375 0.203125 -2.203125 1.796875l-0.8125 -1.0625l3.578125 -2.765625l1.3125 0l0 13.562485z" fill-rule="nonzero"></path><path fill="#000000" fill-opacity="0.0" d="m110.71129 214.27715l718.07874 0" fill-rule="nonzero"></path><path stroke="#000000" stroke-width="2.0" stroke-linejoin="round" stroke-linecap="butt" d="m110.71129 214.27715l718.07874 0" fill-rule="nonzero"></path><path fill="#000000" fill-opacity="0.0" d="m256.8296 214.27792l0 60.881897" fill-rule="nonzero"></path><path stroke="#000000" stroke-width="2.0" stroke-linejoin="round" stroke-linecap="butt" d="m256.8296 214.27792l0 60.881897" fill-rule="nonzero"></path><path fill="#92c68c" d="m191.70581 287.95865l59.527557 0l0 47.370087l-59.527557 0z" fill-rule="nonzero"></path><path stroke="#000000" stroke-width="2.0" stroke-linejoin="round" stroke-linecap="butt" d="m191.70581 287.95865l59.527557 0l0 47.370087l-59.527557 0z" fill-rule="nonzero"></path><path fill="#000000" d="m221.05426 311.7668q0 2.609375 -1.046875 4.328125q-1.046875 1.71875 -2.96875 2.34375l3.234375 3.359375l-2.296875 0l-2.640625 -3.0625l-0.515625 0.015625q-2.984375 0 -4.625 -1.828125q-1.625 -1.84375 -1.625 -5.171875q0 -3.3125 1.625 -5.140625q1.640625 -1.828125 4.65625 -1.828125q2.921875 0 4.5625 1.859375q1.640625 1.859375 1.640625 5.125zm-10.8125 0q0 2.75 1.171875 4.171875q1.171875 1.421875 3.40625 1.421875q2.265625 0 3.40625 -1.40625q1.15625 -1.421875 1.15625 -4.1875q0 -2.734375 -1.15625 -4.140625q-1.140625 -1.421875 -3.375 -1.421875q-2.265625 0 -3.4375 1.421875q-1.171875 1.421875 -1.171875 4.140625zm19.529648 -0.3125l4.609375 0l0 6.59375q-1.078125 0.34375 -2.1875 0.515625q-1.109375 0.1875 -2.578125 0.1875q-3.078125 0 -4.796875 -1.828125q-1.71875 -1.84375 -1.71875 -5.140625q0 -2.109375 0.84375 -3.703125q0.859375 -1.59375 2.453125 -2.4375q1.59375 -0.84375 3.734375 -0.84375q2.171875 0 4.046875 0.8125l-0.609375 1.390625q-1.84375 -0.78125 -3.53125 -0.78125q-2.484375 0 -3.875 1.484375q-1.390625 1.46875 -1.390625 4.078125q0 2.75 1.34375 4.171875q1.34375 1.40625 3.9375 1.40625q1.40625 0 2.75 -0.3125l0 -4.1875l-3.03125 0l0 -1.40625z" fill-rule="nonzero"></path><path fill="#000000" fill-opacity="0.0" d="m283.68225 401.80896l32.31494 -0.22045898" fill-rule="nonzero"></path><path stroke="#000000" stroke-width="2.0" stroke-linejoin="round" stroke-linecap="butt" d="m283.68225 401.80896l32.31494 -0.22045898" fill-rule="nonzero"></path><path fill="#92c68c" d="m315.99854 377.899l59.527557 0l0 47.370087l-59.527557 0z" fill-rule="nonzero"></path><path stroke="#000000" stroke-width="2.0" stroke-linejoin="round" stroke-linecap="butt" d="m315.99854 377.899l59.527557 0l0 47.370087l-59.527557 0z" fill-rule="nonzero"></path><path fill="#000000" d="m345.1334 408.50403l-1.578125 0l0 -6.390625l-7.140625 0l0 6.390625l-1.578125 0l0 -13.5625l1.578125 0l0 5.765625l7.140625 0l0 -5.765625l1.578125 0l0 13.5625zm11.99884 0l-1.6875 -4.3125l-5.4375 0l-1.671875 4.3125l-1.59375 0l5.359375 -13.625l1.328125 0l5.34375 13.625l-1.640625 0zm-2.1875 -5.734375l-1.5625 -4.203125q-0.3125 -0.796875 -0.640625 -1.953125q-0.203125 0.890625 -0.578125 1.953125l-1.59375 4.203125l4.375 0z" fill-rule="nonzero"></path><path fill="#92c68c" d="m191.70491 470.45996l59.527557 0l0 47.370117l-59.527557 0z" fill-rule="nonzero"></path><path stroke="#000000" stroke-width="2.0" stroke-linejoin="round" stroke-linecap="butt" d="m191.70491 470.45996l59.527557 0l0 47.370117l-59.527557 0z" fill-rule="nonzero"></path><path fill="#000000" d="m222.07817 494.26813q0 2.609375 -1.046875 4.328125q-1.046875 1.71875 -2.96875 2.34375l3.234375 3.359375l-2.296875 0l-2.640625 -3.0625l-0.515625 0.015625q-2.984375 0 -4.625 -1.828125q-1.625 -1.84375 -1.625 -5.171875q0 -3.3125 1.625 -5.140625q1.640625 -1.828125 4.65625 -1.828125q2.921875 0 4.5625 1.859375q1.640625 1.859375 1.640625 5.125zm-10.8125 0q0 2.75 1.171875 4.171875q1.171875 1.421875 3.40625 1.421875q2.265625 0 3.40625 -1.40625q1.15625 -1.421875 1.15625 -4.1875q0 -2.734375 -1.15625 -4.140625q-1.140625 -1.421875 -3.375 -1.421875q-2.265625 0 -3.4375 1.421875q-1.171875 1.421875 -1.171875 4.140625zm15.139023 1.15625l0 5.640625l-1.578125 0l0 -13.5625l3.71875 0q2.5 0 3.6875 0.953125q1.203125 0.953125 1.203125 2.875q0 2.6875 -2.734375 3.640625l3.6875 6.09375l-1.859375 0l-3.296875 -5.640625l-2.828125 0zm0 -1.359375l2.171875 0q1.671875 0 2.4375 -0.65625q0.78125 -0.671875 0.78125 -2.0q0 -1.34375 -0.796875 -1.9375q-0.78125 -0.59375 -2.53125 -0.59375l-2.0625 0l0 5.1875z" fill-rule="nonzero"></path><path fill="#000000" fill-opacity="0.0" d="m398.44748 368.48883l176.91336 0l0 37.700806l-176.91336 0z" fill-rule="nonzero"></path><path fill="#000000" d="m413.04123 392.84885l-1.265625 0l0 -8.140625q0 -1.015625 0.0625 -1.921875q-0.171875 0.15625 -0.375 0.34375q-0.203125 0.171875 -1.859375 1.515625l-0.6875 -0.890625l3.03125 -2.328125l1.09375 0l0 11.421875zm4.4765625 -4.890625q0 -3.359375 1.296875 -5.03125q1.3125 -1.671875 3.875 -1.671875q0.890625 0 1.390625 0.15625l0 1.109375q-0.59375 -0.1875 -1.375 -0.1875q-1.828125 0 -2.796875 1.140625q-0.96875 1.140625 -1.0625 3.59375l0.09375 0q0.859375 -1.34375 2.71875 -1.34375q1.53125 0 2.421875 0.9375q0.890625 0.921875 0.890625 2.515625q0 1.78125 -0.984375 2.8125q-0.96875 1.015625 -2.625 1.015625q-1.765625 0 -2.8125 -1.328125q-1.03125 -1.34375 -1.03125 -3.71875zm3.828125 3.9375q1.109375 0 1.71875 -0.6875q0.625 -0.703125 0.625 -2.03125q0 -1.125 -0.578125 -1.765625q-0.5625 -0.65625 -1.703125 -0.65625q-0.703125 0 -1.296875 0.296875q-0.578125 0.28125 -0.921875 0.796875q-0.34375 0.5 -0.34375 1.046875q0 0.796875 0.3125 1.5q0.3125 0.6875 0.875 1.09375q0.578125 0.40625 1.3125 0.40625zm12.6953125 -5.59375q0 6.703125 -5.1875 6.703125q-0.90625 0 -1.4375 -0.15625l0 -1.125q0.625 0.203125 1.421875 0.203125q1.875 0 2.828125 -1.15625q0.953125 -1.15625 1.046875 -3.5625l-0.09375 0q-0.4375 0.65625 -1.15625 1.0q-0.703125 0.328125 -1.59375 0.328125q-1.515625 0 -2.40625 -0.90625q-0.890625 -0.90625 -0.890625 -2.53125q0 -1.78125 1.0 -2.8125q1.0 -1.03125 2.625 -1.03125q1.15625 0 2.03125 0.609375q0.875 0.59375 1.34375 1.734375q0.46875 1.140625 0.46875 2.703125zm-3.84375 -3.9375q-1.125 0 -1.734375 0.71875q-0.609375 0.71875 -0.609375 2.0q0 1.125 0.5625 1.78125q0.5625 0.640625 1.71875 0.640625q0.703125 0 1.296875 -0.28125q0.609375 -0.296875 0.953125 -0.796875q0.34375 -0.5 0.34375 -1.046875q0 -0.828125 -0.328125 -1.515625q-0.3125 -0.703125 -0.890625 -1.09375q-0.578125 -0.40625 -1.3125 -0.40625zm5.8828125 9.65625q0 -0.53125 0.234375 -0.796875q0.25 -0.265625 0.6875 -0.265625q0.453125 0 0.703125 0.265625q0.265625 0.265625 0.265625 0.796875q0 0.5 -0.265625 0.78125q-0.25 0.28125 -0.703125 0.28125q-0.390625 0 -0.65625 -0.25q-0.265625 -0.25 -0.265625 -0.8125zm11.3671875 0.828125l-7.515625 0l0 -1.125l3.015625 -3.015625q1.375 -1.390625 1.8125 -1.984375q0.4375 -0.59375 0.65625 -1.15625q0.21875 -0.5625 0.21875 -1.21875q0 -0.90625 -0.5625 -1.4375q-0.546875 -0.546875 -1.53125 -0.546875q-0.71875 0 -1.359375 0.234375q-0.625 0.234375 -1.40625 0.859375l-0.6875 -0.890625q1.578125 -1.3125 3.4375 -1.3125q1.609375 0 2.515625 0.828125q0.921875 0.828125 0.921875 2.21875q0 1.078125 -0.609375 2.140625q-0.609375 1.0625 -2.28125 2.6875l-2.5 2.453125l0 0.0625l5.875 0l0 1.203125zm5.2109375 -6.984375q1.796875 0 2.828125 0.90625q1.046875 0.890625 1.046875 2.4375q0 1.78125 -1.140625 2.796875q-1.125 1.0 -3.109375 1.0q-1.921875 0 -2.9375 -0.625l0 -1.25q0.546875 0.359375 1.359375 0.5625q0.8125 0.1875 1.59375 0.1875q1.375 0 2.140625 -0.640625q0.765625 -0.65625 0.765625 -1.875q0 -2.390625 -2.9375 -2.390625q-0.734375 0 -1.984375 0.21875l-0.671875 -0.421875l0.4375 -5.34375l5.671875 0l0 1.1875l-4.5625 0l-0.296875 3.4375q0.90625 -0.1875 1.796875 -0.1875zm13.6171875 4.359375l-1.6875 0l0 2.625l-1.25 0l0 -2.625l-5.546875 0l0 -1.140625l5.421875 -7.71875l1.375 0l0 7.671875l1.6875 0l0 1.1875zm-2.9375 -1.1875l0 -3.796875q0 -1.109375 0.078125 -2.515625l-0.0625 0q-0.375 0.75 -0.703125 1.234375l-3.5625 5.078125l4.25 0zm4.4453125 2.984375q0 -0.53125 0.234375 -0.796875q0.25 -0.265625 0.6875 -0.265625q0.453125 0 0.703125 0.265625q0.265625 0.265625 0.265625 0.796875q0 0.5 -0.265625 0.78125q-0.25 0.28125 -0.703125 0.28125q-0.390625 0 -0.65625 -0.25q-0.265625 -0.25 -0.265625 -0.8125zm8.6640625 0.828125l-1.265625 0l0 -8.140625q0 -1.015625 0.0625 -1.921875q-0.171875 0.15625 -0.375 0.34375q-0.203125 0.171875 -1.859375 1.515625l-0.6875 -0.890625l3.03125 -2.328125l1.09375 0l0 11.421875zm11.8515625 -6.546875q0 6.703125 -5.1875 6.703125q-0.90625 0 -1.4375 -0.15625l0 -1.125q0.625 0.203125 1.421875 0.203125q1.875 0 2.828125 -1.15625q0.953125 -1.15625 1.046875 -3.5625l-0.09375 0q-0.4375 0.65625 -1.15625 1.0q-0.703125 0.328125 -1.59375 0.328125q-1.515625 0 -2.40625 -0.90625q-0.890625 -0.90625 -0.890625 -2.53125q0 -1.78125 1.0 -2.8125q1.0 -1.03125 2.625 -1.03125q1.15625 0 2.03125 0.609375q0.875 0.59375 1.34375 1.734375q0.46875 1.140625 0.46875 2.703125zm-3.84375 -3.9375q-1.125 0 -1.734375 0.71875q-0.609375 0.71875 -0.609375 2.0q0 1.125 0.5625 1.78125q0.5625 0.640625 1.71875 0.640625q0.703125 0 1.296875 -0.28125q0.609375 -0.296875 0.953125 -0.796875q0.34375 -0.5 0.34375 -1.046875q0 -0.828125 -0.328125 -1.515625q-0.3125 -0.703125 -0.890625 -1.09375q-0.578125 -0.40625 -1.3125 -0.40625zm12.9921875 10.484375l-7.515625 0l0 -1.125l3.015625 -3.015625q1.375 -1.390625 1.8125 -1.984375q0.4375 -0.59375 0.65625 -1.15625q0.21875 -0.5625 0.21875 -1.21875q0 -0.90625 -0.5625 -1.4375q-0.546875 -0.546875 -1.53125 -0.546875q-0.71875 0 -1.359375 0.234375q-0.625 0.234375 -1.40625 0.859375l-0.6875 -0.890625q1.578125 -1.3125 3.4375 -1.3125q1.609375 0 2.515625 0.828125q0.921875 0.828125 0.921875 2.21875q0 1.078125 -0.609375 2.140625q-0.609375 1.0625 -2.28125 2.6875l-2.5 2.453125l0 0.0625l5.875 0l0 1.203125zm2.0390625 -0.828125q0 -0.53125 0.234375 -0.796875q0.25 -0.265625 0.6875 -0.265625q0.453125 0 0.703125 0.265625q0.265625 0.265625 0.265625 0.796875q0 0.5 -0.265625 0.78125q-0.25 0.28125 -0.703125 0.28125q-0.390625 0 -0.65625 -0.25q-0.265625 -0.25 -0.265625 -0.8125zm11.4296875 -4.90625q0 2.96875 -0.9375 4.4375q-0.9375 1.453125 -2.859375 1.453125q-1.84375 0 -2.8125 -1.5q-0.953125 -1.5 -0.953125 -4.390625q0 -2.984375 0.921875 -4.421875q0.9375 -1.453125 2.84375 -1.453125q1.859375 0 2.828125 1.515625q0.96875 1.5 0.96875 4.359375zm-6.25 0q0 2.5 0.578125 3.640625q0.59375 1.125 1.875 1.125q1.296875 0 1.875 -1.140625q0.59375 -1.15625 0.59375 -3.625q0 -2.453125 -0.59375 -3.59375q-0.578125 -1.15625 -1.875 -1.15625q-1.28125 0 -1.875 1.140625q-0.578125 1.125 -0.578125 3.609375zm12.757782 -5.6875l-4.265625 11.421875l-1.2968445 0l4.2655945 -11.421875l1.296875 0zm5.75 11.421875l-1.265625 0l0 -8.140625q0 -1.015625 0.0625 -1.921875q-0.171875 0.15625 -0.375 0.34375q-0.203125 0.171875 -1.859375 1.515625l-0.6875 -0.890625l3.03125 -2.328125l1.09375 0l0 11.421875zm8.1171875 -11.59375q1.5625 0 2.46875 0.734375q0.921875 0.71875 0.921875 2.0q0 0.84375 -0.53125 1.546875q-0.515625 0.6875 -1.65625 1.265625q1.390625 0.65625 1.96875 1.390625q0.59375 0.734375 0.59375 1.6875q0 1.421875 -1.0 2.28125q-0.984375 0.84375 -2.71875 0.84375q-1.828125 0 -2.8125 -0.796875q-0.984375 -0.8125 -0.984375 -2.28125q0 -1.953125 2.390625 -3.046875q-1.078125 -0.609375 -1.546875 -1.3125q-0.46875 -0.71875 -0.46875 -1.59375q0 -1.234375 0.921875 -1.96875q0.921875 -0.75 2.453125 -0.75zm-2.46875 8.703125q0 0.9375 0.65625 1.46875q0.65625 0.515625 1.828125 0.515625q1.171875 0 1.8125 -0.546875q0.65625 -0.546875 0.65625 -1.5q0 -0.75 -0.609375 -1.34375q-0.609375 -0.59375 -2.125 -1.140625q-1.171875 0.5 -1.703125 1.109375q-0.515625 0.59375 -0.515625 1.4375zm2.453125 -7.640625q-0.96875 0 -1.53125 0.46875q-0.546875 0.46875 -0.546875 1.25q0 0.71875 0.453125 1.234375q0.46875 0.515625 1.703125 1.03125q1.125 -0.46875 1.578125 -1.0q0.46875 -0.546875 0.46875 -1.265625q0 -0.796875 -0.5625 -1.25q-0.5625 -0.46875 -1.5625 -0.46875z" fill-rule="nonzero"></path><path fill="#cfe2f3" d="m158.01295 378.7751l0 0c0 -6.36084 5.1564636 -11.517303 11.517288 -11.517303l102.634705 0c3.0545654 0 5.9840393 1.21344 8.143951 3.373352c2.159912 2.159912 3.373352 5.089386 3.373352 8.143951l0 46.06778c0 6.3608093 -5.156494 11.517303 -11.517303 11.517303l-102.634705 0c-6.3608246 0 -11.517288 -5.156494 -11.517288 -11.517303z" fill-rule="nonzero"></path><path stroke="#000000" stroke-width="2.0" stroke-linejoin="round" stroke-linecap="butt" d="m158.01295 378.7751l0 0c0 -6.36084 5.1564636 -11.517303 11.517288 -11.517303l102.634705 0c3.0545654 0 5.9840393 1.21344 8.143951 3.373352c2.159912 2.159912 3.373352 5.089386 3.373352 8.143951l0 46.06778c0 6.3608093 -5.156494 11.517303 -11.517303 11.517303l-102.634705 0c-6.3608246 0 -11.517288 -5.156494 -11.517288 -11.517303z" fill-rule="nonzero"></path><path fill="#000000" d="m183.53119 403.27835q0.34375 -0.46875 1.03125 -1.25l2.765625 -2.921875l1.53125 0l-3.46875 3.640625l3.71875 4.921875l-1.578125 0l-3.015625 -4.046875l-0.984375 0.84375l0 3.203125l-1.28125 0l0 -12.15625l1.28125 0l0 6.4375q0 0.4375 -0.0625 1.328125l0.0625 0zm10.7421875 4.546875q-1.90625 0 -3.0 -1.15625q-1.09375 -1.15625 -1.09375 -3.21875q0 -2.0625 1.015625 -3.28125q1.015625 -1.21875 2.734375 -1.21875q1.609375 0 2.546875 1.0625q0.9375 1.046875 0.9375 2.78125l0 0.828125l-5.890625 0q0.03125 1.5 0.75 2.28125q0.734375 0.78125 2.046875 0.78125q1.375 0 2.734375 -0.578125l0 1.15625q-0.6875 0.296875 -1.3125 0.421875q-0.609375 0.140625 -1.46875 0.140625zm-0.359375 -7.796875q-1.03125 0 -1.640625 0.671875q-0.609375 0.671875 -0.71875 1.859375l4.46875 0q0 -1.21875 -0.546875 -1.875q-0.546875 -0.65625 -1.5625 -0.65625zm9.3359375 7.796875q-1.90625 0 -3.0 -1.15625q-1.09375 -1.15625 -1.09375 -3.21875q0 -2.0625 1.015625 -3.28125q1.015625 -1.21875 2.734375 -1.21875q1.609375 0 2.546875 1.0625q0.9375 1.046875 0.9375 2.78125l0 0.828125l-5.890625 0q0.03125 1.5 0.75 2.28125q0.734375 0.78125 2.046875 0.78125q1.375 0 2.734375 -0.578125l0 1.15625q-0.6875 0.296875 -1.3125 0.421875q-0.609375 0.140625 -1.46875 0.140625zm-0.359375 -7.796875q-1.03125 0 -1.640625 0.671875q-0.609375 0.671875 -0.71875 1.859375l4.46875 0q0 -1.21875 -0.546875 -1.875q-0.546875 -0.65625 -1.5625 -0.65625zm9.6953125 7.796875q-0.828125 0 -1.53125 -0.3125q-0.6875 -0.3125 -1.15625 -0.953125l-0.09375 0q0.09375 0.75 0.09375 1.4375l0 3.515625l-1.296875 0l0 -12.40625l1.0625 0l0.171875 1.171875l0.0625 0q0.5 -0.703125 1.15625 -1.015625q0.671875 -0.3125 1.53125 -0.3125q1.703125 0 2.625 1.171875q0.9375 1.15625 0.9375 3.25q0 2.109375 -0.953125 3.28125q-0.9375 1.171875 -2.609375 1.171875zm-0.1875 -7.78125q-1.3125 0 -1.90625 0.734375q-0.578125 0.71875 -0.59375 2.3125l0 0.28125q0 1.8125 0.59375 2.59375q0.609375 0.765625 1.9375 0.765625q1.109375 0 1.734375 -0.890625q0.640625 -0.90625 0.640625 -2.484375q0 -1.59375 -0.640625 -2.453125q-0.625 -0.859375 -1.765625 -0.859375zm11.2734375 7.625l-0.25 -1.21875l-0.0625 0q-0.640625 0.796875 -1.28125 1.09375q-0.640625 0.28125 -1.59375 0.28125q-1.265625 0 -2.0 -0.65625q-0.71875 -0.65625 -0.71875 -1.875q0 -2.59375 4.15625 -2.71875l1.453125 -0.046875l0 -0.53125q0 -1.0 -0.4375 -1.484375q-0.4375 -0.484375 -1.390625 -0.484375q-1.0625 0 -2.421875 0.65625l-0.390625 -0.984375q0.625 -0.34375 1.375 -0.53125q0.765625 -0.203125 1.515625 -0.203125q1.53125 0 2.265625 0.6875q0.75 0.671875 0.75 2.171875l0 5.84375l-0.96875 0zm-2.921875 -0.921875q1.203125 0 1.890625 -0.65625q0.703125 -0.671875 0.703125 -1.859375l0 -0.78125l-1.296875 0.0625q-1.546875 0.046875 -2.234375 0.484375q-0.6875 0.421875 -0.6875 1.3125q0 0.703125 0.421875 1.078125q0.4375 0.359375 1.203125 0.359375zm7.8515625 0.921875l-1.296875 0l0 -12.15625l1.296875 0l0 12.15625zm4.046875 0l-1.296875 0l0 -8.5625l1.296875 0l0 8.5625zm-1.40625 -10.890625q0 -0.4375 0.21875 -0.640625q0.21875 -0.21875 0.546875 -0.21875q0.3125 0 0.53125 0.21875q0.234375 0.203125 0.234375 0.640625q0 0.4375 -0.234375 0.65625q-0.21875 0.21875 -0.53125 0.21875q-0.328125 0 -0.546875 -0.21875q-0.21875 -0.21875 -0.21875 -0.65625zm6.03125 10.890625l-3.25 -8.5625l1.390625 0l1.84375 5.078125q0.625 1.78125 0.734375 2.3125l0.0625 0q0.09375 -0.421875 0.546875 -1.71875q0.453125 -1.296875 2.046875 -5.671875l1.390625 0l-3.25 8.5625l-1.515625 0zm9.765625 0.15625q-1.90625 0 -3.0 -1.15625q-1.09375 -1.15625 -1.09375 -3.21875q0 -2.0625 1.015625 -3.28125q1.015625 -1.21875 2.734375 -1.21875q1.609375 0 2.546875 1.0625q0.9375 1.046875 0.9375 2.78125l0 0.828125l-5.890625 0q0.03125 1.5 0.75 2.28125q0.734375 0.78125 2.046875 0.78125q1.375 0 2.734375 -0.578125l0 1.15625q-0.6875 0.296875 -1.3125 0.421875q-0.609375 0.140625 -1.46875 0.140625zm-0.359375 -7.796875q-1.03125 0 -1.640625 0.671875q-0.609375 0.671875 -0.71875 1.859375l4.46875 0q0 -1.21875 -0.546875 -1.875q-0.546875 -0.65625 -1.5625 -0.65625zm11.5390625 6.484375l-0.0625 0q-0.90625 1.3125 -2.6875 1.3125q-1.6875 0 -2.625 -1.140625q-0.921875 -1.15625 -0.921875 -3.28125q0 -2.109375 0.9375 -3.28125q0.9375 -1.171875 2.609375 -1.171875q1.734375 0 2.671875 1.265625l0.09375 0l-0.046875 -0.625l-0.03125 -0.59375l0 -3.484375l1.296875 0l0 12.15625l-1.0625 0l-0.171875 -1.15625zm-2.59375 0.21875q1.328125 0 1.921875 -0.71875q0.609375 -0.71875 0.609375 -2.328125l0 -0.28125q0 -1.8125 -0.609375 -2.59375q-0.609375 -0.78125 -1.9375 -0.78125q-1.140625 0 -1.75 0.890625q-0.59375 0.890625 -0.59375 2.5q0 1.640625 0.59375 2.484375q0.609375 0.828125 1.765625 0.828125z" fill-rule="nonzero"></path><path fill="#9fc5e8" d="m242.29425 317.72128l45.322845 0l0 25.165375l-45.322845 0z" fill-rule="nonzero"></path><path stroke="#000000" stroke-width="2.0" stroke-linejoin="round" stroke-linecap="butt" d="m242.29425 317.72128l45.322845 0l0 25.165375l-45.322845 0z" fill-rule="nonzero"></path><path fill="#000000" d="m256.57675 336.16397l-4.4374847 -11.453125l1.640625 0l2.9687347 8.3125q0.359375 1.0 0.609375 1.875q0.265625 -0.9375 0.609375 -1.875l3.09375 -8.3125l1.546875 0l-4.484375 11.453125l-1.546875 0zm7.65625 0l0 -11.453125l1.515625 0l0 11.453125l-1.515625 0zm4.1796875 0l0 -11.453125l4.328125 0q1.140625 0 1.734375 0.109375q0.84375 0.140625 1.40625 0.53125q0.578125 0.390625 0.921875 1.109375q0.359375 0.703125 0.359375 1.5625q0 1.453125 -0.9375 2.46875q-0.921875 1.015625 -3.359375 1.015625l-2.9375 0l0 4.65625l-1.515625 0zm1.515625 -6.015625l2.96875 0q1.46875 0 2.078125 -0.546875q0.625 -0.546875 0.625 -1.53125q0 -0.71875 -0.375 -1.234375q-0.359375 -0.515625 -0.953125 -0.671875q-0.375 -0.109375 -1.40625 -0.109375l-2.9375 0l0 4.09375z" fill-rule="nonzero"></path><path fill="#9fc5e8" d="m248.11981 324.87592l45.322845 0l0 25.165344l-45.322845 0z" fill-rule="nonzero"></path><path stroke="#000000" stroke-width="2.0" stroke-linejoin="round" stroke-linecap="butt" d="m248.11981 324.87592l45.322845 0l0 25.165344l-45.322845 0z" fill-rule="nonzero"></path><path fill="#000000" d="m267.06638 331.8967l1.4375 0l-4.125 11.421875l-1.3125 0l-4.09375 -11.421875l1.40625 0l2.625 7.390625q0.453125 1.265625 0.71875 2.46875q0.28125 -1.265625 0.734375 -2.515625l2.609375 -7.34375zm3.0078125 11.421875l0 -11.421875l1.328125 0l0 11.421875l-1.328125 0zm11.6953125 -8.09375q0 1.734375 -1.1875 2.671875q-1.171875 0.921875 -3.375 0.921875l-1.34375 0l0 4.5l-1.328125 0l0 -11.421875l2.953125 0q4.28125 0 4.28125 3.328125zm-5.90625 2.453125l1.1875 0q1.765625 0 2.546875 -0.5625q0.796875 -0.578125 0.796875 -1.828125q0 -1.140625 -0.75 -1.6875q-0.734375 -0.5625 -2.296875 -0.5625l-1.484375 0l0 4.640625z" fill-rule="nonzero"></path><path fill="#9fc5e8" d="m244.35408 458.37952l45.32283 0l0 25.165344l-45.32283 0z" fill-rule="nonzero"></path><path stroke="#000000" stroke-width="2.0" stroke-linejoin="round" stroke-linecap="butt" d="m244.35408 458.37952l45.32283 0l0 25.165344l-45.32283 0z" fill-rule="nonzero"></path><path fill="#000000" d="m263.30066 465.4003l1.4375 0l-4.125 11.421875l-1.3125 0l-4.09375 -11.421875l1.40625 0l2.625 7.390625q0.453125 1.265625 0.71875 2.46875q0.28125 -1.265625 0.734375 -2.515625l2.609375 -7.34375zm3.0078125 11.421875l0 -11.421875l1.328125 0l0 11.421875l-1.328125 0zm11.6953125 -8.09375q0 1.734375 -1.1875 2.671875q-1.171875 0.921875 -3.375 0.921875l-1.34375 0l0 4.5l-1.328125 0l0 -11.421875l2.953125 0q4.28125 0 4.28125 3.328125zm-5.90625 2.453125l1.1875 0q1.765625 0 2.546875 -0.5625q0.796875 -0.578125 0.796875 -1.828125q0 -1.140625 -0.75 -1.6875q-0.734375 -0.5625 -2.296875 -0.5625l-1.484375 0l0 4.640625z" fill-rule="nonzero"></path><path fill="#000000" fill-opacity="0.0" d="m221.46959 335.32874l-0.62991333 31.937012" fill-rule="nonzero"></path><path stroke="#000000" stroke-width="2.0" stroke-linejoin="round" stroke-linecap="butt" d="m221.46959 335.32874l-0.62991333 31.937012" fill-rule="nonzero"></path><path fill="#000000" fill-opacity="0.0" d="m220.8476 436.36017l-0.12599182 33.13385" fill-rule="nonzero"></path><path stroke="#000000" stroke-width="2.0" stroke-linejoin="round" stroke-linecap="butt" d="m220.8476 436.36017l-0.12599182 33.13385" fill-rule="nonzero"></path><path fill="#000000" fill-opacity="0.0" d="m532.1559 233.37064l176.91339 0l0 37.700775l-176.91339 0z" fill-rule="nonzero"></path><path fill="#000000" d="m543.01526 260.29062l0 -13.562485l1.578125 0l0 12.14061l5.984375 0l0 1.421875l-7.5625 0zm17.15216 -10.374985q0 1.296875 -0.734375 2.125q-0.71875 0.828125 -2.046875 1.109375l0 0.078125q1.625 0.203125 2.40625 1.03125q0.796875 0.828125 0.796875 2.1874847q0 1.9375 -1.34375 2.984375q-1.34375 1.046875 -3.828125 1.046875q-1.078125 0 -1.96875 -0.171875q-0.890625 -0.15625 -1.734375 -0.5625l0 -1.46875q0.875 0.4375 1.875 0.671875q1.0 0.21875 1.890625 0.21875q3.515625 0 3.515625 -2.75q0 -2.4687347 -3.875 -2.4687347l-1.34375 0l0 -1.328125l1.359375 0q1.578125 0 2.5 -0.703125q0.9375 -0.703125 0.9375 -1.9375q0 -1.0 -0.6875 -1.5625q-0.671875 -0.5625 -1.84375 -0.5625q-0.890625 0 -1.6875 0.25q-0.78125 0.234375 -1.796875 0.875l-0.765625 -1.03125q0.828125 -0.65625 1.921875 -1.03125q1.09375 -0.390625 2.296875 -0.390625q1.96875 0 3.0625 0.90625q1.09375 0.90625 1.09375 2.484375zm16.575928 10.374985l-1.6875 -4.3124847l-5.4375 0l-1.671875 4.3124847l-1.59375 0l5.359375 -13.624985l1.328125 0l5.34375 13.624985l-1.640625 0zm-2.1875 -5.7343597l-1.5625 -4.203125q-0.3125 -0.796875 -0.640625 -1.953125q-0.203125 0.890625 -0.578125 1.953125l-1.59375 4.203125l4.375 0zm13.555908 -4.4375l0 0.984375l-1.875 0.21875q0.25 0.328125 0.453125 0.859375q0.203125 0.515625 0.203125 1.171875q0 1.484375 -1.015625 2.375q-1.015625 0.89060974 -2.796875 0.89060974q-0.453125 0 -0.859375 -0.0625q-0.984375 0.515625 -0.984375 1.296875q0 0.421875 0.34375 0.625q0.34375 0.203125 1.1875 0.203125l1.796875 0q1.640625 0 2.53125 0.703125q0.890625 0.6875 0.890625 2.015625q0 1.6875 -1.359375 2.5625q-1.359375 0.890625 -3.953125 0.890625q-1.984375 0 -3.078125 -0.75q-1.078125 -0.734375 -1.078125 -2.09375q0 -0.921875 0.59375 -1.609375q0.59375 -0.671875 1.671875 -0.90625q-0.390625 -0.171875 -0.65625 -0.546875q-0.265625 -0.375 -0.265625 -0.859375q0 -0.5625 0.296875 -0.96875q0.296875 -0.421875 0.9375 -0.8125q-0.78125 -0.32810974 -1.28125 -1.1093597q-0.5 -0.78125 -0.5 -1.78125q0 -1.671875 1.0 -2.578125q1.0 -0.90625 2.84375 -0.90625q0.796875 0 1.4375 0.1875l3.515625 0zm-8.109375 11.874985q0 0.828125 0.6875 1.25q0.703125 0.4375 2.0 0.4375q1.9375 0 2.875 -0.578125q0.9375 -0.578125 0.9375 -1.578125q0 -0.828125 -0.515625 -1.15625q-0.515625 -0.3125 -1.921875 -0.3125l-1.84375 0q-1.046875 0 -1.640625 0.5q-0.578125 0.5 -0.578125 1.4375zm0.84375 -8.60936q0 1.0625 0.59375 1.609375q0.609375 0.546875 1.6875 0.546875q2.25 0 2.25 -2.1875q0 -2.296875 -2.28125 -2.296875q-1.09375 0 -1.671875 0.59375q-0.578125 0.578125 -0.578125 1.734375zm13.455261 7.0937347q-2.25 0 -3.5625 -1.375q-1.296875 -1.375 -1.296875 -3.8124847q0 -2.453125 1.203125 -3.90625q1.21875 -1.453125 3.265625 -1.453125q1.90625 0 3.015625 1.265625q1.125 1.25 1.125 3.3125l0 0.96875l-7.015625 0q0.046875 1.7968597 0.90625 2.7343597q0.859375 0.921875 2.421875 0.921875q1.640625 0 3.25 -0.6875l0 1.375q-0.8125 0.34375 -1.546875 0.5q-0.734375 0.15625 -1.765625 0.15625zm-0.40625 -9.249985q-1.234375 0 -1.96875 0.796875q-0.71875 0.796875 -0.84375 2.203125l5.3125 0q0 -1.453125 -0.65625 -2.21875q-0.640625 -0.78125 -1.84375 -0.78125zm13.544922 9.062485l0 -6.5781097q0 -1.25 -0.578125 -1.859375q-0.5625 -0.609375 -1.765625 -0.609375q-1.59375 0 -2.34375 0.875q-0.734375 0.859375 -0.734375 2.84375l0 5.3281097l-1.53125 0l0 -10.17186l1.25 0l0.25 1.390625l0.0625 0q0.484375 -0.75 1.328125 -1.15625q0.859375 -0.421875 1.90625 -0.421875q1.84375 0 2.765625 0.890625q0.921875 0.890625 0.921875 2.828125l0 6.6406097l-1.53125 0zm7.7787476 -1.078125q0.40625 0 0.78125 -0.0625q0.390625 -0.0625 0.609375 -0.125l0 1.171875q-0.25 0.125 -0.75 0.203125q-0.484375 0.078125 -0.875 0.078125q-2.9375 0 -2.9375 -3.109375l0 -6.0468597l-1.46875 0l0 -0.75l1.46875 -0.640625l0.640625 -2.171875l0.890625 0l0 2.359375l2.953125 0l0 1.203125l-2.953125 0l0 5.9843597q0 0.921875 0.4375 1.421875q0.4375 0.484375 1.203125 0.484375zm16.35431 1.078125l-8.921875 0l0 -1.328125l3.578125 -3.5937347q1.625 -1.640625 2.140625 -2.34375q0.53125 -0.71875 0.78125 -1.375q0.265625 -0.671875 0.265625 -1.4375q0 -1.09375 -0.65625 -1.71875q-0.65625 -0.640625 -1.828125 -0.640625q-0.84375 0 -1.609375 0.28125q-0.75 0.265625 -1.671875 1.0l-0.8125 -1.046875q1.875 -1.5625 4.078125 -1.5625q1.90625 0 2.984375 0.984375q1.09375 0.984375 1.09375 2.625q0 1.296875 -0.71875 2.5625q-0.71875 1.25 -2.71875 3.1875l-2.96875 2.9062347l0 0.078125l6.984375 0l0 1.421875z" fill-rule="nonzero"></path><path fill="#000000" fill-opacity="0.0" d="m656.8651 214.27792l0 60.881897" fill-rule="nonzero"></path><path stroke="#000000" stroke-width="2.0" stroke-linejoin="round" stroke-linecap="butt" d="m656.8651 214.27792l0 60.881897" fill-rule="nonzero"></path><path fill="#92c68c" d="m688.3016 287.25986l59.527588 0l0 47.370087l-59.527588 0z" fill-rule="nonzero"></path><path stroke="#000000" stroke-width="2.0" stroke-linejoin="round" stroke-linecap="butt" d="m688.3016 287.25986l59.527588 0l0 47.370087l-59.527588 0z" fill-rule="nonzero"></path><path fill="#000000" d="m717.65 311.06802q0 2.609375 -1.046875 4.328125q-1.046875 1.71875 -2.96875 2.34375l3.234375 3.359375l-2.296875 0l-2.640625 -3.0625l-0.515625 0.015625q-2.984375 0 -4.625 -1.828125q-1.625 -1.84375 -1.625 -5.171875q0 -3.3125 1.625 -5.140625q1.640625 -1.828125 4.65625 -1.828125q2.921875 0 4.5625 1.859375q1.640625 1.859375 1.640625 5.125zm-10.8125 0q0 2.75 1.171875 4.171875q1.171875 1.421875 3.40625 1.421875q2.265625 0 3.40625 -1.40625q1.15625 -1.421875 1.15625 -4.1875q0 -2.734375 -1.15625 -4.140625q-1.140625 -1.421875 -3.375 -1.421875q-2.265625 0 -3.4375 1.421875q-1.171875 1.421875 -1.171875 4.140625zm19.529663 -0.3125l4.609375 0l0 6.59375q-1.078125 0.34375 -2.1875 0.515625q-1.109375 0.1875 -2.578125 0.1875q-3.078125 0 -4.796875 -1.828125q-1.71875 -1.84375 -1.71875 -5.140625q0 -2.109375 0.84375 -3.703125q0.859375 -1.59375 2.453125 -2.4375q1.59375 -0.84375 3.734375 -0.84375q2.171875 0 4.046875 0.8125l-0.609375 1.390625q-1.84375 -0.78125 -3.53125 -0.78125q-2.484375 0 -3.875 1.484375q-1.390625 1.46875 -1.390625 4.078125q0 2.75 1.34375 4.171875q1.34375 1.40625 3.9375 1.40625q1.40625 0 2.75 -0.3125l0 -4.1875l-3.03125 0l0 -1.40625z" fill-rule="nonzero"></path><path fill="#92c68c" d="m563.50104 377.89206l59.527527 0l0 47.370087l-59.527527 0z" fill-rule="nonzero"></path><path stroke="#000000" stroke-width="2.0" stroke-linejoin="round" stroke-linecap="butt" d="m563.50104 377.89206l59.527527 0l0 47.370087l-59.527527 0z" fill-rule="nonzero"></path><path fill="#000000" d="m592.63586 408.4971l-1.578125 0l0 -6.390625l-7.140625 0l0 6.390625l-1.578125 0l0 -13.5625l1.578125 0l0 5.765625l7.140625 0l0 -5.765625l1.578125 0l0 13.5625zm11.99884 0l-1.6875 -4.3125l-5.4375 0l-1.671875 4.3125l-1.59375 0l5.359375 -13.625l1.328125 0l5.34375 13.625l-1.640625 0zm-2.1875 -5.734375l-1.5625 -4.203125q-0.3125 -0.796875 -0.640625 -1.953125q-0.203125 0.890625 -0.578125 1.953125l-1.59375 4.203125l4.375 0z" fill-rule="nonzero"></path><path fill="#92c68c" d="m689.1877 470.45996l59.527527 0l0 47.370117l-59.527527 0z" fill-rule="nonzero"></path><path stroke="#000000" stroke-width="2.0" stroke-linejoin="round" stroke-linecap="butt" d="m689.1877 470.45996l59.527527 0l0 47.370117l-59.527527 0z" fill-rule="nonzero"></path><path fill="#000000" d="m719.5609 494.26813q0 2.609375 -1.046875 4.328125q-1.046875 1.71875 -2.96875 2.34375l3.234375 3.359375l-2.296875 0l-2.640625 -3.0625l-0.515625 0.015625q-2.984375 0 -4.625 -1.828125q-1.625 -1.84375 -1.625 -5.171875q0 -3.3125 1.625 -5.140625q1.640625 -1.828125 4.65625 -1.828125q2.921875 0 4.5625 1.859375q1.640625 1.859375 1.640625 5.125zm-10.8125 0q0 2.75 1.171875 4.171875q1.171875 1.421875 3.40625 1.421875q2.265625 0 3.40625 -1.40625q1.15625 -1.421875 1.15625 -4.1875q0 -2.734375 -1.15625 -4.140625q-1.140625 -1.421875 -3.375 -1.421875q-2.265625 0 -3.4375 1.421875q-1.171875 1.421875 -1.171875 4.140625zm15.139038 1.15625l0 5.640625l-1.578125 0l0 -13.5625l3.71875 0q2.5 0 3.6875 0.953125q1.203125 0.953125 1.203125 2.875q0 2.6875 -2.734375 3.640625l3.6875 6.09375l-1.859375 0l-3.296875 -5.640625l-2.828125 0zm0 -1.359375l2.171875 0q1.671875 0 2.4375 -0.65625q0.78125 -0.671875 0.78125 -2.0q0 -1.34375 -0.796875 -1.9375q-0.78125 -0.59375 -2.53125 -0.59375l-2.0625 0l0 5.1875z" fill-rule="nonzero"></path><path fill="#cfe2f3" d="m655.4957 378.543l0 0c0 -6.3608093 5.156494 -11.517273 11.517273 -11.517273l102.634705 0c3.0546265 0 5.98407 1.2134094 8.143982 3.3733215c2.159912 2.159912 3.373352 5.089386 3.373352 8.143951l0 46.06778c0 6.36084 -5.156494 11.517303 -11.517334 11.517303l-102.634705 0c-6.360779 0 -11.517273 -5.1564636 -11.517273 -11.517303z" fill-rule="nonzero"></path><path stroke="#000000" stroke-width="2.0" stroke-linejoin="round" stroke-linecap="butt" d="m655.4957 378.543l0 0c0 -6.3608093 5.156494 -11.517273 11.517273 -11.517273l102.634705 0c3.0546265 0 5.98407 1.2134094 8.143982 3.3733215c2.159912 2.159912 3.373352 5.089386 3.373352 8.143951l0 46.06778c0 6.36084 -5.156494 11.517303 -11.517334 11.517303l-102.634705 0c-6.360779 0 -11.517273 -5.1564636 -11.517273 -11.517303z" fill-rule="nonzero"></path><path fill="#000000" d="m681.014 403.04626q0.34375 -0.46875 1.03125 -1.25l2.765625 -2.921875l1.53125 0l-3.46875 3.640625l3.71875 4.921875l-1.578125 0l-3.015625 -4.046875l-0.984375 0.84375l0 3.203125l-1.28125 0l0 -12.15625l1.28125 0l0 6.4375q0 0.4375 -0.0625 1.328125l0.0625 0zm10.7421875 4.546875q-1.90625 0 -3.0 -1.15625q-1.09375 -1.15625 -1.09375 -3.21875q0 -2.0625 1.015625 -3.28125q1.015625 -1.21875 2.734375 -1.21875q1.609375 0 2.546875 1.0625q0.9375 1.046875 0.9375 2.78125l0 0.828125l-5.890625 0q0.03125 1.5 0.75 2.28125q0.734375 0.78125 2.046875 0.78125q1.375 0 2.734375 -0.578125l0 1.15625q-0.6875 0.296875 -1.3125 0.421875q-0.609375 0.140625 -1.46875 0.140625zm-0.359375 -7.796875q-1.03125 0 -1.640625 0.671875q-0.609375 0.671875 -0.71875 1.859375l4.46875 0q0 -1.21875 -0.546875 -1.875q-0.546875 -0.65625 -1.5625 -0.65625zm9.3359375 7.796875q-1.90625 0 -3.0 -1.15625q-1.09375 -1.15625 -1.09375 -3.21875q0 -2.0625 1.015625 -3.28125q1.015625 -1.21875 2.734375 -1.21875q1.609375 0 2.546875 1.0625q0.9375 1.046875 0.9375 2.78125l0 0.828125l-5.890625 0q0.03125 1.5 0.75 2.28125q0.734375 0.78125 2.046875 0.78125q1.375 0 2.734375 -0.578125l0 1.15625q-0.6875 0.296875 -1.3125 0.421875q-0.609375 0.140625 -1.46875 0.140625zm-0.359375 -7.796875q-1.03125 0 -1.640625 0.671875q-0.609375 0.671875 -0.71875 1.859375l4.46875 0q0 -1.21875 -0.546875 -1.875q-0.546875 -0.65625 -1.5625 -0.65625zm9.6953125 7.796875q-0.828125 0 -1.53125 -0.3125q-0.6875 -0.3125 -1.15625 -0.953125l-0.09375 0q0.09375 0.75 0.09375 1.4375l0 3.515625l-1.296875 0l0 -12.40625l1.0625 0l0.171875 1.171875l0.0625 0q0.5 -0.703125 1.15625 -1.015625q0.671875 -0.3125 1.53125 -0.3125q1.703125 0 2.625 1.171875q0.9375 1.15625 0.9375 3.25q0 2.109375 -0.953125 3.28125q-0.9375 1.171875 -2.609375 1.171875zm-0.1875 -7.78125q-1.3125 0 -1.90625 0.734375q-0.578125 0.71875 -0.59375 2.3125l0 0.28125q0 1.8125 0.59375 2.59375q0.609375 0.765625 1.9375 0.765625q1.109375 0 1.734375 -0.890625q0.640625 -0.90625 0.640625 -2.484375q0 -1.59375 -0.640625 -2.453125q-0.625 -0.859375 -1.765625 -0.859375zm11.2734375 7.625l-0.25 -1.21875l-0.0625 0q-0.640625 0.796875 -1.28125 1.09375q-0.640625 0.28125 -1.59375 0.28125q-1.265625 0 -2.0 -0.65625q-0.71875 -0.65625 -0.71875 -1.875q0 -2.59375 4.15625 -2.71875l1.453125 -0.046875l0 -0.53125q0 -1.0 -0.4375 -1.484375q-0.4375 -0.484375 -1.390625 -0.484375q-1.0625 0 -2.421875 0.65625l-0.390625 -0.984375q0.625 -0.34375 1.375 -0.53125q0.765625 -0.203125 1.515625 -0.203125q1.53125 0 2.265625 0.6875q0.75 0.671875 0.75 2.171875l0 5.84375l-0.96875 0zm-2.921875 -0.921875q1.203125 0 1.890625 -0.65625q0.703125 -0.671875 0.703125 -1.859375l0 -0.78125l-1.296875 0.0625q-1.546875 0.046875 -2.234375 0.484375q-0.6875 0.421875 -0.6875 1.3125q0 0.703125 0.421875 1.078125q0.4375 0.359375 1.203125 0.359375zm7.8515625 0.921875l-1.296875 0l0 -12.15625l1.296875 0l0 12.15625zm4.046875 0l-1.296875 0l0 -8.5625l1.296875 0l0 8.5625zm-1.40625 -10.890625q0 -0.4375 0.21875 -0.640625q0.21875 -0.21875 0.546875 -0.21875q0.3125 0 0.53125 0.21875q0.234375 0.203125 0.234375 0.640625q0 0.4375 -0.234375 0.65625q-0.21875 0.21875 -0.53125 0.21875q-0.328125 0 -0.546875 -0.21875q-0.21875 -0.21875 -0.21875 -0.65625zm6.03125 10.890625l-3.25 -8.5625l1.390625 0l1.84375 5.078125q0.625 1.78125 0.734375 2.3125l0.0625 0q0.09375 -0.421875 0.546875 -1.71875q0.453125 -1.296875 2.046875 -5.671875l1.390625 0l-3.25 8.5625l-1.515625 0zm9.765625 0.15625q-1.90625 0 -3.0 -1.15625q-1.09375 -1.15625 -1.09375 -3.21875q0 -2.0625 1.015625 -3.28125q1.015625 -1.21875 2.734375 -1.21875q1.609375 0 2.546875 1.0625q0.9375 1.046875 0.9375 2.78125l0 0.828125l-5.890625 0q0.03125 1.5 0.75 2.28125q0.734375 0.78125 2.046875 0.78125q1.375 0 2.734375 -0.578125l0 1.15625q-0.6875 0.296875 -1.3125 0.421875q-0.609375 0.140625 -1.46875 0.140625zm-0.359375 -7.796875q-1.03125 0 -1.640625 0.671875q-0.609375 0.671875 -0.71875 1.859375l4.46875 0q0 -1.21875 -0.546875 -1.875q-0.546875 -0.65625 -1.5625 -0.65625zm11.5390625 6.484375l-0.0625 0q-0.90625 1.3125 -2.6875 1.3125q-1.6875 0 -2.625 -1.140625q-0.921875 -1.15625 -0.921875 -3.28125q0 -2.109375 0.9375 -3.28125q0.9375 -1.171875 2.609375 -1.171875q1.734375 0 2.671875 1.265625l0.09375 0l-0.046875 -0.625l-0.03125 -0.59375l0 -3.484375l1.296875 0l0 12.15625l-1.0625 0l-0.171875 -1.15625zm-2.59375 0.21875q1.328125 0 1.921875 -0.71875q0.609375 -0.71875 0.609375 -2.328125l0 -0.28125q0 -1.8125 -0.609375 -2.59375q-0.609375 -0.78125 -1.9375 -0.78125q-1.140625 0 -1.75 0.890625q-0.59375 0.890625 -0.59375 2.5q0 1.640625 0.59375 2.484375q0.609375 0.828125 1.765625 0.828125z" fill-rule="nonzero"></path><path fill="#000000" fill-opacity="0.0" d="m718.06537 334.62994l0.25195312 32.409454" fill-rule="nonzero"></path><path stroke="#000000" stroke-width="2.0" stroke-linejoin="round" stroke-linecap="butt" d="m718.06537 334.62994l0.25195312 32.409454" fill-rule="nonzero"></path><path fill="#000000" fill-opacity="0.0" d="m718.3304 436.12808l-0.12597656 33.35434" fill-rule="nonzero"></path><path stroke="#000000" stroke-width="2.0" stroke-linejoin="round" stroke-linecap="butt" d="m718.3304 436.12808l-0.12597656 33.35434" fill-rule="nonzero"></path><path fill="#000000" fill-opacity="0.0" d="m623.02856 401.5771l32.472473 0" fill-rule="nonzero"></path><path stroke="#000000" stroke-width="2.0" stroke-linejoin="round" stroke-linecap="butt" d="m623.02856 401.5771l32.472473 0" fill-rule="nonzero"></path><path fill="#000000" fill-opacity="0.0" d="m375.5261 401.58405l187.96854 0" fill-rule="nonzero"></path><path stroke="#000000" stroke-width="2.0" stroke-linejoin="round" stroke-linecap="butt" d="m375.5261 401.58405l187.96854 0" fill-rule="nonzero"></path></g></svg>

