<?xml version="1.0" standalone="yes"?>

<svg version="1.1" viewBox="0.0 0.0 960.0 540.0" fill="none" stroke="none" stroke-linecap="square" stroke-miterlimit="10" xmlns="http://www.w3.org/2000/svg" xmlns:xlink="http://www.w3.org/1999/xlink"><clipPath id="gcbc0db0e7_0_7.0"><path d="m0 0l960.0 0l0 540.0l-960.0 0l0 -540.0z" clip-rule="nonzero"></path></clipPath><g clip-path="url(#gcbc0db0e7_0_7.0)"><path fill="#ffffff" d="m0 0l960.0 0l0 540.0l-960.0 0z" fill-rule="nonzero"></path><path fill="#000000" fill-opacity="0.0" d="m32.72441 46.721786l894.55115 0l0 60.125984l-894.55115 0z" fill-rule="nonzero"></path><path fill="#000000" d="m65.41191 91.56178l-3.078125 0l0 -12.4375l-13.90625 0l0 12.4375l-3.078125 0l0 -26.40625l3.078125 0l0 11.234375l13.90625 0l0 -11.234375l3.078125 0l0 26.40625zm10.024811 0l-2.984375 0l0 -19.796875l2.984375 0l0 19.796875zm-3.25 -25.171875q0 -1.03125 0.5 -1.5q0.515625 -0.484375 1.28125 -0.484375q0.71875 0 1.234375 0.5q0.53125 0.484375 0.53125 1.484375q0 1.015625 -0.53125 1.515625q-0.515625 0.5 -1.234375 0.5q-0.765625 0 -1.28125 -0.5q-0.5 -0.5 -0.5 -1.515625zm25.910141 5.375l0 1.890625l-3.671875 0.4375q0.5 0.625 0.890625 1.65625q0.40625 1.015625 0.40625 2.296875q0 2.90625 -1.984375 4.640625q-1.984375 1.734375 -5.453125 1.734375q-0.890625 0 -1.671875 -0.140625q-1.90625 1.015625 -1.90625 2.546875q0 0.8125 0.65625 1.203125q0.671875 0.390625 2.3125 0.390625l3.5 0q3.21875 0 4.9375 1.359375q1.71875 1.34375 1.71875 3.9375q0 3.28125 -2.640625 5.0q-2.625 1.734375 -7.6875 1.734375q-3.875 0 -5.984375 -1.453125q-2.109375 -1.4375 -2.109375 -4.078125q0 -1.8125 1.15625 -3.125q1.15625 -1.3125 3.25 -1.78125q-0.75 -0.34375 -1.265625 -1.0625q-0.515625 -0.734375 -0.515625 -1.6875q0 -1.09375 0.578125 -1.90625q0.578125 -0.8125 1.828125 -1.5625q-1.546875 -0.640625 -2.515625 -2.15625q-0.953125 -1.515625 -0.953125 -3.46875q0 -3.25 1.9375 -5.0q1.953125 -1.765625 5.53125 -1.765625q1.5625 0 2.796875 0.359375l6.859375 0zm-15.796875 23.125q0 1.609375 1.359375 2.4375q1.359375 0.828125 3.875 0.828125q3.78125 0 5.59375 -1.125q1.8125 -1.125 1.8125 -3.0625q0 -1.609375 -1.0 -2.234375q-0.984375 -0.625 -3.71875 -0.625l-3.609375 0q-2.03125 0 -3.171875 0.96875q-1.140625 0.984375 -1.140625 2.8125zm1.625 -16.78125q0 2.078125 1.171875 3.140625q1.171875 1.0625 3.28125 1.0625q4.390625 0 4.390625 -4.265625q0 -4.453125 -4.453125 -4.453125q-2.109375 0 -3.25 1.140625q-1.140625 1.125 -1.140625 3.375zm31.965897 13.453125l0 -12.8125q0 -2.421875 -1.109375 -3.609375q-1.09375 -1.1875 -3.453125 -1.1875q-3.125 0 -4.5625 1.703125q-1.4375 1.6875 -1.4375 5.546875l0 10.359375l-2.984375 0l0 -28.109375l2.984375 0l0 8.5q0 1.546875 -0.140625 2.546875l0.1875 0q0.875 -1.421875 2.515625 -2.234375q1.640625 -0.828125 3.734375 -0.828125q3.625 0 5.4375 1.734375q1.828125 1.71875 1.828125 5.46875l0 12.921875l-3.0 0zm12.348373 0l-2.984375 0l0 -28.109375l2.984375 0l0 28.109375zm3.300766 -19.796875l3.21875 0l4.34375 11.28125q1.421875 3.875 1.765625 5.59375l0.140625 0q0.234375 -0.921875 0.984375 -3.15625q0.75 -2.234375 4.90625 -13.71875l3.21875 0l-8.515625 22.546875q-1.265625 3.34375 -2.953125 4.734375q-1.6875 1.40625 -4.140625 1.40625q-1.375 0 -2.703125 -0.3125l0 -2.40625q0.984375 0.21875 2.21875 0.21875q3.078125 0 4.40625 -3.46875l1.09375 -2.8125l-7.984375 -19.90625zm48.709564 19.796875l-3.28125 -8.40625l-10.59375 0l-3.25 8.40625l-3.109375 0l10.4375 -26.515625l2.59375 0l10.390625 26.515625l-3.1875 0zm-4.25 -11.171875l-3.0625 -8.171875q-0.59375 -1.5625 -1.234375 -3.8125q-0.390625 1.734375 -1.140625 3.8125l-3.109375 8.171875l8.546875 0zm15.152954 11.171875l-7.515625 -19.796875l3.21875 0l4.265625 11.734375q1.4375 4.125 1.6875 5.359375l0.15625 0q0.1875 -0.96875 1.25 -3.96875q1.0625 -3.015625 4.75 -13.125l3.203125 0l-7.515625 19.796875l-3.5 0zm26.544266 0l-0.59375 -2.8125l-0.15625 0q-1.46875 1.859375 -2.953125 2.515625q-1.46875 0.65625 -3.671875 0.65625q-2.9375 0 -4.609375 -1.515625q-1.671875 -1.515625 -1.671875 -4.3125q0 -6.0 9.59375 -6.296875l3.359375 -0.109375l0 -1.21875q0 -2.328125 -1.015625 -3.4375q-1.0 -1.125 -3.203125 -1.125q-2.46875 0 -5.59375 1.515625l-0.921875 -2.28125q1.46875 -0.796875 3.203125 -1.25q1.75 -0.453125 3.5 -0.453125q3.546875 0 5.25 1.578125q1.703125 1.5625 1.703125 5.03125l0 13.515625l-2.21875 0zm-6.78125 -2.109375q2.796875 0 4.390625 -1.53125q1.609375 -1.546875 1.609375 -4.3125l0 -1.78125l-3.0 0.125q-3.578125 0.125 -5.15625 1.109375q-1.578125 0.984375 -1.578125 3.0625q0 1.625 0.984375 2.484375q0.984375 0.84375 2.75 0.84375zm18.353882 2.109375l-2.984375 0l0 -19.796875l2.984375 0l0 19.796875zm-3.25 -25.171875q0 -1.03125 0.5 -1.5q0.515625 -0.484375 1.28125 -0.484375q0.71875 0 1.234375 0.5q0.53125 0.484375 0.53125 1.484375q0 1.015625 -0.53125 1.515625q-0.515625 0.5 -1.234375 0.5q-0.765625 0 -1.28125 -0.5q-0.5 -0.5 -0.5 -1.515625zm12.691391 25.171875l-2.984375 0l0 -28.109375l2.984375 0l0 28.109375zm18.628891 0l-0.59375 -2.8125l-0.15625 0q-1.46875 1.859375 -2.953125 2.515625q-1.46875 0.65625 -3.671875 0.65625q-2.9375 0 -4.609375 -1.515625q-1.671875 -1.515625 -1.671875 -4.3125q0 -6.0 9.59375 -6.296875l3.359375 -0.109375l0 -1.21875q0 -2.328125 -1.015625 -3.4375q-1.0 -1.125 -3.203125 -1.125q-2.46875 0 -5.59375 1.515625l-0.921875 -2.28125q1.46875 -0.796875 3.203125 -1.25q1.75 -0.453125 3.5 -0.453125q3.546875 0 5.25 1.578125q1.703125 1.5625 1.703125 5.03125l0 13.515625l-2.21875 0zm-6.78125 -2.109375q2.796875 0 4.390625 -1.53125q1.609375 -1.546875 1.609375 -4.3125l0 -1.78125l-3.0 0.125q-3.578125 0.125 -5.15625 1.109375q-1.578125 0.984375 -1.578125 3.0625q0 1.625 0.984375 2.484375q0.984375 0.84375 2.75 0.84375zm24.572632 -18.015625q3.90625 0 6.0625 2.671875q2.15625 2.65625 2.15625 7.53125q0 4.875 -2.171875 7.578125q-2.171875 2.703125 -6.046875 2.703125q-1.9375 0 -3.53125 -0.703125q-1.59375 -0.71875 -2.6875 -2.203125l-0.203125 0l-0.640625 2.546875l-2.140625 0l0 -28.109375l2.984375 0l0 6.828125q0 2.296875 -0.140625 4.125l0.140625 0q2.109375 -2.96875 6.21875 -2.96875zm-0.4375 2.515625q-3.0625 0 -4.421875 1.765625q-1.359375 1.75 -1.359375 5.921875q0 4.171875 1.390625 5.96875q1.40625 1.796875 4.46875 1.796875q2.765625 0 4.109375 -2.0q1.359375 -2.015625 1.359375 -5.796875q0 -3.875 -1.359375 -5.765625q-1.34375 -1.890625 -4.1875 -1.890625zm17.09317 17.609375l-2.984375 0l0 -28.109375l2.984375 0l0 28.109375zm14.816376 0.359375q-4.390625 0 -6.9375 -2.671875q-2.53125 -2.671875 -2.53125 -7.421875q0 -4.796875 2.359375 -7.609375q2.359375 -2.8125 6.328125 -2.8125q3.71875 0 5.890625 2.453125q2.171875 2.4375 2.171875 6.453125l0 1.890625l-13.640625 0q0.09375 3.484375 1.765625 5.296875q1.671875 1.796875 4.703125 1.796875q3.1875 0 6.3125 -1.328125l0 2.671875q-1.578125 0.6875 -3.0 0.984375q-1.421875 0.296875 -3.421875 0.296875zm-0.8125 -18.015625q-2.390625 0 -3.8125 1.5625q-1.40625 1.546875 -1.671875 4.296875l10.359375 0q0 -2.84375 -1.265625 -4.34375q-1.265625 -1.515625 -3.609375 -1.515625zm26.607727 6.671875l0 10.984375l-3.078125 0l0 -26.40625l7.25 0q4.859375 0 7.171875 1.859375q2.328125 1.859375 2.328125 5.59375q0 5.234375 -5.3125 7.078125l7.171875 11.875l-3.625 0l-6.390625 -10.984375l-5.515625 0zm0 -2.640625l4.203125 0q3.265625 0 4.78125 -1.28125q1.515625 -1.296875 1.515625 -3.890625q0 -2.609375 -1.546875 -3.765625q-1.546875 -1.15625 -4.953125 -1.15625l-4.0 0l0 10.09375zm36.63742 3.703125q0 4.84375 -2.4375 7.5625q-2.4375 2.71875 -6.734375 2.71875q-2.65625 0 -4.71875 -1.234375q-2.0625 -1.25 -3.1875 -3.578125q-1.109375 -2.34375 -1.109375 -5.46875q0 -4.84375 2.421875 -7.53125q2.421875 -2.703125 6.71875 -2.703125q4.15625 0 6.59375 2.765625q2.453125 2.75 2.453125 7.46875zm-15.078125 0q0 3.796875 1.515625 5.78125q1.515625 1.984375 4.46875 1.984375q2.9375 0 4.453125 -1.96875q1.53125 -1.984375 1.53125 -5.796875q0 -3.765625 -1.53125 -5.71875q-1.515625 -1.96875 -4.5 -1.96875q-2.9375 0 -4.4375 1.9375q-1.5 1.921875 -1.5 5.75zm23.358826 -9.875l0 12.84375q0 2.421875 1.09375 3.609375q1.109375 1.1875 3.453125 1.1875q3.109375 0 4.546875 -1.6875q1.4375 -1.703125 1.4375 -5.546875l0 -10.40625l3.0 0l0 19.796875l-2.46875 0l-0.4375 -2.65625l-0.171875 0q-0.921875 1.46875 -2.5625 2.25q-1.625 0.765625 -3.71875 0.765625q-3.609375 0 -5.40625 -1.71875q-1.796875 -1.71875 -1.796875 -5.484375l0 -12.953125l3.03125 0zm26.489014 17.6875q0.796875 0 1.53125 -0.109375q0.75 -0.125 1.171875 -0.25l0 2.28125q-0.484375 0.234375 -1.4375 0.390625q-0.9375 0.15625 -1.703125 0.15625q-5.75 0 -5.75 -6.046875l0 -11.78125l-2.828125 0l0 -1.453125l2.828125 -1.234375l1.265625 -4.234375l1.734375 0l0 4.59375l5.75 0l0 2.328125l-5.75 0l0 11.65625q0 1.78125 0.84375 2.75q0.859375 0.953125 2.34375 0.953125zm15.146606 2.46875q-4.390625 0 -6.9375 -2.671875q-2.53125 -2.671875 -2.53125 -7.421875q0 -4.796875 2.359375 -7.609375q2.359375 -2.8125 6.328125 -2.8125q3.71875 0 5.890625 2.453125q2.171875 2.4375 2.171875 6.453125l0 1.890625l-13.640625 0q0.09375 3.484375 1.765625 5.296875q1.671875 1.796875 4.703125 1.796875q3.1875 0 6.3125 -1.328125l0 2.671875q-1.578125 0.6875 -3.0 0.984375q-1.421875 0.296875 -3.421875 0.296875zm-0.8125 -18.015625q-2.390625 0 -3.8125 1.5625q-1.40625 1.546875 -1.671875 4.296875l10.359375 0q0 -2.84375 -1.265625 -4.34375q-1.265625 -1.515625 -3.609375 -1.515625zm22.426758 -2.5q1.3125 0 2.359375 0.203125l-0.40625 2.796875q-1.234375 -0.28125 -2.171875 -0.28125q-2.40625 0 -4.125 1.953125q-1.703125 1.953125 -1.703125 4.859375l0 10.625l-2.984375 0l0 -19.796875l2.46875 0l0.34375 3.65625l0.140625 0q1.109375 -1.921875 2.65625 -2.96875q1.5625 -1.046875 3.421875 -1.046875zm18.971832 14.75q0 2.765625 -2.0625 4.265625q-2.0625 1.5 -5.78125 1.5q-3.9375 0 -6.140625 -1.25l0 -2.78125q1.421875 0.734375 3.0625 1.15625q1.640625 0.40625 3.15625 0.40625q2.34375 0 3.609375 -0.75q1.265625 -0.75 1.265625 -2.296875q0 -1.15625 -1.0 -1.96875q-1.0 -0.828125 -3.921875 -1.9375q-2.75 -1.03125 -3.921875 -1.796875q-1.171875 -0.78125 -1.734375 -1.75q-0.5625 -0.984375 -0.5625 -2.328125q0 -2.421875 1.96875 -3.8125q1.96875 -1.40625 5.390625 -1.40625q3.203125 0 6.25 1.296875l-1.0625 2.4375q-2.984375 -1.234375 -5.40625 -1.234375q-2.125 0 -3.21875 0.671875q-1.078125 0.671875 -1.078125 1.84375q0 0.796875 0.40625 1.359375q0.40625 0.5625 1.3125 1.0625q0.90625 0.5 3.46875 1.46875q3.53125 1.28125 4.765625 2.578125q1.234375 1.296875 1.234375 3.265625zm13.066467 -3.140625l0 -2.75l8.875 0l0 2.75l-8.875 0zm38.72354 1.515625q0 3.484375 -2.53125 5.4375q-2.515625 1.953125 -6.859375 1.953125q-4.703125 0 -7.21875 -1.203125l0 -2.96875q1.625 0.6875 3.53125 1.09375q1.921875 0.390625 3.796875 0.390625q3.078125 0 4.625 -1.15625q1.546875 -1.171875 1.546875 -3.25q0 -1.375 -0.546875 -2.25q-0.546875 -0.875 -1.84375 -1.609375q-1.28125 -0.75 -3.921875 -1.6875q-3.6875 -1.328125 -5.265625 -3.125q-1.578125 -1.8125 -1.578125 -4.71875q0 -3.046875 2.28125 -4.859375q2.296875 -1.8125 6.078125 -1.8125q3.9375 0 7.25 1.453125l-0.96875 2.671875q-3.265625 -1.375 -6.359375 -1.375q-2.4375 0 -3.8125 1.046875q-1.375 1.046875 -1.375 2.90625q0 1.375 0.5 2.25q0.515625 0.875 1.71875 1.609375q1.203125 0.734375 3.671875 1.625q4.15625 1.46875 5.71875 3.171875q1.5625 1.703125 1.5625 4.40625zm11.5336 4.921875q0.796875 0 1.53125 -0.109375q0.75 -0.125 1.171875 -0.25l0 2.28125q-0.484375 0.234375 -1.4375 0.390625q-0.9375 0.15625 -1.703125 0.15625q-5.75 0 -5.75 -6.046875l0 -11.78125l-2.828125 0l0 -1.453125l2.828125 -1.234375l1.265625 -4.234375l1.734375 0l0 4.59375l5.75 0l0 2.328125l-5.75 0l0 11.65625q0 1.78125 0.84375 2.75q0.859375 0.953125 2.34375 0.953125zm18.959106 2.109375l-0.59375 -2.8125l-0.15625 0q-1.46875 1.859375 -2.953125 2.515625q-1.46875 0.65625 -3.671875 0.65625q-2.9375 0 -4.609375 -1.515625q-1.671875 -1.515625 -1.671875 -4.3125q0 -6.0 9.59375 -6.296875l3.359375 -0.109375l0 -1.21875q0 -2.328125 -1.015625 -3.4375q-1.0 -1.125 -3.203125 -1.125q-2.46875 0 -5.59375 1.515625l-0.921875 -2.28125q1.46875 -0.796875 3.203125 -1.25q1.75 -0.453125 3.5 -0.453125q3.546875 0 5.25 1.578125q1.703125 1.5625 1.703125 5.03125l0 13.515625l-2.21875 0zm-6.78125 -2.109375q2.796875 0 4.390625 -1.53125q1.609375 -1.546875 1.609375 -4.3125l0 -1.78125l-3.0 0.125q-3.578125 0.125 -5.15625 1.109375q-1.578125 0.984375 -1.578125 3.0625q0 1.625 0.984375 2.484375q0.984375 0.84375 2.75 0.84375zm21.760193 0q0.796875 0 1.53125 -0.109375q0.75 -0.125 1.171875 -0.25l0 2.28125q-0.484375 0.234375 -1.4375 0.390625q-0.9375 0.15625 -1.703125 0.15625q-5.75 0 -5.75 -6.046875l0 -11.78125l-2.828125 0l0 -1.453125l2.828125 -1.234375l1.265625 -4.234375l1.734375 0l0 4.59375l5.75 0l0 2.328125l-5.75 0l0 11.65625q0 1.78125 0.84375 2.75q0.859375 0.953125 2.34375 0.953125zm15.146606 2.46875q-4.390625 0 -6.9375 -2.671875q-2.53125 -2.671875 -2.53125 -7.421875q0 -4.796875 2.359375 -7.609375q2.359375 -2.8125 6.328125 -2.8125q3.71875 0 5.890625 2.453125q2.171875 2.4375 2.171875 6.453125l0 1.890625l-13.640625 0q0.09375 3.484375 1.765625 5.296875q1.671875 1.796875 4.703125 1.796875q3.1875 0 6.3125 -1.328125l0 2.671875q-1.578125 0.6875 -3.0 0.984375q-1.421875 0.296875 -3.421875 0.296875zm-0.8125 -18.015625q-2.390625 0 -3.8125 1.5625q-1.40625 1.546875 -1.671875 4.296875l10.359375 0q0 -2.84375 -1.265625 -4.34375q-1.265625 -1.515625 -3.609375 -1.515625zm38.62329 -8.75l3.296875 0l-9.515625 26.40625l-3.03125 0l-9.46875 -26.40625l3.25 0l6.078125 17.078125q1.046875 2.953125 1.65625 5.734375q0.65625 -2.921875 1.703125 -5.84375l6.03125 -16.96875zm9.671387 26.40625l-2.984375 0l0 -19.796875l2.984375 0l0 19.796875zm-3.25 -25.171875q0 -1.03125 0.5 -1.5q0.515625 -0.484375 1.28125 -0.484375q0.71875 0 1.234375 0.5q0.53125 0.484375 0.53125 1.484375q0 1.015625 -0.53125 1.515625q-0.515625 0.5 -1.234375 0.5q-0.765625 0 -1.28125 -0.5q-0.5 -0.5 -0.5 -1.515625zm22.472656 19.765625q0 2.765625 -2.0625 4.265625q-2.0625 1.5 -5.78125 1.5q-3.9375 0 -6.140625 -1.25l0 -2.78125q1.421875 0.734375 3.0625 1.15625q1.640625 0.40625 3.15625 0.40625q2.34375 0 3.609375 -0.75q1.265625 -0.75 1.265625 -2.296875q0 -1.15625 -1.0 -1.96875q-1.0 -0.828125 -3.921875 -1.9375q-2.75 -1.03125 -3.921875 -1.796875q-1.171875 -0.78125 -1.734375 -1.75q-0.5625 -0.984375 -0.5625 -2.328125q0 -2.421875 1.96875 -3.8125q1.96875 -1.40625 5.390625 -1.40625q3.203125 0 6.25 1.296875l-1.0625 2.4375q-2.984375 -1.234375 -5.40625 -1.234375q-2.125 0 -3.21875 0.671875q-1.078125 0.671875 -1.078125 1.84375q0 0.796875 0.40625 1.359375q0.40625 0.5625 1.3125 1.0625q0.90625 0.5 3.46875 1.46875q3.53125 1.28125 4.765625 2.578125q1.234375 1.296875 1.234375 3.265625zm8.026184 5.40625l-2.984375 0l0 -19.796875l2.984375 0l0 19.796875zm-3.25 -25.171875q0 -1.03125 0.5 -1.5q0.515625 -0.484375 1.28125 -0.484375q0.71875 0 1.234375 0.5q0.53125 0.484375 0.53125 1.484375q0 1.015625 -0.53125 1.515625q-0.515625 0.5 -1.234375 0.5q-0.765625 0 -1.28125 -0.5q-0.5 -0.5 -0.5 -1.515625zm18.910156 5.046875q3.90625 0 6.0625 2.671875q2.15625 2.65625 2.15625 7.53125q0 4.875 -2.171875 7.578125q-2.171875 2.703125 -6.046875 2.703125q-1.9375 0 -3.53125 -0.703125q-1.59375 -0.71875 -2.6875 -2.203125l-0.203125 0l-0.640625 2.546875l-2.140625 0l0 -28.109375l2.984375 0l0 6.828125q0 2.296875 -0.140625 4.125l0.140625 0q2.109375 -2.96875 6.21875 -2.96875zm-0.4375 2.515625q-3.0625 0 -4.421875 1.765625q-1.359375 1.75 -1.359375 5.921875q0 4.171875 1.390625 5.96875q1.40625 1.796875 4.46875 1.796875q2.765625 0 4.109375 -2.0q1.359375 -2.015625 1.359375 -5.796875q0 -3.875 -1.359375 -5.765625q-1.34375 -1.890625 -4.1875 -1.890625zm17.0932 17.609375l-2.984375 0l0 -19.796875l2.984375 0l0 19.796875zm-3.25 -25.171875q0 -1.03125 0.5 -1.5q0.515625 -0.484375 1.28125 -0.484375q0.71875 0 1.234375 0.5q0.53125 0.484375 0.53125 1.484375q0 1.015625 -0.53125 1.515625q-0.515625 0.5 -1.234375 0.5q-0.765625 0 -1.28125 -0.5q-0.5 -0.5 -0.5 -1.515625zm12.691406 25.171875l-2.984375 0l0 -28.109375l2.984375 0l0 28.109375zm9.441406 0l-2.984375 0l0 -19.796875l2.984375 0l0 19.796875zm-3.25 -25.171875q0 -1.03125 0.5 -1.5q0.515625 -0.484375 1.28125 -0.484375q0.71875 0 1.234375 0.5q0.53125 0.484375 0.53125 1.484375q0 1.015625 -0.53125 1.515625q-0.515625 0.5 -1.234375 0.5q-0.765625 0 -1.28125 -0.5q-0.5 -0.5 -0.5 -1.515625zm16.097656 23.0625q0.796875 0 1.53125 -0.109375q0.75 -0.125 1.171875 -0.25l0 2.28125q-0.484375 0.234375 -1.4375 0.390625q-0.9375 0.15625 -1.703125 0.15625q-5.75 0 -5.75 -6.046875l0 -11.78125l-2.828125 0l0 -1.453125l2.828125 -1.234375l1.265625 -4.234375l1.734375 0l0 4.59375l5.75 0l0 2.328125l-5.75 0l0 11.65625q0 1.78125 0.84375 2.75q0.859375 0.953125 2.34375 0.953125zm3.6309814 -17.6875l3.21875 0l4.34375 11.28125q1.421875 3.875 1.765625 5.59375l0.140625 0q0.234375 -0.921875 0.984375 -3.15625q0.75 -2.234375 4.90625 -13.71875l3.21875 0l-8.515625 22.546875q-1.265625 3.34375 -2.953125 4.734375q-1.6875 1.40625 -4.140625 1.40625q-1.375 0 -2.703125 -0.3125l0 -2.40625q0.984375 0.21875 2.21875 0.21875q3.078125 0 4.40625 -3.46875l1.09375 -2.8125l-7.984375 -19.90625z" fill-rule="nonzero"></path><path fill="#efefef" d="m190.28749 216.02345l234.5512 0l0 256.97638l-234.5512 0z" fill-rule="nonzero"></path><path stroke="#000000" stroke-width="2.0" stroke-linejoin="round" stroke-linecap="butt" d="m190.28749 216.02345l234.5512 0l0 256.97638l-234.5512 0z" fill-rule="nonzero"></path><path fill="#efefef" d="m477.88635 216.02362l449.38586 0l0 256.97638l-449.38586 0z" fill-rule="nonzero"></path><path stroke="#000000" stroke-width="2.0" stroke-linejoin="round" stroke-linecap="butt" d="m477.88635 216.02362l449.38586 0l0 256.97638l-449.38586 0z" fill-rule="nonzero"></path><path fill="#000000" fill-opacity="0.0" d="m166.28749 175.9482l234.5512 0l0 49.98427l-234.5512 0z" fill-rule="nonzero"></path><path fill="#000000" d="m182.95937 190.52444q-2.234375 0 -3.53125 1.484375q-1.296875 1.484375 -1.296875 4.078125q0 2.65625 1.25 4.109375q1.25 1.453125 3.5625 1.453125q1.421875 0 3.234375 -0.5l0 1.375q-1.40625 0.53125 -3.484375 0.53125q-2.984375 0 -4.625 -1.8125q-1.625 -1.828125 -1.625 -5.171875q0 -2.09375 0.78125 -3.671875q0.796875 -1.578125 2.265625 -2.4375q1.484375 -0.859375 3.484375 -0.859375q2.140625 0 3.734375 0.78125l-0.671875 1.359375q-1.53125 -0.71875 -3.078125 -0.71875zm14.503845 7.25q0 2.484375 -1.25 3.890625q-1.25 1.390625 -3.453125 1.390625q-1.375 0 -2.4375 -0.640625q-1.046875 -0.640625 -1.625 -1.828125q-0.578125 -1.203125 -0.578125 -2.8125q0 -2.484375 1.234375 -3.875q1.25 -1.390625 3.46875 -1.390625q2.125 0 3.375 1.421875q1.265625 1.421875 1.265625 3.84375zm-7.75 0q0 1.953125 0.78125 2.96875q0.78125 1.015625 2.296875 1.015625q1.515625 0 2.296875 -1.015625q0.78125 -1.015625 0.78125 -2.96875q0 -1.9375 -0.78125 -2.9375q-0.78125 -1.015625 -2.3125 -1.015625q-1.515625 0 -2.296875 1.0q-0.765625 0.984375 -0.765625 2.953125zm17.205948 5.09375l0 -6.578125q0 -1.25 -0.578125 -1.859375q-0.5625 -0.609375 -1.765625 -0.609375q-1.59375 0 -2.34375 0.875q-0.734375 0.859375 -0.734375 2.84375l0 5.328125l-1.53125 0l0 -10.171875l1.25 0l0.25 1.390625l0.0625 0q0.484375 -0.75 1.328125 -1.15625q0.859375 -0.421875 1.90625 -0.421875q1.84375 0 2.765625 0.890625q0.921875 0.890625 0.921875 2.828125l0 6.640625l-1.53125 0zm7.778763 -1.078125q0.40625 0 0.78125 -0.0625q0.390625 -0.0625 0.609375 -0.125l0 1.171875q-0.25 0.125 -0.75 0.203125q-0.484375 0.078125 -0.875 0.078125q-2.9375 0 -2.9375 -3.109375l0 -6.046875l-1.46875 0l0 -0.75l1.46875 -0.640625l0.640625 -2.171875l0.890625 0l0 2.359375l2.953125 0l0 1.203125l-2.953125 0l0 5.984375q0 0.921875 0.4375 1.421875q0.4375 0.484375 1.203125 0.484375zm7.9299164 -9.28125q0.6875 0 1.21875 0.109375l-0.203125 1.4375q-0.640625 -0.140625 -1.125 -0.140625q-1.234375 0 -2.109375 1.0q-0.875 1.0 -0.875 2.5l0 5.453125l-1.53125 0l0 -10.171875l1.265625 0l0.171875 1.890625l0.078125 0q0.5625 -1.0 1.359375 -1.53125q0.796875 -0.546875 1.75 -0.546875zm11.756165 5.265625q0 2.484375 -1.25 3.890625q-1.25 1.390625 -3.453125 1.390625q-1.375 0 -2.4375 -0.640625q-1.046875 -0.640625 -1.625 -1.828125q-0.578125 -1.203125 -0.578125 -2.8125q0 -2.484375 1.234375 -3.875q1.25 -1.390625 3.46875 -1.390625q2.125 0 3.375 1.421875q1.265625 1.421875 1.265625 3.84375zm-7.75 0q0 1.953125 0.78125 2.96875q0.78125 1.015625 2.296875 1.015625q1.515625 0 2.296875 -1.015625q0.78125 -1.015625 0.78125 -2.96875q0 -1.9375 -0.78125 -2.9375q-0.78125 -1.015625 -2.3125 -1.015625q-1.515625 0 -2.296875 1.0q-0.765625 0.984375 -0.765625 2.953125zm11.784073 5.09375l-1.53125 0l0 -14.4375l1.53125 0l0 14.4375zm4.7187195 0l-1.53125 0l0 -14.4375l1.53125 0l0 14.4375zm7.4687195 0.1875q-2.25 0 -3.5625 -1.375q-1.296875 -1.375 -1.296875 -3.8125q0 -2.453125 1.203125 -3.90625q1.21875 -1.453125 3.265625 -1.453125q1.90625 0 3.015625 1.265625q1.125 1.25 1.125 3.3125l0 0.96875l-7.015625 0q0.046875 1.796875 0.90625 2.734375q0.859375 0.921875 2.421875 0.921875q1.640625 0 3.25 -0.6875l0 1.375q-0.8125 0.34375 -1.546875 0.5q-0.734375 0.15625 -1.765625 0.15625zm-0.40625 -9.25q-1.234375 0 -1.96875 0.796875q-0.71875 0.796875 -0.84375 2.203125l5.3125 0q0 -1.453125 -0.65625 -2.21875q-0.640625 -0.78125 -1.84375 -0.78125zm11.216812 -1.296875q0.6875 0 1.21875 0.109375l-0.203125 1.4375q-0.640625 -0.140625 -1.125 -0.140625q-1.234375 0 -2.109375 1.0q-0.875 1.0 -0.875 2.5l0 5.453125l-1.53125 0l0 -10.171875l1.265625 0l0.171875 1.890625l0.078125 0q0.5625 -1.0 1.359375 -1.53125q0.796875 -0.546875 1.75 -0.546875z" fill-rule="nonzero"></path><path fill="#000000" fill-opacity="0.0" d="m453.888 175.9482l234.55121 0l0 49.98427l-234.55121 0z" fill-rule="nonzero"></path><path fill="#000000" d="m475.34113 202.8682l-1.796875 0l-7.40625 -11.390625l-0.078125 0q0.15625 2.015625 0.15625 3.6875l0 7.703125l-1.46875 0l0 -13.5625l1.78125 0l7.40625 11.328125l0.0625 0q-0.015625 -0.25 -0.078125 -1.609375q-0.0625 -1.359375 -0.046875 -1.9375l0 -7.78125l1.46875 0l0 13.5625zm7.5338135 0.1875q-2.25 0 -3.5625 -1.375q-1.296875 -1.375 -1.296875 -3.8125q0 -2.453125 1.203125 -3.90625q1.21875 -1.453125 3.265625 -1.453125q1.90625 0 3.015625 1.265625q1.125 1.25 1.125 3.3125l0 0.96875l-7.015625 0q0.046875 1.796875 0.90625 2.734375q0.859375 0.921875 2.421875 0.921875q1.640625 0 3.25 -0.6875l0 1.375q-0.8125 0.34375 -1.546875 0.5q-0.734375 0.15625 -1.765625 0.15625zm-0.40625 -9.25q-1.234375 0 -1.96875 0.796875q-0.71875 0.796875 -0.84375 2.203125l5.3125 0q0 -1.453125 -0.65625 -2.21875q-0.640625 -0.78125 -1.84375 -0.78125zm9.873047 7.984375q0.40625 0 0.78125 -0.0625q0.390625 -0.0625 0.609375 -0.125l0 1.171875q-0.25 0.125 -0.75 0.203125q-0.484375 0.078125 -0.875 0.078125q-2.9375 0 -2.9375 -3.109375l0 -6.046875l-1.46875 0l0 -0.75l1.46875 -0.640625l0.640625 -2.171875l0.890625 0l0 2.359375l2.953125 0l0 1.203125l-2.953125 0l0 5.984375q0 0.921875 0.4375 1.421875q0.4375 0.484375 1.203125 0.484375zm11.601807 1.078125l-1.859375 -5.96875q-0.1875 -0.546875 -0.671875 -2.484375l-0.0625 0q-0.375 1.625 -0.65625 2.5l-1.921875 5.953125l-1.78125 0l-2.765625 -10.171875l1.609375 0q0.984375 3.828125 1.5 5.84375q0.515625 2.0 0.59375 2.6875l0.0625 0q0.109375 -0.515625 0.328125 -1.359375q0.234375 -0.84375 0.40625 -1.328125l1.859375 -5.84375l1.671875 0l1.8125 5.84375q0.515625 1.59375 0.703125 2.671875l0.078125 0q0.03125 -0.328125 0.1875 -1.015625q0.171875 -0.703125 1.953125 -7.5l1.59375 0l-2.8125 10.171875l-1.828125 0zm14.980164 -5.09375q0 2.484375 -1.25 3.890625q-1.25 1.390625 -3.453125 1.390625q-1.375 0 -2.4375 -0.640625q-1.046875 -0.640625 -1.625 -1.828125q-0.578125 -1.203125 -0.578125 -2.8125q0 -2.484375 1.234375 -3.875q1.25 -1.390625 3.46875 -1.390625q2.125 0 3.375 1.421875q1.265625 1.421875 1.265625 3.84375zm-7.75 0q0 1.953125 0.78125 2.96875q0.78125 1.015625 2.296875 1.015625q1.515625 0 2.296875 -1.015625q0.78125 -1.015625 0.78125 -2.96875q0 -1.9375 -0.78125 -2.9375q-0.78125 -1.015625 -2.3125 -1.015625q-1.515625 0 -2.296875 1.0q-0.765625 0.984375 -0.765625 2.953125zm14.877808 -5.265625q0.6875 0 1.21875 0.109375l-0.203125 1.4375q-0.640625 -0.140625 -1.125 -0.140625q-1.234375 0 -2.109375 1.0q-0.875 1.0 -0.875 2.5l0 5.453125l-1.53125 0l0 -10.171875l1.265625 0l0.171875 1.890625l0.078125 0q0.5625 -1.0 1.359375 -1.53125q0.796875 -0.546875 1.75 -0.546875zm4.5061646 5.15625q0.390625 -0.5625 1.21875 -1.484375l3.28125 -3.484375l1.828125 0l-4.125 4.34375l4.40625 5.828125l-1.859375 0l-3.59375 -4.8125l-1.15625 1.015625l0 3.796875l-1.515625 0l0 -14.4375l1.515625 0l0 7.65625q0 0.515625 -0.078125 1.578125l0.078125 0zm23.935852 5.203125l-1.796875 0l-7.40625 -11.390625l-0.078125 0q0.15625 2.015625 0.15625 3.6875l0 7.703125l-1.46875 0l0 -13.5625l1.78125 0l7.40625 11.328125l0.0625 0q-0.015625 -0.25 -0.078125 -1.609375q-0.0625 -1.359375 -0.046875 -1.9375l0 -7.78125l1.46875 0l0 13.5625zm12.018188 -5.09375q0 2.484375 -1.25 3.890625q-1.25 1.390625 -3.453125 1.390625q-1.375 0 -2.4375 -0.640625q-1.046875 -0.640625 -1.625 -1.828125q-0.578125 -1.203125 -0.578125 -2.8125q0 -2.484375 1.234375 -3.875q1.25 -1.390625 3.46875 -1.390625q2.125 0 3.375 1.421875q1.265625 1.421875 1.265625 3.84375zm-7.75 0q0 1.953125 0.78125 2.96875q0.78125 1.015625 2.296875 1.015625q1.515625 0 2.296875 -1.015625q0.78125 -1.015625 0.78125 -2.96875q0 -1.9375 -0.78125 -2.9375q-0.78125 -1.015625 -2.3125 -1.015625q-1.515625 0 -2.296875 1.0q-0.765625 0.984375 -0.765625 2.953125zm17.159058 3.734375l-0.078125 0q-1.0625 1.546875 -3.1875 1.546875q-2.0 0 -3.109375 -1.359375q-1.109375 -1.375 -1.109375 -3.890625q0 -2.515625 1.109375 -3.90625q1.125 -1.390625 3.109375 -1.390625q2.0625 0 3.171875 1.515625l0.125 0l-0.078125 -0.734375l-0.03125 -0.71875l0 -4.140625l1.546875 0l0 14.4375l-1.25 0l-0.21875 -1.359375zm-3.078125 0.25q1.578125 0 2.28125 -0.859375q0.71875 -0.859375 0.71875 -2.765625l0 -0.328125q0 -2.15625 -0.71875 -3.078125q-0.71875 -0.921875 -2.296875 -0.921875q-1.359375 0 -2.078125 1.0625q-0.71875 1.046875 -0.71875 2.96875q0 1.9375 0.71875 2.9375q0.71875 0.984375 2.09375 0.984375zm11.885559 1.296875q-2.25 0 -3.5625 -1.375q-1.296875 -1.375 -1.296875 -3.8125q0 -2.453125 1.203125 -3.90625q1.21875 -1.453125 3.265625 -1.453125q1.90625 0 3.015625 1.265625q1.125 1.25 1.125 3.3125l0 0.96875l-7.015625 0q0.046875 1.796875 0.90625 2.734375q0.859375 0.921875 2.421875 0.921875q1.640625 0 3.25 -0.6875l0 1.375q-0.8125 0.34375 -1.546875 0.5q-0.734375 0.15625 -1.765625 0.15625zm-0.40625 -9.25q-1.234375 0 -1.96875 0.796875q-0.71875 0.796875 -0.84375 2.203125l5.3125 0q0 -1.453125 -0.65625 -2.21875q-0.640625 -0.78125 -1.84375 -0.78125z" fill-rule="nonzero"></path><path fill="#cfe2f3" d="m212.17043 239.72873l185.82677 0l0 49.984253l-185.82677 0z" fill-rule="nonzero"></path><path stroke="#000000" stroke-width="2.0" stroke-linejoin="round" stroke-linecap="butt" d="m212.17043 239.72873l185.82677 0l0 49.984253l-185.82677 0z" fill-rule="nonzero"></path><path fill="#000000" d="m252.07207 270.86087l0 -5.890625q0 -1.109375 -0.515625 -1.65625q-0.5 -0.546875 -1.578125 -0.546875q-1.421875 0 -2.09375 0.78125q-0.65625 0.765625 -0.65625 2.546875l0 4.765625l-1.375 0l0 -9.09375l1.109375 0l0.234375 1.234375l0.0625 0q0.421875 -0.671875 1.1875 -1.03125q0.765625 -0.375 1.703125 -0.375q1.640625 0 2.46875 0.796875q0.828125 0.796875 0.828125 2.53125l0 5.9375l-1.375 0zm8.244858 0.171875q-2.015625 0 -3.1875 -1.234375q-1.15625 -1.234375 -1.15625 -3.40625q0 -2.203125 1.078125 -3.5q1.09375 -1.296875 2.921875 -1.296875q1.703125 0 2.703125 1.125q1.0 1.125 1.0 2.96875l0 0.875l-6.28125 0q0.046875 1.59375 0.8125 2.4375q0.765625 0.828125 2.171875 0.828125q1.46875 0 2.90625 -0.625l0 1.234375q-0.734375 0.3125 -1.390625 0.453125q-0.65625 0.140625 -1.578125 0.140625zm-0.359375 -8.28125q-1.109375 0 -1.765625 0.71875q-0.640625 0.703125 -0.75 1.96875l4.75 0q0 -1.296875 -0.578125 -1.984375q-0.578125 -0.703125 -1.65625 -0.703125zm7.5341797 -0.984375l0 5.890625q0 1.125 0.5 1.671875q0.515625 0.546875 1.59375 0.546875q1.4375 0 2.09375 -0.78125q0.65625 -0.78125 0.65625 -2.546875l0 -4.78125l1.375 0l0 9.09375l-1.125 0l-0.203125 -1.21875l-0.078125 0q-0.421875 0.671875 -1.171875 1.03125q-0.75 0.359375 -1.71875 0.359375q-1.65625 0 -2.484375 -0.78125q-0.828125 -0.796875 -0.828125 -2.53125l0 -5.953125l1.390625 0zm12.291748 8.125q0.359375 0 0.703125 -0.046875q0.34375 -0.0625 0.53125 -0.125l0 1.0625q-0.21875 0.109375 -0.65625 0.171875q-0.4375 0.078125 -0.78125 0.078125q-2.640625 0 -2.640625 -2.78125l0 -5.421875l-1.3125 0l0 -0.65625l1.3125 -0.578125l0.578125 -1.9375l0.796875 0l0 2.109375l2.640625 0l0 1.0625l-2.640625 0l0 5.359375q0 0.828125 0.390625 1.265625q0.390625 0.4375 1.078125 0.4375zm7.3204346 -8.296875q0.609375 0 1.09375 0.09375l-0.1875 1.28125q-0.578125 -0.125 -1.0 -0.125q-1.109375 0 -1.890625 0.90625q-0.78125 0.890625 -0.78125 2.234375l0 4.875l-1.375 0l0 -9.09375l1.125 0l0.15625 1.6875l0.078125 0q0.5 -0.890625 1.203125 -1.375q0.71875 -0.484375 1.578125 -0.484375zm10.77652 4.703125q0 2.234375 -1.125 3.484375q-1.109375 1.25 -3.09375 1.25q-1.21875 0 -2.171875 -0.578125q-0.9375 -0.578125 -1.453125 -1.640625q-0.515625 -1.078125 -0.515625 -2.515625q0 -2.21875 1.109375 -3.453125q1.109375 -1.25 3.09375 -1.25q1.90625 0 3.03125 1.28125q1.125 1.265625 1.125 3.421875zm-6.9375 0q0 1.75 0.703125 2.671875q0.703125 0.90625 2.046875 0.90625q1.359375 0 2.0625 -0.90625q0.703125 -0.921875 0.703125 -2.671875q0 -1.734375 -0.703125 -2.625q-0.703125 -0.90625 -2.078125 -0.90625q-1.34375 0 -2.046875 0.890625q-0.6875 0.890625 -0.6875 2.640625zm15.778748 4.5625l0 -5.890625q0 -1.109375 -0.515625 -1.65625q-0.5 -0.546875 -1.578125 -0.546875q-1.421875 0 -2.09375 0.78125q-0.65625 0.765625 -0.65625 2.546875l0 4.765625l-1.375 0l0 -9.09375l1.109375 0l0.234375 1.234375l0.0625 0q0.421875 -0.671875 1.1875 -1.03125q0.765625 -0.375 1.703125 -0.375q1.640625 0 2.46875 0.796875q0.828125 0.796875 0.828125 2.53125l0 5.9375l-1.375 0zm3.651123 -3.921875l0 -1.265625l4.0625 0l0 1.265625l-4.0625 0zm12.200806 1.4375q0 1.265625 -0.953125 1.96875q-0.9375 0.6875 -2.640625 0.6875q-1.8125 0 -2.828125 -0.578125l0 -1.28125q0.65625 0.328125 1.40625 0.53125q0.75 0.1875 1.453125 0.1875q1.078125 0 1.65625 -0.34375q0.578125 -0.34375 0.578125 -1.046875q0 -0.53125 -0.46875 -0.90625q-0.453125 -0.390625 -1.78125 -0.90625q-1.28125 -0.46875 -1.8125 -0.8125q-0.53125 -0.359375 -0.796875 -0.8125q-0.265625 -0.453125 -0.265625 -1.0625q0 -1.125 0.90625 -1.765625q0.90625 -0.640625 2.484375 -0.640625q1.46875 0 2.875 0.59375l-0.484375 1.125q-1.375 -0.5625 -2.484375 -0.5625q-0.984375 0 -1.484375 0.3125q-0.5 0.296875 -0.5 0.84375q0 0.359375 0.1875 0.625q0.1875 0.25 0.59375 0.484375q0.421875 0.234375 1.609375 0.671875q1.609375 0.59375 2.171875 1.1875q0.578125 0.59375 0.578125 1.5zm6.235138 2.65625q-2.015625 0 -3.1875 -1.234375q-1.15625 -1.234375 -1.15625 -3.40625q0 -2.203125 1.078125 -3.5q1.09375 -1.296875 2.921875 -1.296875q1.703125 0 2.703125 1.125q1.0 1.125 1.0 2.96875l0 0.875l-6.28125 0q0.046875 1.59375 0.8125 2.4375q0.765625 0.828125 2.171875 0.828125q1.46875 0 2.90625 -0.625l0 1.234375q-0.734375 0.3125 -1.390625 0.453125q-0.65625 0.140625 -1.578125 0.140625zm-0.359375 -8.28125q-1.109375 0 -1.765625 0.71875q-0.640625 0.703125 -0.75 1.96875l4.75 0q0 -1.296875 -0.578125 -1.984375q-0.578125 -0.703125 -1.65625 -0.703125zm10.393585 -1.15625q0.609375 0 1.09375 0.09375l-0.1875 1.28125q-0.578125 -0.125 -1.0 -0.125q-1.109375 0 -1.890625 0.90625q-0.78125 0.890625 -0.78125 2.234375l0 4.875l-1.375 0l0 -9.09375l1.125 0l0.15625 1.6875l0.078125 0q0.5 -0.890625 1.203125 -1.375q0.71875 -0.484375 1.578125 -0.484375zm4.917145 9.265625l-3.453125 -9.09375l1.484375 0l1.953125 5.390625q0.65625 1.890625 0.78125 2.453125l0.0625 0q0.09375 -0.4375 0.578125 -1.8125q0.484375 -1.390625 2.1875 -6.03125l1.46875 0l-3.453125 9.09375l-1.609375 0zm10.524719 0.171875q-2.015625 0 -3.1875 -1.234375q-1.15625 -1.234375 -1.15625 -3.40625q0 -2.203125 1.078125 -3.5q1.09375 -1.296875 2.921875 -1.296875q1.703125 0 2.703125 1.125q1.0 1.125 1.0 2.96875l0 0.875l-6.28125 0q0.046875 1.59375 0.8125 2.4375q0.765625 0.828125 2.171875 0.828125q1.46875 0 2.90625 -0.625l0 1.234375q-0.734375 0.3125 -1.390625 0.453125q-0.65625 0.140625 -1.578125 0.140625zm-0.359375 -8.28125q-1.109375 0 -1.765625 0.71875q-0.640625 0.703125 -0.75 1.96875l4.75 0q0 -1.296875 -0.578125 -1.984375q-0.578125 -0.703125 -1.65625 -0.703125zm10.393585 -1.15625q0.609375 0 1.09375 0.09375l-0.1875 1.28125q-0.578125 -0.125 -1.0 -0.125q-1.109375 0 -1.890625 0.90625q-0.78125 0.890625 -0.78125 2.234375l0 4.875l-1.375 0l0 -9.09375l1.125 0l0.15625 1.6875l0.078125 0q0.5 -0.890625 1.203125 -1.375q0.71875 -0.484375 1.578125 -0.484375z" fill-rule="nonzero"></path><path fill="#cfe2f3" d="m499.41727 239.72873l185.82675 0l0 49.984253l-185.82675 0z" fill-rule="nonzero"></path><path stroke="#000000" stroke-width="2.0" stroke-linejoin="round" stroke-linecap="butt" d="m499.41727 239.72873l185.82675 0l0 49.984253l-185.82675 0z" fill-rule="nonzero"></path><path fill="#000000" d="m557.0415 271.64087l0 -13.5625l1.578125 0l0 12.140625l5.984375 0l0 1.421875l-7.5625 0zm17.15216 -10.375q0 1.296875 -0.734375 2.125q-0.71875 0.828125 -2.046875 1.109375l0 0.078125q1.625 0.203125 2.40625 1.03125q0.796875 0.828125 0.796875 2.1875q0 1.9375 -1.34375 2.984375q-1.34375 1.046875 -3.828125 1.046875q-1.078125 0 -1.96875 -0.171875q-0.890625 -0.15625 -1.734375 -0.5625l0 -1.46875q0.875 0.4375 1.875 0.671875q1.0 0.21875 1.890625 0.21875q3.515625 0 3.515625 -2.75q0 -2.46875 -3.875 -2.46875l-1.34375 0l0 -1.328125l1.359375 0q1.578125 0 2.5 -0.703125q0.9375 -0.703125 0.9375 -1.9375q0 -1.0 -0.6875 -1.5625q-0.671875 -0.5625 -1.84375 -0.5625q-0.890625 0 -1.6875 0.25q-0.78125 0.234375 -1.796875 0.875l-0.765625 -1.03125q0.828125 -0.65625 1.921875 -1.03125q1.09375 -0.390625 2.296875 -0.390625q1.96875 0 3.0625 0.90625q1.09375 0.90625 1.09375 2.484375zm14.075989 10.375l-0.3125 -1.453125l-0.078125 0q-0.75 0.96875 -1.515625 1.3125q-0.75 0.328125 -1.890625 0.328125q-1.5 0 -2.359375 -0.78125q-0.859375 -0.78125 -0.859375 -2.21875q0 -3.078125 4.921875 -3.234375l1.734375 -0.046875l0 -0.625q0 -1.203125 -0.515625 -1.765625q-0.515625 -0.578125 -1.65625 -0.578125q-1.265625 0 -2.875 0.78125l-0.46875 -1.1875q0.75 -0.40625 1.640625 -0.625q0.90625 -0.234375 1.796875 -0.234375q1.828125 0 2.703125 0.8125q0.875 0.796875 0.875 2.578125l0 6.9375l-1.140625 0zm-3.484375 -1.078125q1.4375 0 2.25 -0.78125q0.828125 -0.796875 0.828125 -2.21875l0 -0.921875l-1.53125 0.0625q-1.84375 0.0625 -2.65625 0.578125q-0.8125 0.5 -0.8125 1.5625q0 0.84375 0.5 1.28125q0.515625 0.4375 1.421875 0.4375zm15.922546 -9.09375l0 0.984375l-1.875 0.21875q0.25 0.328125 0.453125 0.859375q0.203125 0.515625 0.203125 1.171875q0 1.484375 -1.015625 2.375q-1.015625 0.890625 -2.796875 0.890625q-0.453125 0 -0.859375 -0.0625q-0.984375 0.515625 -0.984375 1.296875q0 0.421875 0.34375 0.625q0.34375 0.203125 1.1875 0.203125l1.796875 0q1.640625 0 2.53125 0.703125q0.890625 0.6875 0.890625 2.015625q0 1.6875 -1.359375 2.5625q-1.359375 0.890625 -3.953125 0.890625q-1.984375 0 -3.078125 -0.75q-1.078125 -0.734375 -1.078125 -2.09375q0 -0.921875 0.59375 -1.609375q0.59375 -0.671875 1.671875 -0.90625q-0.390625 -0.171875 -0.65625 -0.546875q-0.265625 -0.375 -0.265625 -0.859375q0 -0.5625 0.296875 -0.96875q0.296875 -0.421875 0.9375 -0.8125q-0.78125 -0.328125 -1.28125 -1.109375q-0.5 -0.78125 -0.5 -1.78125q0 -1.671875 1.0 -2.578125q1.0 -0.90625 2.84375 -0.90625q0.796875 0 1.4375 0.1875l3.515625 0zm-8.109375 11.875q0 0.828125 0.6875 1.25q0.703125 0.4375 2.0 0.4375q1.9375 0 2.875 -0.578125q0.9375 -0.578125 0.9375 -1.578125q0 -0.828125 -0.515625 -1.15625q-0.515625 -0.3125 -1.921875 -0.3125l-1.84375 0q-1.046875 0 -1.640625 0.5q-0.578125 0.5 -0.578125 1.4375zm0.84375 -8.609375q0 1.0625 0.59375 1.609375q0.609375 0.546875 1.6875 0.546875q2.25 0 2.25 -2.1875q0 -2.296875 -2.28125 -2.296875q-1.09375 0 -1.671875 0.59375q-0.578125 0.578125 -0.578125 1.734375zm13.455261 7.09375q-2.25 0 -3.5625 -1.375q-1.296875 -1.375 -1.296875 -3.8125q0 -2.453125 1.203125 -3.90625q1.21875 -1.453125 3.265625 -1.453125q1.90625 0 3.015625 1.265625q1.125 1.25 1.125 3.3125l0 0.96875l-7.015625 0q0.046875 1.796875 0.90625 2.734375q0.859375 0.921875 2.421875 0.921875q1.640625 0 3.25 -0.6875l0 1.375q-0.8125 0.34375 -1.546875 0.5q-0.734375 0.15625 -1.765625 0.15625zm-0.40625 -9.25q-1.234375 0 -1.96875 0.796875q-0.71875 0.796875 -0.84375 2.203125l5.3125 0q0 -1.453125 -0.65625 -2.21875q-0.640625 -0.78125 -1.84375 -0.78125zm13.544922 9.0625l0 -6.578125q0 -1.25 -0.578125 -1.859375q-0.5625 -0.609375 -1.765625 -0.609375q-1.59375 0 -2.34375 0.875q-0.734375 0.859375 -0.734375 2.84375l0 5.328125l-1.53125 0l0 -10.171875l1.25 0l0.25 1.390625l0.0625 0q0.484375 -0.75 1.328125 -1.15625q0.859375 -0.421875 1.90625 -0.421875q1.84375 0 2.765625 0.890625q0.921875 0.890625 0.921875 2.828125l0 6.640625l-1.53125 0zm7.7787476 -1.078125q0.40625 0 0.78125 -0.0625q0.390625 -0.0625 0.609375 -0.125l0 1.171875q-0.25 0.125 -0.75 0.203125q-0.484375 0.078125 -0.875 0.078125q-2.9375 0 -2.9375 -3.109375l0 -6.046875l-1.46875 0l0 -0.75l1.46875 -0.640625l0.640625 -2.171875l0.890625 0l0 2.359375l2.953125 0l0 1.203125l-2.953125 0l0 5.984375q0 0.921875 0.4375 1.421875q0.4375 0.484375 1.203125 0.484375z" fill-rule="nonzero"></path><path fill="#9fc5e8" d="m499.41727 319.72873l185.82675 0l0 49.984253l-185.82675 0z" fill-rule="nonzero"></path><path stroke="#000000" stroke-width="2.0" stroke-linejoin="round" stroke-linecap="butt" d="m499.41727 319.72873l185.82675 0l0 49.984253l-185.82675 0z" fill-rule="nonzero"></path><path fill="#000000" d="m544.6359 348.85962q0 1.421875 -1.0625 2.203125q-1.046875 0.765625 -2.953125 0.765625q-2.03125 0 -3.15625 -0.640625l0 -1.4375q0.734375 0.375 1.5625 0.59375q0.84375 0.21875 1.625 0.21875q1.203125 0 1.84375 -0.390625q0.65625 -0.390625 0.65625 -1.171875q0 -0.59375 -0.515625 -1.015625q-0.515625 -0.421875 -2.0 -1.0q-1.421875 -0.53125 -2.03125 -0.921875q-0.59375 -0.390625 -0.890625 -0.890625q-0.28125 -0.515625 -0.28125 -1.203125q0 -1.25 1.0 -1.96875q1.015625 -0.71875 2.78125 -0.71875q1.640625 0 3.21875 0.671875l-0.546875 1.25q-1.53125 -0.625 -2.78125 -0.625q-1.09375 0 -1.65625 0.34375q-0.546875 0.34375 -0.546875 0.9375q0 0.421875 0.203125 0.703125q0.203125 0.28125 0.671875 0.546875q0.46875 0.265625 1.78125 0.75q1.8125 0.65625 2.4375 1.328125q0.640625 0.671875 0.640625 1.671875zm5.6343994 1.703125q0.40625 0 0.78125 -0.0625q0.390625 -0.0625 0.609375 -0.125l0 1.171875q-0.25 0.125 -0.75 0.203125q-0.484375 0.078125 -0.875 0.078125q-2.9375 0 -2.9375 -3.109375l0 -6.046875l-1.46875 0l0 -0.75l1.46875 -0.640625l0.640625 -2.171875l0.890625 0l0 2.359375l2.953125 0l0 1.203125l-2.953125 0l0 5.984375q0 0.921875 0.4375 1.421875q0.4375 0.484375 1.203125 0.484375zm9.554871 1.078125l-0.3125 -1.453125l-0.078125 0q-0.75 0.96875 -1.515625 1.3125q-0.75 0.328125 -1.890625 0.328125q-1.5 0 -2.359375 -0.78125q-0.859375 -0.78125 -0.859375 -2.21875q0 -3.078125 4.921875 -3.234375l1.734375 -0.046875l0 -0.625q0 -1.203125 -0.515625 -1.765625q-0.515625 -0.578125 -1.65625 -0.578125q-1.265625 0 -2.875 0.78125l-0.46875 -1.1875q0.75 -0.40625 1.640625 -0.625q0.90625 -0.234375 1.796875 -0.234375q1.828125 0 2.703125 0.8125q0.875 0.796875 0.875 2.578125l0 6.9375l-1.140625 0zm-3.484375 -1.078125q1.4375 0 2.25 -0.78125q0.828125 -0.796875 0.828125 -2.21875l0 -0.921875l-1.53125 0.0625q-1.84375 0.0625 -2.65625 0.578125q-0.8125 0.5 -0.8125 1.5625q0 0.84375 0.5 1.28125q0.515625 0.4375 1.421875 0.4375zm10.891357 0q0.40625 0 0.78125 -0.0625q0.390625 -0.0625 0.609375 -0.125l0 1.171875q-0.25 0.125 -0.75 0.203125q-0.484375 0.078125 -0.875 0.078125q-2.9375 0 -2.9375 -3.109375l0 -6.046875l-1.46875 0l0 -0.75l1.46875 -0.640625l0.640625 -2.171875l0.890625 0l0 2.359375l2.953125 0l0 1.203125l-2.953125 0l0 5.984375q0 0.921875 0.4375 1.421875q0.4375 0.484375 1.203125 0.484375zm7.5861816 1.265625q-2.25 0 -3.5625 -1.375q-1.296875 -1.375 -1.296875 -3.8125q0 -2.453125 1.203125 -3.90625q1.21875 -1.453125 3.265625 -1.453125q1.90625 0 3.015625 1.265625q1.125 1.25 1.125 3.3125l0 0.96875l-7.015625 0q0.046875 1.796875 0.90625 2.734375q0.859375 0.921875 2.421875 0.921875q1.640625 0 3.25 -0.6875l0 1.375q-0.8125 0.34375 -1.546875 0.5q-0.734375 0.15625 -1.765625 0.15625zm-0.40625 -9.25q-1.234375 0 -1.96875 0.796875q-0.71875 0.796875 -0.84375 2.203125l5.3125 0q0 -1.453125 -0.65625 -2.21875q-0.640625 -0.78125 -1.84375 -0.78125zm5.732422 4.671875l0 -1.40625l4.546875 0l0 1.40625l-4.546875 0zm10.925049 4.578125q-2.21875 0 -3.4375 -1.359375q-1.203125 -1.359375 -1.203125 -3.84375q0 -2.5625 1.234375 -3.953125q1.234375 -1.390625 3.5 -1.390625q0.734375 0 1.46875 0.171875q0.734375 0.15625 1.15625 0.359375l-0.484375 1.3125q-0.5 -0.203125 -1.109375 -0.328125q-0.609375 -0.140625 -1.0625 -0.140625q-3.109375 0 -3.109375 3.953125q0 1.875 0.75 2.875q0.765625 1.0 2.25 1.0q1.28125 0 2.609375 -0.546875l0 1.359375q-1.015625 0.53125 -2.5625 0.53125zm11.7724 -0.1875l0 -6.578125q0 -1.25 -0.578125 -1.859375q-0.5625 -0.609375 -1.765625 -0.609375q-1.609375 0 -2.34375 0.875q-0.734375 0.875 -0.734375 2.859375l0 5.3125l-1.53125 0l0 -14.4375l1.53125 0l0 4.375q0 0.78125 -0.078125 1.296875l0.09375 0q0.453125 -0.71875 1.296875 -1.140625q0.84375 -0.421875 1.921875 -0.421875q1.859375 0 2.78125 0.890625q0.9375 0.875 0.9375 2.796875l0 6.640625l-1.53125 0zm10.747498 0l-0.3125 -1.453125l-0.078125 0q-0.75 0.96875 -1.515625 1.3125q-0.75 0.328125 -1.890625 0.328125q-1.5 0 -2.359375 -0.78125q-0.859375 -0.78125 -0.859375 -2.21875q0 -3.078125 4.921875 -3.234375l1.734375 -0.046875l0 -0.625q0 -1.203125 -0.515625 -1.765625q-0.515625 -0.578125 -1.65625 -0.578125q-1.265625 0 -2.875 0.78125l-0.46875 -1.1875q0.75 -0.40625 1.640625 -0.625q0.90625 -0.234375 1.796875 -0.234375q1.828125 0 2.703125 0.8125q0.875 0.796875 0.875 2.578125l0 6.9375l-1.140625 0zm-3.484375 -1.078125q1.4375 0 2.25 -0.78125q0.828125 -0.796875 0.828125 -2.21875l0 -0.921875l-1.53125 0.0625q-1.84375 0.0625 -2.65625 0.578125q-0.8125 0.5 -0.8125 1.5625q0 0.84375 0.5 1.28125q0.515625 0.4375 1.421875 0.4375zm14.563232 1.078125l0 -6.578125q0 -1.25 -0.578125 -1.859375q-0.5625 -0.609375 -1.765625 -0.609375q-1.59375 0 -2.34375 0.875q-0.734375 0.859375 -0.734375 2.84375l0 5.328125l-1.53125 0l0 -10.171875l1.25 0l0.25 1.390625l0.0625 0q0.484375 -0.75 1.328125 -1.15625q0.859375 -0.421875 1.90625 -0.421875q1.84375 0 2.765625 0.890625q0.921875 0.890625 0.921875 2.828125l0 6.640625l-1.53125 0zm12.809998 -10.171875l0 0.984375l-1.875 0.21875q0.25 0.328125 0.453125 0.859375q0.203125 0.515625 0.203125 1.171875q0 1.484375 -1.015625 2.375q-1.015625 0.890625 -2.796875 0.890625q-0.453125 0 -0.859375 -0.0625q-0.984375 0.515625 -0.984375 1.296875q0 0.421875 0.34375 0.625q0.34375 0.203125 1.1875 0.203125l1.796875 0q1.640625 0 2.53125 0.703125q0.890625 0.6875 0.890625 2.015625q0 1.6875 -1.359375 2.5625q-1.359375 0.890625 -3.953125 0.890625q-1.984375 0 -3.078125 -0.75q-1.078125 -0.734375 -1.078125 -2.09375q0 -0.921875 0.59375 -1.609375q0.59375 -0.671875 1.671875 -0.90625q-0.390625 -0.171875 -0.65625 -0.546875q-0.265625 -0.375 -0.265625 -0.859375q0 -0.5625 0.296875 -0.96875q0.296875 -0.421875 0.9375 -0.8125q-0.78125 -0.328125 -1.28125 -1.109375q-0.5 -0.78125 -0.5 -1.78125q0 -1.671875 1.0 -2.578125q1.0 -0.90625 2.84375 -0.90625q0.796875 0 1.4375 0.1875l3.515625 0zm-8.109375 11.875q0 0.828125 0.6875 1.25q0.703125 0.4375 2.0 0.4375q1.9375 0 2.875 -0.578125q0.9375 -0.578125 0.9375 -1.578125q0 -0.828125 -0.515625 -1.15625q-0.515625 -0.3125 -1.921875 -0.3125l-1.84375 0q-1.046875 0 -1.640625 0.5q-0.578125 0.5 -0.578125 1.4375zm0.84375 -8.609375q0 1.0625 0.59375 1.609375q0.609375 0.546875 1.6875 0.546875q2.25 0 2.25 -2.1875q0 -2.296875 -2.28125 -2.296875q-1.09375 0 -1.671875 0.59375q-0.578125 0.578125 -0.578125 1.734375zm13.4552 7.09375q-2.25 0 -3.5625 -1.375q-1.296875 -1.375 -1.296875 -3.8125q0 -2.453125 1.203125 -3.90625q1.21875 -1.453125 3.265625 -1.453125q1.90625 0 3.015625 1.265625q1.125 1.25 1.125 3.3125l0 0.96875l-7.015625 0q0.046875 1.796875 0.90625 2.734375q0.859375 0.921875 2.421875 0.921875q1.640625 0 3.25 -0.6875l0 1.375q-0.8125 0.34375 -1.546875 0.5q-0.734375 0.15625 -1.765625 0.15625zm-0.40625 -9.25q-1.234375 0 -1.96875 0.796875q-0.71875 0.796875 -0.84375 2.203125l5.3125 0q0 -1.453125 -0.65625 -2.21875q-0.640625 -0.78125 -1.84375 -0.78125z" fill-rule="nonzero"></path><path fill="#6fa8dc" d="m499.41727 399.72876l185.82675 0l0 49.984253l-185.82675 0z" fill-rule="nonzero"></path><path stroke="#000000" stroke-width="2.0" stroke-linejoin="round" stroke-linecap="butt" d="m499.41727 399.72876l185.82675 0l0 49.984253l-185.82675 0z" fill-rule="nonzero"></path><path fill="#000000" d="m548.8782 426.43774q0.390625 -0.5625 1.21875 -1.484375l3.28125 -3.484375l1.828125 0l-4.125 4.34375l4.40625 5.828125l-1.859375 0l-3.59375 -4.8125l-1.15625 1.015625l0 3.796875l-1.515625 0l0 -14.4375l1.515625 0l0 7.65625q0 0.515625 -0.078125 1.578125l0.078125 0zm12.55835 5.390625q-2.25 0 -3.5625 -1.375q-1.296875 -1.375 -1.296875 -3.8125q0 -2.453125 1.203125 -3.90625q1.21875 -1.453125 3.265625 -1.453125q1.90625 0 3.015625 1.265625q1.125 1.25 1.125 3.3125l0 0.96875l-7.015625 0q0.046875 1.796875 0.90625 2.734375q0.859375 0.921875 2.421875 0.921875q1.640625 0 3.25 -0.6875l0 1.375q-0.8125 0.34375 -1.546875 0.5q-0.734375 0.15625 -1.765625 0.15625zm-0.40625 -9.25q-1.234375 0 -1.96875 0.796875q-0.71875 0.796875 -0.84375 2.203125l5.3125 0q0 -1.453125 -0.65625 -2.21875q-0.640625 -0.78125 -1.84375 -0.78125zm10.873047 9.25q-2.25 0 -3.5625 -1.375q-1.296875 -1.375 -1.296875 -3.8125q0 -2.453125 1.203125 -3.90625q1.21875 -1.453125 3.265625 -1.453125q1.90625 0 3.015625 1.265625q1.125 1.25 1.125 3.3125l0 0.96875l-7.015625 0q0.046875 1.796875 0.90625 2.734375q0.859375 0.921875 2.421875 0.921875q1.640625 0 3.25 -0.6875l0 1.375q-0.8125 0.34375 -1.546875 0.5q-0.734375 0.15625 -1.765625 0.15625zm-0.40625 -9.25q-1.234375 0 -1.96875 0.796875q-0.71875 0.796875 -0.84375 2.203125l5.3125 0q0 -1.453125 -0.65625 -2.21875q-0.640625 -0.78125 -1.84375 -0.78125zm11.310547 9.25q-0.984375 0 -1.8125 -0.359375q-0.8125 -0.375 -1.375 -1.140625l-0.109375 0q0.109375 0.890625 0.109375 1.6875l0 4.1875l-1.53125 0l0 -14.734375l1.25 0l0.203125 1.390625l0.078125 0q0.59375 -0.828125 1.375 -1.203125q0.796875 -0.375 1.8125 -0.375q2.03125 0 3.125 1.390625q1.09375 1.375 1.09375 3.875q0 2.5 -1.125 3.890625q-1.109375 1.390625 -3.09375 1.390625zm-0.21875 -9.234375q-1.5625 0 -2.265625 0.875q-0.6875 0.859375 -0.703125 2.734375l0 0.34375q0 2.140625 0.71875 3.0625q0.71875 0.921875 2.28125 0.921875q1.328125 0 2.0625 -1.0625q0.75 -1.0625 0.75 -2.9375q0 -1.90625 -0.75 -2.921875q-0.734375 -1.015625 -2.09375 -1.015625zm13.182434 9.046875l-0.3125 -1.453125l-0.078125 0q-0.75 0.96875 -1.515625 1.3125q-0.75 0.328125 -1.890625 0.328125q-1.5 0 -2.359375 -0.78125q-0.859375 -0.78125 -0.859375 -2.21875q0 -3.078125 4.921875 -3.234375l1.734375 -0.046875l0 -0.625q0 -1.203125 -0.515625 -1.765625q-0.515625 -0.578125 -1.65625 -0.578125q-1.265625 0 -2.875 0.78125l-0.46875 -1.1875q0.75 -0.40625 1.640625 -0.625q0.90625 -0.234375 1.796875 -0.234375q1.828125 0 2.703125 0.8125q0.875 0.796875 0.875 2.578125l0 6.9375l-1.140625 0zm-3.484375 -1.078125q1.4375 0 2.25 -0.78125q0.828125 -0.796875 0.828125 -2.21875l0 -0.921875l-1.53125 0.0625q-1.84375 0.0625 -2.65625 0.578125q-0.8125 0.5 -0.8125 1.5625q0 0.84375 0.5 1.28125q0.515625 0.4375 1.421875 0.4375zm9.141357 1.078125l-1.53125 0l0 -14.4375l1.53125 0l0 14.4375zm4.718689 0l-1.53125 0l0 -10.171875l1.53125 0l0 10.171875zm-1.671875 -12.921875q0 -0.53125 0.25 -0.765625q0.265625 -0.25 0.65625 -0.25q0.375 0 0.640625 0.25q0.28125 0.25 0.28125 0.765625q0 0.515625 -0.28125 0.78125q-0.265625 0.25 -0.640625 0.25q-0.390625 0 -0.65625 -0.25q-0.25 -0.265625 -0.25 -0.78125zm7.078125 12.921875l-3.859375 -10.171875l1.65625 0l2.1875 6.03125q0.734375 2.125 0.875 2.75l0.0625 0q0.109375 -0.5 0.640625 -2.03125q0.546875 -1.546875 2.453125 -6.75l1.640625 0l-3.859375 10.171875l-1.796875 0zm11.408813 0.1875q-2.25 0 -3.5625 -1.375q-1.296875 -1.375 -1.296875 -3.8125q0 -2.453125 1.203125 -3.90625q1.21875 -1.453125 3.265625 -1.453125q1.90625 0 3.015625 1.265625q1.125 1.25 1.125 3.3125l0 0.96875l-7.015625 0q0.046875 1.796875 0.90625 2.734375q0.859375 0.921875 2.421875 0.921875q1.640625 0 3.25 -0.6875l0 1.375q-0.8125 0.34375 -1.546875 0.5q-0.734375 0.15625 -1.765625 0.15625zm-0.40625 -9.25q-1.234375 0 -1.96875 0.796875q-0.71875 0.796875 -0.84375 2.203125l5.3125 0q0 -1.453125 -0.65625 -2.21875q-0.640625 -0.78125 -1.84375 -0.78125zm13.498047 7.703125l-0.078125 0q-1.0625 1.546875 -3.1875 1.546875q-2.0 0 -3.109375 -1.359375q-1.109375 -1.375 -1.109375 -3.890625q0 -2.515625 1.109375 -3.90625q1.125 -1.390625 3.109375 -1.390625q2.0625 0 3.171875 1.515625l0.125 0l-0.078125 -0.734375l-0.03125 -0.71875l0 -4.140625l1.546875 0l0 14.4375l-1.25 0l-0.21875 -1.359375zm-3.078125 0.25q1.578125 0 2.28125 -0.859375q0.71875 -0.859375 0.71875 -2.765625l0 -0.328125q0 -2.15625 -0.71875 -3.078125q-0.71875 -0.921875 -2.296875 -0.921875q-1.359375 0 -2.078125 1.0625q-0.71875 1.046875 -0.71875 2.96875q0 1.9375 0.71875 2.9375q0.71875 0.984375 2.09375 0.984375z" fill-rule="nonzero"></path><path fill="#000000" fill-opacity="0.0" d="m592.3307 399.72876l0 -30.015747" fill-rule="nonzero"></path><path stroke="#595959" stroke-width="1.0" stroke-linejoin="round" stroke-linecap="butt" d="m592.3307 399.72876l0 -24.015747" fill-rule="evenodd"></path><path fill="#595959" stroke="#595959" stroke-width="1.0" stroke-linecap="butt" d="m593.9824 375.713l-1.6517334 -4.5381165l-1.6517334 4.5381165z" fill-rule="evenodd"></path><path fill="#000000" fill-opacity="0.0" d="m592.3307 319.72873l0 -30.015747" fill-rule="nonzero"></path><path stroke="#595959" stroke-width="1.0" stroke-linejoin="round" stroke-linecap="butt" d="m592.3307 319.72873l0 -24.015747" fill-rule="evenodd"></path><path fill="#595959" stroke="#595959" stroke-width="1.0" stroke-linecap="butt" d="m593.9824 295.71298l-1.6517334 -4.538086l-1.6517334 4.538086z" fill-rule="evenodd"></path><path fill="#000000" fill-opacity="0.0" d="m592.3307 239.72873l0 -91.075195l-287.2441 0l0 91.1382" fill-rule="nonzero"></path><path stroke="#595959" stroke-width="1.0" stroke-linejoin="round" stroke-linecap="butt" d="m592.3307 239.72873l0 -91.075195l-287.2441 0l0 87.711105" fill-rule="evenodd"></path><path fill="#595959" stroke="#595959" stroke-width="1.0" stroke-linecap="butt" d="m305.08658 236.36464l-1.1246033 -1.124588l1.1246033 3.0897675l1.1245728 -3.0897675z" fill-rule="evenodd"></path><path fill="#000000" fill-opacity="0.0" d="m321.08136 111.94751l287.24408 0l0 49.984253l-287.24408 0z" fill-rule="nonzero"></path><path fill="#000000" d="m340.472 138.86751l-1.6875 -4.3125l-5.4375 0l-1.671875 4.3125l-1.59375 0l5.359375 -13.625l1.328125 0l5.34375 13.625l-1.640625 0zm-2.1875 -5.734375l-1.5625 -4.203125q-0.3125 -0.796875 -0.640625 -1.953125q-0.203125 0.890625 -0.578125 1.953125l-1.59375 4.203125l4.375 0zm13.555908 -4.4375l0 0.984375l-1.875 0.21875q0.25 0.328125 0.453125 0.859375q0.203125 0.515625 0.203125 1.171875q0 1.484375 -1.015625 2.375q-1.015625 0.890625 -2.796875 0.890625q-0.453125 0 -0.859375 -0.0625q-0.984375 0.515625 -0.984375 1.296875q0 0.421875 0.34375 0.625q0.34375 0.203125 1.1875 0.203125l1.796875 0q1.640625 0 2.53125 0.703125q0.890625 0.6875 0.890625 2.015625q0 1.6875 -1.359375 2.5625q-1.359375 0.890625 -3.953125 0.890625q-1.984375 0 -3.078125 -0.75q-1.078125 -0.734375 -1.078125 -2.09375q0 -0.921875 0.59375 -1.609375q0.59375 -0.671875 1.671875 -0.90625q-0.390625 -0.171875 -0.65625 -0.546875q-0.265625 -0.375 -0.265625 -0.859375q0 -0.5625 0.296875 -0.96875q0.296875 -0.421875 0.9375 -0.8125q-0.78125 -0.328125 -1.28125 -1.109375q-0.5 -0.78125 -0.5 -1.78125q0 -1.671875 1.0 -2.578125q1.0 -0.90625 2.84375 -0.90625q0.796875 0 1.4375 0.1875l3.515625 0zm-8.109375 11.875q0 0.828125 0.6875 1.25q0.703125 0.4375 2.0 0.4375q1.9375 0 2.875 -0.578125q0.9375 -0.578125 0.9375 -1.578125q0 -0.828125 -0.515625 -1.15625q-0.515625 -0.3125 -1.921875 -0.3125l-1.84375 0q-1.046875 0 -1.640625 0.5q-0.578125 0.5 -0.578125 1.4375zm0.84375 -8.609375q0 1.0625 0.59375 1.609375q0.609375 0.546875 1.6875 0.546875q2.25 0 2.25 -2.1875q0 -2.296875 -2.28125 -2.296875q-1.09375 0 -1.671875 0.59375q-0.578125 0.578125 -0.578125 1.734375zm17.48648 -3.265625l0 0.984375l-1.875 0.21875q0.25 0.328125 0.453125 0.859375q0.203125 0.515625 0.203125 1.171875q0 1.484375 -1.015625 2.375q-1.015625 0.890625 -2.796875 0.890625q-0.453125 0 -0.859375 -0.0625q-0.984375 0.515625 -0.984375 1.296875q0 0.421875 0.34375 0.625q0.34375 0.203125 1.1875 0.203125l1.796875 0q1.640625 0 2.53125 0.703125q0.890625 0.6875 0.890625 2.015625q0 1.6875 -1.359375 2.5625q-1.359375 0.890625 -3.953125 0.890625q-1.984375 0 -3.078125 -0.75q-1.078125 -0.734375 -1.078125 -2.09375q0 -0.921875 0.59375 -1.609375q0.59375 -0.671875 1.671875 -0.90625q-0.390625 -0.171875 -0.65625 -0.546875q-0.265625 -0.375 -0.265625 -0.859375q0 -0.5625 0.296875 -0.96875q0.296875 -0.421875 0.9375 -0.8125q-0.78125 -0.328125 -1.28125 -1.109375q-0.5 -0.78125 -0.5 -1.78125q0 -1.671875 1.0 -2.578125q1.0 -0.90625 2.84375 -0.90625q0.796875 0 1.4375 0.1875l3.515625 0zm-8.109375 11.875q0 0.828125 0.6875 1.25q0.703125 0.4375 2.0 0.4375q1.9375 0 2.875 -0.578125q0.9375 -0.578125 0.9375 -1.578125q0 -0.828125 -0.515625 -1.15625q-0.515625 -0.3125 -1.921875 -0.3125l-1.84375 0q-1.046875 0 -1.640625 0.5q-0.578125 0.5 -0.578125 1.4375zm0.84375 -8.609375q0 1.0625 0.59375 1.609375q0.609375 0.546875 1.6875 0.546875q2.25 0 2.25 -2.1875q0 -2.296875 -2.28125 -2.296875q-1.09375 0 -1.671875 0.59375q-0.578125 0.578125 -0.578125 1.734375zm13.798981 -3.453125q0.6875 0 1.21875 0.109375l-0.203125 1.4375q-0.640625 -0.140625 -1.125 -0.140625q-1.234375 0 -2.109375 1.0q-0.875 1.0 -0.875 2.5l0 5.453125l-1.53125 0l0 -10.171875l1.265625 0l0.171875 1.890625l0.078125 0q0.5625 -1.0 1.359375 -1.53125q0.796875 -0.546875 1.75 -0.546875zm7.2717896 10.546875q-2.25 0 -3.5625 -1.375q-1.296875 -1.375 -1.296875 -3.8125q0 -2.453125 1.203125 -3.90625q1.21875 -1.453125 3.265625 -1.453125q1.90625 0 3.015625 1.265625q1.125 1.25 1.125 3.3125l0 0.96875l-7.015625 0q0.046875 1.796875 0.90625 2.734375q0.859375 0.921875 2.421875 0.921875q1.640625 0 3.25 -0.6875l0 1.375q-0.8125 0.34375 -1.546875 0.5q-0.734375 0.15625 -1.765625 0.15625zm-0.40625 -9.25q-1.234375 0 -1.96875 0.796875q-0.71875 0.796875 -0.84375 2.203125l5.3125 0q0 -1.453125 -0.65625 -2.21875q-0.640625 -0.78125 -1.84375 -0.78125zm14.904327 -1.109375l0 0.984375l-1.875 0.21875q0.25 0.328125 0.453125 0.859375q0.203125 0.515625 0.203125 1.171875q0 1.484375 -1.015625 2.375q-1.015625 0.890625 -2.796875 0.890625q-0.453125 0 -0.859375 -0.0625q-0.984375 0.515625 -0.984375 1.296875q0 0.421875 0.34375 0.625q0.34375 0.203125 1.1875 0.203125l1.796875 0q1.640625 0 2.53125 0.703125q0.890625 0.6875 0.890625 2.015625q0 1.6875 -1.359375 2.5625q-1.359375 0.890625 -3.953125 0.890625q-1.984375 0 -3.078125 -0.75q-1.078125 -0.734375 -1.078125 -2.09375q0 -0.921875 0.59375 -1.609375q0.59375 -0.671875 1.671875 -0.90625q-0.390625 -0.171875 -0.65625 -0.546875q-0.265625 -0.375 -0.265625 -0.859375q0 -0.5625 0.296875 -0.96875q0.296875 -0.421875 0.9375 -0.8125q-0.78125 -0.328125 -1.28125 -1.109375q-0.5 -0.78125 -0.5 -1.78125q0 -1.671875 1.0 -2.578125q1.0 -0.90625 2.84375 -0.90625q0.796875 0 1.4375 0.1875l3.515625 0zm-8.109375 11.875q0 0.828125 0.6875 1.25q0.703125 0.4375 2.0 0.4375q1.9375 0 2.875 -0.578125q0.9375 -0.578125 0.9375 -1.578125q0 -0.828125 -0.515625 -1.15625q-0.515625 -0.3125 -1.921875 -0.3125l-1.84375 0q-1.046875 0 -1.640625 0.5q-0.578125 0.5 -0.578125 1.4375zm0.84375 -8.609375q0 1.0625 0.59375 1.609375q0.609375 0.546875 1.6875 0.546875q2.25 0 2.25 -2.1875q0 -2.296875 -2.28125 -2.296875q-1.09375 0 -1.671875 0.59375q-0.578125 0.578125 -0.578125 1.734375zm15.423981 6.90625l-0.3125 -1.453125l-0.078125 0q-0.75 0.96875 -1.515625 1.3125q-0.75 0.328125 -1.890625 0.328125q-1.5 0 -2.359375 -0.78125q-0.859375 -0.78125 -0.859375 -2.21875q0 -3.078125 4.921875 -3.234375l1.734375 -0.046875l0 -0.625q0 -1.203125 -0.515625 -1.765625q-0.515625 -0.578125 -1.65625 -0.578125q-1.265625 0 -2.875 0.78125l-0.46875 -1.1875q0.75 -0.40625 1.640625 -0.625q0.90625 -0.234375 1.796875 -0.234375q1.828125 0 2.703125 0.8125q0.875 0.796875 0.875 2.578125l0 6.9375l-1.140625 0zm-3.484375 -1.078125q1.4375 0 2.25 -0.78125q0.828125 -0.796875 0.828125 -2.21875l0 -0.921875l-1.53125 0.0625q-1.84375 0.0625 -2.65625 0.578125q-0.8125 0.5 -0.8125 1.5625q0 0.84375 0.5 1.28125q0.515625 0.4375 1.421875 0.4375zm10.891327 0q0.40625 0 0.78125 -0.0625q0.390625 -0.0625 0.609375 -0.125l0 1.171875q-0.25 0.125 -0.75 0.203125q-0.484375 0.078125 -0.875 0.078125q-2.9375 0 -2.9375 -3.109375l0 -6.046875l-1.46875 0l0 -0.75l1.46875 -0.640625l0.640625 -2.171875l0.890625 0l0 2.359375l2.953125 0l0 1.203125l-2.953125 0l0 5.984375q0 0.921875 0.4375 1.421875q0.4375 0.484375 1.203125 0.484375zm7.5861816 1.265625q-2.25 0 -3.5625 -1.375q-1.296875 -1.375 -1.296875 -3.8125q0 -2.453125 1.203125 -3.90625q1.21875 -1.453125 3.265625 -1.453125q1.90625 0 3.015625 1.265625q1.125 1.25 1.125 3.3125l0 0.96875l-7.015625 0q0.046875 1.796875 0.90625 2.734375q0.859375 0.921875 2.421875 0.921875q1.640625 0 3.25 -0.6875l0 1.375q-0.8125 0.34375 -1.546875 0.5q-0.734375 0.15625 -1.765625 0.15625zm-0.40625 -9.25q-1.234375 0 -1.96875 0.796875q-0.71875 0.796875 -0.84375 2.203125l5.3125 0q0 -1.453125 -0.65625 -2.21875q-0.640625 -0.78125 -1.84375 -0.78125zm13.498047 7.703125l-0.078125 0q-1.0625 1.546875 -3.1875 1.546875q-2.0 0 -3.109375 -1.359375q-1.109375 -1.375 -1.109375 -3.890625q0 -2.515625 1.109375 -3.90625q1.125 -1.390625 3.109375 -1.390625q2.0625 0 3.171875 1.515625l0.125 0l-0.078125 -0.734375l-0.03125 -0.71875l0 -4.140625l1.546875 0l0 14.4375l-1.25 0l-0.21875 -1.359375zm-3.078125 0.25q1.578125 0 2.28125 -0.859375q0.71875 -0.859375 0.71875 -2.765625l0 -0.328125q0 -2.15625 -0.71875 -3.078125q-0.71875 -0.921875 -2.296875 -0.921875q-1.359375 0 -2.078125 1.0625q-0.71875 1.046875 -0.71875 2.96875q0 1.9375 0.71875 2.9375q0.71875 0.984375 2.09375 0.984375zm14.247437 -4.53125l0 5.640625l-1.578125 0l0 -13.5625l3.71875 0q2.5 0 3.6875 0.953125q1.203125 0.953125 1.203125 2.875q0 2.6875 -2.734375 3.640625l3.6875 6.09375l-1.859375 0l-3.296875 -5.640625l-2.828125 0zm0 -1.359375l2.171875 0q1.671875 0 2.4375 -0.65625q0.78125 -0.671875 0.78125 -2.0q0 -1.34375 -0.796875 -1.9375q-0.78125 -0.59375 -2.53125 -0.59375l-2.0625 0l0 5.1875zm18.563873 -2.609375q0 2.0625 -1.40625 3.171875q-1.40625 1.109375 -4.03125 1.109375l-1.59375 0l0 5.328125l-1.578125 0l0 -13.5625l3.515625 0q5.09375 0 5.09375 3.953125zm-7.03125 2.921875l1.421875 0q2.09375 0 3.03125 -0.671875q0.9375 -0.6875 0.9375 -2.171875q0 -1.34375 -0.890625 -2.0q-0.875 -0.671875 -2.734375 -0.671875l-1.765625 0l0 5.515625zm15.46637 -5.65625q-2.234375 0 -3.53125 1.484375q-1.296875 1.484375 -1.296875 4.078125q0 2.65625 1.25 4.109375q1.25 1.453125 3.5625 1.453125q1.421875 0 3.234375 -0.5l0 1.375q-1.40625 0.53125 -3.484375 0.53125q-2.984375 0 -4.625 -1.8125q-1.625 -1.828125 -1.625 -5.171875q0 -2.09375 0.78125 -3.671875q0.796875 -1.578125 2.265625 -2.4375q1.484375 -0.859375 3.484375 -0.859375q2.140625 0 3.734375 0.78125l-0.671875 1.359375q-1.53125 -0.71875 -3.078125 -0.71875zm16.818848 12.34375l-4.609375 -12.03125l-0.078125 0q0.140625 1.4375 0.140625 3.40625l0 8.625l-1.46875 0l0 -13.5625l2.375 0l4.296875 11.1875l0.078125 0l4.328125 -11.1875l2.359375 0l0 13.5625l-1.578125 0l0 -8.734375q0 -1.515625 0.125 -3.265625l-0.0625 0l-4.640625 12.0l-1.265625 0zm14.89035 0.1875q-2.25 0 -3.5625 -1.375q-1.296875 -1.375 -1.296875 -3.8125q0 -2.453125 1.203125 -3.90625q1.21875 -1.453125 3.265625 -1.453125q1.90625 0 3.015625 1.265625q1.125 1.25 1.125 3.3125l0 0.96875l-7.015625 0q0.046875 1.796875 0.90625 2.734375q0.859375 0.921875 2.421875 0.921875q1.640625 0 3.25 -0.6875l0 1.375q-0.8125 0.34375 -1.546875 0.5q-0.734375 0.15625 -1.765625 0.15625zm-0.40625 -9.25q-1.234375 0 -1.96875 0.796875q-0.71875 0.796875 -0.84375 2.203125l5.3125 0q0 -1.453125 -0.65625 -2.21875q-0.640625 -0.78125 -1.84375 -0.78125zm13.138672 6.28125q0 1.421875 -1.0625 2.203125q-1.046875 0.765625 -2.953125 0.765625q-2.03125 0 -3.15625 -0.640625l0 -1.4375q0.734375 0.375 1.5625 0.59375q0.84375 0.21875 1.625 0.21875q1.203125 0 1.84375 -0.390625q0.65625 -0.390625 0.65625 -1.171875q0 -0.59375 -0.515625 -1.015625q-0.515625 -0.421875 -2.0 -1.0q-1.421875 -0.53125 -2.03125 -0.921875q-0.59375 -0.390625 -0.890625 -0.890625q-0.28125 -0.515625 -0.28125 -1.203125q0 -1.25 1.0 -1.96875q1.015625 -0.71875 2.78125 -0.71875q1.640625 0 3.21875 0.671875l-0.546875 1.25q-1.53125 -0.625 -2.78125 -0.625q-1.09375 0 -1.65625 0.34375q-0.546875 0.34375 -0.546875 0.9375q0 0.421875 0.203125 0.703125q0.203125 0.28125 0.671875 0.546875q0.46875 0.265625 1.78125 0.75q1.8125 0.65625 2.4375 1.328125q0.640625 0.671875 0.640625 1.671875zm8.899994 0q0 1.421875 -1.0625 2.203125q-1.046875 0.765625 -2.953125 0.765625q-2.03125 0 -3.15625 -0.640625l0 -1.4375q0.734375 0.375 1.5625 0.59375q0.84375 0.21875 1.625 0.21875q1.203125 0 1.84375 -0.390625q0.65625 -0.390625 0.65625 -1.171875q0 -0.59375 -0.515625 -1.015625q-0.515625 -0.421875 -2.0 -1.0q-1.421875 -0.53125 -2.03125 -0.921875q-0.59375 -0.390625 -0.890625 -0.890625q-0.28125 -0.515625 -0.28125 -1.203125q0 -1.25 1.0 -1.96875q1.015625 -0.71875 2.78125 -0.71875q1.640625 0 3.21875 0.671875l-0.546875 1.25q-1.53125 -0.625 -2.78125 -0.625q-1.09375 0 -1.65625 0.34375q-0.546875 0.34375 -0.546875 0.9375q0 0.421875 0.203125 0.703125q0.203125 0.28125 0.671875 0.546875q0.46875 0.265625 1.78125 0.75q1.8125 0.65625 2.4375 1.328125q0.640625 0.671875 0.640625 1.671875zm8.603088 2.78125l-0.3125 -1.453125l-0.078125 0q-0.75 0.96875 -1.515625 1.3125q-0.75 0.328125 -1.890625 0.328125q-1.5 0 -2.359375 -0.78125q-0.859375 -0.78125 -0.859375 -2.21875q0 -3.078125 4.921875 -3.234375l1.734375 -0.046875l0 -0.625q0 -1.203125 -0.515625 -1.765625q-0.515625 -0.578125 -1.65625 -0.578125q-1.265625 0 -2.875 0.78125l-0.46875 -1.1875q0.75 -0.40625 1.640625 -0.625q0.90625 -0.234375 1.796875 -0.234375q1.828125 0 2.703125 0.8125q0.875 0.796875 0.875 2.578125l0 6.9375l-1.140625 0zm-3.484375 -1.078125q1.4375 0 2.25 -0.78125q0.828125 -0.796875 0.828125 -2.21875l0 -0.921875l-1.53125 0.0625q-1.84375 0.0625 -2.65625 0.578125q-0.8125 0.5 -0.8125 1.5625q0 0.84375 0.5 1.28125q0.515625 0.4375 1.421875 0.4375zm15.922607 -9.09375l0 0.984375l-1.875 0.21875q0.25 0.328125 0.453125 0.859375q0.203125 0.515625 0.203125 1.171875q0 1.484375 -1.015625 2.375q-1.015625 0.890625 -2.796875 0.890625q-0.453125 0 -0.859375 -0.0625q-0.984375 0.515625 -0.984375 1.296875q0 0.421875 0.34375 0.625q0.34375 0.203125 1.1875 0.203125l1.796875 0q1.640625 0 2.53125 0.703125q0.890625 0.6875 0.890625 2.015625q0 1.6875 -1.359375 2.5625q-1.359375 0.890625 -3.953125 0.890625q-1.984375 0 -3.078125 -0.75q-1.078125 -0.734375 -1.078125 -2.09375q0 -0.921875 0.59375 -1.609375q0.59375 -0.671875 1.671875 -0.90625q-0.390625 -0.171875 -0.65625 -0.546875q-0.265625 -0.375 -0.265625 -0.859375q0 -0.5625 0.296875 -0.96875q0.296875 -0.421875 0.9375 -0.8125q-0.78125 -0.328125 -1.28125 -1.109375q-0.5 -0.78125 -0.5 -1.78125q0 -1.671875 1.0 -2.578125q1.0 -0.90625 2.84375 -0.90625q0.796875 0 1.4375 0.1875l3.515625 0zm-8.109375 11.875q0 0.828125 0.6875 1.25q0.703125 0.4375 2.0 0.4375q1.9375 0 2.875 -0.578125q0.9375 -0.578125 0.9375 -1.578125q0 -0.828125 -0.515625 -1.15625q-0.515625 -0.3125 -1.921875 -0.3125l-1.84375 0q-1.046875 0 -1.640625 0.5q-0.578125 0.5 -0.578125 1.4375zm0.84375 -8.609375q0 1.0625 0.59375 1.609375q0.609375 0.546875 1.6875 0.546875q2.25 0 2.25 -2.1875q0 -2.296875 -2.28125 -2.296875q-1.09375 0 -1.671875 0.59375q-0.578125 0.578125 -0.578125 1.734375zm13.4552 7.09375q-2.25 0 -3.5625 -1.375q-1.296875 -1.375 -1.296875 -3.8125q0 -2.453125 1.203125 -3.90625q1.21875 -1.453125 3.265625 -1.453125q1.90625 0 3.015625 1.265625q1.125 1.25 1.125 3.3125l0 0.96875l-7.015625 0q0.046875 1.796875 0.90625 2.734375q0.859375 0.921875 2.421875 0.921875q1.640625 0 3.25 -0.6875l0 1.375q-0.8125 0.34375 -1.546875 0.5q-0.734375 0.15625 -1.765625 0.15625zm-0.40625 -9.25q-1.234375 0 -1.96875 0.796875q-0.71875 0.796875 -0.84375 2.203125l5.3125 0q0 -1.453125 -0.65625 -2.21875q-0.640625 -0.78125 -1.84375 -0.78125z" fill-rule="nonzero"></path><path fill="#9fc5e8" d="m715.4173 319.72873l185.82678 0l0 49.984253l-185.82678 0z" fill-rule="nonzero"></path><path stroke="#000000" stroke-width="2.0" stroke-linejoin="round" stroke-linecap="butt" d="m715.4173 319.72873l185.82678 0l0 49.984253l-185.82678 0z" fill-rule="nonzero"></path><path fill="#000000" d="m760.636 348.85962q0 1.421875 -1.0625 2.203125q-1.046875 0.765625 -2.953125 0.765625q-2.03125 0 -3.15625 -0.640625l0 -1.4375q0.734375 0.375 1.5625 0.59375q0.84375 0.21875 1.625 0.21875q1.203125 0 1.84375 -0.390625q0.65625 -0.390625 0.65625 -1.171875q0 -0.59375 -0.515625 -1.015625q-0.515625 -0.421875 -2.0 -1.0q-1.421875 -0.53125 -2.03125 -0.921875q-0.59375 -0.390625 -0.890625 -0.890625q-0.28125 -0.515625 -0.28125 -1.203125q0 -1.25 1.0 -1.96875q1.015625 -0.71875 2.78125 -0.71875q1.640625 0 3.21875 0.671875l-0.546875 1.25q-1.53125 -0.625 -2.78125 -0.625q-1.09375 0 -1.65625 0.34375q-0.546875 0.34375 -0.546875 0.9375q0 0.421875 0.203125 0.703125q0.203125 0.28125 0.671875 0.546875q0.46875 0.265625 1.78125 0.75q1.8125 0.65625 2.4375 1.328125q0.640625 0.671875 0.640625 1.671875zm5.6343384 1.703125q0.40625 0 0.78125 -0.0625q0.390625 -0.0625 0.609375 -0.125l0 1.171875q-0.25 0.125 -0.75 0.203125q-0.484375 0.078125 -0.875 0.078125q-2.9375 0 -2.9375 -3.109375l0 -6.046875l-1.46875 0l0 -0.75l1.46875 -0.640625l0.640625 -2.171875l0.890625 0l0 2.359375l2.953125 0l0 1.203125l-2.953125 0l0 5.984375q0 0.921875 0.4375 1.421875q0.4375 0.484375 1.203125 0.484375zm9.554932 1.078125l-0.3125 -1.453125l-0.078125 0q-0.75 0.96875 -1.515625 1.3125q-0.75 0.328125 -1.890625 0.328125q-1.5 0 -2.359375 -0.78125q-0.859375 -0.78125 -0.859375 -2.21875q0 -3.078125 4.921875 -3.234375l1.734375 -0.046875l0 -0.625q0 -1.203125 -0.515625 -1.765625q-0.515625 -0.578125 -1.65625 -0.578125q-1.265625 0 -2.875 0.78125l-0.46875 -1.1875q0.75 -0.40625 1.640625 -0.625q0.90625 -0.234375 1.796875 -0.234375q1.828125 0 2.703125 0.8125q0.875 0.796875 0.875 2.578125l0 6.9375l-1.140625 0zm-3.484375 -1.078125q1.4375 0 2.25 -0.78125q0.828125 -0.796875 0.828125 -2.21875l0 -0.921875l-1.53125 0.0625q-1.84375 0.0625 -2.65625 0.578125q-0.8125 0.5 -0.8125 1.5625q0 0.84375 0.5 1.28125q0.515625 0.4375 1.421875 0.4375zm10.891357 0q0.40625 0 0.78125 -0.0625q0.390625 -0.0625 0.609375 -0.125l0 1.171875q-0.25 0.125 -0.75 0.203125q-0.484375 0.078125 -0.875 0.078125q-2.9375 0 -2.9375 -3.109375l0 -6.046875l-1.46875 0l0 -0.75l1.46875 -0.640625l0.640625 -2.171875l0.890625 0l0 2.359375l2.953125 0l0 1.203125l-2.953125 0l0 5.984375q0 0.921875 0.4375 1.421875q0.4375 0.484375 1.203125 0.484375zm7.5861816 1.265625q-2.25 0 -3.5625 -1.375q-1.296875 -1.375 -1.296875 -3.8125q0 -2.453125 1.203125 -3.90625q1.21875 -1.453125 3.265625 -1.453125q1.90625 0 3.015625 1.265625q1.125 1.25 1.125 3.3125l0 0.96875l-7.015625 0q0.046875 1.796875 0.90625 2.734375q0.859375 0.921875 2.421875 0.921875q1.640625 0 3.25 -0.6875l0 1.375q-0.8125 0.34375 -1.546875 0.5q-0.734375 0.15625 -1.765625 0.15625zm-0.40625 -9.25q-1.234375 0 -1.96875 0.796875q-0.71875 0.796875 -0.84375 2.203125l5.3125 0q0 -1.453125 -0.65625 -2.21875q-0.640625 -0.78125 -1.84375 -0.78125zm5.732422 4.671875l0 -1.40625l4.546875 0l0 1.40625l-4.546875 0zm10.925049 4.578125q-2.21875 0 -3.4375 -1.359375q-1.203125 -1.359375 -1.203125 -3.84375q0 -2.5625 1.234375 -3.953125q1.234375 -1.390625 3.5 -1.390625q0.734375 0 1.46875 0.171875q0.734375 0.15625 1.15625 0.359375l-0.484375 1.3125q-0.5 -0.203125 -1.109375 -0.328125q-0.609375 -0.140625 -1.0625 -0.140625q-3.109375 0 -3.109375 3.953125q0 1.875 0.75 2.875q0.765625 1.0 2.25 1.0q1.28125 0 2.609375 -0.546875l0 1.359375q-1.015625 0.53125 -2.5625 0.53125zm11.772339 -0.1875l0 -6.578125q0 -1.25 -0.578125 -1.859375q-0.5625 -0.609375 -1.765625 -0.609375q-1.609375 0 -2.34375 0.875q-0.734375 0.875 -0.734375 2.859375l0 5.3125l-1.53125 0l0 -14.4375l1.53125 0l0 4.375q0 0.78125 -0.078125 1.296875l0.09375 0q0.453125 -0.71875 1.296875 -1.140625q0.84375 -0.421875 1.921875 -0.421875q1.859375 0 2.78125 0.890625q0.9375 0.875 0.9375 2.796875l0 6.640625l-1.53125 0zm10.747559 0l-0.3125 -1.453125l-0.078125 0q-0.75 0.96875 -1.515625 1.3125q-0.75 0.328125 -1.890625 0.328125q-1.5 0 -2.359375 -0.78125q-0.859375 -0.78125 -0.859375 -2.21875q0 -3.078125 4.921875 -3.234375l1.734375 -0.046875l0 -0.625q0 -1.203125 -0.515625 -1.765625q-0.515625 -0.578125 -1.65625 -0.578125q-1.265625 0 -2.875 0.78125l-0.46875 -1.1875q0.75 -0.40625 1.640625 -0.625q0.90625 -0.234375 1.796875 -0.234375q1.828125 0 2.703125 0.8125q0.875 0.796875 0.875 2.578125l0 6.9375l-1.140625 0zm-3.484375 -1.078125q1.4375 0 2.25 -0.78125q0.828125 -0.796875 0.828125 -2.21875l0 -0.921875l-1.53125 0.0625q-1.84375 0.0625 -2.65625 0.578125q-0.8125 0.5 -0.8125 1.5625q0 0.84375 0.5 1.28125q0.515625 0.4375 1.421875 0.4375zm14.563171 1.078125l0 -6.578125q0 -1.25 -0.578125 -1.859375q-0.5625 -0.609375 -1.765625 -0.609375q-1.59375 0 -2.34375 0.875q-0.734375 0.859375 -0.734375 2.84375l0 5.328125l-1.53125 0l0 -10.171875l1.25 0l0.25 1.390625l0.0625 0q0.484375 -0.75 1.328125 -1.15625q0.859375 -0.421875 1.90625 -0.421875q1.84375 0 2.765625 0.890625q0.921875 0.890625 0.921875 2.828125l0 6.640625l-1.53125 0zm12.810059 -10.171875l0 0.984375l-1.875 0.21875q0.25 0.328125 0.453125 0.859375q0.203125 0.515625 0.203125 1.171875q0 1.484375 -1.015625 2.375q-1.015625 0.890625 -2.796875 0.890625q-0.453125 0 -0.859375 -0.0625q-0.984375 0.515625 -0.984375 1.296875q0 0.421875 0.34375 0.625q0.34375 0.203125 1.1875 0.203125l1.796875 0q1.640625 0 2.53125 0.703125q0.890625 0.6875 0.890625 2.015625q0 1.6875 -1.359375 2.5625q-1.359375 0.890625 -3.953125 0.890625q-1.984375 0 -3.078125 -0.75q-1.078125 -0.734375 -1.078125 -2.09375q0 -0.921875 0.59375 -1.609375q0.59375 -0.671875 1.671875 -0.90625q-0.390625 -0.171875 -0.65625 -0.546875q-0.265625 -0.375 -0.265625 -0.859375q0 -0.5625 0.296875 -0.96875q0.296875 -0.421875 0.9375 -0.8125q-0.78125 -0.328125 -1.28125 -1.109375q-0.5 -0.78125 -0.5 -1.78125q0 -1.671875 1.0 -2.578125q1.0 -0.90625 2.84375 -0.90625q0.796875 0 1.4375 0.1875l3.515625 0zm-8.109375 11.875q0 0.828125 0.6875 1.25q0.703125 0.4375 2.0 0.4375q1.9375 0 2.875 -0.578125q0.9375 -0.578125 0.9375 -1.578125q0 -0.828125 -0.515625 -1.15625q-0.515625 -0.3125 -1.921875 -0.3125l-1.84375 0q-1.046875 0 -1.640625 0.5q-0.578125 0.5 -0.578125 1.4375zm0.84375 -8.609375q0 1.0625 0.59375 1.609375q0.609375 0.546875 1.6875 0.546875q2.25 0 2.25 -2.1875q0 -2.296875 -2.28125 -2.296875q-1.09375 0 -1.671875 0.59375q-0.578125 0.578125 -0.578125 1.734375zm13.4552 7.09375q-2.25 0 -3.5625 -1.375q-1.296875 -1.375 -1.296875 -3.8125q0 -2.453125 1.203125 -3.90625q1.21875 -1.453125 3.265625 -1.453125q1.90625 0 3.015625 1.265625q1.125 1.25 1.125 3.3125l0 0.96875l-7.015625 0q0.046875 1.796875 0.90625 2.734375q0.859375 0.921875 2.421875 0.921875q1.640625 0 3.25 -0.6875l0 1.375q-0.8125 0.34375 -1.546875 0.5q-0.734375 0.15625 -1.765625 0.15625zm-0.40625 -9.25q-1.234375 0 -1.96875 0.796875q-0.71875 0.796875 -0.84375 2.203125l5.3125 0q0 -1.453125 -0.65625 -2.21875q-0.640625 -0.78125 -1.84375 -0.78125z" fill-rule="nonzero"></path><path fill="#6fa8dc" d="m715.4173 399.72876l185.82678 0l0 49.984253l-185.82678 0z" fill-rule="nonzero"></path><path stroke="#000000" stroke-width="2.0" stroke-linejoin="round" stroke-linecap="butt" d="m715.4173 399.72876l185.82678 0l0 49.984253l-185.82678 0z" fill-rule="nonzero"></path><path fill="#000000" d="m764.87823 426.43774q0.390625 -0.5625 1.21875 -1.484375l3.28125 -3.484375l1.828125 0l-4.125 4.34375l4.40625 5.828125l-1.859375 0l-3.59375 -4.8125l-1.15625 1.015625l0 3.796875l-1.515625 0l0 -14.4375l1.515625 0l0 7.65625q0 0.515625 -0.078125 1.578125l0.078125 0zm12.558289 5.390625q-2.25 0 -3.5625 -1.375q-1.296875 -1.375 -1.296875 -3.8125q0 -2.453125 1.203125 -3.90625q1.21875 -1.453125 3.265625 -1.453125q1.90625 0 3.015625 1.265625q1.125 1.25 1.125 3.3125l0 0.96875l-7.015625 0q0.046875 1.796875 0.90625 2.734375q0.859375 0.921875 2.421875 0.921875q1.640625 0 3.25 -0.6875l0 1.375q-0.8125 0.34375 -1.546875 0.5q-0.734375 0.15625 -1.765625 0.15625zm-0.40625 -9.25q-1.234375 0 -1.96875 0.796875q-0.71875 0.796875 -0.84375 2.203125l5.3125 0q0 -1.453125 -0.65625 -2.21875q-0.640625 -0.78125 -1.84375 -0.78125zm10.873108 9.25q-2.25 0 -3.5625 -1.375q-1.296875 -1.375 -1.296875 -3.8125q0 -2.453125 1.203125 -3.90625q1.21875 -1.453125 3.265625 -1.453125q1.90625 0 3.015625 1.265625q1.125 1.25 1.125 3.3125l0 0.96875l-7.015625 0q0.046875 1.796875 0.90625 2.734375q0.859375 0.921875 2.421875 0.921875q1.640625 0 3.25 -0.6875l0 1.375q-0.8125 0.34375 -1.546875 0.5q-0.734375 0.15625 -1.765625 0.15625zm-0.40625 -9.25q-1.234375 0 -1.96875 0.796875q-0.71875 0.796875 -0.84375 2.203125l5.3125 0q0 -1.453125 -0.65625 -2.21875q-0.640625 -0.78125 -1.84375 -0.78125zm11.310547 9.25q-0.984375 0 -1.8125 -0.359375q-0.8125 -0.375 -1.375 -1.140625l-0.109375 0q0.109375 0.890625 0.109375 1.6875l0 4.1875l-1.53125 0l0 -14.734375l1.25 0l0.203125 1.390625l0.078125 0q0.59375 -0.828125 1.375 -1.203125q0.796875 -0.375 1.8125 -0.375q2.03125 0 3.125 1.390625q1.09375 1.375 1.09375 3.875q0 2.5 -1.125 3.890625q-1.109375 1.390625 -3.09375 1.390625zm-0.21875 -9.234375q-1.5625 0 -2.265625 0.875q-0.6875 0.859375 -0.703125 2.734375l0 0.34375q0 2.140625 0.71875 3.0625q0.71875 0.921875 2.28125 0.921875q1.328125 0 2.0625 -1.0625q0.75 -1.0625 0.75 -2.9375q0 -1.90625 -0.75 -2.921875q-0.734375 -1.015625 -2.09375 -1.015625zm13.182434 9.046875l-0.3125 -1.453125l-0.078125 0q-0.75 0.96875 -1.515625 1.3125q-0.75 0.328125 -1.890625 0.328125q-1.5 0 -2.359375 -0.78125q-0.859375 -0.78125 -0.859375 -2.21875q0 -3.078125 4.921875 -3.234375l1.734375 -0.046875l0 -0.625q0 -1.203125 -0.515625 -1.765625q-0.515625 -0.578125 -1.65625 -0.578125q-1.265625 0 -2.875 0.78125l-0.46875 -1.1875q0.75 -0.40625 1.640625 -0.625q0.90625 -0.234375 1.796875 -0.234375q1.828125 0 2.703125 0.8125q0.875 0.796875 0.875 2.578125l0 6.9375l-1.140625 0zm-3.484375 -1.078125q1.4375 0 2.25 -0.78125q0.828125 -0.796875 0.828125 -2.21875l0 -0.921875l-1.53125 0.0625q-1.84375 0.0625 -2.65625 0.578125q-0.8125 0.5 -0.8125 1.5625q0 0.84375 0.5 1.28125q0.515625 0.4375 1.421875 0.4375zm9.141296 1.078125l-1.53125 0l0 -14.4375l1.53125 0l0 14.4375zm4.71875 0l-1.53125 0l0 -10.171875l1.53125 0l0 10.171875zm-1.671875 -12.921875q0 -0.53125 0.25 -0.765625q0.265625 -0.25 0.65625 -0.25q0.375 0 0.640625 0.25q0.28125 0.25 0.28125 0.765625q0 0.515625 -0.28125 0.78125q-0.265625 0.25 -0.640625 0.25q-0.390625 0 -0.65625 -0.25q-0.25 -0.265625 -0.25 -0.78125zm7.078064 12.921875l-3.859375 -10.171875l1.65625 0l2.1875 6.03125q0.734375 2.125 0.875 2.75l0.0625 0q0.109375 -0.5 0.640625 -2.03125q0.546875 -1.546875 2.453125 -6.75l1.640625 0l-3.859375 10.171875l-1.796875 0zm11.4088745 0.1875q-2.25 0 -3.5625 -1.375q-1.296875 -1.375 -1.296875 -3.8125q0 -2.453125 1.203125 -3.90625q1.21875 -1.453125 3.265625 -1.453125q1.90625 0 3.015625 1.265625q1.125 1.25 1.125 3.3125l0 0.96875l-7.015625 0q0.046875 1.796875 0.90625 2.734375q0.859375 0.921875 2.421875 0.921875q1.640625 0 3.25 -0.6875l0 1.375q-0.8125 0.34375 -1.546875 0.5q-0.734375 0.15625 -1.765625 0.15625zm-0.40625 -9.25q-1.234375 0 -1.96875 0.796875q-0.71875 0.796875 -0.84375 2.203125l5.3125 0q0 -1.453125 -0.65625 -2.21875q-0.640625 -0.78125 -1.84375 -0.78125zm13.498047 7.703125l-0.078125 0q-1.0625 1.546875 -3.1875 1.546875q-2.0 0 -3.109375 -1.359375q-1.109375 -1.375 -1.109375 -3.890625q0 -2.515625 1.109375 -3.90625q1.125 -1.390625 3.109375 -1.390625q2.0625 0 3.171875 1.515625l0.125 0l-0.078125 -0.734375l-0.03125 -0.71875l0 -4.140625l1.546875 0l0 14.4375l-1.25 0l-0.21875 -1.359375zm-3.078125 0.25q1.578125 0 2.28125 -0.859375q0.71875 -0.859375 0.71875 -2.765625l0 -0.328125q0 -2.15625 -0.71875 -3.078125q-0.71875 -0.921875 -2.296875 -0.921875q-1.359375 0 -2.078125 1.0625q-0.71875 1.046875 -0.71875 2.96875q0 1.9375 0.71875 2.9375q0.71875 0.984375 2.09375 0.984375z" fill-rule="nonzero"></path><path fill="#000000" fill-opacity="0.0" d="m808.3307 399.72876l0 -30.015747" fill-rule="nonzero"></path><path stroke="#595959" stroke-width="1.0" stroke-linejoin="round" stroke-linecap="butt" d="m808.3307 399.72876l0 -24.015747" fill-rule="evenodd"></path><path fill="#595959" stroke="#595959" stroke-width="1.0" stroke-linecap="butt" d="m809.9824 375.713l-1.6517334 -4.5381165l-1.6517334 4.5381165z" fill-rule="evenodd"></path><path fill="#000000" fill-opacity="0.0" d="m808.3307 319.72873l-216.0 -30.015747" fill-rule="nonzero"></path><path stroke="#595959" stroke-width="1.0" stroke-linejoin="round" stroke-linecap="butt" d="m808.3307 319.72873l-210.05707 -29.18991" fill-rule="evenodd"></path><path fill="#595959" stroke="#595959" stroke-width="1.0" stroke-linecap="butt" d="m598.501 288.9028l-4.72229 1.0114136l4.267578 2.26062z" fill-rule="evenodd"></path></g></svg>

