<?xml version="1.0" standalone="yes"?>

<svg version="1.1" viewBox="0.0 0.0 960.0 540.0" fill="none" stroke="none" stroke-linecap="square" stroke-miterlimit="10" xmlns="http://www.w3.org/2000/svg" xmlns:xlink="http://www.w3.org/1999/xlink"><clipPath id="gcbc0db0e7_0_12.0"><path d="m0 0l960.0 0l0 540.0l-960.0 0l0 -540.0z" clip-rule="nonzero"></path></clipPath><g clip-path="url(#gcbc0db0e7_0_12.0)"><path fill="#ffffff" d="m0 0l960.0 0l0 540.0l-960.0 0z" fill-rule="nonzero"></path><path fill="#efefef" d="m67.666664 394.9004l266.92914 0l0 91.1496l-266.92914 0z" fill-rule="nonzero"></path><path stroke="#000000" stroke-width="2.0" stroke-linejoin="round" stroke-linecap="butt" d="m67.666664 394.9004l266.92914 0l0 91.1496l-266.92914 0z" fill-rule="nonzero"></path><path fill="#000000" fill-opacity="0.0" d="m32.72441 46.721786l894.55115 0l0 60.125984l-894.55115 0z" fill-rule="nonzero"></path><path fill="#000000" d="m45.34941 91.56178l0 -26.40625l3.078125 0l0 23.625l11.65625 0l0 2.78125l-14.734375 0zm31.109283 0l-0.59375 -2.8125l-0.15625 0q-1.46875 1.859375 -2.953125 2.515625q-1.46875 0.65625 -3.671875 0.65625q-2.9375 0 -4.609375 -1.515625q-1.671875 -1.515625 -1.671875 -4.3125q0 -6.0 9.59375 -6.296875l3.359375 -0.109375l0 -1.21875q0 -2.328125 -1.015625 -3.4375q-1.0 -1.125 -3.203125 -1.125q-2.46875 0 -5.59375 1.515625l-0.921875 -2.28125q1.46875 -0.796875 3.203125 -1.25q1.75 -0.453125 3.5 -0.453125q3.546875 0 5.25 1.578125q1.703125 1.5625 1.703125 5.03125l0 13.515625l-2.21875 0zm-6.78125 -2.109375q2.796875 0 4.390625 -1.53125q1.609375 -1.546875 1.609375 -4.3125l0 -1.78125l-3.0 0.125q-3.578125 0.125 -5.15625 1.109375q-1.578125 0.984375 -1.578125 3.0625q0 1.625 0.984375 2.484375q0.984375 0.84375 2.75 0.84375zm12.213257 -17.6875l3.21875 0l4.34375 11.28125q1.421875 3.875 1.765625 5.59375l0.140625 0q0.234375 -0.921875 0.984375 -3.15625q0.75 -2.234375 4.90625 -13.71875l3.21875 0l-8.515625 22.546875q-1.265625 3.34375 -2.953125 4.734375q-1.6875 1.40625 -4.140625 1.40625q-1.375 0 -2.703125 -0.3125l0 -2.40625q0.984375 0.21875 2.21875 0.21875q3.078125 0 4.40625 -3.46875l1.09375 -2.8125l-7.984375 -19.90625zm30.3255 20.15625q-4.390625 0 -6.9375 -2.671875q-2.53125 -2.671875 -2.53125 -7.421875q0 -4.796875 2.359375 -7.609375q2.359375 -2.8125 6.328125 -2.8125q3.71875 0 5.890625 2.453125q2.171875 2.4375 2.171875 6.453125l0 1.890625l-13.640625 0q0.09375 3.484375 1.765625 5.296875q1.671875 1.796875 4.703125 1.796875q3.1875 0 6.3125 -1.328125l0 2.671875q-1.578125 0.6875 -3.0 0.984375q-1.421875 0.296875 -3.421875 0.296875zm-0.8125 -18.015625q-2.390625 0 -3.8125 1.5625q-1.40625 1.546875 -1.671875 4.296875l10.359375 0q0 -2.84375 -1.265625 -4.34375q-1.265625 -1.515625 -3.609375 -1.515625zm22.426773 -2.5q1.3125 0 2.359375 0.203125l-0.40625 2.796875q-1.234375 -0.28125 -2.171875 -0.28125q-2.40625 0 -4.125 1.953125q-1.703125 1.953125 -1.703125 4.859375l0 10.625l-2.984375 0l0 -19.796875l2.46875 0l0.34375 3.65625l0.140625 0q1.109375 -1.921875 2.65625 -2.96875q1.5625 -1.046875 3.421875 -1.046875zm31.887146 20.15625l-17.359375 0l0 -2.578125l6.953125 -7.0q3.171875 -3.21875 4.1875 -4.578125q1.015625 -1.375 1.515625 -2.671875q0.515625 -1.3125 0.515625 -2.8125q0 -2.109375 -1.296875 -3.34375q-1.28125 -1.25 -3.546875 -1.25q-1.65625 0 -3.125 0.546875q-1.46875 0.546875 -3.28125 1.96875l-1.578125 -2.03125q3.640625 -3.046875 7.9375 -3.046875q3.734375 0 5.84375 1.90625q2.109375 1.90625 2.109375 5.125q0 2.515625 -1.40625 4.96875q-1.40625 2.453125 -5.28125 6.21875l-5.78125 5.65625l0 0.140625l13.59375 0l0 2.78125zm32.243073 -18.71875q0 4.015625 -2.734375 6.171875q-2.734375 2.15625 -7.828125 2.15625l-3.109375 0l0 10.390625l-3.078125 0l0 -26.40625l6.859375 0q9.890625 0 9.890625 7.6875zm-13.671875 5.6875l2.765625 0q4.078125 0 5.90625 -1.3125q1.828125 -1.3125 1.828125 -4.234375q0 -2.609375 -1.71875 -3.890625q-1.71875 -1.28125 -5.34375 -1.28125l-3.4375 0l0 10.71875zm36.035934 3.109375q0 4.84375 -2.4375 7.5625q-2.4375 2.71875 -6.734375 2.71875q-2.65625 0 -4.71875 -1.234375q-2.0625 -1.25 -3.1875 -3.578125q-1.109375 -2.34375 -1.109375 -5.46875q0 -4.84375 2.421875 -7.53125q2.421875 -2.703125 6.71875 -2.703125q4.15625 0 6.59375 2.765625q2.453125 2.75 2.453125 7.46875zm-15.078125 0q0 3.796875 1.515625 5.78125q1.515625 1.984375 4.46875 1.984375q2.9375 0 4.453125 -1.96875q1.53125 -1.984375 1.53125 -5.796875q0 -3.765625 -1.53125 -5.71875q-1.515625 -1.96875 -4.5 -1.96875q-2.9375 0 -4.4375 1.9375q-1.5 1.921875 -1.5 5.75zm29.749466 10.28125q-1.9375 0 -3.53125 -0.703125q-1.59375 -0.71875 -2.6875 -2.203125l-0.203125 0q0.203125 1.734375 0.203125 3.28125l0 8.15625l-2.984375 0l0 -28.6875l2.4375 0l0.40625 2.703125l0.140625 0q1.15625 -1.625 2.6875 -2.34375q1.546875 -0.71875 3.53125 -0.71875q3.9375 0 6.078125 2.6875q2.140625 2.6875 2.140625 7.546875q0 4.875 -2.171875 7.578125q-2.171875 2.703125 -6.046875 2.703125zm-0.4375 -17.96875q-3.03125 0 -4.390625 1.6875q-1.34375 1.671875 -1.390625 5.328125l0 0.671875q0 4.171875 1.390625 5.96875q1.40625 1.796875 4.46875 1.796875q2.5625 0 4.015625 -2.078125q1.453125 -2.078125 1.453125 -5.71875q0 -3.703125 -1.453125 -5.671875q-1.453125 -1.984375 -4.09375 -1.984375zm16.921295 -2.1875l0 12.84375q0 2.421875 1.09375 3.609375q1.109375 1.1875 3.453125 1.1875q3.109375 0 4.546875 -1.6875q1.4375 -1.703125 1.4375 -5.546875l0 -10.40625l3.0 0l0 19.796875l-2.46875 0l-0.4375 -2.65625l-0.171875 0q-0.921875 1.46875 -2.5625 2.25q-1.625 0.765625 -3.71875 0.765625q-3.609375 0 -5.40625 -1.71875q-1.796875 -1.71875 -1.796875 -5.484375l0 -12.953125l3.03125 0zm23.082733 19.796875l-2.984375 0l0 -28.109375l2.984375 0l0 28.109375zm18.628876 0l-0.59375 -2.8125l-0.15625 0q-1.46875 1.859375 -2.953125 2.515625q-1.4687195 0.65625 -3.6718445 0.65625q-2.9375 0 -4.609375 -1.515625q-1.671875 -1.515625 -1.671875 -4.3125q0 -6.0 9.5937195 -6.296875l3.359375 -0.109375l0 -1.21875q0 -2.328125 -1.015625 -3.4375q-1.0 -1.125 -3.2030945 -1.125q-2.46875 0 -5.59375 1.515625l-0.921875 -2.28125q1.46875 -0.796875 3.203125 -1.25q1.75 -0.453125 3.5 -0.453125q3.5468445 0 5.2499695 1.578125q1.703125 1.5625 1.703125 5.03125l0 13.515625l-2.21875 0zm-6.7812195 -2.109375q2.7968445 0 4.3905945 -1.53125q1.609375 -1.546875 1.609375 -4.3125l0 -1.78125l-3.0 0.125q-3.5780945 0.125 -5.1562195 1.109375q-1.578125 0.984375 -1.578125 3.0625q0 1.625 0.984375 2.484375q0.984375 0.84375 2.75 0.84375zm21.760101 0q0.796875 0 1.53125 -0.109375q0.75 -0.125 1.171875 -0.25l0 2.28125q-0.484375 0.234375 -1.4375 0.390625q-0.9375 0.15625 -1.703125 0.15625q-5.75 0 -5.75 -6.046875l0 -11.78125l-2.828125 0l0 -1.453125l2.828125 -1.234375l1.265625 -4.234375l1.734375 0l0 4.59375l5.75 0l0 2.328125l-5.75 0l0 11.65625q0 1.78125 0.84375 2.75q0.859375 0.953125 2.34375 0.953125zm9.771606 2.109375l-2.984375 0l0 -19.796875l2.984375 0l0 19.796875zm-3.25 -25.171875q0 -1.03125 0.5 -1.5q0.515625 -0.484375 1.28125 -0.484375q0.71875 0 1.234375 0.5q0.53125 0.484375 0.53125 1.484375q0 1.015625 -0.53125 1.515625q-0.515625 0.5 -1.234375 0.5q-0.765625 0 -1.28125 -0.5q-0.5 -0.5 -0.5 -1.515625zm26.785156 15.25q0 4.84375 -2.4375 7.5625q-2.4375 2.71875 -6.734375 2.71875q-2.65625 0 -4.71875 -1.234375q-2.0625 -1.25 -3.1875 -3.578125q-1.109375 -2.34375 -1.109375 -5.46875q0 -4.84375 2.421875 -7.53125q2.421875 -2.703125 6.71875 -2.703125q4.15625 0 6.59375 2.765625q2.453125 2.75 2.453125 7.46875zm-15.078125 0q0 3.796875 1.515625 5.78125q1.515625 1.984375 4.46875 1.984375q2.9375 0 4.453125 -1.96875q1.53125 -1.984375 1.53125 -5.796875q0 -3.765625 -1.53125 -5.71875q-1.515625 -1.96875 -4.5 -1.96875q-2.9375 0 -4.4375 1.9375q-1.5 1.921875 -1.5 5.75zm34.0932 9.921875l0 -12.8125q0 -2.421875 -1.109375 -3.609375q-1.09375 -1.1875 -3.453125 -1.1875q-3.109375 0 -4.5625 1.6875q-1.4375 1.671875 -1.4375 5.53125l0 10.390625l-2.984375 0l0 -19.796875l2.4375 0l0.484375 2.703125l0.140625 0q0.921875 -1.453125 2.578125 -2.25q1.671875 -0.8125 3.703125 -0.8125q3.578125 0 5.390625 1.71875q1.8125 1.71875 1.8125 5.515625l0 12.921875l-3.0 0z" fill-rule="nonzero"></path><path fill="#9fc5e8" d="m83.66954 417.5562l105.82677 0l0 44.283478l-105.82677 0z" fill-rule="nonzero"></path><path stroke="#000000" stroke-width="2.0" stroke-linejoin="round" stroke-linecap="butt" d="m83.66954 417.5562l105.82677 0l0 44.283478l-105.82677 0z" fill-rule="nonzero"></path><path fill="#000000" d="m111.323326 433.05545l3.84375 0q2.6875 0 3.890625 0.8125q1.21875 0.796875 1.21875 2.546875q0 1.203125 -0.671875 1.984375q-0.671875 0.78125 -1.96875 1.015625l0 0.09375q3.09375 0.53125 3.09375 3.25q0 1.8125 -1.234375 2.84375q-1.234375 1.015625 -3.4375 1.015625l-4.734375 0l0 -13.5625zm1.578125 5.8125l2.609375 0q1.65625 0 2.390625 -0.515625q0.734375 -0.53125 0.734375 -1.78125q0 -1.140625 -0.8125 -1.640625q-0.8125 -0.515625 -2.59375 -0.515625l-2.328125 0l0 4.453125zm0 1.328125l0 5.078125l2.828125 0q1.640625 0 2.46875 -0.625q0.84375 -0.640625 0.84375 -2.0q0 -1.265625 -0.859375 -1.859375q-0.84375 -0.59375 -2.578125 -0.59375l-2.703125 0zm11.822678 6.421875l-1.53125 0l0 -14.4375l1.53125 0l0 14.4375zm4.624962 -10.171875l0 6.59375q0 1.25 0.5625 1.859375q0.578125 0.609375 1.78125 0.609375q1.59375 0 2.328125 -0.859375q0.734375 -0.875 0.734375 -2.859375l0 -5.34375l1.546875 0l0 10.171875l-1.265625 0l-0.234375 -1.359375l-0.078125 0q-0.46875 0.75 -1.3125 1.15625q-0.84375 0.390625 -1.921875 0.390625q-1.84375 0 -2.78125 -0.875q-0.9218674 -0.890625 -0.9218674 -2.828125l0 -6.65625l1.5624924 0zm14.294388 10.359375q-2.25 0 -3.5625 -1.375q-1.296875 -1.375 -1.296875 -3.8125q0 -2.453125 1.203125 -3.90625q1.21875 -1.453125 3.265625 -1.453125q1.90625 0 3.015625 1.265625q1.125 1.25 1.125 3.3125l0 0.96875l-7.015625 0q0.046875 1.796875 0.90625 2.734375q0.859375 0.921875 2.421875 0.921875q1.640625 0 3.25 -0.6875l0 1.375q-0.8125 0.34375 -1.546875 0.5q-0.734375 0.15625 -1.765625 0.15625zm-0.40625 -9.25q-1.234375 0 -1.96875 0.796875q-0.71875 0.796875 -0.84375 2.203125l5.3125 0q0 -1.453125 -0.65625 -2.21875q-0.640625 -0.78125 -1.84375 -0.78125zm16.438065 9.0625l-1.515625 0l0 -9.671875q0 -1.203125 0.078125 -2.28125q-0.1875 0.203125 -0.4375 0.421875q-0.234375 0.203125 -2.203125 1.796875l-0.8125 -1.0625l3.578125 -2.765625l1.3125 0l0 13.5625z" fill-rule="nonzero"></path><path fill="#000000" fill-opacity="0.0" d="m49.81838 354.84778l136.063 0l0 49.984253l-136.063 0z" fill-rule="nonzero"></path><path fill="#000000" d="m69.20901 381.76776l-1.6875 -4.3125l-5.437504 0l-1.671875 4.3125l-1.59375 0l5.359379 -13.625l1.328125 0l5.34375 13.625l-1.640625 0zm-2.1875 -5.734375l-1.5625 -4.203125q-0.3125 -0.796875 -0.640625 -1.953125q-0.203125 0.890625 -0.578125 1.953125l-1.5937538 4.203125l4.375004 0zm13.555908 -4.4375l0 0.984375l-1.875 0.21875q0.25 0.328125 0.453125 0.859375q0.203125 0.515625 0.203125 1.171875q0 1.484375 -1.015625 2.375q-1.015625 0.890625 -2.796875 0.890625q-0.453125 0 -0.859375 -0.0625q-0.984375 0.515625 -0.984375 1.296875q0 0.421875 0.34375 0.625q0.34375 0.203125 1.1875 0.203125l1.796875 0q1.640625 0 2.53125 0.703125q0.890625 0.6875 0.890625 2.015625q0 1.6875 -1.359375 2.5625q-1.359375 0.890625 -3.953125 0.890625q-1.984375 0 -3.078125 -0.75q-1.078125 -0.734375 -1.078125 -2.09375q0 -0.921875 0.59375 -1.609375q0.59375 -0.671875 1.671875 -0.90625q-0.390625 -0.171875 -0.65625 -0.546875q-0.265625 -0.375 -0.265625 -0.859375q0 -0.5625 0.296875 -0.96875q0.296875 -0.421875 0.9375 -0.8125q-0.78125 -0.328125 -1.28125 -1.109375q-0.5 -0.78125 -0.5 -1.78125q0 -1.671875 1.0 -2.578125q1.0 -0.90625 2.84375 -0.90625q0.796875 0 1.4375 0.1875l3.515625 0zm-8.109375 11.875q0 0.828125 0.6875 1.25q0.703125 0.4375 2.0 0.4375q1.9375 0 2.875 -0.578125q0.9375 -0.578125 0.9375 -1.578125q0 -0.828125 -0.515625 -1.15625q-0.515625 -0.3125 -1.921875 -0.3125l-1.84375 0q-1.046875 0 -1.640625 0.5q-0.578125 0.5 -0.578125 1.4375zm0.84375 -8.609375q0 1.0625 0.59375 1.609375q0.609375 0.546875 1.6875 0.546875q2.25 0 2.25 -2.1875q0 -2.296875 -2.28125 -2.296875q-1.09375 0 -1.671875 0.59375q-0.578125 0.578125 -0.578125 1.734375zm13.455231 7.09375q-2.25 0 -3.5625 -1.375q-1.296875 -1.375 -1.296875 -3.8125q0 -2.453125 1.203125 -3.90625q1.21875 -1.453125 3.265625 -1.453125q1.90625 0 3.015625 1.265625q1.125 1.25 1.125 3.3125l0 0.96875l-7.015625 0q0.046875 1.796875 0.90625 2.734375q0.859375 0.921875 2.421875 0.921875q1.640625 0 3.25 -0.6875l0 1.375q-0.8125 0.34375 -1.546875 0.5q-0.734375 0.15625 -1.765625 0.15625zm-0.40625 -9.25q-1.234375 0 -1.96875 0.796875q-0.71875 0.796875 -0.84375 2.203125l5.3125 0q0 -1.453125 -0.65625 -2.21875q-0.640625 -0.78125 -1.84375 -0.78125zm13.544937 9.0625l0 -6.578125q0 -1.25 -0.578125 -1.859375q-0.5625 -0.609375 -1.765625 -0.609375q-1.59375 0 -2.34375 0.875q-0.734375 0.859375 -0.734375 2.84375l0 5.328125l-1.53125 0l0 -10.171875l1.25 0l0.25 1.390625l0.0625 0q0.484375 -0.75 1.328125 -1.15625q0.859375 -0.421875 1.90625 -0.421875q1.84375 0 2.765625 0.890625q0.921875 0.890625 0.921875 2.828125l0 6.640625l-1.53125 0zm7.778763 -1.078125q0.40625 0 0.78125 -0.0625q0.390625 -0.0625 0.609375 -0.125l0 1.171875q-0.25 0.125 -0.75 0.203125q-0.484375 0.078125 -0.875 0.078125q-2.9375 0 -2.9375 -3.109375l0 -6.046875l-1.46875 0l0 -0.75l1.46875 -0.640625l0.640625 -2.171875l0.890625 0l0 2.359375l2.953125 0l0 1.203125l-2.953125 0l0 5.984375q0 0.921875 0.4375 1.421875q0.4375 0.484375 1.203125 0.484375zm15.838669 -9.296875q0 1.296875 -0.734375 2.125q-0.71875 0.828125 -2.046875 1.109375l0 0.078125q1.625 0.203125 2.40625 1.03125q0.796875 0.828125 0.796875 2.1875q0 1.9375 -1.34375 2.984375q-1.34375 1.046875 -3.828125 1.046875q-1.078125 0 -1.96875 -0.171875q-0.890625 -0.15625 -1.734375 -0.5625l0 -1.46875q0.875 0.4375 1.875 0.671875q1.0 0.21875 1.890625 0.21875q3.515625 0 3.515625 -2.75q0 -2.46875 -3.875 -2.46875l-1.34375 0l0 -1.328125l1.359375 0q1.578125 0 2.5 -0.703125q0.9375 -0.703125 0.9375 -1.9375q0 -1.0 -0.6875 -1.5625q-0.671875 -0.5625 -1.84375 -0.5625q-0.890625 0 -1.6875 0.25q-0.78125 0.234375 -1.796875 0.875l-0.765625 -1.03125q0.828125 -0.65625 1.921875 -1.03125q1.09375 -0.390625 2.296875 -0.390625q1.96875 0 3.0625 0.90625q1.09375 0.90625 1.09375 2.484375z" fill-rule="nonzero"></path><path fill="#efefef" d="m611.6667 394.9004l266.92914 0l0 91.1496l-266.92914 0z" fill-rule="nonzero"></path><path stroke="#000000" stroke-width="2.0" stroke-linejoin="round" stroke-linecap="butt" d="m611.6667 394.9004l266.92914 0l0 91.1496l-266.92914 0z" fill-rule="nonzero"></path><path fill="#9fc5e8" d="m627.66956 417.5562l105.82678 0l0 44.283478l-105.82678 0z" fill-rule="nonzero"></path><path stroke="#000000" stroke-width="2.0" stroke-linejoin="round" stroke-linecap="butt" d="m627.66956 417.5562l105.82678 0l0 44.283478l-105.82678 0z" fill-rule="nonzero"></path><path fill="#000000" d="m655.3233 433.05545l3.84375 0q2.6875 0 3.890625 0.8125q1.21875 0.796875 1.21875 2.546875q0 1.203125 -0.671875 1.984375q-0.671875 0.78125 -1.96875 1.015625l0 0.09375q3.09375 0.53125 3.09375 3.25q0 1.8125 -1.234375 2.84375q-1.234375 1.015625 -3.4375 1.015625l-4.734375 0l0 -13.5625zm1.578125 5.8125l2.609375 0q1.65625 0 2.390625 -0.515625q0.734375 -0.53125 0.734375 -1.78125q0 -1.140625 -0.8125 -1.640625q-0.8125 -0.515625 -2.59375 -0.515625l-2.328125 0l0 4.453125zm0 1.328125l0 5.078125l2.828125 0q1.640625 0 2.46875 -0.625q0.84375 -0.640625 0.84375 -2.0q0 -1.265625 -0.859375 -1.859375q-0.84375 -0.59375 -2.578125 -0.59375l-2.703125 0zm11.822693 6.421875l-1.53125 0l0 -14.4375l1.53125 0l0 14.4375zm4.625 -10.171875l0 6.59375q0 1.25 0.5625 1.859375q0.578125 0.609375 1.78125 0.609375q1.59375 0 2.328125 -0.859375q0.734375 -0.875 0.734375 -2.859375l0 -5.34375l1.546875 0l0 10.171875l-1.265625 0l-0.234375 -1.359375l-0.078125 0q-0.46875 0.75 -1.3125 1.15625q-0.84375 0.390625 -1.921875 0.390625q-1.84375 0 -2.78125 -0.875q-0.921875 -0.890625 -0.921875 -2.828125l0 -6.65625l1.5625 0zm14.294373 10.359375q-2.25 0 -3.5625 -1.375q-1.296875 -1.375 -1.296875 -3.8125q0 -2.453125 1.203125 -3.90625q1.21875 -1.453125 3.265625 -1.453125q1.90625 0 3.015625 1.265625q1.125 1.25 1.125 3.3125l0 0.96875l-7.015625 0q0.046875 1.796875 0.90625 2.734375q0.859375 0.921875 2.421875 0.921875q1.640625 0 3.25 -0.6875l0 1.375q-0.8125 0.34375 -1.546875 0.5q-0.734375 0.15625 -1.765625 0.15625zm-0.40625 -9.25q-1.234375 0 -1.96875 0.796875q-0.71875 0.796875 -0.84375 2.203125l5.3125 0q0 -1.453125 -0.65625 -2.21875q-0.640625 -0.78125 -1.84375 -0.78125zm19.641174 9.0625l-8.921875 0l0 -1.328125l3.578125 -3.59375q1.625 -1.640625 2.140625 -2.34375q0.53125 -0.71875 0.78125 -1.375q0.265625 -0.671875 0.265625 -1.4375q0 -1.09375 -0.65625 -1.71875q-0.65625 -0.640625 -1.828125 -0.640625q-0.84375 0 -1.609375 0.28125q-0.75 0.265625 -1.671875 1.0l-0.8125 -1.046875q1.875 -1.5625 4.078125 -1.5625q1.90625 0 2.984375 0.984375q1.09375 0.984375 1.09375 2.625q0 1.296875 -0.71875 2.5625q-0.71875 1.25 -2.71875 3.1875l-2.96875 2.90625l0 0.078125l6.984375 0l0 1.421875z" fill-rule="nonzero"></path><path fill="#92c68c" d="m755.66956 417.5562l105.82678 0l0 44.283478l-105.82678 0z" fill-rule="nonzero"></path><path stroke="#000000" stroke-width="2.0" stroke-linejoin="round" stroke-linecap="butt" d="m755.66956 417.5562l105.82678 0l0 44.283478l-105.82678 0z" fill-rule="nonzero"></path><path fill="#000000" d="m781.8633 439.50858l4.609375 0l0 6.59375q-1.078125 0.34375 -2.1875 0.515625q-1.109375 0.1875 -2.578125 0.1875q-3.078125 0 -4.796875 -1.828125q-1.71875 -1.84375 -1.71875 -5.140625q0 -2.109375 0.84375 -3.703125q0.859375 -1.59375 2.453125 -2.4375q1.59375 -0.84375 3.734375 -0.84375q2.171875 0 4.046875 0.8125l-0.609375 1.390625q-1.84375 -0.78125 -3.53125 -0.78125q-2.484375 0 -3.875 1.484375q-1.390625 1.46875 -1.390625 4.078125q0 2.75 1.34375 4.171875q1.34375 1.40625 3.9375 1.40625q1.40625 0 2.75 -0.3125l0 -4.1875l-3.03125 0l0 -1.40625zm12.019775 -3.25q0.6875 0 1.21875 0.109375l-0.203125 1.4375q-0.640625 -0.140625 -1.125 -0.140625q-1.234375 0 -2.109375 1.0q-0.875 1.0 -0.875 2.5l0 5.453125l-1.53125 0l0 -10.171875l1.265625 0l0.171875 1.890625l0.078125 0q0.5625 -1.0 1.359375 -1.53125q0.796875 -0.546875 1.75 -0.546875zm7.2717896 10.546875q-2.25 0 -3.5625 -1.375q-1.296875 -1.375 -1.296875 -3.8125q0 -2.453125 1.203125 -3.90625q1.21875 -1.453125 3.265625 -1.453125q1.90625 0 3.015625 1.265625q1.125 1.25 1.125 3.3125l0 0.96875l-7.015625 0q0.046875 1.796875 0.90625 2.734375q0.859375 0.921875 2.421875 0.921875q1.640625 0 3.25 -0.6875l0 1.375q-0.8125 0.34375 -1.546875 0.5q-0.734375 0.15625 -1.765625 0.15625zm-0.40625 -9.25q-1.234375 0 -1.96875 0.796875q-0.71875 0.796875 -0.84375 2.203125l5.3125 0q0 -1.453125 -0.65625 -2.21875q-0.640625 -0.78125 -1.84375 -0.78125zm10.873047 9.25q-2.25 0 -3.5625 -1.375q-1.296875 -1.375 -1.296875 -3.8125q0 -2.453125 1.203125 -3.90625q1.21875 -1.453125 3.265625 -1.453125q1.90625 0 3.015625 1.265625q1.125 1.25 1.125 3.3125l0 0.96875l-7.015625 0q0.046875 1.796875 0.90625 2.734375q0.859375 0.921875 2.421875 0.921875q1.640625 0 3.25 -0.6875l0 1.375q-0.8125 0.34375 -1.546875 0.5q-0.734375 0.15625 -1.765625 0.15625zm-0.40625 -9.25q-1.234375 0 -1.96875 0.796875q-0.71875 0.796875 -0.84375 2.203125l5.3125 0q0 -1.453125 -0.65625 -2.21875q-0.640625 -0.78125 -1.84375 -0.78125zm13.544922 9.0625l0 -6.578125q0 -1.25 -0.578125 -1.859375q-0.5625 -0.609375 -1.765625 -0.609375q-1.59375 0 -2.34375 0.875q-0.734375 0.859375 -0.734375 2.84375l0 5.328125l-1.53125 0l0 -10.171875l1.25 0l0.25 1.390625l0.0625 0q0.484375 -0.75 1.328125 -1.15625q0.859375 -0.421875 1.90625 -0.421875q1.84375 0 2.765625 0.890625q0.921875 0.890625 0.921875 2.828125l0 6.640625l-1.53125 0zm17.03125 -10.375q0 1.296875 -0.734375 2.125q-0.71875 0.828125 -2.046875 1.109375l0 0.078125q1.625 0.203125 2.40625 1.03125q0.796875 0.828125 0.796875 2.1875q0 1.9375 -1.34375 2.984375q-1.34375 1.046875 -3.828125 1.046875q-1.078125 0 -1.96875 -0.171875q-0.890625 -0.15625 -1.734375 -0.5625l0 -1.46875q0.875 0.4375 1.875 0.671875q1.0 0.21875 1.890625 0.21875q3.515625 0 3.515625 -2.75q0 -2.46875 -3.875 -2.46875l-1.34375 0l0 -1.328125l1.359375 0q1.578125 0 2.5 -0.703125q0.9375 -0.703125 0.9375 -1.9375q0 -1.0 -0.6875 -1.5625q-0.671875 -0.5625 -1.84375 -0.5625q-0.890625 0 -1.6875 0.25q-0.78125 0.234375 -1.796875 0.875l-0.765625 -1.03125q0.828125 -0.65625 1.921875 -1.03125q1.09375 -0.390625 2.296875 -0.390625q1.96875 0 3.0625 0.90625q1.09375 0.90625 1.09375 2.484375z" fill-rule="nonzero"></path><path fill="#000000" fill-opacity="0.0" d="m593.81836 354.84778l136.06299 0l0 49.984253l-136.06299 0z" fill-rule="nonzero"></path><path fill="#000000" d="m613.209 381.76776l-1.6875 -4.3125l-5.4375 0l-1.671875 4.3125l-1.59375 0l5.359375 -13.625l1.328125 0l5.34375 13.625l-1.640625 0zm-2.1875 -5.734375l-1.5625 -4.203125q-0.3125 -0.796875 -0.640625 -1.953125q-0.203125 0.890625 -0.578125 1.953125l-1.59375 4.203125l4.375 0zm13.555908 -4.4375l0 0.984375l-1.875 0.21875q0.25 0.328125 0.453125 0.859375q0.203125 0.515625 0.203125 1.171875q0 1.484375 -1.015625 2.375q-1.015625 0.890625 -2.796875 0.890625q-0.453125 0 -0.859375 -0.0625q-0.984375 0.515625 -0.984375 1.296875q0 0.421875 0.34375 0.625q0.34375 0.203125 1.1875 0.203125l1.796875 0q1.640625 0 2.53125 0.703125q0.890625 0.6875 0.890625 2.015625q0 1.6875 -1.359375 2.5625q-1.359375 0.890625 -3.953125 0.890625q-1.984375 0 -3.078125 -0.75q-1.078125 -0.734375 -1.078125 -2.09375q0 -0.921875 0.59375 -1.609375q0.59375 -0.671875 1.671875 -0.90625q-0.390625 -0.171875 -0.65625 -0.546875q-0.265625 -0.375 -0.265625 -0.859375q0 -0.5625 0.296875 -0.96875q0.296875 -0.421875 0.9375 -0.8125q-0.78125 -0.328125 -1.28125 -1.109375q-0.5 -0.78125 -0.5 -1.78125q0 -1.671875 1.0 -2.578125q1.0 -0.90625 2.84375 -0.90625q0.796875 0 1.4375 0.1875l3.515625 0zm-8.109375 11.875q0 0.828125 0.6875 1.25q0.703125 0.4375 2.0 0.4375q1.9375 0 2.875 -0.578125q0.9375 -0.578125 0.9375 -1.578125q0 -0.828125 -0.515625 -1.15625q-0.515625 -0.3125 -1.921875 -0.3125l-1.84375 0q-1.046875 0 -1.640625 0.5q-0.578125 0.5 -0.578125 1.4375zm0.84375 -8.609375q0 1.0625 0.59375 1.609375q0.609375 0.546875 1.6875 0.546875q2.25 0 2.25 -2.1875q0 -2.296875 -2.28125 -2.296875q-1.09375 0 -1.671875 0.59375q-0.578125 0.578125 -0.578125 1.734375zm13.455261 7.09375q-2.25 0 -3.5625 -1.375q-1.296875 -1.375 -1.296875 -3.8125q0 -2.453125 1.203125 -3.90625q1.21875 -1.453125 3.265625 -1.453125q1.90625 0 3.015625 1.265625q1.125 1.25 1.125 3.3125l0 0.96875l-7.015625 0q0.046875 1.796875 0.90625 2.734375q0.859375 0.921875 2.421875 0.921875q1.640625 0 3.25 -0.6875l0 1.375q-0.8125 0.34375 -1.546875 0.5q-0.734375 0.15625 -1.765625 0.15625zm-0.40625 -9.25q-1.234375 0 -1.96875 0.796875q-0.71875 0.796875 -0.84375 2.203125l5.3125 0q0 -1.453125 -0.65625 -2.21875q-0.640625 -0.78125 -1.84375 -0.78125zm13.544922 9.0625l0 -6.578125q0 -1.25 -0.578125 -1.859375q-0.5625 -0.609375 -1.765625 -0.609375q-1.59375 0 -2.34375 0.875q-0.734375 0.859375 -0.734375 2.84375l0 5.328125l-1.53125 0l0 -10.171875l1.25 0l0.25 1.390625l0.0625 0q0.484375 -0.75 1.328125 -1.15625q0.859375 -0.421875 1.90625 -0.421875q1.84375 0 2.765625 0.890625q0.921875 0.890625 0.921875 2.828125l0 6.640625l-1.53125 0zm7.7787476 -1.078125q0.40625 0 0.78125 -0.0625q0.390625 -0.0625 0.609375 -0.125l0 1.171875q-0.25 0.125 -0.75 0.203125q-0.484375 0.078125 -0.875 0.078125q-2.9375 0 -2.9375 -3.109375l0 -6.046875l-1.46875 0l0 -0.75l1.46875 -0.640625l0.640625 -2.171875l0.890625 0l0 2.359375l2.953125 0l0 1.203125l-2.953125 0l0 5.984375q0 0.921875 0.4375 1.421875q0.4375 0.484375 1.203125 0.484375zm16.994934 -2.046875l-2.015625 0l0 3.125l-1.46875 0l0 -3.125l-6.59375 0l0 -1.34375l6.4375 -9.171875l1.625 0l0 9.125l2.015625 0l0 1.390625zm-3.484375 -1.390625l0 -4.515625q0 -1.328125 0.09375 -3.0l-0.078125 0q-0.453125 0.890625 -0.84375 1.484375l-4.234375 6.03125l5.0625 0z" fill-rule="nonzero"></path><path fill="#efefef" d="m67.666664 154.90039l266.92914 0l0 91.1496l-266.92914 0z" fill-rule="nonzero"></path><path stroke="#000000" stroke-width="2.0" stroke-linejoin="round" stroke-linecap="butt" d="m67.666664 154.90039l266.92914 0l0 91.1496l-266.92914 0z" fill-rule="nonzero"></path><path fill="#92c68c" d="m211.66954 177.55623l105.82677 0l0 44.283463l-105.82677 0z" fill-rule="nonzero"></path><path stroke="#000000" stroke-width="2.0" stroke-linejoin="round" stroke-linecap="butt" d="m211.66954 177.55623l105.82677 0l0 44.283463l-105.82677 0z" fill-rule="nonzero"></path><path fill="#000000" d="m237.86328 199.50858l4.609375 0l0 6.59375q-1.078125 0.34375 -2.1875 0.515625q-1.109375 0.1875 -2.578125 0.1875q-3.078125 0 -4.796875 -1.828125q-1.71875 -1.84375 -1.71875 -5.140625q0 -2.109375 0.84375 -3.703125q0.859375 -1.59375 2.453125 -2.4375q1.59375 -0.84375 3.734375 -0.84375q2.171875 0 4.046875 0.8125l-0.609375 1.390625q-1.84375 -0.78125 -3.53125 -0.78125q-2.484375 0 -3.875 1.484375q-1.390625 1.46875 -1.390625 4.078125q0 2.75 1.34375 4.171875q1.34375 1.40625 3.9375 1.40625q1.40625 0 2.75 -0.3125l0 -4.1875l-3.03125 0l0 -1.40625zm12.01976 -3.25q0.6875 0 1.21875 0.109375l-0.203125 1.4375q-0.640625 -0.140625 -1.125 -0.140625q-1.234375 0 -2.109375 1.0q-0.875 1.0 -0.875 2.5l0 5.453125l-1.53125 0l0 -10.171875l1.265625 0l0.171875 1.890625l0.078125 0q0.5625 -1.0 1.359375 -1.53125q0.796875 -0.546875 1.75 -0.546875zm7.2717743 10.546875q-2.2499847 0 -3.5624847 -1.375q-1.296875 -1.375 -1.296875 -3.8125q0 -2.453125 1.203125 -3.90625q1.21875 -1.453125 3.2656097 -1.453125q1.90625 0 3.015625 1.265625q1.125 1.25 1.125 3.3125l0 0.96875l-7.0156097 0q0.046875 1.796875 0.90625 2.734375q0.859375 0.921875 2.4218597 0.921875q1.640625 0 3.25 -0.6875l0 1.375q-0.8125 0.34375 -1.546875 0.5q-0.734375 0.15625 -1.765625 0.15625zm-0.40625 -9.25q-1.2343597 0 -1.9687347 0.796875q-0.71875 0.796875 -0.84375 2.203125l5.3124847 0q0 -1.453125 -0.65625 -2.21875q-0.640625 -0.78125 -1.84375 -0.78125zm10.873077 9.25q-2.25 0 -3.5625 -1.375q-1.296875 -1.375 -1.296875 -3.8125q0 -2.453125 1.203125 -3.90625q1.21875 -1.453125 3.265625 -1.453125q1.90625 0 3.015625 1.265625q1.125 1.25 1.125 3.3125l0 0.96875l-7.015625 0q0.046875 1.796875 0.90625 2.734375q0.859375 0.921875 2.421875 0.921875q1.640625 0 3.25 -0.6875l0 1.375q-0.8125 0.34375 -1.546875 0.5q-0.734375 0.15625 -1.765625 0.15625zm-0.40625 -9.25q-1.234375 0 -1.96875 0.796875q-0.71875 0.796875 -0.84375 2.203125l5.3125 0q0 -1.453125 -0.65625 -2.21875q-0.640625 -0.78125 -1.84375 -0.78125zm13.544922 9.0625l0 -6.578125q0 -1.25 -0.578125 -1.859375q-0.5625 -0.609375 -1.765625 -0.609375q-1.59375 0 -2.34375 0.875q-0.734375 0.859375 -0.734375 2.84375l0 5.328125l-1.53125 0l0 -10.171875l1.25 0l0.25 1.390625l0.0625 0q0.484375 -0.75 1.328125 -1.15625q0.859375 -0.421875 1.90625 -0.421875q1.84375 0 2.765625 0.890625q0.921875 0.890625 0.921875 2.828125l0 6.640625l-1.53125 0zm14.3437805 0l-1.515625 0l0 -9.671875q0 -1.203125 0.078125 -2.28125q-0.1875 0.203125 -0.4375 0.421875q-0.234375 0.203125 -2.203125 1.796875l-0.8125 -1.0625l3.578125 -2.765625l1.3125 0l0 13.5625z" fill-rule="nonzero"></path><path fill="#000000" fill-opacity="0.0" d="m49.81838 114.84777l136.063 0l0 49.984245l-136.063 0z" fill-rule="nonzero"></path><path fill="#000000" d="m69.20901 141.76776l-1.6875 -4.3125l-5.437504 0l-1.671875 4.3125l-1.59375 0l5.359379 -13.625l1.328125 0l5.34375 13.625l-1.640625 0zm-2.1875 -5.734375l-1.5625 -4.203125q-0.3125 -0.796875 -0.640625 -1.953125q-0.203125 0.890625 -0.578125 1.953125l-1.5937538 4.203125l4.375004 0zm13.555908 -4.4375l0 0.984375l-1.875 0.21875q0.25 0.328125 0.453125 0.859375q0.203125 0.515625 0.203125 1.171875q0 1.484375 -1.015625 2.375q-1.015625 0.890625 -2.796875 0.890625q-0.453125 0 -0.859375 -0.0625q-0.984375 0.515625 -0.984375 1.296875q0 0.421875 0.34375 0.625q0.34375 0.203125 1.1875 0.203125l1.796875 0q1.640625 0 2.53125 0.703125q0.890625 0.6875 0.890625 2.015625q0 1.6875 -1.359375 2.5625q-1.359375 0.890625 -3.953125 0.890625q-1.984375 0 -3.078125 -0.75q-1.078125 -0.734375 -1.078125 -2.09375q0 -0.921875 0.59375 -1.609375q0.59375 -0.671875 1.671875 -0.90625q-0.390625 -0.171875 -0.65625 -0.546875q-0.265625 -0.375 -0.265625 -0.859375q0 -0.5625 0.296875 -0.96875q0.296875 -0.421875 0.9375 -0.8125q-0.78125 -0.328125 -1.28125 -1.109375q-0.5 -0.78125 -0.5 -1.78125q0 -1.671875 1.0 -2.578125q1.0 -0.90625 2.84375 -0.90625q0.796875 0 1.4375 0.1875l3.515625 0zm-8.109375 11.875q0 0.828125 0.6875 1.25q0.703125 0.4375 2.0 0.4375q1.9375 0 2.875 -0.578125q0.9375 -0.578125 0.9375 -1.578125q0 -0.828125 -0.515625 -1.15625q-0.515625 -0.3125 -1.921875 -0.3125l-1.84375 0q-1.046875 0 -1.640625 0.5q-0.578125 0.5 -0.578125 1.4375zm0.84375 -8.609375q0 1.0625 0.59375 1.609375q0.609375 0.546875 1.6875 0.546875q2.25 0 2.25 -2.1875q0 -2.296875 -2.28125 -2.296875q-1.09375 0 -1.671875 0.59375q-0.578125 0.578125 -0.578125 1.734375zm13.455231 7.09375q-2.25 0 -3.5625 -1.375q-1.296875 -1.375 -1.296875 -3.8125q0 -2.453125 1.203125 -3.90625q1.21875 -1.453125 3.265625 -1.453125q1.90625 0 3.015625 1.265625q1.125 1.25 1.125 3.3125l0 0.96875l-7.015625 0q0.046875 1.796875 0.90625 2.734375q0.859375 0.921875 2.421875 0.921875q1.640625 0 3.25 -0.6875l0 1.375q-0.8125 0.34375 -1.546875 0.5q-0.734375 0.15625 -1.765625 0.15625zm-0.40625 -9.25q-1.234375 0 -1.96875 0.796875q-0.71875 0.796875 -0.84375 2.203125l5.3125 0q0 -1.453125 -0.65625 -2.21875q-0.640625 -0.78125 -1.84375 -0.78125zm13.544937 9.0625l0 -6.578125q0 -1.25 -0.578125 -1.859375q-0.5625 -0.609375 -1.765625 -0.609375q-1.59375 0 -2.34375 0.875q-0.734375 0.859375 -0.734375 2.84375l0 5.328125l-1.53125 0l0 -10.171875l1.25 0l0.25 1.390625l0.0625 0q0.484375 -0.75 1.328125 -1.15625q0.859375 -0.421875 1.90625 -0.421875q1.84375 0 2.765625 0.890625q0.921875 0.890625 0.921875 2.828125l0 6.640625l-1.53125 0zm7.778763 -1.078125q0.40625 0 0.78125 -0.0625q0.390625 -0.0625 0.609375 -0.125l0 1.171875q-0.25 0.125 -0.75 0.203125q-0.484375 0.078125 -0.875 0.078125q-2.9375 0 -2.9375 -3.109375l0 -6.046875l-1.46875 0l0 -0.75l1.46875 -0.640625l0.640625 -2.171875l0.890625 0l0 2.359375l2.953125 0l0 1.203125l-2.953125 0l0 5.984375q0 0.921875 0.4375 1.421875q0.4375 0.484375 1.203125 0.484375zm13.151169 1.078125l-1.515625 0l0 -9.671875q0 -1.203125 0.078125 -2.28125q-0.1875 0.203125 -0.4375 0.421875q-0.234375 0.203125 -2.203125 1.796875l-0.8125 -1.0625l3.578125 -2.765625l1.3125 0l0 13.5625z" fill-rule="nonzero"></path><path fill="#efefef" d="m611.6667 154.90039l266.92914 0l0 91.1496l-266.92914 0z" fill-rule="nonzero"></path><path stroke="#000000" stroke-width="2.0" stroke-linejoin="round" stroke-linecap="butt" d="m611.6667 154.90039l266.92914 0l0 91.1496l-266.92914 0z" fill-rule="nonzero"></path><path fill="#92c68c" d="m755.66956 177.55623l105.82678 0l0 44.283463l-105.82678 0z" fill-rule="nonzero"></path><path stroke="#000000" stroke-width="2.0" stroke-linejoin="round" stroke-linecap="butt" d="m755.66956 177.55623l105.82678 0l0 44.283463l-105.82678 0z" fill-rule="nonzero"></path><path fill="#000000" d="m781.8633 199.50858l4.609375 0l0 6.59375q-1.078125 0.34375 -2.1875 0.515625q-1.109375 0.1875 -2.578125 0.1875q-3.078125 0 -4.796875 -1.828125q-1.71875 -1.84375 -1.71875 -5.140625q0 -2.109375 0.84375 -3.703125q0.859375 -1.59375 2.453125 -2.4375q1.59375 -0.84375 3.734375 -0.84375q2.171875 0 4.046875 0.8125l-0.609375 1.390625q-1.84375 -0.78125 -3.53125 -0.78125q-2.484375 0 -3.875 1.484375q-1.390625 1.46875 -1.390625 4.078125q0 2.75 1.34375 4.171875q1.34375 1.40625 3.9375 1.40625q1.40625 0 2.75 -0.3125l0 -4.1875l-3.03125 0l0 -1.40625zm12.019775 -3.25q0.6875 0 1.21875 0.109375l-0.203125 1.4375q-0.640625 -0.140625 -1.125 -0.140625q-1.234375 0 -2.109375 1.0q-0.875 1.0 -0.875 2.5l0 5.453125l-1.53125 0l0 -10.171875l1.265625 0l0.171875 1.890625l0.078125 0q0.5625 -1.0 1.359375 -1.53125q0.796875 -0.546875 1.75 -0.546875zm7.2717896 10.546875q-2.25 0 -3.5625 -1.375q-1.296875 -1.375 -1.296875 -3.8125q0 -2.453125 1.203125 -3.90625q1.21875 -1.453125 3.265625 -1.453125q1.90625 0 3.015625 1.265625q1.125 1.25 1.125 3.3125l0 0.96875l-7.015625 0q0.046875 1.796875 0.90625 2.734375q0.859375 0.921875 2.421875 0.921875q1.640625 0 3.25 -0.6875l0 1.375q-0.8125 0.34375 -1.546875 0.5q-0.734375 0.15625 -1.765625 0.15625zm-0.40625 -9.25q-1.234375 0 -1.96875 0.796875q-0.71875 0.796875 -0.84375 2.203125l5.3125 0q0 -1.453125 -0.65625 -2.21875q-0.640625 -0.78125 -1.84375 -0.78125zm10.873047 9.25q-2.25 0 -3.5625 -1.375q-1.296875 -1.375 -1.296875 -3.8125q0 -2.453125 1.203125 -3.90625q1.21875 -1.453125 3.265625 -1.453125q1.90625 0 3.015625 1.265625q1.125 1.25 1.125 3.3125l0 0.96875l-7.015625 0q0.046875 1.796875 0.90625 2.734375q0.859375 0.921875 2.421875 0.921875q1.640625 0 3.25 -0.6875l0 1.375q-0.8125 0.34375 -1.546875 0.5q-0.734375 0.15625 -1.765625 0.15625zm-0.40625 -9.25q-1.234375 0 -1.96875 0.796875q-0.71875 0.796875 -0.84375 2.203125l5.3125 0q0 -1.453125 -0.65625 -2.21875q-0.640625 -0.78125 -1.84375 -0.78125zm13.544922 9.0625l0 -6.578125q0 -1.25 -0.578125 -1.859375q-0.5625 -0.609375 -1.765625 -0.609375q-1.59375 0 -2.34375 0.875q-0.734375 0.859375 -0.734375 2.84375l0 5.328125l-1.53125 0l0 -10.171875l1.25 0l0.25 1.390625l0.0625 0q0.484375 -0.75 1.328125 -1.15625q0.859375 -0.421875 1.90625 -0.421875q1.84375 0 2.765625 0.890625q0.921875 0.890625 0.921875 2.828125l0 6.640625l-1.53125 0zm17.546875 0l-8.921875 0l0 -1.328125l3.578125 -3.59375q1.625 -1.640625 2.140625 -2.34375q0.53125 -0.71875 0.78125 -1.375q0.265625 -0.671875 0.265625 -1.4375q0 -1.09375 -0.65625 -1.71875q-0.65625 -0.640625 -1.828125 -0.640625q-0.84375 0 -1.609375 0.28125q-0.75 0.265625 -1.671875 1.0l-0.8125 -1.046875q1.875 -1.5625 4.078125 -1.5625q1.90625 0 2.984375 0.984375q1.09375 0.984375 1.09375 2.625q0 1.296875 -0.71875 2.5625q-0.71875 1.25 -2.71875 3.1875l-2.96875 2.90625l0 0.078125l6.984375 0l0 1.421875z" fill-rule="nonzero"></path><path fill="#000000" fill-opacity="0.0" d="m593.81836 114.84777l136.06299 0l0 49.984245l-136.06299 0z" fill-rule="nonzero"></path><path fill="#000000" d="m613.209 141.76776l-1.6875 -4.3125l-5.4375 0l-1.671875 4.3125l-1.59375 0l5.359375 -13.625l1.328125 0l5.34375 13.625l-1.640625 0zm-2.1875 -5.734375l-1.5625 -4.203125q-0.3125 -0.796875 -0.640625 -1.953125q-0.203125 0.890625 -0.578125 1.953125l-1.59375 4.203125l4.375 0zm13.555908 -4.4375l0 0.984375l-1.875 0.21875q0.25 0.328125 0.453125 0.859375q0.203125 0.515625 0.203125 1.171875q0 1.484375 -1.015625 2.375q-1.015625 0.890625 -2.796875 0.890625q-0.453125 0 -0.859375 -0.0625q-0.984375 0.515625 -0.984375 1.296875q0 0.421875 0.34375 0.625q0.34375 0.203125 1.1875 0.203125l1.796875 0q1.640625 0 2.53125 0.703125q0.890625 0.6875 0.890625 2.015625q0 1.6875 -1.359375 2.5625q-1.359375 0.890625 -3.953125 0.890625q-1.984375 0 -3.078125 -0.75q-1.078125 -0.734375 -1.078125 -2.09375q0 -0.921875 0.59375 -1.609375q0.59375 -0.671875 1.671875 -0.90625q-0.390625 -0.171875 -0.65625 -0.546875q-0.265625 -0.375 -0.265625 -0.859375q0 -0.5625 0.296875 -0.96875q0.296875 -0.421875 0.9375 -0.8125q-0.78125 -0.328125 -1.28125 -1.109375q-0.5 -0.78125 -0.5 -1.78125q0 -1.671875 1.0 -2.578125q1.0 -0.90625 2.84375 -0.90625q0.796875 0 1.4375 0.1875l3.515625 0zm-8.109375 11.875q0 0.828125 0.6875 1.25q0.703125 0.4375 2.0 0.4375q1.9375 0 2.875 -0.578125q0.9375 -0.578125 0.9375 -1.578125q0 -0.828125 -0.515625 -1.15625q-0.515625 -0.3125 -1.921875 -0.3125l-1.84375 0q-1.046875 0 -1.640625 0.5q-0.578125 0.5 -0.578125 1.4375zm0.84375 -8.609375q0 1.0625 0.59375 1.609375q0.609375 0.546875 1.6875 0.546875q2.25 0 2.25 -2.1875q0 -2.296875 -2.28125 -2.296875q-1.09375 0 -1.671875 0.59375q-0.578125 0.578125 -0.578125 1.734375zm13.455261 7.09375q-2.25 0 -3.5625 -1.375q-1.296875 -1.375 -1.296875 -3.8125q0 -2.453125 1.203125 -3.90625q1.21875 -1.453125 3.265625 -1.453125q1.90625 0 3.015625 1.265625q1.125 1.25 1.125 3.3125l0 0.96875l-7.015625 0q0.046875 1.796875 0.90625 2.734375q0.859375 0.921875 2.421875 0.921875q1.640625 0 3.25 -0.6875l0 1.375q-0.8125 0.34375 -1.546875 0.5q-0.734375 0.15625 -1.765625 0.15625zm-0.40625 -9.25q-1.234375 0 -1.96875 0.796875q-0.71875 0.796875 -0.84375 2.203125l5.3125 0q0 -1.453125 -0.65625 -2.21875q-0.640625 -0.78125 -1.84375 -0.78125zm13.544922 9.0625l0 -6.578125q0 -1.25 -0.578125 -1.859375q-0.5625 -0.609375 -1.765625 -0.609375q-1.59375 0 -2.34375 0.875q-0.734375 0.859375 -0.734375 2.84375l0 5.328125l-1.53125 0l0 -10.171875l1.25 0l0.25 1.390625l0.0625 0q0.484375 -0.75 1.328125 -1.15625q0.859375 -0.421875 1.90625 -0.421875q1.84375 0 2.765625 0.890625q0.921875 0.890625 0.921875 2.828125l0 6.640625l-1.53125 0zm7.7787476 -1.078125q0.40625 0 0.78125 -0.0625q0.390625 -0.0625 0.609375 -0.125l0 1.171875q-0.25 0.125 -0.75 0.203125q-0.484375 0.078125 -0.875 0.078125q-2.9375 0 -2.9375 -3.109375l0 -6.046875l-1.46875 0l0 -0.75l1.46875 -0.640625l0.640625 -2.171875l0.890625 0l0 2.359375l2.953125 0l0 1.203125l-2.953125 0l0 5.984375q0 0.921875 0.4375 1.421875q0.4375 0.484375 1.203125 0.484375zm16.35431 1.078125l-8.921875 0l0 -1.328125l3.578125 -3.59375q1.625 -1.640625 2.140625 -2.34375q0.53125 -0.71875 0.78125 -1.375q0.265625 -0.671875 0.265625 -1.4375q0 -1.09375 -0.65625 -1.71875q-0.65625 -0.640625 -1.828125 -0.640625q-0.84375 0 -1.609375 0.28125q-0.75 0.265625 -1.671875 1.0l-0.8125 -1.046875q1.875 -1.5625 4.078125 -1.5625q1.90625 0 2.984375 0.984375q1.09375 0.984375 1.09375 2.625q0 1.296875 -0.71875 2.5625q-0.71875 1.25 -2.71875 3.1875l-2.96875 2.90625l0 0.078125l6.984375 0l0 1.421875z" fill-rule="nonzero"></path><path fill="#000000" fill-opacity="0.0" d="m334.5958 200.47519l277.0709 0" fill-rule="nonzero"></path><path stroke="#92c68c" stroke-width="8.0" stroke-linejoin="round" stroke-linecap="butt" stroke-dasharray="32.0,24.0" d="m334.5958 200.47519l277.0709 0" fill-rule="nonzero"></path><path fill="#000000" fill-opacity="0.0" d="m334.5958 200.47519l277.0709 240.0" fill-rule="nonzero"></path><path stroke="#92c68c" stroke-width="8.0" stroke-linejoin="round" stroke-linecap="butt" stroke-dasharray="32.0,24.0" d="m334.5958 200.47519l277.0709 240.0" fill-rule="nonzero"></path><path fill="#000000" fill-opacity="0.0" d="m611.6667 440.4752l0 -240.0" fill-rule="nonzero"></path><path stroke="#92c68c" stroke-width="8.0" stroke-linejoin="round" stroke-linecap="butt" stroke-dasharray="32.0,24.0" d="m611.6667 440.4752l0 -240.0" fill-rule="nonzero"></path><path fill="#000000" fill-opacity="0.0" d="m334.5958 440.4752l277.0709 0" fill-rule="nonzero"></path><path stroke="#92c68c" stroke-width="8.0" stroke-linejoin="round" stroke-linecap="butt" stroke-dasharray="32.0,24.0" d="m334.5958 440.4752l277.0709 0" fill-rule="nonzero"></path><path fill="#000000" fill-opacity="0.0" d="m334.5958 455.6014l277.0709 0" fill-rule="nonzero"></path><path stroke="#9fc5e8" stroke-width="8.0" stroke-linejoin="round" stroke-linecap="butt" stroke-dasharray="32.0,24.0" d="m334.5958 455.6014l277.0709 0" fill-rule="nonzero"></path><path fill="#000000" fill-opacity="0.0" d="m334.5958 217.48491l277.0709 240.00002" fill-rule="nonzero"></path><path stroke="#9fc5e8" stroke-width="8.0" stroke-linejoin="round" stroke-linecap="butt" stroke-dasharray="32.0,24.0" d="m334.5958 217.48491l277.0709 240.00002" fill-rule="nonzero"></path></g></svg>

