<?xml version="1.0" standalone="yes"?>

<svg version="1.1" viewBox="0.0 0.0 960.0 540.0" fill="none" stroke="none" stroke-linecap="square" stroke-miterlimit="10" xmlns="http://www.w3.org/2000/svg" xmlns:xlink="http://www.w3.org/1999/xlink"><clipPath id="gcc0b5dd03_2_143.0"><path d="m0 0l960.0 0l0 540.0l-960.0 0l0 -540.0z" clip-rule="nonzero"></path></clipPath><g clip-path="url(#gcc0b5dd03_2_143.0)"><path fill="#ffffff" d="m0 0l960.0 0l0 540.0l-960.0 0z" fill-rule="nonzero"></path><path fill="#000000" fill-opacity="0.0" d="m32.72441 46.721786l894.55115 0l0 60.125984l-894.55115 0z" fill-rule="nonzero"></path><path fill="#000000" d="m56.66191 67.51491q-4.34375 0 -6.875 2.90625q-2.515625 2.890625 -2.515625 7.9375q0 5.1875 2.421875 8.015625q2.4375 2.828125 6.9375 2.828125q2.765625 0 6.296875 -1.0l0 2.6875q-2.734375 1.03125 -6.765625 1.03125q-5.84375 0 -9.015625 -3.53125q-3.15625 -3.546875 -3.15625 -10.078125q0 -4.078125 1.515625 -7.140625q1.53125 -3.078125 4.40625 -4.734375q2.890625 -1.671875 6.796875 -1.671875q4.140625 0 7.25 1.515625l-1.296875 2.640625q-3.0 -1.40625 -6.0 -1.40625zm28.876923 14.125q0 4.84375 -2.4375 7.5625q-2.4375 2.71875 -6.734375 2.71875q-2.65625 0 -4.71875 -1.234375q-2.0625 -1.25 -3.1875 -3.578125q-1.109375 -2.34375 -1.109375 -5.46875q0 -4.84375 2.421875 -7.53125q2.421875 -2.703125 6.71875 -2.703125q4.15625 0 6.59375 2.765625q2.453125 2.75 2.453125 7.46875zm-15.078125 0q0 3.796875 1.515625 5.78125q1.515625 1.984375 4.46875 1.984375q2.9375 0 4.453125 -1.96875q1.53125 -1.984375 1.53125 -5.796875q0 -3.765625 -1.53125 -5.71875q-1.515625 -1.96875 -4.5 -1.96875q-2.9375 0 -4.4375 1.9375q-1.5 1.921875 -1.5 5.75zm45.780716 9.921875l0 -12.875q0 -2.375 -1.015625 -3.546875q-1.015625 -1.1875 -3.140625 -1.1875q-2.796875 0 -4.140625 1.609375q-1.328125 1.59375 -1.328125 4.9375l0 11.0625l-3.0 0l0 -12.875q0 -2.375 -1.015625 -3.546875q-1.015625 -1.1875 -3.171875 -1.1875q-2.8125 0 -4.125 1.6875q-1.3125 1.6875 -1.3125 5.53125l0 10.390625l-2.984375 0l0 -19.796875l2.4375 0l0.484375 2.703125l0.140625 0q0.84375 -1.4375 2.390625 -2.25q1.546875 -0.8125 3.46875 -0.8125q4.640625 0 6.0625 3.359375l0.140625 0q0.890625 -1.5625 2.5625 -2.453125q1.6875 -0.90625 3.84375 -0.90625q3.359375 0 5.03125 1.71875q1.671875 1.71875 1.671875 5.515625l0 12.921875l-3.0 0zm12.471725 0l-2.984375 0l0 -19.796875l2.984375 0l0 19.796875zm-3.25 -25.171875q0 -1.03125 0.5 -1.5q0.515625 -0.484375 1.28125 -0.484375q0.71875 0 1.234375 0.5q0.53125 0.484375 0.53125 1.484375q0 1.015625 -0.53125 1.515625q-0.515625 0.5 -1.234375 0.5q-0.765625 0 -1.28125 -0.5q-0.5 -0.5 -0.5 -1.515625zm23.253891 25.171875l0 -12.8125q0 -2.421875 -1.109375 -3.609375q-1.09375 -1.1875 -3.453125 -1.1875q-3.109375 0 -4.5625 1.6875q-1.4375 1.671875 -1.4375 5.53125l0 10.390625l-2.984375 0l0 -19.796875l2.4375 0l0.484375 2.703125l0.140625 0q0.921875 -1.453125 2.578125 -2.25q1.671875 -0.8125 3.703125 -0.8125q3.578125 0 5.390625 1.71875q1.8125 1.71875 1.8125 5.515625l0 12.921875l-3.0 0zm25.567123 -19.796875l0 1.890625l-3.671875 0.4375q0.5 0.625 0.890625 1.65625q0.40625 1.015625 0.40625 2.296875q0 2.90625 -1.984375 4.640625q-1.984375 1.734375 -5.453125 1.734375q-0.890625 0 -1.671875 -0.140625q-1.90625 1.015625 -1.90625 2.546875q0 0.8125 0.65625 1.203125q0.671875 0.390625 2.3125 0.390625l3.5 0q3.21875 0 4.9375 1.359375q1.71875 1.34375 1.71875 3.9375q0 3.28125 -2.640625 5.0q-2.625 1.734375 -7.6875 1.734375q-3.875 0 -5.984375 -1.453125q-2.109375 -1.4375 -2.109375 -4.078125q0 -1.8125 1.15625 -3.125q1.15625 -1.3125 3.25 -1.78125q-0.75 -0.34375 -1.265625 -1.0625q-0.515625 -0.734375 -0.515625 -1.6875q0 -1.09375 0.578125 -1.90625q0.578125 -0.8125 1.828125 -1.5625q-1.546875 -0.640625 -2.515625 -2.15625q-0.953125 -1.515625 -0.953125 -3.46875q0 -3.25 1.9375 -5.0q1.953125 -1.765625 5.53125 -1.765625q1.5625 0 2.796875 0.359375l6.859375 0zm-15.796875 23.125q0 1.609375 1.359375 2.4375q1.359375 0.828125 3.875 0.828125q3.78125 0 5.59375 -1.125q1.8125 -1.125 1.8125 -3.0625q0 -1.609375 -1.0 -2.234375q-0.984375 -0.625 -3.71875 -0.625l-3.609375 0q-2.03125 0 -3.171875 0.96875q-1.140625 0.984375 -1.140625 2.8125zm1.625 -16.78125q0 2.078125 1.171875 3.140625q1.171875 1.0625 3.28125 1.0625q4.390625 0 4.390625 -4.265625q0 -4.453125 -4.453125 -4.453125q-2.109375 0 -3.25 1.140625q-1.140625 1.125 -1.140625 3.375zm30.928085 -6.34375l0 12.84375q0 2.421875 1.09375 3.609375q1.109375 1.1875 3.453125 1.1875q3.109375 0 4.546875 -1.6875q1.4375 -1.703125 1.4375 -5.546875l0 -10.40625l3.0 0l0 19.796875l-2.46875 0l-0.4375 -2.65625l-0.171875 0q-0.921875 1.46875 -2.5625 2.25q-1.625 0.765625 -3.71875 0.765625q-3.609375 0 -5.40625 -1.71875q-1.796875 -1.71875 -1.796875 -5.484375l0 -12.953125l3.03125 0zm29.301498 20.15625q-1.9375 0 -3.53125 -0.703125q-1.59375 -0.71875 -2.6875 -2.203125l-0.203125 0q0.203125 1.734375 0.203125 3.28125l0 8.15625l-2.984375 0l0 -28.6875l2.4375 0l0.40625 2.703125l0.140625 0q1.15625 -1.625 2.6875 -2.34375q1.546875 -0.71875 3.53125 -0.71875q3.9375 0 6.078125 2.6875q2.140625 2.6875 2.140625 7.546875q0 4.875 -2.171875 7.578125q-2.171875 2.703125 -6.046875 2.703125zm-0.4375 -17.96875q-3.03125 0 -4.390625 1.6875q-1.34375 1.671875 -1.390625 5.328125l0 0.671875q0 4.171875 1.390625 5.96875q1.40625 1.796875 4.46875 1.796875q2.5625 0 4.015625 -2.078125q1.453125 -2.078125 1.453125 -5.71875q0 -3.703125 -1.453125 -5.671875q-1.453125 -1.984375 -4.09375 -1.984375zm26.789734 17.609375l-2.984375 0l0 -19.796875l2.984375 0l0 19.796875zm-3.25 -25.171875q0 -1.03125 0.5 -1.5q0.515625 -0.484375 1.28125 -0.484375q0.71875 0 1.234375 0.5q0.53125 0.484375 0.53125 1.484375q0 1.015625 -0.53125 1.515625q-0.515625 0.5 -1.234375 0.5q-0.765625 0 -1.28125 -0.5q-0.5 -0.5 -0.5 -1.515625zm23.253891 25.171875l0 -12.8125q0 -2.421875 -1.109375 -3.609375q-1.09375 -1.1875 -3.453125 -1.1875q-3.109375 0 -4.5625 1.6875q-1.4375 1.671875 -1.4375 5.53125l0 10.390625l-2.984375 0l0 -19.796875l2.4375 0l0.484375 2.703125l0.140625 0q0.921875 -1.453125 2.578125 -2.25q1.671875 -0.8125 3.703125 -0.8125q3.578125 0 5.390625 1.71875q1.8125 1.71875 1.8125 5.515625l0 12.921875l-3.0 0zm22.576172 -10.984375l0 10.984375l-3.078125 0l0 -26.40625l7.25 0q4.859375 0 7.171875 1.859375q2.328125 1.859375 2.328125 5.59375q0 5.234375 -5.3125 7.078125l7.171875 11.875l-3.625 0l-6.390625 -10.984375l-5.515625 0zm0 -2.640625l4.203125 0q3.265625 0 4.78125 -1.28125q1.515625 -1.296875 1.515625 -3.890625q0 -2.609375 -1.546875 -3.765625q-1.546875 -1.15625 -4.953125 -1.15625l-4.0 0l0 10.09375zm40.059296 13.625l-3.078125 0l0 -12.4375l-13.90625 0l0 12.4375l-3.078125 0l0 -26.40625l3.078125 0l0 11.234375l13.90625 0l0 -11.234375l3.078125 0l0 26.40625zm22.21231 0l-14.734375 0l0 -26.40625l14.734375 0l0 2.71875l-11.65625 0l0 8.515625l10.953125 0l0 2.703125l-10.953125 0l0 9.71875l11.65625 0l0 2.75zm6.025757 0l0 -26.40625l3.078125 0l0 23.625l11.65625 0l0 2.78125l-14.734375 0zm52.008972 -13.25q0 6.34375 -3.21875 9.984375q-3.203125 3.625 -8.90625 3.625q-5.84375 0 -9.015625 -3.5625q-3.15625 -3.578125 -3.15625 -10.078125q0 -6.453125 3.171875 -10.0q3.1875 -3.546875 9.03125 -3.546875q5.6875 0 8.890625 3.609375q3.203125 3.609375 3.203125 9.96875zm-21.046875 0q0 5.375 2.28125 8.15625q2.28125 2.765625 6.640625 2.765625q4.390625 0 6.625 -2.765625q2.25 -2.765625 2.25 -8.15625q0 -5.328125 -2.234375 -8.078125q-2.234375 -2.75 -6.609375 -2.75q-4.390625 0 -6.671875 2.78125q-2.28125 2.765625 -2.28125 8.046875zm42.087097 6.21875q0 3.484375 -2.53125 5.4375q-2.515625 1.953125 -6.859375 1.953125q-4.703125 0 -7.21875 -1.203125l0 -2.96875q1.625 0.6875 3.53125 1.09375q1.921875 0.390625 3.796875 0.390625q3.078125 0 4.625 -1.15625q1.546875 -1.171875 1.546875 -3.25q0 -1.375 -0.546875 -2.25q-0.546875 -0.875 -1.84375 -1.609375q-1.28125 -0.75 -3.921875 -1.6875q-3.6875 -1.328125 -5.265625 -3.125q-1.578125 -1.8125 -1.578125 -4.71875q0 -3.046875 2.28125 -4.859375q2.296875 -1.8125 6.078125 -1.8125q3.9375 0 7.25 1.453125l-0.96875 2.671875q-3.265625 -1.375 -6.359375 -1.375q-2.4375 0 -3.8125 1.046875q-1.375 1.046875 -1.375 2.90625q0 1.375 0.5 2.25q0.515625 0.875 1.71875 1.609375q1.203125 0.734375 3.671875 1.625q4.15625 1.46875 5.71875 3.171875q1.5625 1.703125 1.5625 4.40625zm22.330475 -11.6875q0 4.015625 -2.734375 6.171875q-2.734375 2.15625 -7.828125 2.15625l-3.109375 0l0 10.390625l-3.078125 0l0 -26.40625l6.859375 0q9.890625 0 9.890625 7.6875zm-13.671875 5.6875l2.765625 0q4.078125 0 5.90625 -1.3125q1.828125 -1.3125 1.828125 -4.234375q0 -2.609375 -1.71875 -3.890625q-1.71875 -1.28125 -5.34375 -1.28125l-3.4375 0l0 10.71875zm26.982513 4.484375l0 -2.75l8.875 0l0 2.75l-8.875 0zm23.817291 8.546875l0 -26.40625l3.078125 0l0 26.40625l-3.078125 0zm23.516815 0l0 -12.8125q0 -2.421875 -1.109375 -3.609375q-1.0937805 -1.1875 -3.4531555 -1.1875q-3.109375 0 -4.5625 1.6875q-1.4375 1.671875 -1.4375 5.53125l0 10.390625l-2.984375 0l0 -19.796875l2.4375 0l0.484375 2.703125l0.140625 0q0.921875 -1.453125 2.578125 -2.25q1.671875 -0.8125 3.703125 -0.8125q3.5781555 0 5.3906555 1.71875q1.8125 1.71875 1.8125 5.515625l0 12.921875l-3.0 0zm22.129639 -5.40625q0 2.765625 -2.0625 4.265625q-2.0625 1.5 -5.78125 1.5q-3.9375 0 -6.140625 -1.25l0 -2.78125q1.421875 0.734375 3.0625 1.15625q1.640625 0.40625 3.15625 0.40625q2.34375 0 3.609375 -0.75q1.265625 -0.75 1.265625 -2.296875q0 -1.15625 -1.0 -1.96875q-1.0 -0.828125 -3.921875 -1.9375q-2.75 -1.03125 -3.921875 -1.796875q-1.171875 -0.78125 -1.734375 -1.75q-0.5625 -0.984375 -0.5625 -2.328125q0 -2.421875 1.96875 -3.8125q1.96875 -1.40625 5.390625 -1.40625q3.203125 0 6.25 1.296875l-1.0625 2.4375q-2.984375 -1.234375 -5.40625 -1.234375q-2.125 0 -3.21875 0.671875q-1.078125 0.671875 -1.078125 1.84375q0 0.796875 0.40625 1.359375q0.40625 0.5625 1.3125 1.0625q0.90625 0.5 3.46875 1.46875q3.53125 1.28125 4.765625 2.578125q1.234375 1.296875 1.234375 3.265625zm11.432434 3.296875q0.796875 0 1.53125 -0.109375q0.75 -0.125 1.171875 -0.25l0 2.28125q-0.484375 0.234375 -1.4375 0.390625q-0.9375 0.15625 -1.703125 0.15625q-5.75 0 -5.75 -6.046875l0 -11.78125l-2.828125 0l0 -1.453125l2.828125 -1.234375l1.265625 -4.234375l1.734375 0l0 4.59375l5.75 0l0 2.328125l-5.75 0l0 11.65625q0 1.78125 0.84375 2.75q0.859375 0.953125 2.34375 0.953125zm18.959106 2.109375l-0.59375 -2.8125l-0.15625 0q-1.46875 1.859375 -2.953125 2.515625q-1.46875 0.65625 -3.671875 0.65625q-2.9375 0 -4.609375 -1.515625q-1.671875 -1.515625 -1.671875 -4.3125q0 -6.0 9.59375 -6.296875l3.359375 -0.109375l0 -1.21875q0 -2.328125 -1.015625 -3.4375q-1.0 -1.125 -3.203125 -1.125q-2.46875 0 -5.59375 1.515625l-0.921875 -2.28125q1.46875 -0.796875 3.203125 -1.25q1.75 -0.453125 3.5 -0.453125q3.546875 0 5.25 1.578125q1.703125 1.5625 1.703125 5.03125l0 13.515625l-2.21875 0zm-6.78125 -2.109375q2.796875 0 4.390625 -1.53125q1.609375 -1.546875 1.609375 -4.3125l0 -1.78125l-3.0 0.125q-3.578125 0.125 -5.15625 1.109375q-1.578125 0.984375 -1.578125 3.0625q0 1.625 0.984375 2.484375q0.984375 0.84375 2.75 0.84375zm28.916382 2.109375l0 -12.8125q0 -2.421875 -1.109375 -3.609375q-1.09375 -1.1875 -3.453125 -1.1875q-3.109375 0 -4.5625 1.6875q-1.4375 1.671875 -1.4375 5.53125l0 10.390625l-2.984375 0l0 -19.796875l2.4375 0l0.484375 2.703125l0.140625 0q0.921875 -1.453125 2.578125 -2.25q1.671875 -0.8125 3.703125 -0.8125q3.578125 0 5.390625 1.71875q1.8125 1.71875 1.8125 5.515625l0 12.921875l-3.0 0zm17.270264 0.359375q-4.296875 0 -6.65625 -2.640625q-2.359375 -2.65625 -2.359375 -7.5q0 -4.96875 2.390625 -7.671875q2.390625 -2.703125 6.828125 -2.703125q1.421875 0 2.84375 0.3125q1.4375 0.296875 2.25 0.71875l-0.921875 2.546875q-1.0 -0.40625 -2.171875 -0.65625q-1.171875 -0.265625 -2.078125 -0.265625q-6.03125 0 -6.03125 7.6875q0 3.65625 1.46875 5.609375q1.46875 1.9375 4.359375 1.9375q2.484375 0 5.078125 -1.0625l0 2.65625q-1.984375 1.03125 -5.0 1.03125zm18.224121 0q-4.390625 0 -6.9375 -2.671875q-2.53125 -2.671875 -2.53125 -7.421875q0 -4.796875 2.359375 -7.609375q2.359375 -2.8125 6.328125 -2.8125q3.71875 0 5.890625 2.453125q2.171875 2.4375 2.171875 6.453125l0 1.890625l-13.640625 0q0.09375 3.484375 1.765625 5.296875q1.671875 1.796875 4.703125 1.796875q3.1875 0 6.3125 -1.328125l0 2.671875q-1.578125 0.6875 -3.0 0.984375q-1.421875 0.296875 -3.421875 0.296875zm-0.8125 -18.015625q-2.390625 0 -3.8125 1.5625q-1.40625 1.546875 -1.671875 4.296875l10.359375 0q0 -2.84375 -1.265625 -4.34375q-1.265625 -1.515625 -3.609375 -1.515625zm43.59204 17.65625l-3.078125 0l0 -12.4375l-13.90625 0l0 12.4375l-3.078125 0l0 -26.40625l3.078125 0l0 11.234375l13.90625 0l0 -11.234375l3.078125 0l0 26.40625zm24.08728 0l-3.28125 -8.40625l-10.59375 0l-3.25 8.40625l-3.109375 0l10.4375 -26.515625l2.59375 0l10.390625 26.515625l-3.1875 0zm-4.25 -11.171875l-3.0625 -8.171875q-0.59375 -1.5625 -1.234375 -3.8125q-0.390625 1.734375 -1.140625 3.8125l-3.109375 8.171875l8.546875 0z" fill-rule="nonzero"></path><path fill="#efefef" d="m337.5328 249.96326l174.36221 0l0 242.4252l-174.36221 0z" fill-rule="nonzero"></path><path stroke="#000000" stroke-width="2.0" stroke-linejoin="round" stroke-linecap="butt" d="m337.5328 249.96326l174.36221 0l0 242.4252l-174.36221 0z" fill-rule="nonzero"></path><path fill="#efefef" d="m551.3307 249.96326l174.36224 0l0 242.4252l-174.36224 0z" fill-rule="nonzero"></path><path stroke="#000000" stroke-width="2.0" stroke-linejoin="round" stroke-linecap="butt" d="m551.3307 249.96326l174.36224 0l0 242.4252l-174.36224 0z" fill-rule="nonzero"></path><path fill="#000000" fill-opacity="0.0" d="m337.53198 208.27667l174.36221 0l0 37.16536l-174.36221 0z" fill-rule="nonzero"></path><path fill="#000000" d="m354.20386 222.85292q-2.234375 0 -3.53125 1.484375q-1.296875 1.484375 -1.296875 4.078125q0 2.65625 1.25 4.109375q1.25 1.453125 3.5625 1.453125q1.421875 0 3.234375 -0.5l0 1.375q-1.40625 0.53125 -3.484375 0.53125q-2.984375 0 -4.625 -1.8125q-1.625 -1.828125 -1.625 -5.171875q0 -2.09375 0.78125 -3.671875q0.796875 -1.578125 2.265625 -2.4375q1.484375 -0.859375 3.484375 -0.859375q2.140625 0 3.734375 0.78125l-0.671875 1.359375q-1.53125 -0.71875 -3.078125 -0.71875zm14.503845 7.25q0 2.484375 -1.25 3.890625q-1.25 1.390625 -3.453125 1.390625q-1.375 0 -2.4375 -0.640625q-1.046875 -0.640625 -1.625 -1.828125q-0.578125 -1.203125 -0.578125 -2.8125q0 -2.484375 1.234375 -3.875q1.25 -1.390625 3.46875 -1.390625q2.125 0 3.375 1.421875q1.265625 1.421875 1.265625 3.84375zm-7.75 0q0 1.953125 0.78125 2.96875q0.78125 1.015625 2.296875 1.015625q1.515625 0 2.296875 -1.015625q0.78125 -1.015625 0.78125 -2.96875q0 -1.9375 -0.78125 -2.9375q-0.78125 -1.015625 -2.3125 -1.015625q-1.515625 0 -2.296875 1.0q-0.765625 0.984375 -0.765625 2.953125zm23.205963 5.09375l0 -6.609375q0 -1.21875 -0.53125 -1.828125q-0.515625 -0.609375 -1.609375 -0.609375q-1.4375 0 -2.125 0.828125q-0.671875 0.828125 -0.671875 2.546875l0 5.671875l-1.546875 0l0 -6.609375q0 -1.21875 -0.53125 -1.828125q-0.515625 -0.609375 -1.609375 -0.609375q-1.453125 0 -2.125 0.875q-0.671875 0.859375 -0.671875 2.84375l0 5.328125l-1.53125 0l0 -10.171875l1.25 0l0.25 1.390625l0.0625 0q0.4375 -0.734375 1.234375 -1.15625q0.796875 -0.421875 1.78125 -0.421875q2.375 0 3.109375 1.734375l0.078125 0q0.453125 -0.796875 1.3125 -1.265625q0.875 -0.46875 1.96875 -0.46875q1.734375 0 2.59375 0.890625q0.859375 0.890625 0.859375 2.828125l0 6.640625l-1.546875 0zm9.119202 0.1875q-0.984375 0 -1.8125 -0.359375q-0.8125 -0.375 -1.375 -1.140625l-0.109375 0q0.109375 0.890625 0.109375 1.6875l0 4.1875l-1.53125 0l0 -14.734375l1.25 0l0.203125 1.390625l0.078125 0q0.59375 -0.828125 1.375 -1.203125q0.796875 -0.375 1.8125 -0.375q2.03125 0 3.125 1.390625q1.09375 1.375 1.09375 3.875q0 2.5 -1.125 3.890625q-1.109375 1.390625 -3.09375 1.390625zm-0.21875 -9.234375q-1.5625 0 -2.265625 0.875q-0.6875 0.859375 -0.703125 2.734375l0 0.34375q0 2.140625 0.71875 3.0625q0.71875 0.921875 2.28125 0.921875q1.328125 0 2.0625 -1.0625q0.75 -1.0625 0.75 -2.9375q0 -1.90625 -0.75 -2.921875q-0.734375 -1.015625 -2.09375 -1.015625zm8.369934 -1.125l0 6.59375q0 1.25 0.5625 1.859375q0.578125 0.609375 1.78125 0.609375q1.59375 0 2.328125 -0.859375q0.734375 -0.875 0.734375 -2.859375l0 -5.34375l1.546875 0l0 10.171875l-1.265625 0l-0.234375 -1.359375l-0.078125 0q-0.46875 0.75 -1.3125 1.15625q-0.84375 0.390625 -1.921875 0.390625q-1.84375 0 -2.78125 -0.875q-0.921875 -0.890625 -0.921875 -2.828125l0 -6.65625l1.5625 0zm13.294373 9.09375q0.40625 0 0.78125 -0.0625q0.390625 -0.0625 0.609375 -0.125l0 1.171875q-0.25 0.125 -0.75 0.203125q-0.484375 0.078125 -0.875 0.078125q-2.9375 0 -2.9375 -3.109375l0 -6.046875l-1.46875 0l0 -0.75l1.46875 -0.640625l0.640625 -2.171875l0.890625 0l0 2.359375l2.953125 0l0 1.203125l-2.953125 0l0 5.984375q0 0.921875 0.4375 1.421875q0.4375 0.484375 1.203125 0.484375zm7.5861816 1.265625q-2.25 0 -3.5625 -1.375q-1.296875 -1.375 -1.296875 -3.8125q0 -2.453125 1.203125 -3.90625q1.21875 -1.453125 3.265625 -1.453125q1.90625 0 3.015625 1.265625q1.125 1.25 1.125 3.3125l0 0.96875l-7.015625 0q0.046875 1.796875 0.90625 2.734375q0.859375 0.921875 2.421875 0.921875q1.640625 0 3.25 -0.6875l0 1.375q-0.8125 0.34375 -1.546875 0.5q-0.734375 0.15625 -1.765625 0.15625zm-0.40625 -9.25q-1.234375 0 -1.96875 0.796875q-0.71875 0.796875 -0.84375 2.203125l5.3125 0q0 -1.453125 -0.65625 -2.21875q-0.640625 -0.78125 -1.84375 -0.78125zm16.43805 9.0625l-1.515625 0l0 -9.671875q0 -1.203125 0.078125 -2.28125q-0.1875 0.203125 -0.4375 0.421875q-0.234375 0.203125 -2.203125 1.796875l-0.8125 -1.0625l3.578125 -2.765625l1.3125 0l0 13.5625z" fill-rule="nonzero"></path><path fill="#000000" fill-opacity="0.0" d="m319.81073 188.50735l423.2126 0" fill-rule="nonzero"></path><path stroke="#000000" stroke-width="2.0" stroke-linejoin="round" stroke-linecap="butt" d="m319.81073 188.50735l423.2126 0" fill-rule="nonzero"></path><path fill="#000000" fill-opacity="0.0" d="m460.43753 189.46014l0 60.0" fill-rule="nonzero"></path><path stroke="#000000" stroke-width="2.0" stroke-linejoin="round" stroke-linecap="butt" d="m460.43753 189.46014l0 60.0" fill-rule="nonzero"></path><path fill="#000000" fill-opacity="0.0" d="m679.9526 189.46014l0 60.0" fill-rule="nonzero"></path><path stroke="#000000" stroke-width="2.0" stroke-linejoin="round" stroke-linecap="butt" d="m679.9526 189.46014l0 60.0" fill-rule="nonzero"></path><path fill="#000000" fill-opacity="0.0" d="m638.5099 128.02695l0 60.0" fill-rule="nonzero"></path><path stroke="#000000" stroke-width="2.0" stroke-linejoin="round" stroke-linecap="butt" d="m638.5099 128.02695l0 60.0" fill-rule="nonzero"></path><path fill="#000000" fill-opacity="0.0" d="m553.532 208.27667l174.36224 0l0 37.16536l-174.36224 0z" fill-rule="nonzero"></path><path fill="#000000" d="m570.20386 222.85292q-2.234375 0 -3.53125 1.484375q-1.296875 1.484375 -1.296875 4.078125q0 2.65625 1.25 4.109375q1.25 1.453125 3.5625 1.453125q1.421875 0 3.234375 -0.5l0 1.375q-1.40625 0.53125 -3.484375 0.53125q-2.984375 0 -4.625 -1.8125q-1.625 -1.828125 -1.625 -5.171875q0 -2.09375 0.78125 -3.671875q0.796875 -1.578125 2.265625 -2.4375q1.484375 -0.859375 3.484375 -0.859375q2.140625 0 3.734375 0.78125l-0.671875 1.359375q-1.53125 -0.71875 -3.078125 -0.71875zm14.503845 7.25q0 2.484375 -1.25 3.890625q-1.25 1.390625 -3.453125 1.390625q-1.375 0 -2.4375 -0.640625q-1.046875 -0.640625 -1.625 -1.828125q-0.578125 -1.203125 -0.578125 -2.8125q0 -2.484375 1.234375 -3.875q1.25 -1.390625 3.46875 -1.390625q2.125 0 3.375 1.421875q1.265625 1.421875 1.265625 3.84375zm-7.75 0q0 1.953125 0.78125 2.96875q0.78125 1.015625 2.296875 1.015625q1.515625 0 2.296875 -1.015625q0.78125 -1.015625 0.78125 -2.96875q0 -1.9375 -0.78125 -2.9375q-0.78125 -1.015625 -2.3125 -1.015625q-1.515625 0 -2.296875 1.0q-0.765625 0.984375 -0.765625 2.953125zm23.205933 5.09375l0 -6.609375q0 -1.21875 -0.53125 -1.828125q-0.515625 -0.609375 -1.609375 -0.609375q-1.4375 0 -2.125 0.828125q-0.671875 0.828125 -0.671875 2.546875l0 5.671875l-1.546875 0l0 -6.609375q0 -1.21875 -0.53125 -1.828125q-0.515625 -0.609375 -1.609375 -0.609375q-1.453125 0 -2.125 0.875q-0.671875 0.859375 -0.671875 2.84375l0 5.328125l-1.53125 0l0 -10.171875l1.25 0l0.25 1.390625l0.0625 0q0.4375 -0.734375 1.234375 -1.15625q0.796875 -0.421875 1.78125 -0.421875q2.375 0 3.109375 1.734375l0.078125 0q0.453125 -0.796875 1.3125 -1.265625q0.875 -0.46875 1.96875 -0.46875q1.734375 0 2.59375 0.890625q0.859375 0.890625 0.859375 2.828125l0 6.640625l-1.546875 0zm9.119263 0.1875q-0.984375 0 -1.8125 -0.359375q-0.8125 -0.375 -1.375 -1.140625l-0.109375 0q0.109375 0.890625 0.109375 1.6875l0 4.1875l-1.53125 0l0 -14.734375l1.25 0l0.203125 1.390625l0.078125 0q0.59375 -0.828125 1.375 -1.203125q0.796875 -0.375 1.8125 -0.375q2.03125 0 3.125 1.390625q1.09375 1.375 1.09375 3.875q0 2.5 -1.125 3.890625q-1.109375 1.390625 -3.09375 1.390625zm-0.21875 -9.234375q-1.5625 0 -2.265625 0.875q-0.6875 0.859375 -0.703125 2.734375l0 0.34375q0 2.140625 0.71875 3.0625q0.71875 0.921875 2.28125 0.921875q1.328125 0 2.0625 -1.0625q0.75 -1.0625 0.75 -2.9375q0 -1.90625 -0.75 -2.921875q-0.734375 -1.015625 -2.09375 -1.015625zm8.369873 -1.125l0 6.59375q0 1.25 0.5625 1.859375q0.578125 0.609375 1.78125 0.609375q1.59375 0 2.328125 -0.859375q0.734375 -0.875 0.734375 -2.859375l0 -5.34375l1.546875 0l0 10.171875l-1.265625 0l-0.234375 -1.359375l-0.078125 0q-0.46875 0.75 -1.3125 1.15625q-0.84375 0.390625 -1.921875 0.390625q-1.84375 0 -2.78125 -0.875q-0.921875 -0.890625 -0.921875 -2.828125l0 -6.65625l1.5625 0zm13.294434 9.09375q0.40625 0 0.78125 -0.0625q0.390625 -0.0625 0.609375 -0.125l0 1.171875q-0.25 0.125 -0.75 0.203125q-0.484375 0.078125 -0.875 0.078125q-2.9375 0 -2.9375 -3.109375l0 -6.046875l-1.46875 0l0 -0.75l1.46875 -0.640625l0.640625 -2.171875l0.890625 0l0 2.359375l2.953125 0l0 1.203125l-2.953125 0l0 5.984375q0 0.921875 0.4375 1.421875q0.4375 0.484375 1.203125 0.484375zm7.5861206 1.265625q-2.25 0 -3.5625 -1.375q-1.296875 -1.375 -1.296875 -3.8125q0 -2.453125 1.203125 -3.90625q1.21875 -1.453125 3.265625 -1.453125q1.90625 0 3.015625 1.265625q1.125 1.25 1.125 3.3125l0 0.96875l-7.015625 0q0.046875 1.796875 0.90625 2.734375q0.859375 0.921875 2.421875 0.921875q1.640625 0 3.25 -0.6875l0 1.375q-0.8125 0.34375 -1.546875 0.5q-0.734375 0.15625 -1.765625 0.15625zm-0.40625 -9.25q-1.234375 0 -1.96875 0.796875q-0.71875 0.796875 -0.84375 2.203125l5.3125 0q0 -1.453125 -0.65625 -2.21875q-0.640625 -0.78125 -1.84375 -0.78125zm19.641235 9.0625l-8.921875 0l0 -1.328125l3.578125 -3.59375q1.625 -1.640625 2.140625 -2.34375q0.53125 -0.71875 0.78125 -1.375q0.265625 -0.671875 0.265625 -1.4375q0 -1.09375 -0.65625 -1.71875q-0.65625 -0.640625 -1.828125 -0.640625q-0.84375 0 -1.609375 0.28125q-0.75 0.265625 -1.671875 1.0l-0.8125 -1.046875q1.875 -1.5625 4.078125 -1.5625q1.90625 0 2.984375 0.984375q1.09375 0.984375 1.09375 2.625q0 1.296875 -0.71875 2.5625q-0.71875 1.25 -2.71875 3.1875l-2.96875 2.90625l0 0.078125l6.984375 0l0 1.421875z" fill-rule="nonzero"></path><path fill="#cfe2f3" d="m353.80057 283.5853l143.81104 0l0 37.165375l-143.81104 0z" fill-rule="nonzero"></path><path stroke="#000000" stroke-width="2.0" stroke-linejoin="round" stroke-linecap="butt" d="m353.80057 283.5853l143.81104 0l0 37.165375l-143.81104 0z" fill-rule="nonzero"></path><path fill="#000000" d="m376.36746 308.30798l-1.609375 0l-6.625 -10.1875l-0.0625 0q0.125 1.796875 0.125 3.296875l0 6.890625l-1.296875 0l0 -12.140625l1.59375 0l6.609375 10.140625l0.0625 0q-0.015625 -0.21875 -0.078125 -1.4375q-0.046875 -1.21875 -0.03125 -1.734375l0 -6.96875l1.3125 0l0 12.140625zm11.235657 -4.5625q0 2.234375 -1.125 3.484375q-1.109375 1.25 -3.09375 1.25q-1.21875 0 -2.171875 -0.578125q-0.9375 -0.578125 -1.453125 -1.640625q-0.515625 -1.078125 -0.515625 -2.515625q0 -2.21875 1.109375 -3.453125q1.109375 -1.25 3.09375 -1.25q1.90625 0 3.03125 1.28125q1.125 1.265625 1.125 3.421875zm-6.9375 0q0 1.75 0.703125 2.671875q0.703125 0.90625 2.046875 0.90625q1.359375 0 2.0625 -0.90625q0.703125 -0.921875 0.703125 -2.671875q0 -1.734375 -0.703125 -2.625q-0.703125 -0.90625 -2.078125 -0.90625q-1.34375 0 -2.046875 0.890625q-0.6875 0.890625 -0.6875 2.640625zm11.544373 4.5625l-3.453125 -9.09375l1.484375 0l1.953125 5.390625q0.65625 1.890625 0.78125 2.453125l0.0625 0q0.09375 -0.4375 0.578125 -1.8125q0.484375 -1.390625 2.1875 -6.03125l1.46875 0l-3.453125 9.09375l-1.609375 0zm12.290375 0l-0.28125 -1.296875l-0.0625 0q-0.6875 0.859375 -1.359375 1.171875q-0.671875 0.296875 -1.6875 0.296875q-1.359375 0 -2.125 -0.703125q-0.765625 -0.703125 -0.765625 -1.984375q0 -2.75 4.40625 -2.890625l1.546875 -0.046875l0 -0.5625q0 -1.078125 -0.46875 -1.578125q-0.453125 -0.515625 -1.46875 -0.515625q-1.140625 0 -2.578125 0.703125l-0.421875 -1.0625q0.671875 -0.359375 1.46875 -0.5625q0.8125 -0.21875 1.609375 -0.21875q1.640625 0 2.421875 0.734375q0.78125 0.71875 0.78125 2.3125l0 6.203125l-1.015625 0zm-3.125 -0.96875q1.296875 0 2.03125 -0.703125q0.734375 -0.703125 0.734375 -1.984375l0 -0.8125l-1.375 0.046875q-1.65625 0.0625 -2.390625 0.515625q-0.71875 0.453125 -0.71875 1.40625q0 0.75 0.453125 1.140625q0.453125 0.390625 1.265625 0.390625zm17.060211 -10.078125q-2.0 0 -3.15625 1.328125q-1.15625 1.328125 -1.15625 3.65625q0 2.375 1.109375 3.671875q1.125 1.296875 3.1875 1.296875q1.28125 0 2.90625 -0.453125l0 1.234375q-1.265625 0.484375 -3.125 0.484375q-2.671875 0 -4.140625 -1.625q-1.453125 -1.640625 -1.453125 -4.625q0 -1.875 0.703125 -3.28125q0.703125 -1.421875 2.03125 -2.1875q1.328125 -0.765625 3.109375 -0.765625q1.921875 0 3.34375 0.703125l-0.59375 1.203125q-1.375 -0.640625 -2.765625 -0.640625zm13.384735 6.484375q0 2.234375 -1.125 3.484375q-1.109375 1.25 -3.09375 1.25q-1.21875 0 -2.171875 -0.578125q-0.9375 -0.578125 -1.453125 -1.640625q-0.515625 -1.078125 -0.515625 -2.515625q0 -2.21875 1.109375 -3.453125q1.109375 -1.25 3.09375 -1.25q1.90625 0 3.03125 1.28125q1.125 1.265625 1.125 3.421875zm-6.9375 0q0 1.75 0.703125 2.671875q0.703125 0.90625 2.046875 0.90625q1.359375 0 2.0625 -0.90625q0.703125 -0.921875 0.703125 -2.671875q0 -1.734375 -0.703125 -2.625q-0.703125 -0.90625 -2.078125 -0.90625q-1.34375 0 -2.046875 0.890625q-0.6875 0.890625 -0.6875 2.640625zm21.153748 4.5625l0 -5.921875q0 -1.078125 -0.46875 -1.625q-0.46875 -0.546875 -1.453125 -0.546875q-1.28125 0 -1.890625 0.75q-0.609375 0.734375 -0.609375 2.265625l0 5.078125l-1.390625 0l0 -5.921875q0 -1.078125 -0.46875 -1.625q-0.453125 -0.546875 -1.4375 -0.546875q-1.296875 0 -1.90625 0.78125q-0.59375 0.765625 -0.59375 2.546875l0 4.765625l-1.375 0l0 -9.09375l1.109375 0l0.234375 1.234375l0.0625 0q0.390625 -0.65625 1.09375 -1.03125q0.71875 -0.375 1.59375 -0.375q2.125 0 2.78125 1.546875l0.078125 0q0.40625 -0.71875 1.171875 -1.125q0.78125 -0.421875 1.765625 -0.421875q1.546875 0 2.3125 0.796875q0.765625 0.796875 0.765625 2.53125l0 5.9375l-1.375 0zm8.743225 0.171875q-0.875 0 -1.609375 -0.328125q-0.734375 -0.328125 -1.234375 -1.015625l-0.109375 0q0.109375 0.796875 0.109375 1.515625l0 3.734375l-1.375 0l0 -13.171875l1.109375 0l0.1875 1.234375l0.078125 0q0.53125 -0.734375 1.234375 -1.0625q0.703125 -0.34375 1.609375 -0.34375q1.8125 0 2.796875 1.234375q0.984375 1.234375 0.984375 3.46875q0 2.25 -1.0 3.5q-1.0 1.234375 -2.78125 1.234375zm-0.1875 -8.265625q-1.40625 0 -2.03125 0.78125q-0.609375 0.765625 -0.625 2.453125l0 0.296875q0 1.921875 0.640625 2.75q0.640625 0.828125 2.046875 0.828125q1.171875 0 1.84375 -0.953125q0.671875 -0.953125 0.671875 -2.640625q0 -1.703125 -0.671875 -2.609375q-0.671875 -0.90625 -1.875 -0.90625zm7.868561 -1.0l0 5.890625q0 1.125 0.5 1.671875q0.515625 0.546875 1.59375 0.546875q1.4375 0 2.09375 -0.78125q0.65625 -0.78125 0.65625 -2.546875l0 -4.78125l1.375 0l0 9.09375l-1.125 0l-0.203125 -1.21875l-0.078125 0q-0.421875 0.671875 -1.171875 1.03125q-0.75 0.359375 -1.71875 0.359375q-1.65625 0 -2.484375 -0.78125q-0.828125 -0.796875 -0.828125 -2.53125l0 -5.953125l1.390625 0zm12.291718 8.125q0.359375 0 0.703125 -0.046875q0.34375 -0.0625 0.53125 -0.125l0 1.0625q-0.21875 0.109375 -0.65625 0.171875q-0.4375 0.078125 -0.78125 0.078125q-2.640625 0 -2.640625 -2.78125l0 -5.421875l-1.3125 0l0 -0.65625l1.3125 -0.578125l0.578125 -1.9375l0.796875 0l0 2.109375l2.640625 0l0 1.0625l-2.640625 0l0 5.359375q0 0.828125 0.390625 1.265625q0.390625 0.4375 1.078125 0.4375zm7.0079346 1.140625q-2.015625 0 -3.1875 -1.234375q-1.15625 -1.234375 -1.15625 -3.40625q0 -2.203125 1.078125 -3.5q1.09375 -1.296875 2.921875 -1.296875q1.703125 0 2.703125 1.125q1.0 1.125 1.0 2.96875l0 0.875l-6.28125 0q0.046875 1.59375 0.8125 2.4375q0.765625 0.828125 2.171875 0.828125q1.46875 0 2.90625 -0.625l0 1.234375q-0.734375 0.3125 -1.390625 0.453125q-0.65625 0.140625 -1.578125 0.140625zm-0.359375 -8.28125q-1.109375 0 -1.765625 0.71875q-0.640625 0.703125 -0.75 1.96875l4.75 0q0 -1.296875 -0.578125 -1.984375q-0.578125 -0.703125 -1.65625 -0.703125z" fill-rule="nonzero"></path><path fill="#cfe2f3" d="m353.80057 331.5853l143.81104 0l0 37.165375l-143.81104 0z" fill-rule="nonzero"></path><path stroke="#000000" stroke-width="2.0" stroke-linejoin="round" stroke-linecap="butt" d="m353.80057 331.5853l143.81104 0l0 37.165375l-143.81104 0z" fill-rule="nonzero"></path><path fill="#000000" d="m395.5323 350.22986q0 2.90625 -1.484375 4.578125q-1.46875 1.671875 -4.09375 1.671875q-2.671875 0 -4.140625 -1.640625q-1.453125 -1.640625 -1.453125 -4.625q0 -2.96875 1.453125 -4.59375q1.46875 -1.640625 4.171875 -1.640625q2.609375 0 4.078125 1.671875q1.46875 1.65625 1.46875 4.578125zm-9.671875 0q0 2.453125 1.046875 3.734375q1.046875 1.265625 3.046875 1.265625q2.03125 0 3.046875 -1.265625q1.03125 -1.265625 1.03125 -3.734375q0 -2.453125 -1.03125 -3.71875q-1.015625 -1.265625 -3.015625 -1.265625q-2.03125 0 -3.078125 1.28125q-1.046875 1.265625 -1.046875 3.703125zm19.5578 -6.0625l1.53125 0l-4.375 12.140625l-1.40625 0l-4.34375 -12.140625l1.5 0l2.78125 7.859375q0.484375 1.34375 0.765625 2.625q0.296875 -1.34375 0.78125 -2.671875l2.765625 -7.8125zm10.23584 8.90625q0 1.609375 -1.171875 2.515625q-1.15625 0.890625 -3.140625 0.890625q-2.15625 0 -3.328125 -0.5625l0 -1.359375q0.75 0.3125 1.625 0.5q0.890625 0.171875 1.75 0.171875q1.40625 0 2.125 -0.53125q0.71875 -0.53125 0.71875 -1.484375q0 -0.640625 -0.265625 -1.03125q-0.25 -0.40625 -0.84375 -0.75q-0.59375 -0.34375 -1.796875 -0.765625q-1.703125 -0.609375 -2.4375 -1.4375q-0.71875 -0.828125 -0.71875 -2.171875q0 -1.40625 1.046875 -2.234375q1.0625 -0.828125 2.796875 -0.828125q1.8125 0 3.328125 0.671875l-0.4375 1.21875q-1.5 -0.625 -2.921875 -0.625q-1.109375 0 -1.75 0.484375q-0.625 0.484375 -0.625 1.328125q0 0.640625 0.234375 1.046875q0.234375 0.390625 0.78125 0.734375q0.546875 0.328125 1.6875 0.734375q1.90625 0.6875 2.625 1.46875q0.71875 0.78125 0.71875 2.015625zm14.792633 3.234375l-1.515625 -3.859375l-4.859375 0l-1.5 3.859375l-1.421875 0l4.796875 -12.1875l1.1875 0l4.78125 12.1875l-1.46875 0zm-1.953125 -5.125l-1.40625 -3.765625q-0.28125 -0.71875 -0.5625 -1.75q-0.1875 0.796875 -0.53125 1.75l-1.421875 3.765625l3.921875 0zm12.527954 -3.96875l0 0.875l-1.6875 0.1875q0.234375 0.296875 0.40625 0.765625q0.1875 0.46875 0.1875 1.0625q0 1.328125 -0.90625 2.125q-0.90625 0.796875 -2.5 0.796875q-0.40625 0 -0.765625 -0.0625q-0.890625 0.46875 -0.890625 1.171875q0 0.375 0.3125 0.5625q0.3125 0.171875 1.0625 0.171875l1.609375 0q1.46875 0 2.265625 0.625q0.796875 0.609375 0.796875 1.796875q0 1.515625 -1.21875 2.296875q-1.21875 0.796875 -3.53125 0.796875q-1.78125 0 -2.75 -0.671875q-0.96875 -0.65625 -0.96875 -1.859375q0 -0.828125 0.53125 -1.4375q0.53125 -0.609375 1.484375 -0.828125q-0.34375 -0.15625 -0.578125 -0.484375q-0.234375 -0.328125 -0.234375 -0.765625q0 -0.5 0.265625 -0.875q0.265625 -0.375 0.828125 -0.71875q-0.703125 -0.296875 -1.15625 -0.984375q-0.4375 -0.703125 -0.4375 -1.609375q0 -1.484375 0.890625 -2.296875q0.90625 -0.8125 2.546875 -0.8125q0.71875 0 1.296875 0.171875l3.140625 0zm-7.25 10.625q0 0.734375 0.609375 1.109375q0.625 0.390625 1.796875 0.390625q1.734375 0 2.5625 -0.515625q0.84375 -0.515625 0.84375 -1.40625q0 -0.75 -0.46875 -1.03125q-0.453125 -0.28125 -1.71875 -0.28125l-1.640625 0q-0.9375 0 -1.46875 0.4375q-0.515625 0.453125 -0.515625 1.296875zm0.75 -7.71875q0 0.953125 0.53125 1.453125q0.546875 0.484375 1.5 0.484375q2.015625 0 2.015625 -1.953125q0 -2.0625 -2.03125 -2.0625q-0.984375 0 -1.5 0.53125q-0.515625 0.515625 -0.515625 1.546875zm12.383881 6.359375q-2.015625 0 -3.1875 -1.234375q-1.15625 -1.234375 -1.15625 -3.40625q0 -2.203125 1.078125 -3.5q1.09375 -1.296875 2.921875 -1.296875q1.703125 0 2.703125 1.125q1.0 1.125 1.0 2.96875l0 0.875l-6.28125 0q0.046875 1.59375 0.8125 2.4375q0.765625 0.828125 2.171875 0.828125q1.46875 0 2.90625 -0.625l0 1.234375q-0.734375 0.3125 -1.390625 0.453125q-0.65625 0.140625 -1.578125 0.140625zm-0.359375 -8.28125q-1.109375 0 -1.765625 0.71875q-0.640625 0.703125 -0.75 1.96875l4.75 0q0 -1.296875 -0.578125 -1.984375q-0.578125 -0.703125 -1.65625 -0.703125zm12.47168 8.109375l0 -5.890625q0 -1.109375 -0.515625 -1.65625q-0.5 -0.546875 -1.578125 -0.546875q-1.421875 0 -2.09375 0.78125q-0.65625 0.765625 -0.65625 2.546875l0 4.765625l-1.375 0l0 -9.09375l1.109375 0l0.234375 1.234375l0.0625 0q0.421875 -0.671875 1.1875 -1.03125q0.765625 -0.375 1.703125 -0.375q1.640625 0 2.46875 0.796875q0.828125 0.796875 0.828125 2.53125l0 5.9375l-1.375 0zm7.354248 -0.96875q0.359375 0 0.703125 -0.046875q0.34375 -0.0625 0.53125 -0.125l0 1.0625q-0.21875 0.109375 -0.65625 0.171875q-0.4375 0.078125 -0.78125 0.078125q-2.640625 0 -2.640625 -2.78125l0 -5.421875l-1.3125 0l0 -0.65625l1.3125 -0.578125l0.578125 -1.9375l0.796875 0l0 2.109375l2.640625 0l0 1.0625l-2.640625 0l0 5.359375q0 0.828125 0.390625 1.265625q0.390625 0.4375 1.078125 0.4375z" fill-rule="nonzero"></path><path fill="#cfe2f3" d="m569.80054 283.5853l143.81104 0l0 37.165375l-143.81104 0z" fill-rule="nonzero"></path><path stroke="#000000" stroke-width="2.0" stroke-linejoin="round" stroke-linecap="butt" d="m569.80054 283.5853l143.81104 0l0 37.165375l-143.81104 0z" fill-rule="nonzero"></path><path fill="#000000" d="m592.36743 308.30798l-1.609375 0l-6.625 -10.1875l-0.0625 0q0.125 1.796875 0.125 3.296875l0 6.890625l-1.296875 0l0 -12.140625l1.59375 0l6.609375 10.140625l0.0625 0q-0.015625 -0.21875 -0.078125 -1.4375q-0.046875 -1.21875 -0.03125 -1.734375l0 -6.96875l1.3125 0l0 12.140625zm11.235657 -4.5625q0 2.234375 -1.125 3.484375q-1.109375 1.25 -3.09375 1.25q-1.21875 0 -2.171875 -0.578125q-0.9375 -0.578125 -1.453125 -1.640625q-0.515625 -1.078125 -0.515625 -2.515625q0 -2.21875 1.109375 -3.453125q1.109375 -1.25 3.09375 -1.25q1.90625 0 3.03125 1.28125q1.125 1.265625 1.125 3.421875zm-6.9375 0q0 1.75 0.703125 2.671875q0.703125 0.90625 2.046875 0.90625q1.359375 0 2.0625 -0.90625q0.703125 -0.921875 0.703125 -2.671875q0 -1.734375 -0.703125 -2.625q-0.703125 -0.90625 -2.078125 -0.90625q-1.34375 0 -2.046875 0.890625q-0.6875 0.890625 -0.6875 2.640625zm11.544434 4.5625l-3.453125 -9.09375l1.484375 0l1.953125 5.390625q0.65625 1.890625 0.78125 2.453125l0.0625 0q0.09375 -0.4375 0.578125 -1.8125q0.484375 -1.390625 2.1875 -6.03125l1.46875 0l-3.453125 9.09375l-1.609375 0zm12.290344 0l-0.28125 -1.296875l-0.0625 0q-0.6875 0.859375 -1.359375 1.171875q-0.671875 0.296875 -1.6875 0.296875q-1.359375 0 -2.125 -0.703125q-0.765625 -0.703125 -0.765625 -1.984375q0 -2.75 4.40625 -2.890625l1.546875 -0.046875l0 -0.5625q0 -1.078125 -0.46875 -1.578125q-0.453125 -0.515625 -1.46875 -0.515625q-1.140625 0 -2.578125 0.703125l-0.421875 -1.0625q0.671875 -0.359375 1.46875 -0.5625q0.8125 -0.21875 1.609375 -0.21875q1.640625 0 2.421875 0.734375q0.78125 0.71875 0.78125 2.3125l0 6.203125l-1.015625 0zm-3.125 -0.96875q1.296875 0 2.03125 -0.703125q0.734375 -0.703125 0.734375 -1.984375l0 -0.8125l-1.375 0.046875q-1.65625 0.0625 -2.390625 0.515625q-0.71875 0.453125 -0.71875 1.40625q0 0.75 0.453125 1.140625q0.453125 0.390625 1.265625 0.390625zm17.06018 -10.078125q-2.0 0 -3.15625 1.328125q-1.15625 1.328125 -1.15625 3.65625q0 2.375 1.109375 3.671875q1.125 1.296875 3.1875 1.296875q1.28125 0 2.90625 -0.453125l0 1.234375q-1.265625 0.484375 -3.125 0.484375q-2.671875 0 -4.140625 -1.625q-1.453125 -1.640625 -1.453125 -4.625q0 -1.875 0.703125 -3.28125q0.703125 -1.421875 2.03125 -2.1875q1.328125 -0.765625 3.109375 -0.765625q1.921875 0 3.34375 0.703125l-0.59375 1.203125q-1.375 -0.640625 -2.765625 -0.640625zm13.384766 6.484375q0 2.234375 -1.125 3.484375q-1.109375 1.25 -3.09375 1.25q-1.21875 0 -2.171875 -0.578125q-0.9375 -0.578125 -1.453125 -1.640625q-0.515625 -1.078125 -0.515625 -2.515625q0 -2.21875 1.109375 -3.453125q1.109375 -1.25 3.09375 -1.25q1.90625 0 3.03125 1.28125q1.125 1.265625 1.125 3.421875zm-6.9375 0q0 1.75 0.703125 2.671875q0.703125 0.90625 2.046875 0.90625q1.359375 0 2.0625 -0.90625q0.703125 -0.921875 0.703125 -2.671875q0 -1.734375 -0.703125 -2.625q-0.703125 -0.90625 -2.078125 -0.90625q-1.34375 0 -2.046875 0.890625q-0.6875 0.890625 -0.6875 2.640625zm21.153748 4.5625l0 -5.921875q0 -1.078125 -0.46875 -1.625q-0.46875 -0.546875 -1.453125 -0.546875q-1.28125 0 -1.890625 0.75q-0.609375 0.734375 -0.609375 2.265625l0 5.078125l-1.390625 0l0 -5.921875q0 -1.078125 -0.46875 -1.625q-0.453125 -0.546875 -1.4375 -0.546875q-1.296875 0 -1.90625 0.78125q-0.59375 0.765625 -0.59375 2.546875l0 4.765625l-1.375 0l0 -9.09375l1.109375 0l0.234375 1.234375l0.0625 0q0.390625 -0.65625 1.09375 -1.03125q0.71875 -0.375 1.59375 -0.375q2.125 0 2.78125 1.546875l0.078125 0q0.40625 -0.71875 1.171875 -1.125q0.78125 -0.421875 1.765625 -0.421875q1.546875 0 2.3125 0.796875q0.765625 0.796875 0.765625 2.53125l0 5.9375l-1.375 0zm8.743225 0.171875q-0.875 0 -1.609375 -0.328125q-0.734375 -0.328125 -1.234375 -1.015625l-0.109375 0q0.109375 0.796875 0.109375 1.515625l0 3.734375l-1.375 0l0 -13.171875l1.109375 0l0.1875 1.234375l0.078125 0q0.53125 -0.734375 1.234375 -1.0625q0.703125 -0.34375 1.609375 -0.34375q1.8125 0 2.796875 1.234375q0.984375 1.234375 0.984375 3.46875q0 2.25 -1.0 3.5q-1.0 1.234375 -2.78125 1.234375zm-0.1875 -8.265625q-1.40625 0 -2.03125 0.78125q-0.609375 0.765625 -0.625 2.453125l0 0.296875q0 1.921875 0.640625 2.75q0.640625 0.828125 2.046875 0.828125q1.171875 0 1.84375 -0.953125q0.671875 -0.953125 0.671875 -2.640625q0 -1.703125 -0.671875 -2.609375q-0.671875 -0.90625 -1.875 -0.90625zm7.8685303 -1.0l0 5.890625q0 1.125 0.5 1.671875q0.515625 0.546875 1.59375 0.546875q1.4375 0 2.09375 -0.78125q0.65625 -0.78125 0.65625 -2.546875l0 -4.78125l1.375 0l0 9.09375l-1.125 0l-0.203125 -1.21875l-0.078125 0q-0.421875 0.671875 -1.171875 1.03125q-0.75 0.359375 -1.71875 0.359375q-1.65625 0 -2.484375 -0.78125q-0.828125 -0.796875 -0.828125 -2.53125l0 -5.953125l1.390625 0zm12.291748 8.125q0.359375 0 0.703125 -0.046875q0.34375 -0.0625 0.53125 -0.125l0 1.0625q-0.21875 0.109375 -0.65625 0.171875q-0.4375 0.078125 -0.78125 0.078125q-2.640625 0 -2.640625 -2.78125l0 -5.421875l-1.3125 0l0 -0.65625l1.3125 -0.578125l0.578125 -1.9375l0.796875 0l0 2.109375l2.640625 0l0 1.0625l-2.640625 0l0 5.359375q0 0.828125 0.390625 1.265625q0.390625 0.4375 1.078125 0.4375zm7.0079346 1.140625q-2.015625 0 -3.1875 -1.234375q-1.15625 -1.234375 -1.15625 -3.40625q0 -2.203125 1.078125 -3.5q1.09375 -1.296875 2.921875 -1.296875q1.703125 0 2.703125 1.125q1.0 1.125 1.0 2.96875l0 0.875l-6.28125 0q0.046875 1.59375 0.8125 2.4375q0.765625 0.828125 2.171875 0.828125q1.46875 0 2.90625 -0.625l0 1.234375q-0.734375 0.3125 -1.390625 0.453125q-0.65625 0.140625 -1.578125 0.140625zm-0.359375 -8.28125q-1.109375 0 -1.765625 0.71875q-0.640625 0.703125 -0.75 1.96875l4.75 0q0 -1.296875 -0.578125 -1.984375q-0.578125 -0.703125 -1.65625 -0.703125z" fill-rule="nonzero"></path><path fill="#cfe2f3" d="m569.80054 331.5853l143.81104 0l0 37.165375l-143.81104 0z" fill-rule="nonzero"></path><path stroke="#000000" stroke-width="2.0" stroke-linejoin="round" stroke-linecap="butt" d="m569.80054 331.5853l143.81104 0l0 37.165375l-143.81104 0z" fill-rule="nonzero"></path><path fill="#000000" d="m611.5323 350.22986q0 2.90625 -1.484375 4.578125q-1.46875 1.671875 -4.09375 1.671875q-2.671875 0 -4.140625 -1.640625q-1.453125 -1.640625 -1.453125 -4.625q0 -2.96875 1.453125 -4.59375q1.46875 -1.640625 4.171875 -1.640625q2.609375 0 4.078125 1.671875q1.46875 1.65625 1.46875 4.578125zm-9.671875 0q0 2.453125 1.046875 3.734375q1.046875 1.265625 3.046875 1.265625q2.03125 0 3.046875 -1.265625q1.03125 -1.265625 1.03125 -3.734375q0 -2.453125 -1.03125 -3.71875q-1.015625 -1.265625 -3.015625 -1.265625q-2.03125 0 -3.078125 1.28125q-1.046875 1.265625 -1.046875 3.703125zm19.5578 -6.0625l1.53125 0l-4.375 12.140625l-1.40625 0l-4.34375 -12.140625l1.5 0l2.78125 7.859375q0.484375 1.34375 0.765625 2.625q0.296875 -1.34375 0.78125 -2.671875l2.765625 -7.8125zm10.23584 8.90625q0 1.609375 -1.171875 2.515625q-1.15625 0.890625 -3.140625 0.890625q-2.15625 0 -3.328125 -0.5625l0 -1.359375q0.75 0.3125 1.625 0.5q0.890625 0.171875 1.75 0.171875q1.40625 0 2.125 -0.53125q0.71875 -0.53125 0.71875 -1.484375q0 -0.640625 -0.265625 -1.03125q-0.25 -0.40625 -0.84375 -0.75q-0.59375 -0.34375 -1.796875 -0.765625q-1.703125 -0.609375 -2.4375 -1.4375q-0.71875 -0.828125 -0.71875 -2.171875q0 -1.40625 1.046875 -2.234375q1.0625 -0.828125 2.796875 -0.828125q1.8125 0 3.328125 0.671875l-0.4375 1.21875q-1.5 -0.625 -2.921875 -0.625q-1.109375 0 -1.75 0.484375q-0.625 0.484375 -0.625 1.328125q0 0.640625 0.234375 1.046875q0.234375 0.390625 0.78125 0.734375q0.546875 0.328125 1.6875 0.734375q1.90625 0.6875 2.625 1.46875q0.71875 0.78125 0.71875 2.015625zm14.792664 3.234375l-1.515625 -3.859375l-4.859375 0l-1.5 3.859375l-1.421875 0l4.796875 -12.1875l1.1875 0l4.78125 12.1875l-1.46875 0zm-1.953125 -5.125l-1.40625 -3.765625q-0.28125 -0.71875 -0.5625 -1.75q-0.1875 0.796875 -0.53125 1.75l-1.421875 3.765625l3.921875 0zm12.527954 -3.96875l0 0.875l-1.6875 0.1875q0.234375 0.296875 0.40625 0.765625q0.1875 0.46875 0.1875 1.0625q0 1.328125 -0.90625 2.125q-0.90625 0.796875 -2.5 0.796875q-0.40625 0 -0.765625 -0.0625q-0.890625 0.46875 -0.890625 1.171875q0 0.375 0.3125 0.5625q0.3125 0.171875 1.0625 0.171875l1.609375 0q1.46875 0 2.265625 0.625q0.796875 0.609375 0.796875 1.796875q0 1.515625 -1.21875 2.296875q-1.21875 0.796875 -3.53125 0.796875q-1.78125 0 -2.75 -0.671875q-0.96875 -0.65625 -0.96875 -1.859375q0 -0.828125 0.53125 -1.4375q0.53125 -0.609375 1.484375 -0.828125q-0.34375 -0.15625 -0.578125 -0.484375q-0.234375 -0.328125 -0.234375 -0.765625q0 -0.5 0.265625 -0.875q0.265625 -0.375 0.828125 -0.71875q-0.703125 -0.296875 -1.15625 -0.984375q-0.4375 -0.703125 -0.4375 -1.609375q0 -1.484375 0.890625 -2.296875q0.90625 -0.8125 2.546875 -0.8125q0.71875 0 1.296875 0.171875l3.140625 0zm-7.25 10.625q0 0.734375 0.609375 1.109375q0.625 0.390625 1.796875 0.390625q1.734375 0 2.5625 -0.515625q0.84375 -0.515625 0.84375 -1.40625q0 -0.75 -0.46875 -1.03125q-0.453125 -0.28125 -1.71875 -0.28125l-1.640625 0q-0.9375 0 -1.46875 0.4375q-0.515625 0.453125 -0.515625 1.296875zm0.75 -7.71875q0 0.953125 0.53125 1.453125q0.546875 0.484375 1.5 0.484375q2.015625 0 2.015625 -1.953125q0 -2.0625 -2.03125 -2.0625q-0.984375 0 -1.5 0.53125q-0.515625 0.515625 -0.515625 1.546875zm12.38385 6.359375q-2.015625 0 -3.1875 -1.234375q-1.15625 -1.234375 -1.15625 -3.40625q0 -2.203125 1.078125 -3.5q1.09375 -1.296875 2.921875 -1.296875q1.703125 0 2.703125 1.125q1.0 1.125 1.0 2.96875l0 0.875l-6.28125 0q0.046875 1.59375 0.8125 2.4375q0.765625 0.828125 2.171875 0.828125q1.46875 0 2.90625 -0.625l0 1.234375q-0.734375 0.3125 -1.390625 0.453125q-0.65625 0.140625 -1.578125 0.140625zm-0.359375 -8.28125q-1.109375 0 -1.765625 0.71875q-0.640625 0.703125 -0.75 1.96875l4.75 0q0 -1.296875 -0.578125 -1.984375q-0.578125 -0.703125 -1.65625 -0.703125zm12.47168 8.109375l0 -5.890625q0 -1.109375 -0.515625 -1.65625q-0.5 -0.546875 -1.578125 -0.546875q-1.421875 0 -2.09375 0.78125q-0.65625 0.765625 -0.65625 2.546875l0 4.765625l-1.375 0l0 -9.09375l1.109375 0l0.234375 1.234375l0.0625 0q0.421875 -0.671875 1.1875 -1.03125q0.765625 -0.375 1.703125 -0.375q1.640625 0 2.46875 0.796875q0.828125 0.796875 0.828125 2.53125l0 5.9375l-1.375 0zm7.354248 -0.96875q0.359375 0 0.703125 -0.046875q0.34375 -0.0625 0.53125 -0.125l0 1.0625q-0.21875 0.109375 -0.65625 0.171875q-0.4375 0.078125 -0.78125 0.078125q-2.640625 0 -2.640625 -2.78125l0 -5.421875l-1.3125 0l0 -0.65625l1.3125 -0.578125l0.578125 -1.9375l0.796875 0l0 2.109375l2.640625 0l0 1.0625l-2.640625 0l0 5.359375q0 0.828125 0.390625 1.265625q0.390625 0.4375 1.078125 0.4375z" fill-rule="nonzero"></path><path fill="#9fc5e8" d="m372.7929 405.17303l105.82675 0l0 44.283447l-105.82675 0z" fill-rule="nonzero"></path><path stroke="#000000" stroke-width="2.0" stroke-linejoin="round" stroke-linecap="butt" d="m372.7929 405.17303l105.82675 0l0 44.283447l-105.82675 0z" fill-rule="nonzero"></path><path fill="#000000" d="m408.25134 420.67224l1.703125 0l-4.890625 13.5625l-1.5625 0l-4.859375 -13.5625l1.671875 0l3.109375 8.78125q0.546875 1.5 0.859375 2.9375q0.328125 -1.5 0.875 -3.0l3.09375 -8.71875zm9.370087 13.5625l-4.609375 -12.03125l-0.078125 0q0.140625 1.4375 0.140625 3.40625l0 8.625l-1.46875 0l0 -13.5625l2.375 0l4.296875 11.1875l0.078125 0l4.328125 -11.1875l2.359375 0l0 13.5625l-1.578125 0l0 -8.734375q0 -1.515625 0.125 -3.265625l-0.0625 0l-4.640625 12.0l-1.265625 0zm24.299103 -3.125l-2.015625 0l0 3.125l-1.46875 0l0 -3.125l-6.59375 0l0 -1.34375l6.4375 -9.171875l1.625 0l0 9.125l2.015625 0l0 1.390625zm-3.484375 -1.390625l0 -4.515625q0 -1.328125 0.09375 -3.0l-0.078125 0q-0.453125 0.890625 -0.84375 1.484375l-4.234375 6.03125l5.0625 0zm13.510956 4.515625l-8.921875 0l0 -1.328125l3.578125 -3.59375q1.625 -1.640625 2.140625 -2.34375q0.53125 -0.71875 0.78125 -1.375q0.265625 -0.671875 0.265625 -1.4375q0 -1.09375 -0.65625 -1.71875q-0.65625 -0.640625 -1.828125 -0.640625q-0.84375 0 -1.609375 0.28125q-0.75 0.265625 -1.671875 1.0l-0.8125 -1.046875q1.875 -1.5625 4.078125 -1.5625q1.90625 0 2.984375 0.984375q1.09375 0.984375 1.09375 2.625q0 1.296875 -0.71875 2.5625q-0.71875 1.25 -2.71875 3.1875l-2.96875 2.90625l0 0.078125l6.984375 0l0 1.421875z" fill-rule="nonzero"></path><path fill="#9fc5e8" d="m588.7929 405.17303l105.82678 0l0 44.283447l-105.82678 0z" fill-rule="nonzero"></path><path stroke="#000000" stroke-width="2.0" stroke-linejoin="round" stroke-linecap="butt" d="m588.7929 405.17303l105.82678 0l0 44.283447l-105.82678 0z" fill-rule="nonzero"></path><path fill="#000000" d="m624.25134 420.67224l1.703125 0l-4.890625 13.5625l-1.5625 0l-4.859375 -13.5625l1.671875 0l3.109375 8.78125q0.546875 1.5 0.859375 2.9375q0.328125 -1.5 0.875 -3.0l3.09375 -8.71875zm9.370117 13.5625l-4.609375 -12.03125l-0.078125 0q0.140625 1.4375 0.140625 3.40625l0 8.625l-1.46875 0l0 -13.5625l2.375 0l4.296875 11.1875l0.078125 0l4.328125 -11.1875l2.359375 0l0 13.5625l-1.578125 0l0 -8.734375q0 -1.515625 0.125 -3.265625l-0.0625 0l-4.640625 12.0l-1.265625 0zm24.299072 -3.125l-2.015625 0l0 3.125l-1.46875 0l0 -3.125l-6.59375 0l0 -1.34375l6.4375 -9.171875l1.625 0l0 9.125l2.015625 0l0 1.390625zm-3.484375 -1.390625l0 -4.515625q0 -1.328125 0.09375 -3.0l-0.078125 0q-0.453125 0.890625 -0.84375 1.484375l-4.234375 6.03125l5.0625 0zm13.510986 4.515625l-8.921875 0l0 -1.328125l3.578125 -3.59375q1.625 -1.640625 2.140625 -2.34375q0.53125 -0.71875 0.78125 -1.375q0.265625 -0.671875 0.265625 -1.4375q0 -1.09375 -0.65625 -1.71875q-0.65625 -0.640625 -1.828125 -0.640625q-0.84375 0 -1.609375 0.28125q-0.75 0.265625 -1.671875 1.0l-0.8125 -1.046875q1.875 -1.5625 4.078125 -1.5625q1.90625 0 2.984375 0.984375q1.09375 0.984375 1.09375 2.625q0 1.296875 -0.71875 2.5625q-0.71875 1.25 -2.71875 3.1875l-2.96875 2.90625l0 0.078125l6.984375 0l0 1.421875z" fill-rule="nonzero"></path><path fill="#000000" fill-opacity="0.0" d="m328.2196 267.11377l192.40942 205.22836" fill-rule="nonzero"></path><path stroke="#ff0000" stroke-width="8.0" stroke-linejoin="round" stroke-linecap="butt" d="m328.2196 267.11377l192.40942 205.22836" fill-rule="nonzero"></path><path fill="#000000" fill-opacity="0.0" d="m520.6317 267.11377l-192.40948 205.22836" fill-rule="nonzero"></path><path stroke="#ff0000" stroke-width="8.0" stroke-linejoin="round" stroke-linecap="butt" d="m520.6317 267.11377l-192.40948 205.22836" fill-rule="nonzero"></path></g></svg>

