<?xml version="1.0" standalone="yes"?>

<svg version="1.1" viewBox="0.0 0.0 960.0 540.0" fill="none" stroke="none" stroke-linecap="square" stroke-miterlimit="10" xmlns="http://www.w3.org/2000/svg" xmlns:xlink="http://www.w3.org/1999/xlink"><clipPath id="ge5667456f_0_433.0"><path d="m0 0l960.0 0l0 540.0l-960.0 0l0 -540.0z" clip-rule="nonzero"></path></clipPath><g clip-path="url(#ge5667456f_0_433.0)"><path fill="#ffffff" d="m0 0l960.0 0l0 540.0l-960.0 0z" fill-rule="nonzero"></path><path fill="#000000" fill-opacity="0.0" d="m32.72441 46.721786l894.55115 0l0 60.125984l-894.55115 0z" fill-rule="nonzero"></path><path fill="#000000" d="m65.41191 91.56178l-3.078125 0l0 -12.4375l-13.90625 0l0 12.4375l-3.078125 0l0 -26.40625l3.078125 0l0 11.234375l13.90625 0l0 -11.234375l3.078125 0l0 26.40625zm10.024811 0l-2.984375 0l0 -19.796875l2.984375 0l0 19.796875zm-3.25 -25.171875q0 -1.03125 0.5 -1.5q0.515625 -0.484375 1.28125 -0.484375q0.71875 0 1.234375 0.5q0.53125 0.484375 0.53125 1.484375q0 1.015625 -0.53125 1.515625q-0.515625 0.5 -1.234375 0.5q-0.765625 0 -1.28125 -0.5q-0.5 -0.5 -0.5 -1.515625zm25.910141 5.375l0 1.890625l-3.671875 0.4375q0.5 0.625 0.890625 1.65625q0.40625 1.015625 0.40625 2.296875q0 2.90625 -1.984375 4.640625q-1.984375 1.734375 -5.453125 1.734375q-0.890625 0 -1.671875 -0.140625q-1.90625 1.015625 -1.90625 2.546875q0 0.8125 0.65625 1.203125q0.671875 0.390625 2.3125 0.390625l3.5 0q3.21875 0 4.9375 1.359375q1.71875 1.34375 1.71875 3.9375q0 3.28125 -2.640625 5.0q-2.625 1.734375 -7.6875 1.734375q-3.875 0 -5.984375 -1.453125q-2.109375 -1.4375 -2.109375 -4.078125q0 -1.8125 1.15625 -3.125q1.15625 -1.3125 3.25 -1.78125q-0.75 -0.34375 -1.265625 -1.0625q-0.515625 -0.734375 -0.515625 -1.6875q0 -1.09375 0.578125 -1.90625q0.578125 -0.8125 1.828125 -1.5625q-1.546875 -0.640625 -2.515625 -2.15625q-0.953125 -1.515625 -0.953125 -3.46875q0 -3.25 1.9375 -5.0q1.953125 -1.765625 5.53125 -1.765625q1.5625 0 2.796875 0.359375l6.859375 0zm-15.796875 23.125q0 1.609375 1.359375 2.4375q1.359375 0.828125 3.875 0.828125q3.78125 0 5.59375 -1.125q1.8125 -1.125 1.8125 -3.0625q0 -1.609375 -1.0 -2.234375q-0.984375 -0.625 -3.71875 -0.625l-3.609375 0q-2.03125 0 -3.171875 0.96875q-1.140625 0.984375 -1.140625 2.8125zm1.625 -16.78125q0 2.078125 1.171875 3.140625q1.171875 1.0625 3.28125 1.0625q4.390625 0 4.390625 -4.265625q0 -4.453125 -4.453125 -4.453125q-2.109375 0 -3.25 1.140625q-1.140625 1.125 -1.140625 3.375zm31.965897 13.453125l0 -12.8125q0 -2.421875 -1.109375 -3.609375q-1.09375 -1.1875 -3.453125 -1.1875q-3.125 0 -4.5625 1.703125q-1.4375 1.6875 -1.4375 5.546875l0 10.359375l-2.984375 0l0 -28.109375l2.984375 0l0 8.5q0 1.546875 -0.140625 2.546875l0.1875 0q0.875 -1.421875 2.515625 -2.234375q1.640625 -0.828125 3.734375 -0.828125q3.625 0 5.4375 1.734375q1.828125 1.71875 1.828125 5.46875l0 12.921875l-3.0 0zm12.348373 0l-2.984375 0l0 -28.109375l2.984375 0l0 28.109375zm3.300766 -19.796875l3.21875 0l4.34375 11.28125q1.421875 3.875 1.765625 5.59375l0.140625 0q0.234375 -0.921875 0.984375 -3.15625q0.75 -2.234375 4.90625 -13.71875l3.21875 0l-8.515625 22.546875q-1.265625 3.34375 -2.953125 4.734375q-1.6875 1.40625 -4.140625 1.40625q-1.375 0 -2.703125 -0.3125l0 -2.40625q0.984375 0.21875 2.21875 0.21875q3.078125 0 4.40625 -3.46875l1.09375 -2.8125l-7.984375 -19.90625zm48.709564 19.796875l-3.28125 -8.40625l-10.59375 0l-3.25 8.40625l-3.109375 0l10.4375 -26.515625l2.59375 0l10.390625 26.515625l-3.1875 0zm-4.25 -11.171875l-3.0625 -8.171875q-0.59375 -1.5625 -1.234375 -3.8125q-0.390625 1.734375 -1.140625 3.8125l-3.109375 8.171875l8.546875 0zm15.152954 11.171875l-7.515625 -19.796875l3.21875 0l4.265625 11.734375q1.4375 4.125 1.6875 5.359375l0.15625 0q0.1875 -0.96875 1.25 -3.96875q1.0625 -3.015625 4.75 -13.125l3.203125 0l-7.515625 19.796875l-3.5 0zm26.544266 0l-0.59375 -2.8125l-0.15625 0q-1.46875 1.859375 -2.953125 2.515625q-1.46875 0.65625 -3.671875 0.65625q-2.9375 0 -4.609375 -1.515625q-1.671875 -1.515625 -1.671875 -4.3125q0 -6.0 9.59375 -6.296875l3.359375 -0.109375l0 -1.21875q0 -2.328125 -1.015625 -3.4375q-1.0 -1.125 -3.203125 -1.125q-2.46875 0 -5.59375 1.515625l-0.921875 -2.28125q1.46875 -0.796875 3.203125 -1.25q1.75 -0.453125 3.5 -0.453125q3.546875 0 5.25 1.578125q1.703125 1.5625 1.703125 5.03125l0 13.515625l-2.21875 0zm-6.78125 -2.109375q2.796875 0 4.390625 -1.53125q1.609375 -1.546875 1.609375 -4.3125l0 -1.78125l-3.0 0.125q-3.578125 0.125 -5.15625 1.109375q-1.578125 0.984375 -1.578125 3.0625q0 1.625 0.984375 2.484375q0.984375 0.84375 2.75 0.84375zm18.353882 2.109375l-2.984375 0l0 -19.796875l2.984375 0l0 19.796875zm-3.25 -25.171875q0 -1.03125 0.5 -1.5q0.515625 -0.484375 1.28125 -0.484375q0.71875 0 1.234375 0.5q0.53125 0.484375 0.53125 1.484375q0 1.015625 -0.53125 1.515625q-0.515625 0.5 -1.234375 0.5q-0.765625 0 -1.28125 -0.5q-0.5 -0.5 -0.5 -1.515625zm12.691391 25.171875l-2.984375 0l0 -28.109375l2.984375 0l0 28.109375zm18.628891 0l-0.59375 -2.8125l-0.15625 0q-1.46875 1.859375 -2.953125 2.515625q-1.46875 0.65625 -3.671875 0.65625q-2.9375 0 -4.609375 -1.515625q-1.671875 -1.515625 -1.671875 -4.3125q0 -6.0 9.59375 -6.296875l3.359375 -0.109375l0 -1.21875q0 -2.328125 -1.015625 -3.4375q-1.0 -1.125 -3.203125 -1.125q-2.46875 0 -5.59375 1.515625l-0.921875 -2.28125q1.46875 -0.796875 3.203125 -1.25q1.75 -0.453125 3.5 -0.453125q3.546875 0 5.25 1.578125q1.703125 1.5625 1.703125 5.03125l0 13.515625l-2.21875 0zm-6.78125 -2.109375q2.796875 0 4.390625 -1.53125q1.609375 -1.546875 1.609375 -4.3125l0 -1.78125l-3.0 0.125q-3.578125 0.125 -5.15625 1.109375q-1.578125 0.984375 -1.578125 3.0625q0 1.625 0.984375 2.484375q0.984375 0.84375 2.75 0.84375zm24.572632 -18.015625q3.90625 0 6.0625 2.671875q2.15625 2.65625 2.15625 7.53125q0 4.875 -2.171875 7.578125q-2.171875 2.703125 -6.046875 2.703125q-1.9375 0 -3.53125 -0.703125q-1.59375 -0.71875 -2.6875 -2.203125l-0.203125 0l-0.640625 2.546875l-2.140625 0l0 -28.109375l2.984375 0l0 6.828125q0 2.296875 -0.140625 4.125l0.140625 0q2.109375 -2.96875 6.21875 -2.96875zm-0.4375 2.515625q-3.0625 0 -4.421875 1.765625q-1.359375 1.75 -1.359375 5.921875q0 4.171875 1.390625 5.96875q1.40625 1.796875 4.46875 1.796875q2.765625 0 4.109375 -2.0q1.359375 -2.015625 1.359375 -5.796875q0 -3.875 -1.359375 -5.765625q-1.34375 -1.890625 -4.1875 -1.890625zm17.09317 17.609375l-2.984375 0l0 -28.109375l2.984375 0l0 28.109375zm14.816376 0.359375q-4.390625 0 -6.9375 -2.671875q-2.53125 -2.671875 -2.53125 -7.421875q0 -4.796875 2.359375 -7.609375q2.359375 -2.8125 6.328125 -2.8125q3.71875 0 5.890625 2.453125q2.171875 2.4375 2.171875 6.453125l0 1.890625l-13.640625 0q0.09375 3.484375 1.765625 5.296875q1.671875 1.796875 4.703125 1.796875q3.1875 0 6.3125 -1.328125l0 2.671875q-1.578125 0.6875 -3.0 0.984375q-1.421875 0.296875 -3.421875 0.296875zm-0.8125 -18.015625q-2.390625 0 -3.8125 1.5625q-1.40625 1.546875 -1.671875 4.296875l10.359375 0q0 -2.84375 -1.265625 -4.34375q-1.265625 -1.515625 -3.609375 -1.515625zm44.170227 17.65625l-3.5 0l-14.4375 -22.171875l-0.15625 0q0.296875 3.90625 0.296875 7.15625l0 15.015625l-2.84375 0l0 -26.40625l3.46875 0l14.40625 22.0625l0.140625 0q-0.03125 -0.484375 -0.15625 -3.125q-0.125 -2.65625 -0.09375 -3.78125l0 -15.15625l2.875 0l0 26.40625zm15.423157 0.359375q-4.390625 0 -6.9375 -2.671875q-2.53125 -2.671875 -2.53125 -7.421875q0 -4.796875 2.359375 -7.609375q2.359375 -2.8125 6.328125 -2.8125q3.71875 0 5.890625 2.453125q2.171875 2.4375 2.171875 6.453125l0 1.890625l-13.640625 0q0.09375 3.484375 1.765625 5.296875q1.671875 1.796875 4.703125 1.796875q3.1875 0 6.3125 -1.328125l0 2.671875q-1.578125 0.6875 -3.0 0.984375q-1.421875 0.296875 -3.421875 0.296875zm-0.8125 -18.015625q-2.390625 0 -3.8125 1.5625q-1.40625 1.546875 -1.671875 4.296875l10.359375 0q0 -2.84375 -1.265625 -4.34375q-1.265625 -1.515625 -3.609375 -1.515625zm16.208038 -2.140625l0 12.84375q0 2.421875 1.09375 3.609375q1.109375 1.1875 3.453125 1.1875q3.109375 0 4.546875 -1.6875q1.4375 -1.703125 1.4375 -5.546875l0 -10.40625l3.0 0l0 19.796875l-2.46875 0l-0.4375 -2.65625l-0.171875 0q-0.921875 1.46875 -2.5625 2.25q-1.625 0.765625 -3.71875 0.765625q-3.609375 0 -5.40625 -1.71875q-1.796875 -1.71875 -1.796875 -5.484375l0 -12.953125l3.03125 0zm26.489014 17.6875q0.796875 0 1.53125 -0.109375q0.75 -0.125 1.171875 -0.25l0 2.28125q-0.484375 0.234375 -1.4375 0.390625q-0.9375 0.15625 -1.703125 0.15625q-5.75 0 -5.75 -6.046875l0 -11.78125l-2.828125 0l0 -1.453125l2.828125 -1.234375l1.265625 -4.234375l1.734375 0l0 4.59375l5.75 0l0 2.328125l-5.75 0l0 11.65625q0 1.78125 0.84375 2.75q0.859375 0.953125 2.34375 0.953125zm15.818481 -18.046875q1.3125 0 2.359375 0.203125l-0.40625 2.796875q-1.234375 -0.28125 -2.171875 -0.28125q-2.40625 0 -4.125 1.953125q-1.703125 1.953125 -1.703125 4.859375l0 10.625l-2.984375 0l0 -19.796875l2.46875 0l0.34375 3.65625l0.140625 0q1.109375 -1.921875 2.65625 -2.96875q1.5625 -1.046875 3.421875 -1.046875zm23.284332 10.234375q0 4.84375 -2.4375 7.5625q-2.4375 2.71875 -6.734375 2.71875q-2.65625 0 -4.71875 -1.234375q-2.0625 -1.25 -3.1875 -3.578125q-1.109375 -2.34375 -1.109375 -5.46875q0 -4.84375 2.421875 -7.53125q2.421875 -2.703125 6.71875 -2.703125q4.15625 0 6.59375 2.765625q2.453125 2.75 2.453125 7.46875zm-15.078125 0q0 3.796875 1.515625 5.78125q1.515625 1.984375 4.46875 1.984375q2.9375 0 4.453125 -1.96875q1.53125 -1.984375 1.53125 -5.796875q0 -3.765625 -1.53125 -5.71875q-1.515625 -1.96875 -4.5 -1.96875q-2.9375 0 -4.4375 1.9375q-1.5 1.921875 -1.5 5.75zm34.09323 9.921875l0 -12.8125q0 -2.421875 -1.109375 -3.609375q-1.09375 -1.1875 -3.453125 -1.1875q-3.109375 0 -4.5625 1.6875q-1.4375 1.671875 -1.4375 5.53125l0 10.390625l-2.984375 0l0 -19.796875l2.4375 0l0.484375 2.703125l0.140625 0q0.921875 -1.453125 2.578125 -2.25q1.671875 -0.8125 3.703125 -0.8125q3.578125 0 5.390625 1.71875q1.8125 1.71875 1.8125 5.515625l0 12.921875l-3.0 0zm36.107452 0l-3.28125 -8.40625l-10.59375 0l-3.25 8.40625l-3.109375 0l10.4375 -26.515625l2.59375 0l10.390625 26.515625l-3.1875 0zm-4.25 -11.171875l-3.0625 -8.171875q-0.59375 -1.5625 -1.234375 -3.8125q-0.390625 1.734375 -1.140625 3.8125l-3.109375 8.171875l8.546875 0zm28.01233 -7.546875q0 4.015625 -2.734375 6.171875q-2.734375 2.15625 -7.828125 2.15625l-3.109375 0l0 10.390625l-3.078125 0l0 -26.40625l6.859375 0q9.890625 0 9.890625 7.6875zm-13.671875 5.6875l2.765625 0q4.078125 0 5.90625 -1.3125q1.828125 -1.3125 1.828125 -4.234375q0 -2.609375 -1.71875 -3.890625q-1.71875 -1.28125 -5.34375 -1.28125l-3.4375 0l0 10.71875zm19.395325 13.03125l0 -26.40625l3.078125 0l0 26.40625l-3.078125 0zm32.432068 -5.40625q0 2.765625 -2.0625 4.265625q-2.0625 1.5 -5.78125 1.5q-3.9375 0 -6.140625 -1.25l0 -2.78125q1.421875 0.734375 3.0625 1.15625q1.640625 0.40625 3.15625 0.40625q2.34375 0 3.609375 -0.75q1.265625 -0.75 1.265625 -2.296875q0 -1.15625 -1.0 -1.96875q-1.0 -0.828125 -3.921875 -1.9375q-2.75 -1.03125 -3.921875 -1.796875q-1.171875 -0.78125 -1.734375 -1.75q-0.5625 -0.984375 -0.5625 -2.328125q0 -2.421875 1.96875 -3.8125q1.96875 -1.40625 5.390625 -1.40625q3.203125 0 6.25 1.296875l-1.0625 2.4375q-2.984375 -1.234375 -5.40625 -1.234375q-2.125 0 -3.21875 0.671875q-1.078125 0.671875 -1.078125 1.84375q0 0.796875 0.40625 1.359375q0.40625 0.5625 1.3125 1.0625q0.90625 0.5 3.46875 1.46875q3.53125 1.28125 4.765625 2.578125q1.234375 1.296875 1.234375 3.265625zm13.401184 5.765625q-4.390625 0 -6.9375 -2.671875q-2.53125 -2.671875 -2.53125 -7.421875q0 -4.796875 2.359375 -7.609375q2.359375 -2.8125 6.328125 -2.8125q3.71875 0 5.890625 2.453125q2.171875 2.4375 2.171875 6.453125l0 1.890625l-13.640625 0q0.09375 3.484375 1.765625 5.296875q1.671875 1.796875 4.703125 1.796875q3.1875 0 6.3125 -1.328125l0 2.671875q-1.578125 0.6875 -3.0 0.984375q-1.421875 0.296875 -3.421875 0.296875zm-0.8125 -18.015625q-2.390625 0 -3.8125 1.5625q-1.40625 1.546875 -1.671875 4.296875l10.359375 0q0 -2.84375 -1.265625 -4.34375q-1.265625 -1.515625 -3.609375 -1.515625zm22.426758 -2.5q1.3125 0 2.359375 0.203125l-0.40625 2.796875q-1.234375 -0.28125 -2.171875 -0.28125q-2.40625 0 -4.125 1.953125q-1.703125 1.953125 -1.703125 4.859375l0 10.625l-2.984375 0l0 -19.796875l2.46875 0l0.34375 3.65625l0.140625 0q1.109375 -1.921875 2.65625 -2.96875q1.5625 -1.046875 3.421875 -1.046875zm10.534363 20.15625l-7.515625 -19.796875l3.21875 0l4.265625 11.734375q1.4375 4.125 1.6875 5.359375l0.15625 0q0.1875 -0.96875 1.25 -3.96875q1.0625 -3.015625 4.75 -13.125l3.203125 0l-7.515625 19.796875l-3.5 0zm22.73175 0.359375q-4.390625 0 -6.9375 -2.671875q-2.53125 -2.671875 -2.53125 -7.421875q0 -4.796875 2.359375 -7.609375q2.359375 -2.8125 6.328125 -2.8125q3.71875 0 5.890625 2.453125q2.171875 2.4375 2.171875 6.453125l0 1.890625l-13.640625 0q0.09375 3.484375 1.765625 5.296875q1.671875 1.796875 4.703125 1.796875q3.1875 0 6.3125 -1.328125l0 2.671875q-1.578125 0.6875 -3.0 0.984375q-1.421875 0.296875 -3.421875 0.296875zm-0.8125 -18.015625q-2.390625 0 -3.8125 1.5625q-1.40625 1.546875 -1.671875 4.296875l10.359375 0q0 -2.84375 -1.265625 -4.34375q-1.265625 -1.515625 -3.609375 -1.515625zm22.426758 -2.5q1.3125 0 2.359375 0.203125l-0.40625 2.796875q-1.234375 -0.28125 -2.171875 -0.28125q-2.40625 0 -4.125 1.953125q-1.703125 1.953125 -1.703125 4.859375l0 10.625l-2.984375 0l0 -19.796875l2.46875 0l0.34375 3.65625l0.140625 0q1.109375 -1.921875 2.65625 -2.96875q1.5625 -1.046875 3.421875 -1.046875z" fill-rule="nonzero"></path><path fill="#efefef" d="m337.5328 249.96326l174.36221 0l0 242.4252l-174.36221 0z" fill-rule="nonzero"></path><path stroke="#000000" stroke-width="2.0" stroke-linejoin="round" stroke-linecap="butt" d="m337.5328 249.96326l174.36221 0l0 242.4252l-174.36221 0z" fill-rule="nonzero"></path><path fill="#efefef" d="m551.3307 249.96326l174.36224 0l0 242.4252l-174.36224 0z" fill-rule="nonzero"></path><path stroke="#000000" stroke-width="2.0" stroke-linejoin="round" stroke-linecap="butt" d="m551.3307 249.96326l174.36224 0l0 242.4252l-174.36224 0z" fill-rule="nonzero"></path><path fill="#efefef" d="m765.1286 249.96326l174.36224 0l0 242.4252l-174.36224 0z" fill-rule="nonzero"></path><path stroke="#000000" stroke-width="2.0" stroke-linejoin="round" stroke-linecap="butt" d="m765.1286 249.96326l174.36224 0l0 242.4252l-174.36224 0z" fill-rule="nonzero"></path><path fill="#000000" fill-opacity="0.0" d="m337.53198 208.27667l174.36221 0l0 37.16536l-174.36221 0z" fill-rule="nonzero"></path><path fill="#000000" d="m354.20386 222.85292q-2.234375 0 -3.53125 1.484375q-1.296875 1.484375 -1.296875 4.078125q0 2.65625 1.25 4.109375q1.25 1.453125 3.5625 1.453125q1.421875 0 3.234375 -0.5l0 1.375q-1.40625 0.53125 -3.484375 0.53125q-2.984375 0 -4.625 -1.8125q-1.625 -1.828125 -1.625 -5.171875q0 -2.09375 0.78125 -3.671875q0.796875 -1.578125 2.265625 -2.4375q1.484375 -0.859375 3.484375 -0.859375q2.140625 0 3.734375 0.78125l-0.671875 1.359375q-1.53125 -0.71875 -3.078125 -0.71875zm14.503845 7.25q0 2.484375 -1.25 3.890625q-1.25 1.390625 -3.453125 1.390625q-1.375 0 -2.4375 -0.640625q-1.046875 -0.640625 -1.625 -1.828125q-0.578125 -1.203125 -0.578125 -2.8125q0 -2.484375 1.234375 -3.875q1.25 -1.390625 3.46875 -1.390625q2.125 0 3.375 1.421875q1.265625 1.421875 1.265625 3.84375zm-7.75 0q0 1.953125 0.78125 2.96875q0.78125 1.015625 2.296875 1.015625q1.515625 0 2.296875 -1.015625q0.78125 -1.015625 0.78125 -2.96875q0 -1.9375 -0.78125 -2.9375q-0.78125 -1.015625 -2.3125 -1.015625q-1.515625 0 -2.296875 1.0q-0.765625 0.984375 -0.765625 2.953125zm17.205963 5.09375l0 -6.578125q0 -1.25 -0.578125 -1.859375q-0.5625 -0.609375 -1.765625 -0.609375q-1.59375 0 -2.34375 0.875q-0.734375 0.859375 -0.734375 2.84375l0 5.328125l-1.53125 0l0 -10.171875l1.25 0l0.25 1.390625l0.0625 0q0.484375 -0.75 1.328125 -1.15625q0.859375 -0.421875 1.90625 -0.421875q1.84375 0 2.765625 0.890625q0.921875 0.890625 0.921875 2.828125l0 6.640625l-1.53125 0zm7.7787476 -1.078125q0.40625 0 0.78125 -0.0625q0.390625 -0.0625 0.609375 -0.125l0 1.171875q-0.25 0.125 -0.75 0.203125q-0.484375 0.078125 -0.875 0.078125q-2.9375 0 -2.9375 -3.109375l0 -6.046875l-1.46875 0l0 -0.75l1.46875 -0.640625l0.640625 -2.171875l0.890625 0l0 2.359375l2.953125 0l0 1.203125l-2.953125 0l0 5.984375q0 0.921875 0.4375 1.421875q0.4375 0.484375 1.203125 0.484375zm7.9299316 -9.28125q0.6875 0 1.21875 0.109375l-0.203125 1.4375q-0.640625 -0.140625 -1.125 -0.140625q-1.234375 0 -2.109375 1.0q-0.875 1.0 -0.875 2.5l0 5.453125l-1.53125 0l0 -10.171875l1.265625 0l0.171875 1.890625l0.078125 0q0.5625 -1.0 1.359375 -1.53125q0.796875 -0.546875 1.75 -0.546875zm11.756165 5.265625q0 2.484375 -1.25 3.890625q-1.25 1.390625 -3.453125 1.390625q-1.375 0 -2.4375 -0.640625q-1.046875 -0.640625 -1.625 -1.828125q-0.578125 -1.203125 -0.578125 -2.8125q0 -2.484375 1.234375 -3.875q1.25 -1.390625 3.46875 -1.390625q2.125 0 3.375 1.421875q1.265625 1.421875 1.265625 3.84375zm-7.75 0q0 1.953125 0.78125 2.96875q0.78125 1.015625 2.296875 1.015625q1.515625 0 2.296875 -1.015625q0.78125 -1.015625 0.78125 -2.96875q0 -1.9375 -0.78125 -2.9375q-0.78125 -1.015625 -2.3125 -1.015625q-1.515625 0 -2.296875 1.0q-0.765625 0.984375 -0.765625 2.953125zm11.784058 5.09375l-1.53125 0l0 -14.4375l1.53125 0l0 14.4375zm4.7187195 0l-1.53125 0l0 -14.4375l1.53125 0l0 14.4375zm7.4687195 0.1875q-2.25 0 -3.5625 -1.375q-1.296875 -1.375 -1.296875 -3.8125q0 -2.453125 1.203125 -3.90625q1.21875 -1.453125 3.265625 -1.453125q1.90625 0 3.015625 1.265625q1.125 1.25 1.125 3.3125l0 0.96875l-7.015625 0q0.046875 1.796875 0.90625 2.734375q0.859375 0.921875 2.421875 0.921875q1.640625 0 3.25 -0.6875l0 1.375q-0.8125 0.34375 -1.546875 0.5q-0.734375 0.15625 -1.765625 0.15625zm-0.40625 -9.25q-1.234375 0 -1.96875 0.796875q-0.71875 0.796875 -0.84375 2.203125l5.3125 0q0 -1.453125 -0.65625 -2.21875q-0.640625 -0.78125 -1.84375 -0.78125zm11.216827 -1.296875q0.6875 0 1.21875 0.109375l-0.203125 1.4375q-0.640625 -0.140625 -1.125 -0.140625q-1.234375 0 -2.109375 1.0q-0.875 1.0 -0.875 2.5l0 5.453125l-1.53125 0l0 -10.171875l1.265625 0l0.171875 1.890625l0.078125 0q0.5625 -1.0 1.359375 -1.53125q0.796875 -0.546875 1.75 -0.546875zm12.836792 10.359375l-1.515625 0l0 -9.671875q0 -1.203125 0.078125 -2.28125q-0.1875 0.203125 -0.4375 0.421875q-0.234375 0.203125 -2.203125 1.796875l-0.8125 -1.0625l3.578125 -2.765625l1.3125 0l0 13.5625z" fill-rule="nonzero"></path><path fill="#000000" fill-opacity="0.0" d="m319.81073 188.50735l637.3858 0" fill-rule="nonzero"></path><path stroke="#000000" stroke-width="2.0" stroke-linejoin="round" stroke-linecap="butt" d="m319.81073 188.50735l637.3858 0" fill-rule="nonzero"></path><path fill="#000000" fill-opacity="0.0" d="m460.43753 189.46014l0 60.0" fill-rule="nonzero"></path><path stroke="#000000" stroke-width="2.0" stroke-linejoin="round" stroke-linecap="butt" d="m460.43753 189.46014l0 60.0" fill-rule="nonzero"></path><path fill="#000000" fill-opacity="0.0" d="m679.9526 189.46014l0 60.0" fill-rule="nonzero"></path><path stroke="#000000" stroke-width="2.0" stroke-linejoin="round" stroke-linecap="butt" d="m679.9526 189.46014l0 60.0" fill-rule="nonzero"></path><path fill="#000000" fill-opacity="0.0" d="m889.56036 189.46014l0 60.0" fill-rule="nonzero"></path><path stroke="#000000" stroke-width="2.0" stroke-linejoin="round" stroke-linecap="butt" d="m889.56036 189.46014l0 60.0" fill-rule="nonzero"></path><path fill="#000000" fill-opacity="0.0" d="m638.5099 128.02695l0 60.0" fill-rule="nonzero"></path><path stroke="#000000" stroke-width="2.0" stroke-linejoin="round" stroke-linecap="butt" d="m638.5099 128.02695l0 60.0" fill-rule="nonzero"></path><path fill="#92c68c" d="m353.80057 387.5853l143.81104 0l0 37.165375l-143.81104 0z" fill-rule="nonzero"></path><path stroke="#000000" stroke-width="2.0" stroke-linejoin="round" stroke-linecap="butt" d="m353.80057 387.5853l143.81104 0l0 37.165375l-143.81104 0z" fill-rule="nonzero"></path><path fill="#000000" d="m372.69434 412.30798l0 -5.890625q0 -1.109375 -0.515625 -1.65625q-0.5 -0.546875 -1.578125 -0.546875q-1.421875 0 -2.09375 0.78125q-0.65625 0.765625 -0.65625 2.546875l0 4.765625l-1.375 0l0 -9.09375l1.109375 0l0.234375 1.234375l0.0625 0q0.421875 -0.671875 1.1875 -1.03125q0.765625 -0.375 1.703125 -0.375q1.640625 0 2.46875 0.796875q0.828125 0.796875 0.828125 2.53125l0 5.9375l-1.375 0zm8.244873 0.171875q-2.015625 0 -3.1875 -1.234375q-1.15625 -1.234375 -1.15625 -3.40625q0 -2.203125 1.078125 -3.5q1.09375 -1.296875 2.921875 -1.296875q1.703125 0 2.703125 1.125q1.0 1.125 1.0 2.96875l0 0.875l-6.28125 0q0.046875 1.59375 0.8125 2.4375q0.765625 0.828125 2.171875 0.828125q1.46875 0 2.90625 -0.625l0 1.234375q-0.734375 0.3125 -1.390625 0.453125q-0.65625 0.140625 -1.578125 0.140625zm-0.359375 -8.28125q-1.109375 0 -1.765625 0.71875q-0.640625 0.703125 -0.75 1.96875l4.75 0q0 -1.296875 -0.578125 -1.984375q-0.578125 -0.703125 -1.65625 -0.703125zm7.5341797 -0.984375l0 5.890625q0 1.125 0.5 1.671875q0.515625 0.546875 1.59375 0.546875q1.4375 0 2.09375 -0.78125q0.65625 -0.78125 0.65625 -2.546875l0 -4.78125l1.375 0l0 9.09375l-1.125 0l-0.203125 -1.21875l-0.078125 0q-0.421875 0.671875 -1.171875 1.03125q-0.75 0.359375 -1.71875 0.359375q-1.65625 0 -2.484375 -0.78125q-0.828125 -0.796875 -0.828125 -2.53125l0 -5.953125l1.390625 0zm12.291748 8.125q0.359375 0 0.703125 -0.046875q0.34375 -0.0625 0.53125 -0.125l0 1.0625q-0.21875 0.109375 -0.65625 0.171875q-0.4375 0.078125 -0.78125 0.078125q-2.640625 0 -2.640625 -2.78125l0 -5.421875l-1.3125 0l0 -0.65625l1.3125 -0.578125l0.578125 -1.9375l0.796875 0l0 2.109375l2.640625 0l0 1.0625l-2.640625 0l0 5.359375q0 0.828125 0.390625 1.265625q0.390625 0.4375 1.078125 0.4375zm7.3204346 -8.296875q0.609375 0 1.09375 0.09375l-0.1875 1.28125q-0.578125 -0.125 -1.0 -0.125q-1.109375 0 -1.890625 0.90625q-0.78125 0.890625 -0.78125 2.234375l0 4.875l-1.375 0l0 -9.09375l1.125 0l0.15625 1.6875l0.078125 0q0.5 -0.890625 1.203125 -1.375q0.71875 -0.484375 1.578125 -0.484375zm10.776489 4.703125q0 2.234375 -1.1249695 3.484375q-1.109375 1.25 -3.09375 1.25q-1.21875 0 -2.171875 -0.578125q-0.9375 -0.578125 -1.453125 -1.640625q-0.515625 -1.078125 -0.515625 -2.515625q0 -2.21875 1.109375 -3.453125q1.109375 -1.25 3.09375 -1.25q1.90625 0 3.03125 1.28125q1.1249695 1.265625 1.1249695 3.421875zm-6.9374695 0q0 1.75 0.703125 2.671875q0.703125 0.90625 2.046875 0.90625q1.359375 0 2.0625 -0.90625q0.703125 -0.921875 0.703125 -2.671875q0 -1.734375 -0.703125 -2.625q-0.703125 -0.90625 -2.078125 -0.90625q-1.34375 0 -2.046875 0.890625q-0.6875 0.890625 -0.6875 2.640625zm15.778748 4.5625l0 -5.890625q0 -1.109375 -0.515625 -1.65625q-0.5 -0.546875 -1.578125 -0.546875q-1.421875 0 -2.09375 0.78125q-0.65625 0.765625 -0.65625 2.546875l0 4.765625l-1.375 0l0 -9.09375l1.109375 0l0.234375 1.234375l0.0625 0q0.421875 -0.671875 1.1875 -1.03125q0.765625 -0.375 1.703125 -0.375q1.640625 0 2.46875 0.796875q0.828125 0.796875 0.828125 2.53125l0 5.9375l-1.375 0zm3.6510925 -3.921875l0 -1.265625l4.0625 0l0 1.265625l-4.0625 0zm12.200806 1.4375q0 1.265625 -0.953125 1.96875q-0.9375 0.6875 -2.640625 0.6875q-1.8125 0 -2.828125 -0.578125l0 -1.28125q0.65625 0.328125 1.40625 0.53125q0.75 0.1875 1.453125 0.1875q1.078125 0 1.65625 -0.34375q0.578125 -0.34375 0.578125 -1.046875q0 -0.53125 -0.46875 -0.90625q-0.453125 -0.390625 -1.78125 -0.90625q-1.28125 -0.46875 -1.8125 -0.8125q-0.53125 -0.359375 -0.796875 -0.8125q-0.265625 -0.453125 -0.265625 -1.0625q0 -1.125 0.90625 -1.765625q0.90625 -0.640625 2.484375 -0.640625q1.46875 0 2.875 0.59375l-0.484375 1.125q-1.375 -0.5625 -2.484375 -0.5625q-0.984375 0 -1.484375 0.3125q-0.5 0.296875 -0.5 0.84375q0 0.359375 0.1875 0.625q0.1875 0.25 0.59375 0.484375q0.421875 0.234375 1.609375 0.671875q1.609375 0.59375 2.171875 1.1875q0.578125 0.59375 0.578125 1.5zm6.2351685 2.65625q-2.015625 0 -3.1875 -1.234375q-1.15625 -1.234375 -1.15625 -3.40625q0 -2.203125 1.078125 -3.5q1.09375 -1.296875 2.921875 -1.296875q1.703125 0 2.703125 1.125q1.0 1.125 1.0 2.96875l0 0.875l-6.28125 0q0.046875 1.59375 0.8125 2.4375q0.765625 0.828125 2.171875 0.828125q1.46875 0 2.90625 -0.625l0 1.234375q-0.734375 0.3125 -1.390625 0.453125q-0.65625 0.140625 -1.578125 0.140625zm-0.359375 -8.28125q-1.109375 0 -1.765625 0.71875q-0.640625 0.703125 -0.75 1.96875l4.75 0q0 -1.296875 -0.578125 -1.984375q-0.578125 -0.703125 -1.65625 -0.703125zm10.393555 -1.15625q0.609375 0 1.09375 0.09375l-0.1875 1.28125q-0.578125 -0.125 -1.0 -0.125q-1.109375 0 -1.890625 0.90625q-0.78125 0.890625 -0.78125 2.234375l0 4.875l-1.375 0l0 -9.09375l1.125 0l0.15625 1.6875l0.078125 0q0.5 -0.890625 1.203125 -1.375q0.71875 -0.484375 1.578125 -0.484375zm4.917145 9.265625l-3.453125 -9.09375l1.484375 0l1.953125 5.390625q0.65625 1.890625 0.78125 2.453125l0.0625 0q0.09375 -0.4375 0.578125 -1.8125q0.484375 -1.390625 2.1875 -6.03125l1.46875 0l-3.453125 9.09375l-1.609375 0zm10.52475 0.171875q-2.015625 0 -3.1875 -1.234375q-1.15625 -1.234375 -1.15625 -3.40625q0 -2.203125 1.078125 -3.5q1.09375 -1.296875 2.921875 -1.296875q1.703125 0 2.703125 1.125q1.0 1.125 1.0 2.96875l0 0.875l-6.28125 0q0.046875 1.59375 0.8125 2.4375q0.765625 0.828125 2.171875 0.828125q1.46875 0 2.90625 -0.625l0 1.234375q-0.734375 0.3125 -1.390625 0.453125q-0.65625 0.140625 -1.578125 0.140625zm-0.359375 -8.28125q-1.109375 0 -1.765625 0.71875q-0.640625 0.703125 -0.75 1.96875l4.75 0q0 -1.296875 -0.578125 -1.984375q-0.578125 -0.703125 -1.65625 -0.703125zm10.393555 -1.15625q0.609375 0 1.09375 0.09375l-0.1875 1.28125q-0.578125 -0.125 -1.0 -0.125q-1.109375 0 -1.890625 0.90625q-0.78125 0.890625 -0.78125 2.234375l0 4.875l-1.375 0l0 -9.09375l1.125 0l0.15625 1.6875l0.078125 0q0.5 -0.890625 1.203125 -1.375q0.71875 -0.484375 1.578125 -0.484375z" fill-rule="nonzero"></path><path fill="#000000" fill-opacity="0.0" d="m553.532 208.27667l174.36224 0l0 37.16536l-174.36224 0z" fill-rule="nonzero"></path><path fill="#000000" d="m570.20386 222.85292q-2.234375 0 -3.53125 1.484375q-1.296875 1.484375 -1.296875 4.078125q0 2.65625 1.25 4.109375q1.25 1.453125 3.5625 1.453125q1.421875 0 3.234375 -0.5l0 1.375q-1.40625 0.53125 -3.484375 0.53125q-2.984375 0 -4.625 -1.8125q-1.625 -1.828125 -1.625 -5.171875q0 -2.09375 0.78125 -3.671875q0.796875 -1.578125 2.265625 -2.4375q1.484375 -0.859375 3.484375 -0.859375q2.140625 0 3.734375 0.78125l-0.671875 1.359375q-1.53125 -0.71875 -3.078125 -0.71875zm14.503845 7.25q0 2.484375 -1.25 3.890625q-1.25 1.390625 -3.453125 1.390625q-1.375 0 -2.4375 -0.640625q-1.046875 -0.640625 -1.625 -1.828125q-0.578125 -1.203125 -0.578125 -2.8125q0 -2.484375 1.234375 -3.875q1.25 -1.390625 3.46875 -1.390625q2.125 0 3.375 1.421875q1.265625 1.421875 1.265625 3.84375zm-7.75 0q0 1.953125 0.78125 2.96875q0.78125 1.015625 2.296875 1.015625q1.515625 0 2.296875 -1.015625q0.78125 -1.015625 0.78125 -2.96875q0 -1.9375 -0.78125 -2.9375q-0.78125 -1.015625 -2.3125 -1.015625q-1.515625 0 -2.296875 1.0q-0.765625 0.984375 -0.765625 2.953125zm17.205933 5.09375l0 -6.578125q0 -1.25 -0.578125 -1.859375q-0.5625 -0.609375 -1.765625 -0.609375q-1.59375 0 -2.34375 0.875q-0.734375 0.859375 -0.734375 2.84375l0 5.328125l-1.53125 0l0 -10.171875l1.25 0l0.25 1.390625l0.0625 0q0.484375 -0.75 1.328125 -1.15625q0.859375 -0.421875 1.90625 -0.421875q1.84375 0 2.765625 0.890625q0.921875 0.890625 0.921875 2.828125l0 6.640625l-1.53125 0zm7.7788086 -1.078125q0.40625 0 0.78125 -0.0625q0.390625 -0.0625 0.609375 -0.125l0 1.171875q-0.25 0.125 -0.75 0.203125q-0.484375 0.078125 -0.875 0.078125q-2.9375 0 -2.9375 -3.109375l0 -6.046875l-1.46875 0l0 -0.75l1.46875 -0.640625l0.640625 -2.171875l0.890625 0l0 2.359375l2.953125 0l0 1.203125l-2.953125 0l0 5.984375q0 0.921875 0.4375 1.421875q0.4375 0.484375 1.203125 0.484375zm7.9298706 -9.28125q0.6875 0 1.21875 0.109375l-0.203125 1.4375q-0.640625 -0.140625 -1.125 -0.140625q-1.234375 0 -2.109375 1.0q-0.875 1.0 -0.875 2.5l0 5.453125l-1.53125 0l0 -10.171875l1.265625 0l0.171875 1.890625l0.078125 0q0.5625 -1.0 1.359375 -1.53125q0.796875 -0.546875 1.75 -0.546875zm11.756165 5.265625q0 2.484375 -1.25 3.890625q-1.25 1.390625 -3.453125 1.390625q-1.375 0 -2.4375 -0.640625q-1.046875 -0.640625 -1.625 -1.828125q-0.578125 -1.203125 -0.578125 -2.8125q0 -2.484375 1.234375 -3.875q1.25 -1.390625 3.46875 -1.390625q2.125 0 3.375 1.421875q1.265625 1.421875 1.265625 3.84375zm-7.75 0q0 1.953125 0.78125 2.96875q0.78125 1.015625 2.296875 1.015625q1.515625 0 2.296875 -1.015625q0.78125 -1.015625 0.78125 -2.96875q0 -1.9375 -0.78125 -2.9375q-0.78125 -1.015625 -2.3125 -1.015625q-1.515625 0 -2.296875 1.0q-0.765625 0.984375 -0.765625 2.953125zm11.784119 5.09375l-1.53125 0l0 -14.4375l1.53125 0l0 14.4375zm4.718689 0l-1.53125 0l0 -14.4375l1.53125 0l0 14.4375zm7.46875 0.1875q-2.25 0 -3.5625 -1.375q-1.296875 -1.375 -1.296875 -3.8125q0 -2.453125 1.203125 -3.90625q1.21875 -1.453125 3.265625 -1.453125q1.90625 0 3.015625 1.265625q1.125 1.25 1.125 3.3125l0 0.96875l-7.015625 0q0.046875 1.796875 0.90625 2.734375q0.859375 0.921875 2.421875 0.921875q1.640625 0 3.25 -0.6875l0 1.375q-0.8125 0.34375 -1.546875 0.5q-0.734375 0.15625 -1.765625 0.15625zm-0.40625 -9.25q-1.234375 0 -1.96875 0.796875q-0.71875 0.796875 -0.84375 2.203125l5.3125 0q0 -1.453125 -0.65625 -2.21875q-0.640625 -0.78125 -1.84375 -0.78125zm11.216797 -1.296875q0.6875 0 1.21875 0.109375l-0.203125 1.4375q-0.640625 -0.140625 -1.125 -0.140625q-1.234375 0 -2.109375 1.0q-0.875 1.0 -0.875 2.5l0 5.453125l-1.53125 0l0 -10.171875l1.265625 0l0.171875 1.890625l0.078125 0q0.5625 -1.0 1.359375 -1.53125q0.796875 -0.546875 1.75 -0.546875zm16.039917 10.359375l-8.921875 0l0 -1.328125l3.578125 -3.59375q1.625 -1.640625 2.140625 -2.34375q0.53125 -0.71875 0.78125 -1.375q0.265625 -0.671875 0.265625 -1.4375q0 -1.09375 -0.65625 -1.71875q-0.65625 -0.640625 -1.828125 -0.640625q-0.84375 0 -1.609375 0.28125q-0.75 0.265625 -1.671875 1.0l-0.8125 -1.046875q1.875 -1.5625 4.078125 -1.5625q1.90625 0 2.984375 0.984375q1.09375 0.984375 1.09375 2.625q0 1.296875 -0.71875 2.5625q-0.71875 1.25 -2.71875 3.1875l-2.96875 2.90625l0 0.078125l6.984375 0l0 1.421875z" fill-rule="nonzero"></path><path fill="#000000" fill-opacity="0.0" d="m769.532 208.27667l174.36224 0l0 37.16536l-174.36224 0z" fill-rule="nonzero"></path><path fill="#000000" d="m786.20386 222.85292q-2.234375 0 -3.53125 1.484375q-1.296875 1.484375 -1.296875 4.078125q0 2.65625 1.25 4.109375q1.25 1.453125 3.5625 1.453125q1.421875 0 3.234375 -0.5l0 1.375q-1.40625 0.53125 -3.484375 0.53125q-2.984375 0 -4.625 -1.8125q-1.625 -1.828125 -1.625 -5.171875q0 -2.09375 0.78125 -3.671875q0.796875 -1.578125 2.265625 -2.4375q1.484375 -0.859375 3.484375 -0.859375q2.140625 0 3.734375 0.78125l-0.671875 1.359375q-1.53125 -0.71875 -3.078125 -0.71875zm14.503845 7.25q0 2.484375 -1.25 3.890625q-1.25 1.390625 -3.453125 1.390625q-1.375 0 -2.4375 -0.640625q-1.046875 -0.640625 -1.625 -1.828125q-0.578125 -1.203125 -0.578125 -2.8125q0 -2.484375 1.234375 -3.875q1.25 -1.390625 3.46875 -1.390625q2.125 0 3.375 1.421875q1.265625 1.421875 1.265625 3.84375zm-7.75 0q0 1.953125 0.78125 2.96875q0.78125 1.015625 2.296875 1.015625q1.515625 0 2.296875 -1.015625q0.78125 -1.015625 0.78125 -2.96875q0 -1.9375 -0.78125 -2.9375q-0.78125 -1.015625 -2.3125 -1.015625q-1.515625 0 -2.296875 1.0q-0.765625 0.984375 -0.765625 2.953125zm17.205933 5.09375l0 -6.578125q0 -1.25 -0.578125 -1.859375q-0.5625 -0.609375 -1.765625 -0.609375q-1.59375 0 -2.34375 0.875q-0.734375 0.859375 -0.734375 2.84375l0 5.328125l-1.53125 0l0 -10.171875l1.25 0l0.25 1.390625l0.0625 0q0.484375 -0.75 1.328125 -1.15625q0.859375 -0.421875 1.90625 -0.421875q1.84375 0 2.765625 0.890625q0.921875 0.890625 0.921875 2.828125l0 6.640625l-1.53125 0zm7.7788086 -1.078125q0.40625 0 0.78125 -0.0625q0.390625 -0.0625 0.609375 -0.125l0 1.171875q-0.25 0.125 -0.75 0.203125q-0.484375 0.078125 -0.875 0.078125q-2.9375 0 -2.9375 -3.109375l0 -6.046875l-1.46875 0l0 -0.75l1.46875 -0.640625l0.640625 -2.171875l0.890625 0l0 2.359375l2.953125 0l0 1.203125l-2.953125 0l0 5.984375q0 0.921875 0.4375 1.421875q0.4375 0.484375 1.203125 0.484375zm7.9298706 -9.28125q0.6875 0 1.21875 0.109375l-0.203125 1.4375q-0.640625 -0.140625 -1.125 -0.140625q-1.234375 0 -2.109375 1.0q-0.875 1.0 -0.875 2.5l0 5.453125l-1.53125 0l0 -10.171875l1.265625 0l0.171875 1.890625l0.078125 0q0.5625 -1.0 1.359375 -1.53125q0.796875 -0.546875 1.75 -0.546875zm11.756165 5.265625q0 2.484375 -1.25 3.890625q-1.25 1.390625 -3.453125 1.390625q-1.375 0 -2.4375 -0.640625q-1.046875 -0.640625 -1.625 -1.828125q-0.578125 -1.203125 -0.578125 -2.8125q0 -2.484375 1.234375 -3.875q1.25 -1.390625 3.46875 -1.390625q2.125 0 3.375 1.421875q1.265625 1.421875 1.265625 3.84375zm-7.75 0q0 1.953125 0.78125 2.96875q0.78125 1.015625 2.296875 1.015625q1.515625 0 2.296875 -1.015625q0.78125 -1.015625 0.78125 -2.96875q0 -1.9375 -0.78125 -2.9375q-0.78125 -1.015625 -2.3125 -1.015625q-1.515625 0 -2.296875 1.0q-0.765625 0.984375 -0.765625 2.953125zm11.784119 5.09375l-1.53125 0l0 -14.4375l1.53125 0l0 14.4375zm4.718689 0l-1.53125 0l0 -14.4375l1.53125 0l0 14.4375zm7.46875 0.1875q-2.25 0 -3.5625 -1.375q-1.296875 -1.375 -1.296875 -3.8125q0 -2.453125 1.203125 -3.90625q1.21875 -1.453125 3.265625 -1.453125q1.90625 0 3.015625 1.265625q1.125 1.25 1.125 3.3125l0 0.96875l-7.015625 0q0.046875 1.796875 0.90625 2.734375q0.859375 0.921875 2.421875 0.921875q1.640625 0 3.25 -0.6875l0 1.375q-0.8125 0.34375 -1.546875 0.5q-0.734375 0.15625 -1.765625 0.15625zm-0.40625 -9.25q-1.234375 0 -1.96875 0.796875q-0.71875 0.796875 -0.84375 2.203125l5.3125 0q0 -1.453125 -0.65625 -2.21875q-0.640625 -0.78125 -1.84375 -0.78125zm11.216797 -1.296875q0.6875 0 1.21875 0.109375l-0.203125 1.4375q-0.640625 -0.140625 -1.125 -0.140625q-1.234375 0 -2.109375 1.0q-0.875 1.0 -0.875 2.5l0 5.453125l-1.53125 0l0 -10.171875l1.265625 0l0.171875 1.890625l0.078125 0q0.5625 -1.0 1.359375 -1.53125q0.796875 -0.546875 1.75 -0.546875zm15.524292 -0.015625q0 1.296875 -0.734375 2.125q-0.71875 0.828125 -2.046875 1.109375l0 0.078125q1.625 0.203125 2.40625 1.03125q0.796875 0.828125 0.796875 2.1875q0 1.9375 -1.34375 2.984375q-1.34375 1.046875 -3.828125 1.046875q-1.078125 0 -1.96875 -0.171875q-0.890625 -0.15625 -1.734375 -0.5625l0 -1.46875q0.875 0.4375 1.875 0.671875q1.0 0.21875 1.890625 0.21875q3.515625 0 3.515625 -2.75q0 -2.46875 -3.875 -2.46875l-1.34375 0l0 -1.328125l1.359375 0q1.578125 0 2.5 -0.703125q0.9375 -0.703125 0.9375 -1.9375q0 -1.0 -0.6875 -1.5625q-0.671875 -0.5625 -1.84375 -0.5625q-0.890625 0 -1.6875 0.25q-0.78125 0.234375 -1.796875 0.875l-0.765625 -1.03125q0.828125 -0.65625 1.921875 -1.03125q1.09375 -0.390625 2.296875 -0.390625q1.96875 0 3.0625 0.90625q1.09375 0.90625 1.09375 2.484375z" fill-rule="nonzero"></path><path fill="#000000" fill-opacity="0.0" d="m10.727035 141.32545l309.0709 0l0 134.48817l-309.0709 0z" fill-rule="nonzero"></path><path fill="#000000" d="m35.08641 173.36546l-1.984375 0l0 -8.0625l-9.031252 0l0 8.0625l-1.984375 0l0 -17.140625l1.984375 0l0 7.296875l9.031252 0l0 -7.296875l1.984375 0l0 17.140625zm15.472656 0l-2.125 -5.453125l-6.875 0l-2.109375 5.453125l-2.015625 0l6.78125 -17.203125l1.671875 0l6.734375 17.203125l-2.0625 0zm-2.75 -7.25l-2.0 -5.296875q-0.375 -1.015625 -0.796875 -2.484375q-0.25 1.125 -0.734375 2.484375l-2.015625 5.296875l5.546875 0zm12.859375 7.484375q-1.265625 0 -2.296875 -0.453125q-1.03125 -0.46875 -1.734375 -1.4375l-0.140625 0q0.140625 1.125 0.140625 2.140625l0 5.28125l-1.953125 0l0 -18.609375l1.578125 0l0.28125 1.75l0.09375 0q0.75 -1.046875 1.734375 -1.515625q1.0 -0.46875 2.296875 -0.46875q2.546875 0 3.9375 1.75q1.390625 1.734375 1.390625 4.890625q0 3.171875 -1.421875 4.921875q-1.40625 1.75 -3.90625 1.75zm-0.28125 -11.65625q-1.96875 0 -2.859375 1.09375q-0.875 1.078125 -0.890625 3.453125l0 0.4375q0 2.703125 0.890625 3.875q0.90625 1.171875 2.90625 1.171875q1.65625 0 2.59375 -1.34375q0.953125 -1.359375 0.953125 -3.71875q0 -2.40625 -0.953125 -3.6875q-0.9375 -1.28125 -2.640625 -1.28125zm14.863281 -1.65625q0.859375 0 1.53125 0.140625l-0.265625 1.796875q-0.796875 -0.171875 -1.40625 -0.171875q-1.5625 0 -2.671875 1.265625q-1.09375 1.265625 -1.09375 3.15625l0 6.890625l-1.953125 0l0 -12.84375l1.609375 0l0.21875 2.375l0.09375 0q0.71875 -1.25 1.71875 -1.921875q1.015625 -0.6875 2.21875 -0.6875zm15.03125 6.640625q0 3.140625 -1.59375 4.90625q-1.578125 1.765625 -4.359375 1.765625q-1.734375 0 -3.078125 -0.8125q-1.328125 -0.8125 -2.0625 -2.3125q-0.71875 -1.515625 -0.71875 -3.546875q0 -3.140625 1.5625 -4.890625q1.578125 -1.75 4.375 -1.75q2.6875 0 4.28125 1.796875q1.59375 1.78125 1.59375 4.84375zm-9.796875 0q0 2.46875 0.984375 3.765625q0.984375 1.28125 2.90625 1.28125q1.90625 0 2.890625 -1.28125q1.0 -1.296875 1.0 -3.765625q0 -2.453125 -1.0 -3.71875q-0.984375 -1.265625 -2.921875 -1.265625q-1.90625 0 -2.890625 1.25q-0.96875 1.25 -0.96875 3.734375zm16.292969 -0.140625l-4.46875 -6.265625l2.21875 0l3.390625 4.921875l3.375 -4.921875l2.1875 0l-4.46875 6.265625l4.703125 6.578125l-2.203125 0l-3.59375 -5.203125l-3.640625 5.203125l-2.203125 0l4.703125 -6.578125zm7.4492188 -6.265625l2.078125 0l2.8125 7.328125q0.921875 2.5 1.15625 3.609375l0.09375 0q0.140625 -0.59375 0.625 -2.03125q0.5 -1.453125 3.1875 -8.90625l2.09375 0l-5.53125 14.625q-0.8125 2.171875 -1.90625 3.078125q-1.09375 0.90625 -2.6875 0.90625q-0.890625 0 -1.765625 -0.203125l0 -1.546875q0.640625 0.140625 1.4375 0.140625q2.015625 0 2.859375 -2.25l0.71875 -1.828125l-5.171875 -12.921875zm28.265625 12.84375l-0.390625 -1.828125l-0.09375 0q-0.96875 1.203125 -1.921875 1.640625q-0.953125 0.421875 -2.375 0.421875q-1.921875 0 -3.0 -0.984375q-1.078125 -0.984375 -1.078125 -2.796875q0 -3.890625 6.21875 -4.078125l2.171875 -0.078125l0 -0.796875q0 -1.515625 -0.65625 -2.234375q-0.640625 -0.71875 -2.0625 -0.71875q-1.609375 0 -3.640625 0.984375l-0.59375 -1.484375q0.953125 -0.515625 2.078125 -0.8125q1.125 -0.296875 2.265625 -0.296875q2.296875 0 3.40625 1.03125q1.109375 1.015625 1.109375 3.265625l0 8.765625l-1.4375 0zm-4.40625 -1.375q1.828125 0 2.859375 -0.984375q1.03125 -1.0 1.03125 -2.796875l0 -1.15625l-1.9375 0.078125q-2.328125 0.078125 -3.359375 0.71875q-1.015625 0.640625 -1.015625 1.984375q0 1.0625 0.640625 1.609375q0.640625 0.546875 1.78125 0.546875zm11.675781 -11.46875l0 8.328125q0 1.578125 0.71875 2.359375q0.71875 0.765625 2.234375 0.765625q2.015625 0 2.9375 -1.09375q0.9375 -1.109375 0.9375 -3.609375l0 -6.75l1.953125 0l0 12.84375l-1.609375 0l-0.28125 -1.71875l-0.109375 0q-0.59375 0.9375 -1.65625 1.453125q-1.0625 0.5 -2.421875 0.5q-2.34375 0 -3.515625 -1.109375q-1.15625 -1.125 -1.15625 -3.5625l0 -8.40625l1.96875 0zm17.058594 11.46875q0.515625 0 0.984375 -0.078125q0.484375 -0.078125 0.765625 -0.15625l0 1.484375q-0.3125 0.15625 -0.9375 0.25q-0.609375 0.109375 -1.09375 0.109375q-3.734375 0 -3.734375 -3.921875l0 -7.640625l-1.84375 0l0 -0.9375l1.84375 -0.8125l0.828125 -2.75l1.125 0l0 2.984375l3.71875 0l0 1.515625l-3.71875 0l0 7.546875q0 1.171875 0.546875 1.796875q0.546875 0.609375 1.515625 0.609375zm15.410156 -5.0625q0 3.140625 -1.59375 4.90625q-1.578125 1.765625 -4.359375 1.765625q-1.734375 0 -3.078125 -0.8125q-1.328125 -0.8125 -2.0625 -2.3125q-0.71875 -1.515625 -0.71875 -3.546875q0 -3.140625 1.5625 -4.890625q1.578125 -1.75 4.375 -1.75q2.6875 0 4.28125 1.796875q1.59375 1.78125 1.59375 4.84375zm-9.796875 0q0 2.46875 0.984375 3.765625q0.984375 1.28125 2.90625 1.28125q1.90625 0 2.890625 -1.28125q1.0 -1.296875 1.0 -3.765625q0 -2.453125 -1.0 -3.71875q-0.984375 -1.265625 -2.921875 -1.265625q-1.90625 0 -2.890625 1.25q-0.96875 1.25 -0.96875 3.734375zm29.574219 6.4375l0 -8.359375q0 -1.53125 -0.65625 -2.296875q-0.65625 -0.765625 -2.046875 -0.765625q-1.8125 0 -2.6875 1.046875q-0.859375 1.03125 -0.859375 3.203125l0 7.171875l-1.9375 0l0 -8.359375q0 -1.53125 -0.65625 -2.296875q-0.65625 -0.765625 -2.0625 -0.765625q-1.828125 0 -2.671875 1.09375q-0.84375 1.09375 -0.84375 3.59375l0 6.734375l-1.953125 0l0 -12.84375l1.578125 0l0.328125 1.75l0.09375 0q0.546875 -0.9375 1.546875 -1.453125q1.0 -0.53125 2.25 -0.53125q3.0 0 3.9375 2.171875l0.09375 0q0.5625 -1.0 1.65625 -1.578125q1.09375 -0.59375 2.484375 -0.59375q2.1875 0 3.265625 1.125q1.078125 1.109375 1.078125 3.578125l0 8.375l-1.9375 0zm13.855469 0l-0.390625 -1.828125l-0.09375 0q-0.96875 1.203125 -1.921875 1.640625q-0.953125 0.421875 -2.375 0.421875q-1.921875 0 -3.0 -0.984375q-1.078125 -0.984375 -1.078125 -2.796875q0 -3.890625 6.21875 -4.078125l2.171875 -0.078125l0 -0.796875q0 -1.515625 -0.65625 -2.234375q-0.640625 -0.71875 -2.0625 -0.71875q-1.609375 0 -3.640625 0.984375l-0.59375 -1.484375q0.953125 -0.515625 2.078125 -0.8125q1.125 -0.296875 2.265625 -0.296875q2.296875 0 3.40625 1.03125q1.109375 1.015625 1.109375 3.265625l0 8.765625l-1.4375 0zm-4.40625 -1.375q1.828125 0 2.859375 -0.984375q1.03125 -1.0 1.03125 -2.796875l0 -1.15625l-1.9375 0.078125q-2.328125 0.078125 -3.359375 0.71875q-1.015625 0.640625 -1.015625 1.984375q0 1.0625 0.640625 1.609375q0.640625 0.546875 1.78125 0.546875zm14.003906 0q0.515625 0 0.984375 -0.078125q0.484375 -0.078125 0.765625 -0.15625l0 1.484375q-0.3125 0.15625 -0.9375 0.25q-0.609375 0.109375 -1.09375 0.109375q-3.734375 0 -3.734375 -3.921875l0 -7.640625l-1.84375 0l0 -0.9375l1.84375 -0.8125l0.828125 -2.75l1.125 0l0 2.984375l3.71875 0l0 1.515625l-3.71875 0l0 7.546875q0 1.171875 0.546875 1.796875q0.546875 0.609375 1.515625 0.609375zm6.2695312 1.375l-1.953125 0l0 -12.84375l1.953125 0l0 12.84375zm-2.109375 -16.328125q0 -0.671875 0.328125 -0.96875q0.328125 -0.3125 0.8125 -0.3125q0.46875 0 0.8125 0.3125q0.34375 0.3125 0.34375 0.96875q0 0.65625 -0.34375 0.984375q-0.34375 0.3125 -0.8125 0.3125q-0.484375 0 -0.8125 -0.3125q-0.328125 -0.328125 -0.328125 -0.984375zm11.3671875 16.5625q-2.796875 0 -4.328125 -1.71875q-1.53125 -1.71875 -1.53125 -4.859375q0 -3.21875 1.546875 -4.96875q1.5625 -1.765625 4.4375 -1.765625q0.921875 0 1.84375 0.203125q0.9375 0.1875 1.453125 0.46875l-0.59375 1.640625q-0.640625 -0.25 -1.40625 -0.421875q-0.765625 -0.171875 -1.34375 -0.171875q-3.921875 0 -3.921875 5.0q0 2.359375 0.953125 3.625q0.96875 1.265625 2.84375 1.265625q1.59375 0 3.28125 -0.6875l0 1.71875q-1.28125 0.671875 -3.234375 0.671875zm14.191406 -0.234375l-0.390625 -1.828125l-0.09375 0q-0.96875 1.203125 -1.921875 1.640625q-0.953125 0.421875 -2.375 0.421875q-1.921875 0 -3.0 -0.984375q-1.078125 -0.984375 -1.078125 -2.796875q0 -3.890625 6.21875 -4.078125l2.171875 -0.078125l0 -0.796875q0 -1.515625 -0.65625 -2.234375q-0.640625 -0.71875 -2.0625 -0.71875q-1.609375 0 -3.640625 0.984375l-0.59375 -1.484375q0.953125 -0.515625 2.078125 -0.8125q1.125 -0.296875 2.265625 -0.296875q2.296875 0 3.40625 1.03125q1.109375 1.015625 1.109375 3.265625l0 8.765625l-1.4375 0zm-4.40625 -1.375q1.828125 0 2.859375 -0.984375q1.03125 -1.0 1.03125 -2.796875l0 -1.15625l-1.9375 0.078125q-2.328125 0.078125 -3.359375 0.71875q-1.015625 0.640625 -1.015625 1.984375q0 1.0625 0.640625 1.609375q0.640625 0.546875 1.78125 0.546875zm11.800781 1.375l-1.953125 0l0 -18.234375l1.953125 0l0 18.234375zm6.0702972 0l-1.953125 0l0 -18.234375l1.953125 0l0 18.234375zm2.0859375 -12.84375l2.078125 0l2.8125 7.328125q0.921875 2.5 1.15625 3.609375l0.09375 0q0.140625 -0.59375 0.625 -2.03125q0.5 -1.453125 3.1875 -8.90625l2.09375 0l-5.53125 14.625q-0.8125 2.171875 -1.90625 3.078125q-1.09375 0.90625 -2.6875 0.90625q-0.890625 0 -1.765625 -0.203125l0 -1.546875q0.640625 0.140625 1.4375 0.140625q2.015625 0 2.859375 -2.25l0.71875 -1.828125l-5.171875 -12.921875z" fill-rule="nonzero"></path><path fill="#000000" d="m27.648909 195.28734q0.859375 0 1.53125 0.140625l-0.265625 1.796875q-0.796875 -0.171875 -1.40625 -0.171875q-1.5625 0 -2.671875 1.265625q-1.09375 1.265625 -1.09375 3.15625l0 6.890625l-1.953125 0l0 -12.84375l1.609375 0l0.21875 2.375l0.09375 0q0.71875 -1.25 1.71875 -1.921875q1.015625 -0.6875 2.21875 -0.6875zm9.359377 13.3125q-2.84375 0 -4.5 -1.734375q-1.6406269 -1.734375 -1.6406269 -4.8125q0 -3.109375 1.5312519 -4.9375q1.53125 -1.828125 4.109375 -1.828125q2.421875 0 3.828125 1.59375q1.40625 1.578125 1.40625 4.1875l0 1.21875l-8.859375 0q0.0625 2.265625 1.140625 3.4375q1.09375 1.171875 3.0625 1.171875q2.078125 0 4.09375 -0.859375l0 1.734375q-1.03125 0.4375 -1.953125 0.625q-0.90625 0.203125 -2.21875 0.203125zm-0.515625 -11.6875q-1.546875 0 -2.46875 1.015625q-0.921875 1.0 -1.09375 2.78125l6.71875 0q0 -1.84375 -0.828125 -2.8125q-0.8125 -0.984375 -2.328125 -0.984375zm14.417969 -1.625q0.859375 0 1.53125 0.140625l-0.265625 1.796875q-0.796875 -0.171875 -1.40625 -0.171875q-1.5625 0 -2.671875 1.265625q-1.09375 1.265625 -1.09375 3.15625l0 6.890625l-1.953125 0l0 -12.84375l1.609375 0l0.21875 2.375l0.09375 0q0.71875 -1.25 1.71875 -1.921875q1.015625 -0.6875 2.21875 -0.6875zm15.03125 6.640625q0 3.140625 -1.59375 4.90625q-1.578125 1.765625 -4.359375 1.765625q-1.734375 0 -3.078125 -0.8125q-1.328125 -0.8125 -2.0625 -2.3125q-0.71875 -1.515625 -0.71875 -3.546875q0 -3.140625 1.5625 -4.890625q1.578125 -1.75 4.375 -1.75q2.6875 0 4.28125 1.796875q1.59375 1.78125 1.59375 4.84375zm-9.796875 0q0 2.46875 0.984375 3.765625q0.984375 1.28125 2.90625 1.28125q1.90625 0 2.890625 -1.28125q1.0 -1.296875 1.0 -3.765625q0 -2.453125 -1.0 -3.71875q-0.984375 -1.265625 -2.921875 -1.265625q-1.90625 0 -2.890625 1.25q-0.96875 1.25 -0.96875 3.734375zm15.027344 -6.40625l0 8.328125q0 1.578125 0.71875 2.359375q0.71875 0.765625 2.234375 0.765625q2.015625 0 2.9375 -1.09375q0.9375 -1.109375 0.9375 -3.609375l0 -6.75l1.953125 0l0 12.84375l-1.609375 0l-0.28125 -1.71875l-0.109375 0q-0.59375 0.9375 -1.65625 1.453125q-1.0625 0.5 -2.421875 0.5q-2.34375 0 -3.515625 -1.109375q-1.15625 -1.125 -1.15625 -3.5625l0 -8.40625l1.96875 0zm17.058594 11.46875q0.515625 0 0.984375 -0.078125q0.484375 -0.078125 0.765625 -0.15625l0 1.484375q-0.3125 0.15625 -0.9375 0.25q-0.609375 0.109375 -1.09375 0.109375q-3.734375 0 -3.734375 -3.921875l0 -7.640625l-1.84375 0l0 -0.9375l1.84375 -0.8125l0.828125 -2.75l1.125 0l0 2.984375l3.71875 0l0 1.515625l-3.71875 0l0 7.546875q0 1.171875 0.546875 1.796875q0.546875 0.609375 1.515625 0.609375zm9.738281 1.609375q-2.84375 0 -4.5 -1.734375q-1.640625 -1.734375 -1.640625 -4.8125q0 -3.109375 1.53125 -4.9375q1.53125 -1.828125 4.109375 -1.828125q2.421875 0 3.828125 1.59375q1.40625 1.578125 1.40625 4.1875l0 1.21875l-8.859375 0q0.0625 2.265625 1.140625 3.4375q1.09375 1.171875 3.0625 1.171875q2.078125 0 4.09375 -0.859375l0 1.734375q-1.03125 0.4375 -1.953125 0.625q-0.90625 0.203125 -2.21875 0.203125zm-0.515625 -11.6875q-1.546875 0 -2.46875 1.015625q-0.921875 1.0 -1.09375 2.78125l6.71875 0q0 -1.84375 -0.828125 -2.8125q-0.8125 -0.984375 -2.328125 -0.984375zm16.839844 7.953125q0 1.78125 -1.34375 2.765625q-1.328125 0.96875 -3.734375 0.96875q-2.5625 0 -3.984375 -0.8125l0 -1.796875q0.921875 0.46875 1.984375 0.734375q1.0625 0.265625 2.046875 0.265625q1.515625 0 2.328125 -0.484375q0.828125 -0.484375 0.828125 -1.484375q0 -0.75 -0.65625 -1.28125q-0.640625 -0.53125 -2.53125 -1.265625q-1.78125 -0.65625 -2.546875 -1.15625q-0.75 -0.5 -1.125 -1.125q-0.359375 -0.640625 -0.359375 -1.515625q0 -1.578125 1.265625 -2.484375q1.28125 -0.90625 3.515625 -0.90625q2.0625 0 4.046875 0.84375l-0.6875 1.578125q-1.9375 -0.796875 -3.5 -0.796875q-1.390625 0 -2.09375 0.4375q-0.703125 0.4375 -0.703125 1.1875q0 0.515625 0.265625 0.890625q0.265625 0.359375 0.84375 0.6875q0.59375 0.328125 2.25 0.953125q2.296875 0.828125 3.09375 1.671875q0.796875 0.84375 0.796875 2.125zm15.261719 -9.578125q0.859375 0 1.53125 0.140625l-0.265625 1.796875q-0.796875 -0.171875 -1.40625 -0.171875q-1.5625 0 -2.671875 1.265625q-1.09375 1.265625 -1.09375 3.15625l0 6.890625l-1.953125 0l0 -12.84375l1.609375 0l0.21875 2.375l0.09375 0q0.71875 -1.25 1.71875 -1.921875q1.015625 -0.6875 2.21875 -0.6875zm9.359375 13.3125q-2.84375 0 -4.5 -1.734375q-1.640625 -1.734375 -1.640625 -4.8125q0 -3.109375 1.53125 -4.9375q1.53125 -1.828125 4.109375 -1.828125q2.421875 0 3.828125 1.59375q1.40625 1.578125 1.40625 4.1875l0 1.21875l-8.859375 0q0.0625 2.265625 1.140625 3.4375q1.09375 1.171875 3.0625 1.171875q2.078125 0 4.09375 -0.859375l0 1.734375q-1.03125 0.4375 -1.953125 0.625q-0.90625 0.203125 -2.21875 0.203125zm-0.515625 -11.6875q-1.546875 0 -2.46875 1.015625q-0.921875 1.0 -1.09375 2.78125l6.71875 0q0 -1.84375 -0.828125 -2.8125q-0.8125 -0.984375 -2.328125 -0.984375zm13.417969 10.0625q1.9375 0 2.828125 -1.046875q0.890625 -1.046875 0.953125 -3.515625l0 -0.4375q0 -2.6875 -0.921875 -3.875q-0.90625 -1.1875 -2.890625 -1.1875q-1.703125 0 -2.625 1.328125q-0.90625 1.328125 -0.90625 3.765625q0 2.421875 0.890625 3.703125q0.90625 1.265625 2.671875 1.265625zm-0.296875 1.625q-2.484375 0 -3.890625 -1.75q-1.390625 -1.75 -1.390625 -4.875q0 -3.15625 1.40625 -4.921875q1.40625 -1.765625 3.921875 -1.765625q2.640625 0 4.046875 1.984375l0.109375 0l0.28125 -1.75l1.53125 0l0 18.609375l-1.9375 0l0 -5.5q0 -1.171875 0.125 -1.984375l-0.15625 0q-1.34375 1.953125 -4.046875 1.953125zm11.972656 -13.078125l0 8.328125q0 1.578125 0.71875 2.359375q0.71875 0.765625 2.234375 0.765625q2.015625 0 2.9375 -1.09375q0.9375 -1.109375 0.9375 -3.609375l0 -6.75l1.953125 0l0 12.84375l-1.609375 0l-0.28125 -1.71875l-0.109375 0q-0.59375 0.9375 -1.65625 1.453125q-1.0625 0.5 -2.421875 0.5q-2.34375 0 -3.515625 -1.109375q-1.15625 -1.125 -1.15625 -3.5625l0 -8.40625l1.96875 0zm18.324219 13.078125q-2.84375 0 -4.5 -1.734375q-1.640625 -1.734375 -1.640625 -4.8125q0 -3.109375 1.53125 -4.9375q1.53125 -1.828125 4.109375 -1.828125q2.421875 0 3.828125 1.59375q1.40625 1.578125 1.40625 4.1875l0 1.21875l-8.859375 0q0.0625 2.265625 1.140625 3.4375q1.09375 1.171875 3.0625 1.171875q2.078125 0 4.09375 -0.859375l0 1.734375q-1.03125 0.4375 -1.953125 0.625q-0.90625 0.203125 -2.21875 0.203125zm-0.515625 -11.6875q-1.546875 0 -2.46875 1.015625q-0.921875 1.0 -1.09375 2.78125l6.71875 0q0 -1.84375 -0.828125 -2.8125q-0.8125 -0.984375 -2.328125 -0.984375zm16.839844 7.953125q0 1.78125 -1.34375 2.765625q-1.328125 0.96875 -3.734375 0.96875q-2.5625 0 -3.984375 -0.8125l0 -1.796875q0.921875 0.46875 1.984375 0.734375q1.0625 0.265625 2.046875 0.265625q1.515625 0 2.328125 -0.484375q0.828125 -0.484375 0.828125 -1.484375q0 -0.75 -0.65625 -1.28125q-0.640625 -0.53125 -2.53125 -1.265625q-1.78125 -0.65625 -2.546875 -1.15625q-0.75 -0.5 -1.125 -1.125q-0.359375 -0.640625 -0.359375 -1.515625q0 -1.578125 1.265625 -2.484375q1.28125 -0.90625 3.515625 -0.90625q2.0625 0 4.046875 0.84375l-0.6875 1.578125q-1.9375 -0.796875 -3.5 -0.796875q-1.390625 0 -2.09375 0.4375q-0.703125 0.4375 -0.703125 1.1875q0 0.515625 0.265625 0.890625q0.265625 0.359375 0.84375 0.6875q0.59375 0.328125 2.25 0.953125q2.296875 0.828125 3.09375 1.671875q0.796875 0.84375 0.796875 2.125zm7.3242188 2.125q0.515625 0 0.984375 -0.078125q0.484375 -0.078125 0.765625 -0.15625l0 1.484375q-0.3125 0.15625 -0.9375 0.25q-0.609375 0.109375 -1.09375 0.109375q-3.734375 0 -3.734375 -3.921875l0 -7.640625l-1.84375 0l0 -0.9375l1.84375 -0.8125l0.828125 -2.75l1.125 0l0 2.984375l3.71875 0l0 1.515625l-3.71875 0l0 7.546875q0 1.171875 0.546875 1.796875q0.546875 0.609375 1.515625 0.609375zm12.597656 -2.125q0 1.78125 -1.34375 2.765625q-1.328125 0.96875 -3.734375 0.96875q-2.5625 0 -3.984375 -0.8125l0 -1.796875q0.921875 0.46875 1.984375 0.734375q1.0625 0.265625 2.046875 0.265625q1.515625 0 2.328125 -0.484375q0.828125 -0.484375 0.828125 -1.484375q0 -0.75 -0.65625 -1.28125q-0.640625 -0.53125 -2.53125 -1.265625q-1.78125 -0.65625 -2.546875 -1.15625q-0.75 -0.5 -1.125 -1.125q-0.359375 -0.640625 -0.359375 -1.515625q0 -1.578125 1.265625 -2.484375q1.28125 -0.90625 3.515625 -0.90625q2.0625 0 4.046875 0.84375l-0.6875 1.578125q-1.9375 -0.796875 -3.5 -0.796875q-1.390625 0 -2.09375 0.4375q-0.703125 0.4375 -0.703125 1.1875q0 0.515625 0.265625 0.890625q0.265625 0.359375 0.84375 0.6875q0.59375 0.328125 2.25 0.953125q2.296875 0.828125 3.09375 1.671875q0.796875 0.84375 0.796875 2.125zm17.308594 3.5l-0.390625 -1.828125l-0.09375 0q-0.96875 1.203125 -1.921875 1.640625q-0.953125 0.421875 -2.375 0.421875q-1.921875 0 -3.0 -0.984375q-1.078125 -0.984375 -1.078125 -2.796875q0 -3.890625 6.21875 -4.078125l2.171875 -0.078125l0 -0.796875q0 -1.515625 -0.65625 -2.234375q-0.640625 -0.71875 -2.0625 -0.71875q-1.609375 0 -3.640625 0.984375l-0.59375 -1.484375q0.953125 -0.515625 2.078125 -0.8125q1.125 -0.296875 2.265625 -0.296875q2.296875 0 3.40625 1.03125q1.109375 1.015625 1.109375 3.265625l0 8.765625l-1.4375 0zm-4.40625 -1.375q1.828125 0 2.859375 -0.984375q1.03125 -1.0 1.03125 -2.796875l0 -1.15625l-1.9375 0.078125q-2.328125 0.078125 -3.359375 0.71875q-1.015625 0.640625 -1.015625 1.984375q0 1.0625 0.640625 1.609375q0.640625 0.546875 1.78125 0.546875zm20.332031 1.375l-2.34375 -7.53125q-0.234375 -0.703125 -0.84375 -3.140625l-0.09375 0q-0.46875 2.046875 -0.8125 3.15625l-2.421875 7.515625l-2.25 0l-3.515625 -12.84375l2.046875 0q1.234375 4.84375 1.890625 7.375q0.65625 2.53125 0.75 3.40625l0.09375 0q0.125 -0.671875 0.40625 -1.734375q0.296875 -1.0625 0.5 -1.671875l2.359375 -7.375l2.109375 0l2.296875 7.375q0.65625 2.015625 0.890625 3.375l0.09375 0q0.046875 -0.421875 0.25 -1.296875q0.203125 -0.875 2.4375 -9.453125l2.0156097 0l-3.5468597 12.84375l-2.3125 0zm16.089828 0l-0.390625 -1.828125l-0.09375 0q-0.96875 1.203125 -1.921875 1.640625q-0.953125 0.421875 -2.375 0.421875q-1.921875 0 -3.0 -0.984375q-1.078125 -0.984375 -1.078125 -2.796875q0 -3.890625 6.21875 -4.078125l2.171875 -0.078125l0 -0.796875q0 -1.515625 -0.65625 -2.234375q-0.640625 -0.71875 -2.0625 -0.71875q-1.609375 0 -3.640625 0.984375l-0.59375 -1.484375q0.953125 -0.515625 2.078125 -0.8125q1.125 -0.296875 2.265625 -0.296875q2.296875 0 3.40625 1.03125q1.109375 1.015625 1.109375 3.265625l0 8.765625l-1.4375 0zm-4.40625 -1.375q1.828125 0 2.859375 -0.984375q1.03125 -1.0 1.03125 -2.796875l0 -1.15625l-1.9375 0.078125q-2.328125 0.078125 -3.359375 0.71875q-1.015625 0.640625 -1.015625 1.984375q0 1.0625 0.640625 1.609375q0.640625 0.546875 1.78125 0.546875zm7.8164062 -11.46875l2.078125 0l2.8125 7.328125q0.921875 2.5 1.15625 3.609375l0.09375 0q0.140625 -0.59375 0.625 -2.03125q0.5 -1.453125 3.1875 -8.90625l2.09375 0l-5.53125 14.625q-0.8125 2.171875 -1.90625 3.078125q-1.09375 0.90625 -2.6875 0.90625q-0.890625 0 -1.765625 -0.203125l0 -1.546875q0.640625 0.140625 1.4375 0.140625q2.015625 0 2.859375 -2.25l0.71875 -1.828125l-5.171875 -12.921875z" fill-rule="nonzero"></path><path fill="#000000" d="m27.586409 232.03734l-3.28125 0l0 11.328125l-1.9375 0l0 -11.328125l-2.296875 0l0 -0.890625l2.296875 -0.703125l0 -0.703125q0 -4.734375 4.140625 -4.734375q1.015625 0 2.390625 0.40625l-0.515625 1.5625q-1.125 -0.375 -1.921875 -0.375q-1.09375 0 -1.625 0.734375q-0.53125 0.734375 -0.53125 2.359375l0 0.828125l3.28125 0l0 1.515625zm8.195314 -1.75q0.859375 0 1.53125 0.140625l-0.265625 1.796875q-0.796875 -0.171875 -1.40625 -0.171875q-1.5625 0 -2.671875 1.265625q-1.0937519 1.265625 -1.0937519 3.15625l0 6.890625l-1.953125 0l0 -12.84375l1.609375 0l0.21875 2.375l0.09375 0q0.7187519 -1.25 1.7187519 -1.921875q1.015625 -0.6875 2.21875 -0.6875zm15.03125 6.640625q0 3.140625 -1.59375 4.90625q-1.578125 1.765625 -4.359375 1.765625q-1.734375 0 -3.078125 -0.8125q-1.328125 -0.8125 -2.0625 -2.3125q-0.71875 -1.515625 -0.71875 -3.546875q0 -3.140625 1.5625 -4.890625q1.578125 -1.75 4.375 -1.75q2.6875 0 4.28125 1.796875q1.59375 1.78125 1.59375 4.84375zm-9.796875 0q0 2.46875 0.984375 3.765625q0.984375 1.28125 2.90625 1.28125q1.90625 0 2.890625 -1.28125q1.0 -1.296875 1.0 -3.765625q0 -2.453125 -1.0 -3.71875q-0.984375 -1.265625 -2.921875 -1.265625q-1.90625 0 -2.890625 1.25q-0.96875 1.25 -0.96875 3.734375zm29.574219 6.4375l0 -8.359375q0 -1.53125 -0.65625 -2.296875q-0.65625 -0.765625 -2.046875 -0.765625q-1.8125 0 -2.6875 1.046875q-0.859375 1.03125 -0.859375 3.203125l0 7.171875l-1.9375 0l0 -8.359375q0 -1.53125 -0.65625 -2.296875q-0.65625 -0.765625 -2.0625 -0.765625q-1.828125 0 -2.671875 1.09375q-0.84375 1.09375 -0.84375 3.59375l0 6.734375l-1.953125 0l0 -12.84375l1.578125 0l0.328125 1.75l0.09375 0q0.546875 -0.9375 1.546875 -1.453125q1.0 -0.53125 2.25 -0.53125q3.0 0 3.9375 2.171875l0.09375 0q0.5625 -1.0 1.65625 -1.578125q1.09375 -0.59375 2.484375 -0.59375q2.1875 0 3.265625 1.125q1.078125 1.109375 1.078125 3.578125l0 8.375l-1.9375 0zm20.933594 -1.71875l-0.109375 0q-1.34375 1.953125 -4.03125 1.953125q-2.515625 0 -3.921875 -1.71875q-1.40625 -1.734375 -1.40625 -4.90625q0 -3.171875 1.40625 -4.921875q1.40625 -1.765625 3.921875 -1.765625q2.609375 0 4.0 1.890625l0.15625 0l-0.078125 -0.921875l-0.046875 -0.90625l0 -5.21875l1.9375 0l0 18.234375l-1.578125 0l-0.25 -1.71875zm-3.890625 0.328125q1.984375 0 2.875 -1.078125q0.90625 -1.09375 0.90625 -3.515625l0 -0.40625q0 -2.734375 -0.90625 -3.890625q-0.90625 -1.171875 -2.90625 -1.171875q-1.703125 0 -2.625 1.328125q-0.90625 1.328125 -0.90625 3.765625q0 2.453125 0.90625 3.71875q0.90625 1.25 2.65625 1.25zm15.269531 1.625q-2.84375 0 -4.5 -1.734375q-1.640625 -1.734375 -1.640625 -4.8125q0 -3.109375 1.53125 -4.9375q1.53125 -1.828125 4.109375 -1.828125q2.421875 0 3.828125 1.59375q1.40625 1.578125 1.40625 4.1875l0 1.21875l-8.859375 0q0.0625 2.265625 1.140625 3.4375q1.09375 1.171875 3.0625 1.171875q2.078125 0 4.09375 -0.859375l0 1.734375q-1.03125 0.4375 -1.953125 0.625q-0.90625 0.203125 -2.21875 0.203125zm-0.515625 -11.6875q-1.546875 0 -2.46875 1.015625q-0.921875 1.0 -1.09375 2.78125l6.71875 0q0 -1.84375 -0.828125 -2.8125q-0.8125 -0.984375 -2.328125 -0.984375zm16.464844 11.453125l-0.390625 -1.828125l-0.09375 0q-0.96875 1.203125 -1.921875 1.640625q-0.953125 0.421875 -2.375 0.421875q-1.921875 0 -3.0 -0.984375q-1.078125 -0.984375 -1.078125 -2.796875q0 -3.890625 6.21875 -4.078125l2.171875 -0.078125l0 -0.796875q0 -1.515625 -0.65625 -2.234375q-0.640625 -0.71875 -2.0625 -0.71875q-1.609375 0 -3.640625 0.984375l-0.59375 -1.484375q0.953125 -0.515625 2.078125 -0.8125q1.125 -0.296875 2.265625 -0.296875q2.296875 0 3.40625 1.03125q1.109375 1.015625 1.109375 3.265625l0 8.765625l-1.4375 0zm-4.40625 -1.375q1.828125 0 2.859375 -0.984375q1.03125 -1.0 1.03125 -2.796875l0 -1.15625l-1.9375 0.078125q-2.328125 0.078125 -3.359375 0.71875q-1.015625 0.640625 -1.015625 1.984375q0 1.0625 0.640625 1.609375q0.640625 0.546875 1.78125 0.546875zm18.597656 -0.34375l-0.109375 0q-1.34375 1.953125 -4.03125 1.953125q-2.515625 0 -3.921875 -1.71875q-1.40625 -1.734375 -1.40625 -4.90625q0 -3.171875 1.40625 -4.921875q1.40625 -1.765625 3.921875 -1.765625q2.609375 0 4.0 1.890625l0.15625 0l-0.078125 -0.921875l-0.046875 -0.90625l0 -5.21875l1.9375 0l0 18.234375l-1.578125 0l-0.25 -1.71875zm-3.890625 0.328125q1.984375 0 2.875 -1.078125q0.90625 -1.09375 0.90625 -3.515625l0 -0.40625q0 -2.734375 -0.90625 -3.890625q-0.90625 -1.171875 -2.90625 -1.171875q-1.703125 0 -2.625 1.328125q-0.90625 1.328125 -0.90625 3.765625q0 2.453125 0.90625 3.71875q0.90625 1.25 2.65625 1.25zm22.066406 -11.671875q2.53125 0 3.921875 1.734375q1.40625 1.734375 1.40625 4.890625q0 3.171875 -1.421875 4.921875q-1.40625 1.75 -3.90625 1.75q-1.265625 0 -2.296875 -0.453125q-1.03125 -0.46875 -1.734375 -1.4375l-0.140625 0l-0.421875 1.65625l-1.390625 0l0 -18.234375l1.953125 0l0 4.421875q0 1.5 -0.09375 2.671875l0.09375 0q1.359375 -1.921875 4.03125 -1.921875zm-0.28125 1.640625q-2.0 0 -2.875 1.140625q-0.875 1.140625 -0.875 3.84375q0 2.703125 0.890625 3.875q0.90625 1.171875 2.90625 1.171875q1.78125 0 2.65625 -1.3125q0.890625 -1.3125 0.890625 -3.75q0 -2.515625 -0.890625 -3.734375q-0.875 -1.234375 -2.703125 -1.234375zm16.910156 11.421875l-0.390625 -1.828125l-0.09375 0q-0.96875 1.203125 -1.921875 1.640625q-0.953125 0.421875 -2.375 0.421875q-1.921875 0 -3.0 -0.984375q-1.078125 -0.984375 -1.078125 -2.796875q0 -3.890625 6.21875 -4.078125l2.171875 -0.078125l0 -0.796875q0 -1.515625 -0.65625 -2.234375q-0.640625 -0.71875 -2.0625 -0.71875q-1.609375 0 -3.640625 0.984375l-0.59375 -1.484375q0.953125 -0.515625 2.078125 -0.8125q1.125 -0.296875 2.265625 -0.296875q2.296875 0 3.40625 1.03125q1.109375 1.015625 1.109375 3.265625l0 8.765625l-1.4375 0zm-4.40625 -1.375q1.828125 0 2.859375 -0.984375q1.03125 -1.0 1.03125 -2.796875l0 -1.15625l-1.9375 0.078125q-2.328125 0.078125 -3.359375 0.71875q-1.015625 0.640625 -1.015625 1.984375q0 1.0625 0.640625 1.609375q0.640625 0.546875 1.78125 0.546875zm14.988281 1.609375q-2.796875 0 -4.328125 -1.71875q-1.53125 -1.71875 -1.53125 -4.859375q0 -3.21875 1.546875 -4.96875q1.5625 -1.765625 4.4375 -1.765625q0.921875 0 1.84375 0.203125q0.9375 0.1875 1.453125 0.46875l-0.59375 1.640625q-0.640625 -0.25 -1.40625 -0.421875q-0.765625 -0.171875 -1.34375 -0.171875q-3.921875 0 -3.921875 5.0q0 2.359375 0.953125 3.625q0.96875 1.265625 2.84375 1.265625q1.59375 0 3.28125 -0.6875l0 1.71875q-1.28125 0.671875 -3.234375 0.671875zm8.207031 -6.8125q0.5 -0.71875 1.53125 -1.875l4.15625 -4.390625l2.3125 0l-5.203125 5.46875l5.5625 7.375l-2.359375 0l-4.53125 -6.078125l-1.46875 1.265625l0 4.8125l-1.921875 0l0 -18.234375l1.921875 0l0 9.671875q0 0.640625 -0.09375 1.984375l0.09375 0zm16.097656 6.8125q-2.84375 0 -4.5 -1.734375q-1.640625 -1.734375 -1.640625 -4.8125q0 -3.109375 1.53125 -4.9375q1.53125 -1.828125 4.109375 -1.828125q2.421875 0 3.828125 1.59375q1.40625 1.578125 1.40625 4.1875l0 1.21875l-8.859375 0q0.0625 2.265625 1.140625 3.4375q1.09375 1.171875 3.0625 1.171875q2.078125 0 4.09375 -0.859375l0 1.734375q-1.03125 0.4375 -1.953125 0.625q-0.90625 0.203125 -2.21875 0.203125zm-0.515625 -11.6875q-1.546875 0 -2.46875 1.015625q-0.921875 1.0 -1.09375 2.78125l6.71875 0q0 -1.84375 -0.828125 -2.8125q-0.8125 -0.984375 -2.328125 -0.984375zm17.355469 11.453125l0 -8.3125q0 -1.5625 -0.71875 -2.328125q-0.71875 -0.78125 -2.234375 -0.78125q-2.015625 0 -2.953125 1.09375q-0.9375 1.078125 -0.9375 3.59375l0 6.734375l-1.953125 0l0 -12.84375l1.578125 0l0.328125 1.75l0.09375 0q0.59375 -0.9375 1.671875 -1.453125q1.078125 -0.53125 2.40625 -0.53125q2.3125 0 3.484375 1.125q1.171875 1.109375 1.171875 3.578125l0 8.375l-1.9375 0zm14.683594 -1.71875l-0.109375 0q-1.34375 1.953125 -4.03125 1.953125q-2.515625 0 -3.921875 -1.71875q-1.40625 -1.734375 -1.40625 -4.90625q0 -3.171875 1.40625 -4.921875q1.40625 -1.765625 3.921875 -1.765625q2.609375 0 4.0 1.890625l0.15625 0l-0.078125 -0.921875l-0.046875 -0.90625l0 -5.21875l1.9375 0l0 18.234375l-1.578125 0l-0.25 -1.71875zm-3.890625 0.328125q1.984375 0 2.875 -1.078125q0.90625 -1.09375 0.90625 -3.515625l0 -0.40625q0 -2.734375 -0.90625 -3.890625q-0.90625 -1.171875 -2.90625 -1.171875q-1.703125 0 -2.625 1.328125q-0.90625 1.328125 -0.90625 3.765625q0 2.453125 0.90625 3.71875q0.90625 1.25 2.65625 1.25zm18.128906 -2.109375q0 1.78125 -1.34375 2.765625q-1.328125 0.96875 -3.734375 0.96875q-2.5625 0 -3.984375 -0.8125l0 -1.796875q0.921875 0.46875 1.984375 0.734375q1.0625 0.265625 2.046875 0.265625q1.515625 0 2.328125 -0.484375q0.828125 -0.484375 0.828125 -1.484375q0 -0.75 -0.65625 -1.28125q-0.640625 -0.53125 -2.53125 -1.265625q-1.78125 -0.65625 -2.546875 -1.15625q-0.75 -0.5 -1.125 -1.125q-0.359375 -0.640625 -0.359375 -1.515625q0 -1.578125 1.265625 -2.484375q1.28125 -0.90625 3.515625 -0.90625q2.0625 0 4.046875 0.84375l-0.6875 1.578125q-1.9375 -0.796875 -3.5 -0.796875q-1.390625 0 -2.09375 0.4375q-0.703125 0.4375 -0.703125 1.1875q0 0.515625 0.265625 0.890625q0.265625 0.359375 0.84375 0.6875q0.59375 0.328125 2.25 0.953125q2.296875 0.828125 3.09375 1.671875q0.796875 0.84375 0.796875 2.125z" fill-rule="nonzero"></path><path fill="#000000" fill-opacity="0.0" d="m399.96414 255.7571l174.36221 0l0 37.16536l-174.36221 0z" fill-rule="nonzero"></path><path fill="#000000" d="m415.60477 282.6771l-1.515625 0l0 -9.671875q0 -1.203125 0.078125 -2.28125q-0.1875 0.203125 -0.4375 0.421875q-0.234375 0.203125 -2.203125 1.796875l-0.8125 -1.0625l3.578125 -2.765625l1.3125 0l0 13.5625zm13.948486 -6.796875q0 3.515625 -1.109375 5.25q-1.109375 1.734375 -3.390625 1.734375q-2.1875 0 -3.328125 -1.78125q-1.140625 -1.78125 -1.140625 -5.203125q0 -3.546875 1.09375 -5.265625q1.109375 -1.71875 3.375 -1.71875q2.203125 0 3.34375 1.796875q1.15625 1.78125 1.15625 5.1875zm-7.421875 0q0 2.953125 0.6875 4.3125q0.703125 1.34375 2.234375 1.34375q1.53125 0 2.21875 -1.359375q0.703125 -1.375 0.703125 -4.296875q0 -2.921875 -0.703125 -4.28125q-0.6875 -1.359375 -2.21875 -1.359375q-1.53125 0 -2.234375 1.34375q-0.6875 1.328125 -0.6875 4.296875zm9.573456 5.8125q0 -0.625 0.28125 -0.9375q0.28125 -0.328125 0.8125 -0.328125q0.546875 0 0.84375 0.328125q0.296875 0.3125 0.296875 0.9375q0 0.609375 -0.3125 0.9375q-0.296875 0.3125 -0.828125 0.3125q-0.46875 0 -0.78125 -0.28125q-0.3125 -0.296875 -0.3125 -0.96875zm13.480316 -5.8125q0 3.515625 -1.109375 5.25q-1.109375 1.734375 -3.390625 1.734375q-2.1875 0 -3.328125 -1.78125q-1.140625 -1.78125 -1.140625 -5.203125q0 -3.546875 1.09375 -5.265625q1.109375 -1.71875 3.375 -1.71875q2.203125 0 3.34375 1.796875q1.15625 1.78125 1.15625 5.1875zm-7.421875 0q0 2.953125 0.6875 4.3125q0.703125 1.34375 2.234375 1.34375q1.53125 0 2.21875 -1.359375q0.703125 -1.375 0.703125 -4.296875q0 -2.921875 -0.703125 -4.28125q-0.6875 -1.359375 -2.21875 -1.359375q-1.53125 0 -2.234375 1.34375q-0.6875 1.328125 -0.6875 4.296875zm9.573456 5.8125q0 -0.625 0.28125 -0.9375q0.28125 -0.328125 0.8125 -0.328125q0.546875 0 0.84375 0.328125q0.296875 0.3125 0.296875 0.9375q0 0.609375 -0.3125 0.9375q-0.296875 0.3125 -0.828125 0.3125q-0.46875 0 -0.78125 -0.28125q-0.3125 -0.296875 -0.3125 -0.96875zm13.480316 -5.8125q0 3.515625 -1.109375 5.25q-1.109375 1.734375 -3.390625 1.734375q-2.1875 0 -3.328125 -1.78125q-1.140625 -1.78125 -1.140625 -5.203125q0 -3.546875 1.09375 -5.265625q1.109375 -1.71875 3.375 -1.71875q2.203125 0 3.34375 1.796875q1.15625 1.78125 1.15625 5.1875zm-7.421875 0q0 2.953125 0.6875 4.3125q0.703125 1.34375 2.234375 1.34375q1.53125 0 2.21875 -1.359375q0.703125 -1.375 0.703125 -4.296875q0 -2.921875 -0.703125 -4.28125q-0.6875 -1.359375 -2.21875 -1.359375q-1.53125 0 -2.234375 1.34375q-0.6875 1.328125 -0.6875 4.296875zm9.573456 5.8125q0 -0.625 0.28125 -0.9375q0.28125 -0.328125 0.8125 -0.328125q0.546875 0 0.84375 0.328125q0.296875 0.3125 0.296875 0.9375q0 0.609375 -0.3125 0.9375q-0.296875 0.3125 -0.828125 0.3125q-0.46875 0 -0.78125 -0.28125q-0.3125 -0.296875 -0.3125 -0.96875zm10.199066 0.984375l-1.515625 0l0 -9.671875q0 -1.203125 0.078125 -2.28125q-0.1875 0.203125 -0.4375 0.421875q-0.234375 0.203125 -2.203125 1.796875l-0.8125 -1.0625l3.578125 -2.765625l1.3125 0l0 13.5625zm13.948456 -6.796875q0 3.515625 -1.109375 5.25q-1.109375 1.734375 -3.390625 1.734375q-2.1875 0 -3.328125 -1.78125q-1.140625 -1.78125 -1.140625 -5.203125q0 -3.546875 1.09375 -5.265625q1.109375 -1.71875 3.375 -1.71875q2.203125 0 3.34375 1.796875q1.15625 1.78125 1.15625 5.1875zm-7.421875 0q0 2.953125 0.6875 4.3125q0.703125 1.34375 2.234375 1.34375q1.53125 0 2.21875 -1.359375q0.703125 -1.375 0.703125 -4.296875q0 -2.921875 -0.703125 -4.28125q-0.6875 -1.359375 -2.21875 -1.359375q-1.53125 0 -2.234375 1.34375q-0.6875 1.328125 -0.6875 4.296875z" fill-rule="nonzero"></path><path fill="#cfe2f3" d="m353.80057 299.5853l143.81104 0l0 37.165375l-143.81104 0z" fill-rule="nonzero"></path><path stroke="#000000" stroke-width="2.0" stroke-linejoin="round" stroke-linecap="butt" d="m353.80057 299.5853l143.81104 0l0 37.165375l-143.81104 0z" fill-rule="nonzero"></path><path fill="#000000" d="m401.72174 324.30798l-1.40625 0l0 -5.71875l-6.390625 0l0 5.71875l-1.40625 0l0 -12.140625l1.40625 0l0 5.171875l6.390625 0l0 -5.171875l1.40625 0l0 12.140625zm11.206451 0l-1.515625 -3.859375l-4.859375 0l-1.5 3.859375l-1.421875 0l4.796875 -12.1875l1.1875 0l4.78125 12.1875l-1.46875 0zm-1.953125 -5.125l-1.40625 -3.765625q-0.28125 -0.71875 -0.5625 -1.75q-0.1875 0.796875 -0.53125 1.75l-1.421875 3.765625l3.921875 0zm9.309204 5.296875q-0.875 0 -1.609375 -0.328125q-0.734375 -0.328125 -1.234375 -1.015625l-0.109375 0q0.109375 0.796875 0.109375 1.515625l0 3.734375l-1.375 0l0 -13.171875l1.109375 0l0.1875 1.234375l0.078125 0q0.53125 -0.734375 1.234375 -1.0625q0.703125 -0.34375 1.609375 -0.34375q1.8125 0 2.796875 1.234375q0.984375 1.234375 0.984375 3.46875q0 2.25 -1.0 3.5q-1.0 1.234375 -2.78125 1.234375zm-0.1875 -8.265625q-1.40625 0 -2.03125 0.78125q-0.609375 0.765625 -0.625 2.453125l0 0.296875q0 1.921875 0.640625 2.75q0.640625 0.828125 2.046875 0.828125q1.171875 0 1.84375 -0.953125q0.671875 -0.953125 0.671875 -2.640625q0 -1.703125 -0.671875 -2.609375q-0.671875 -0.90625 -1.875 -0.90625zm10.727936 -1.171875q0.609375 0 1.09375 0.09375l-0.1875 1.28125q-0.578125 -0.125 -1.0 -0.125q-1.109375 0 -1.890625 0.90625q-0.78125 0.890625 -0.78125 2.234375l0 4.875l-1.375 0l0 -9.09375l1.125 0l0.15625 1.6875l0.078125 0q0.5 -0.890625 1.203125 -1.375q0.71875 -0.484375 1.578125 -0.484375zm10.77652 4.703125q0 2.234375 -1.125 3.484375q-1.109375 1.25 -3.09375 1.25q-1.21875 0 -2.171875 -0.578125q-0.9375 -0.578125 -1.453125 -1.640625q-0.515625 -1.078125 -0.515625 -2.515625q0 -2.21875 1.109375 -3.453125q1.109375 -1.25 3.09375 -1.25q1.90625 0 3.03125 1.28125q1.125 1.265625 1.125 3.421875zm-6.9375 0q0 1.75 0.703125 2.671875q0.703125 0.90625 2.046875 0.90625q1.359375 0 2.0625 -0.90625q0.703125 -0.921875 0.703125 -2.671875q0 -1.734375 -0.703125 -2.625q-0.703125 -0.90625 -2.078125 -0.90625q-1.34375 0 -2.046875 0.890625q-0.6875 0.890625 -0.6875 2.640625zm11.747528 -0.09375l-3.171875 -4.4375l1.578125 0l2.390625 3.484375l2.390625 -3.484375l1.5625 0l-3.171875 4.4375l3.328125 4.65625l-1.5625 0l-2.546875 -3.6875l-2.5625 3.6875l-1.5625 0l3.328125 -4.65625zm5.438019 -4.4375l1.484375 0l1.984375 5.1875q0.65625 1.765625 0.8125 2.5625l0.0625 0q0.109375 -0.421875 0.453125 -1.4375q0.34375 -1.03125 2.265625 -6.3125l1.46875 0l-3.90625 10.359375q-0.578125 1.53125 -1.359375 2.171875q-0.78125 0.640625 -1.90625 0.640625q-0.625 0 -1.234375 -0.140625l0 -1.09375q0.453125 0.09375 1.015625 0.09375q1.421875 0 2.015625 -1.59375l0.515625 -1.296875l-3.671875 -9.140625z" fill-rule="nonzero"></path><path fill="#9fc5e8" d="m352.11978 264.01544l45.322845 0l0 25.165344l-45.322845 0z" fill-rule="nonzero"></path><path stroke="#000000" stroke-width="2.0" stroke-linejoin="round" stroke-linecap="butt" d="m352.11978 264.01544l45.322845 0l0 25.165344l-45.322845 0z" fill-rule="nonzero"></path><path fill="#000000" d="m371.06638 271.03625l1.4375 0l-4.125 11.421875l-1.3125 0l-4.09375 -11.421875l1.40625 0l2.625 7.390625q0.453125 1.265625 0.71875 2.46875q0.28125 -1.265625 0.734375 -2.515625l2.609375 -7.34375zm3.0078125 11.421875l0 -11.421875l1.328125 0l0 11.421875l-1.328125 0zm11.6953125 -8.09375q0 1.734375 -1.1875 2.671875q-1.171875 0.921875 -3.375 0.921875l-1.34375 0l0 4.5l-1.328125 0l0 -11.421875l2.953125 0q4.28125 0 4.28125 3.328125zm-5.90625 2.453125l1.1875 0q1.765625 0 2.546875 -0.5625q0.796875 -0.578125 0.796875 -1.828125q0 -1.140625 -0.75 -1.6875q-0.734375 -0.5625 -2.296875 -0.5625l-1.484375 0l0 4.640625z" fill-rule="nonzero"></path><path fill="#000000" fill-opacity="0.0" d="m425.7061 336.75067l7.0236206 52.15747" fill-rule="nonzero"></path><path stroke="#ffab40" stroke-width="4.0" stroke-linejoin="round" stroke-linecap="butt" d="m425.7061 336.75067l5.1941223 38.571747" fill-rule="evenodd"></path><path fill="#ffab40" stroke="#ffab40" stroke-width="4.0" stroke-linecap="butt" d="m430.9002 375.32242l-5.0584106 -3.8577576l6.107483 11.648163l2.8087158 -12.848846z" fill-rule="evenodd"></path><path fill="#000000" fill-opacity="0.0" d="m345.5339 351.75708l174.36221 0l0 37.165375l-174.36221 0z" fill-rule="nonzero"></path><path fill="#000000" d="m361.17453 378.6771l-1.515625 0l0 -9.671875q0 -1.203125 0.078125 -2.28125q-0.1875 0.203125 -0.4375 0.421875q-0.234375 0.203125 -2.203125 1.796875l-0.8125 -1.0625l3.578125 -2.765625l1.3125 0l0 13.5625zm13.948486 -6.796875q0 3.515625 -1.109375 5.25q-1.109375 1.734375 -3.390625 1.734375q-2.1875 0 -3.328125 -1.78125q-1.140625 -1.78125 -1.140625 -5.203125q0 -3.546875 1.09375 -5.265625q1.109375 -1.71875 3.375 -1.71875q2.203125 0 3.34375 1.796875q1.15625 1.78125 1.15625 5.1875zm-7.421875 0q0 2.953125 0.6875 4.3125q0.703125 1.34375 2.234375 1.34375q1.53125 0 2.21875 -1.359375q0.703125 -1.375 0.703125 -4.296875q0 -2.921875 -0.703125 -4.28125q-0.6875 -1.359375 -2.21875 -1.359375q-1.53125 0 -2.234375 1.34375q-0.6875 1.328125 -0.6875 4.296875zm9.573456 5.8125q0 -0.625 0.28125 -0.9375q0.28125 -0.328125 0.8125 -0.328125q0.546875 0 0.84375 0.328125q0.296875 0.3125 0.296875 0.9375q0 0.609375 -0.3125 0.9375q-0.296875 0.3125 -0.828125 0.3125q-0.46875 0 -0.78125 -0.28125q-0.3125 -0.296875 -0.3125 -0.96875zm13.480316 -5.8125q0 3.515625 -1.109375 5.25q-1.109375 1.734375 -3.390625 1.734375q-2.1875 0 -3.328125 -1.78125q-1.140625 -1.78125 -1.140625 -5.203125q0 -3.546875 1.09375 -5.265625q1.109375 -1.71875 3.375 -1.71875q2.203125 0 3.34375 1.796875q1.15625 1.78125 1.15625 5.1875zm-7.421875 0q0 2.953125 0.6875 4.3125q0.703125 1.34375 2.234375 1.34375q1.53125 0 2.21875 -1.359375q0.703125 -1.375 0.703125 -4.296875q0 -2.921875 -0.703125 -4.28125q-0.6875 -1.359375 -2.21875 -1.359375q-1.53125 0 -2.234375 1.34375q-0.6875 1.328125 -0.6875 4.296875zm9.573456 5.8125q0 -0.625 0.28125 -0.9375q0.28125 -0.328125 0.8125 -0.328125q0.546875 0 0.84375 0.328125q0.296875 0.3125 0.296875 0.9375q0 0.609375 -0.3125 0.9375q-0.296875 0.3125 -0.828125 0.3125q-0.46875 0 -0.78125 -0.28125q-0.3125 -0.296875 -0.3125 -0.96875zm13.480316 -5.8125q0 3.515625 -1.109375 5.25q-1.109375 1.734375 -3.390625 1.734375q-2.1875 0 -3.328125 -1.78125q-1.140625 -1.78125 -1.140625 -5.203125q0 -3.546875 1.09375 -5.265625q1.109375 -1.71875 3.375 -1.71875q2.203125 0 3.34375 1.796875q1.15625 1.78125 1.15625 5.1875zm-7.421875 0q0 2.953125 0.6875 4.3125q0.703125 1.34375 2.234375 1.34375q1.53125 0 2.21875 -1.359375q0.703125 -1.375 0.703125 -4.296875q0 -2.921875 -0.703125 -4.28125q-0.6875 -1.359375 -2.21875 -1.359375q-1.53125 0 -2.234375 1.34375q-0.6875 1.328125 -0.6875 4.296875zm9.573456 5.8125q0 -0.625 0.28125 -0.9375q0.28125 -0.328125 0.8125 -0.328125q0.546875 0 0.84375 0.328125q0.296875 0.3125 0.296875 0.9375q0 0.609375 -0.3125 0.9375q-0.296875 0.3125 -0.828125 0.3125q-0.46875 0 -0.78125 -0.28125q-0.3125 -0.296875 -0.3125 -0.96875zm10.199066 0.984375l-1.515625 0l0 -9.671875q0 -1.203125 0.078125 -2.28125q-0.1875 0.203125 -0.4375 0.421875q-0.234375 0.203125 -2.203125 1.796875l-0.8125 -1.0625l3.578125 -2.765625l1.3125 0l0 13.5625z" fill-rule="nonzero"></path><path fill="#000000" fill-opacity="0.0" d="m757.12854 240.39406l192.40948 261.56354" fill-rule="nonzero"></path><path stroke="#ff0000" stroke-width="8.0" stroke-linejoin="round" stroke-linecap="butt" d="m757.12854 240.39406l192.40948 261.56354" fill-rule="nonzero"></path><path fill="#000000" fill-opacity="0.0" d="m949.54065 240.39406l-192.40942 261.56354" fill-rule="nonzero"></path><path stroke="#ff0000" stroke-width="8.0" stroke-linejoin="round" stroke-linecap="butt" d="m949.54065 240.39406l-192.40942 261.56354" fill-rule="nonzero"></path><path fill="#000000" fill-opacity="0.0" d="m561.53394 351.75708l174.36218 0l0 37.165375l-174.36218 0z" fill-rule="nonzero"></path><path fill="#000000" d="m577.17456 378.6771l-1.515625 0l0 -9.671875q0 -1.203125 0.078125 -2.28125q-0.1875 0.203125 -0.4375 0.421875q-0.234375 0.203125 -2.203125 1.796875l-0.8125 -1.0625l3.578125 -2.765625l1.3125 0l0 13.5625zm13.948425 -6.796875q0 3.515625 -1.109375 5.25q-1.109375 1.734375 -3.390625 1.734375q-2.1875 0 -3.328125 -1.78125q-1.140625 -1.78125 -1.140625 -5.203125q0 -3.546875 1.09375 -5.265625q1.109375 -1.71875 3.375 -1.71875q2.203125 0 3.34375 1.796875q1.15625 1.78125 1.15625 5.1875zm-7.421875 0q0 2.953125 0.6875 4.3125q0.703125 1.34375 2.234375 1.34375q1.53125 0 2.21875 -1.359375q0.703125 -1.375 0.703125 -4.296875q0 -2.921875 -0.703125 -4.28125q-0.6875 -1.359375 -2.21875 -1.359375q-1.53125 0 -2.234375 1.34375q-0.6875 1.328125 -0.6875 4.296875zm9.573486 5.8125q0 -0.625 0.28125 -0.9375q0.28125 -0.328125 0.8125 -0.328125q0.546875 0 0.84375 0.328125q0.296875 0.3125 0.296875 0.9375q0 0.609375 -0.3125 0.9375q-0.296875 0.3125 -0.828125 0.3125q-0.46875 0 -0.78125 -0.28125q-0.3125 -0.296875 -0.3125 -0.96875zm13.480286 -5.8125q0 3.515625 -1.109375 5.25q-1.109375 1.734375 -3.390625 1.734375q-2.1875 0 -3.328125 -1.78125q-1.140625 -1.78125 -1.140625 -5.203125q0 -3.546875 1.09375 -5.265625q1.109375 -1.71875 3.375 -1.71875q2.203125 0 3.34375 1.796875q1.15625 1.78125 1.15625 5.1875zm-7.421875 0q0 2.953125 0.6875 4.3125q0.703125 1.34375 2.234375 1.34375q1.53125 0 2.21875 -1.359375q0.703125 -1.375 0.703125 -4.296875q0 -2.921875 -0.703125 -4.28125q-0.6875 -1.359375 -2.21875 -1.359375q-1.53125 0 -2.234375 1.34375q-0.6875 1.328125 -0.6875 4.296875zm9.573486 5.8125q0 -0.625 0.28125 -0.9375q0.28125 -0.328125 0.8125 -0.328125q0.546875 0 0.84375 0.328125q0.296875 0.3125 0.296875 0.9375q0 0.609375 -0.3125 0.9375q-0.296875 0.3125 -0.828125 0.3125q-0.46875 0 -0.78125 -0.28125q-0.3125 -0.296875 -0.3125 -0.96875zm13.480286 -5.8125q0 3.515625 -1.109375 5.25q-1.109375 1.734375 -3.390625 1.734375q-2.1875 0 -3.328125 -1.78125q-1.140625 -1.78125 -1.140625 -5.203125q0 -3.546875 1.09375 -5.265625q1.109375 -1.71875 3.375 -1.71875q2.203125 0 3.34375 1.796875q1.15625 1.78125 1.15625 5.1875zm-7.421875 0q0 2.953125 0.6875 4.3125q0.703125 1.34375 2.234375 1.34375q1.53125 0 2.21875 -1.359375q0.703125 -1.375 0.703125 -4.296875q0 -2.921875 -0.703125 -4.28125q-0.6875 -1.359375 -2.21875 -1.359375q-1.53125 0 -2.234375 1.34375q-0.6875 1.328125 -0.6875 4.296875zm9.573486 5.8125q0 -0.625 0.28125 -0.9375q0.28125 -0.328125 0.8125 -0.328125q0.546875 0 0.84375 0.328125q0.296875 0.3125 0.296875 0.9375q0 0.609375 -0.3125 0.9375q-0.296875 0.3125 -0.828125 0.3125q-0.46875 0 -0.78125 -0.28125q-0.3125 -0.296875 -0.3125 -0.96875zm13.402161 0.984375l-8.921875 0l0 -1.328125l3.578125 -3.59375q1.625 -1.640625 2.140625 -2.34375q0.53125 -0.71875 0.78125 -1.375q0.265625 -0.671875 0.265625 -1.4375q0 -1.09375 -0.65625 -1.71875q-0.65625 -0.640625 -1.828125 -0.640625q-0.84375 0 -1.609375 0.28125q-0.75 0.265625 -1.671875 1.0l-0.8125 -1.046875q1.875 -1.5625 4.078125 -1.5625q1.90625 0 2.984375 0.984375q1.09375 0.984375 1.09375 2.625q0 1.296875 -0.71875 2.5625q-0.71875 1.25 -2.71875 3.1875l-2.96875 2.90625l0 0.078125l6.984375 0l0 1.421875z" fill-rule="nonzero"></path><path fill="#92c68c" d="m569.80054 387.5853l143.81104 0l0 37.165375l-143.81104 0z" fill-rule="nonzero"></path><path stroke="#000000" stroke-width="2.0" stroke-linejoin="round" stroke-linecap="butt" d="m569.80054 387.5853l143.81104 0l0 37.165375l-143.81104 0z" fill-rule="nonzero"></path><path fill="#000000" d="m588.69434 412.30798l0 -5.890625q0 -1.109375 -0.515625 -1.65625q-0.5 -0.546875 -1.578125 -0.546875q-1.421875 0 -2.09375 0.78125q-0.65625 0.765625 -0.65625 2.546875l0 4.765625l-1.375 0l0 -9.09375l1.109375 0l0.234375 1.234375l0.0625 0q0.421875 -0.671875 1.1875 -1.03125q0.765625 -0.375 1.703125 -0.375q1.640625 0 2.46875 0.796875q0.828125 0.796875 0.828125 2.53125l0 5.9375l-1.375 0zm8.244873 0.171875q-2.015625 0 -3.1875 -1.234375q-1.15625 -1.234375 -1.15625 -3.40625q0 -2.203125 1.078125 -3.5q1.09375 -1.296875 2.921875 -1.296875q1.703125 0 2.703125 1.125q1.0 1.125 1.0 2.96875l0 0.875l-6.28125 0q0.046875 1.59375 0.8125 2.4375q0.765625 0.828125 2.171875 0.828125q1.46875 0 2.90625 -0.625l0 1.234375q-0.734375 0.3125 -1.390625 0.453125q-0.65625 0.140625 -1.578125 0.140625zm-0.359375 -8.28125q-1.109375 0 -1.765625 0.71875q-0.640625 0.703125 -0.75 1.96875l4.75 0q0 -1.296875 -0.578125 -1.984375q-0.578125 -0.703125 -1.65625 -0.703125zm7.5341797 -0.984375l0 5.890625q0 1.125 0.5 1.671875q0.515625 0.546875 1.59375 0.546875q1.4375 0 2.09375 -0.78125q0.65625 -0.78125 0.65625 -2.546875l0 -4.78125l1.375 0l0 9.09375l-1.125 0l-0.203125 -1.21875l-0.078125 0q-0.421875 0.671875 -1.171875 1.03125q-0.75 0.359375 -1.71875 0.359375q-1.65625 0 -2.484375 -0.78125q-0.828125 -0.796875 -0.828125 -2.53125l0 -5.953125l1.390625 0zm12.291748 8.125q0.359375 0 0.703125 -0.046875q0.34375 -0.0625 0.53125 -0.125l0 1.0625q-0.21875 0.109375 -0.65625 0.171875q-0.4375 0.078125 -0.78125 0.078125q-2.640625 0 -2.640625 -2.78125l0 -5.421875l-1.3125 0l0 -0.65625l1.3125 -0.578125l0.578125 -1.9375l0.796875 0l0 2.109375l2.640625 0l0 1.0625l-2.640625 0l0 5.359375q0 0.828125 0.390625 1.265625q0.390625 0.4375 1.078125 0.4375zm7.3204346 -8.296875q0.609375 0 1.09375 0.09375l-0.1875 1.28125q-0.578125 -0.125 -1.0 -0.125q-1.109375 0 -1.890625 0.90625q-0.78125 0.890625 -0.78125 2.234375l0 4.875l-1.375 0l0 -9.09375l1.125 0l0.15625 1.6875l0.078125 0q0.5 -0.890625 1.203125 -1.375q0.71875 -0.484375 1.578125 -0.484375zm10.776489 4.703125q0 2.234375 -1.125 3.484375q-1.109375 1.25 -3.09375 1.25q-1.21875 0 -2.171875 -0.578125q-0.9375 -0.578125 -1.453125 -1.640625q-0.515625 -1.078125 -0.515625 -2.515625q0 -2.21875 1.109375 -3.453125q1.109375 -1.25 3.09375 -1.25q1.90625 0 3.03125 1.28125q1.125 1.265625 1.125 3.421875zm-6.9375 0q0 1.75 0.703125 2.671875q0.703125 0.90625 2.046875 0.90625q1.359375 0 2.0625 -0.90625q0.703125 -0.921875 0.703125 -2.671875q0 -1.734375 -0.703125 -2.625q-0.703125 -0.90625 -2.078125 -0.90625q-1.34375 0 -2.046875 0.890625q-0.6875 0.890625 -0.6875 2.640625zm15.778748 4.5625l0 -5.890625q0 -1.109375 -0.515625 -1.65625q-0.5 -0.546875 -1.578125 -0.546875q-1.421875 0 -2.09375 0.78125q-0.65625 0.765625 -0.65625 2.546875l0 4.765625l-1.375 0l0 -9.09375l1.109375 0l0.234375 1.234375l0.0625 0q0.421875 -0.671875 1.1875 -1.03125q0.765625 -0.375 1.703125 -0.375q1.640625 0 2.46875 0.796875q0.828125 0.796875 0.828125 2.53125l0 5.9375l-1.375 0zm3.651123 -3.921875l0 -1.265625l4.0625 0l0 1.265625l-4.0625 0zm12.200806 1.4375q0 1.265625 -0.953125 1.96875q-0.9375 0.6875 -2.640625 0.6875q-1.8125 0 -2.828125 -0.578125l0 -1.28125q0.65625 0.328125 1.40625 0.53125q0.75 0.1875 1.453125 0.1875q1.078125 0 1.65625 -0.34375q0.578125 -0.34375 0.578125 -1.046875q0 -0.53125 -0.46875 -0.90625q-0.453125 -0.390625 -1.78125 -0.90625q-1.28125 -0.46875 -1.8125 -0.8125q-0.53125 -0.359375 -0.796875 -0.8125q-0.265625 -0.453125 -0.265625 -1.0625q0 -1.125 0.90625 -1.765625q0.90625 -0.640625 2.484375 -0.640625q1.46875 0 2.875 0.59375l-0.484375 1.125q-1.375 -0.5625 -2.484375 -0.5625q-0.984375 0 -1.484375 0.3125q-0.5 0.296875 -0.5 0.84375q0 0.359375 0.1875 0.625q0.1875 0.25 0.59375 0.484375q0.421875 0.234375 1.609375 0.671875q1.609375 0.59375 2.171875 1.1875q0.578125 0.59375 0.578125 1.5zm6.2351685 2.65625q-2.015625 0 -3.1875 -1.234375q-1.15625 -1.234375 -1.15625 -3.40625q0 -2.203125 1.078125 -3.5q1.09375 -1.296875 2.921875 -1.296875q1.703125 0 2.703125 1.125q1.0 1.125 1.0 2.96875l0 0.875l-6.28125 0q0.046875 1.59375 0.8125 2.4375q0.765625 0.828125 2.171875 0.828125q1.46875 0 2.90625 -0.625l0 1.234375q-0.734375 0.3125 -1.390625 0.453125q-0.65625 0.140625 -1.578125 0.140625zm-0.359375 -8.28125q-1.109375 0 -1.765625 0.71875q-0.640625 0.703125 -0.75 1.96875l4.75 0q0 -1.296875 -0.578125 -1.984375q-0.578125 -0.703125 -1.65625 -0.703125zm10.393555 -1.15625q0.609375 0 1.09375 0.09375l-0.1875 1.28125q-0.578125 -0.125 -1.0 -0.125q-1.109375 0 -1.890625 0.90625q-0.78125 0.890625 -0.78125 2.234375l0 4.875l-1.375 0l0 -9.09375l1.125 0l0.15625 1.6875l0.078125 0q0.5 -0.890625 1.203125 -1.375q0.71875 -0.484375 1.578125 -0.484375zm4.9171753 9.265625l-3.453125 -9.09375l1.484375 0l1.953125 5.390625q0.65625 1.890625 0.78125 2.453125l0.0625 0q0.09375 -0.4375 0.578125 -1.8125q0.484375 -1.390625 2.1875 -6.03125l1.46875 0l-3.453125 9.09375l-1.609375 0zm10.524719 0.171875q-2.015625 0 -3.1875 -1.234375q-1.15625 -1.234375 -1.15625 -3.40625q0 -2.203125 1.078125 -3.5q1.09375 -1.296875 2.921875 -1.296875q1.703125 0 2.703125 1.125q1.0 1.125 1.0 2.96875l0 0.875l-6.28125 0q0.046875 1.59375 0.8125 2.4375q0.765625 0.828125 2.171875 0.828125q1.46875 0 2.90625 -0.625l0 1.234375q-0.734375 0.3125 -1.390625 0.453125q-0.65625 0.140625 -1.578125 0.140625zm-0.359375 -8.28125q-1.109375 0 -1.765625 0.71875q-0.640625 0.703125 -0.75 1.96875l4.75 0q0 -1.296875 -0.578125 -1.984375q-0.578125 -0.703125 -1.65625 -0.703125zm10.393555 -1.15625q0.609375 0 1.09375 0.09375l-0.1875 1.28125q-0.578125 -0.125 -1.0 -0.125q-1.109375 0 -1.890625 0.90625q-0.78125 0.890625 -0.78125 2.234375l0 4.875l-1.375 0l0 -9.09375l1.125 0l0.15625 1.6875l0.078125 0q0.5 -0.890625 1.203125 -1.375q0.71875 -0.484375 1.578125 -0.484375z" fill-rule="nonzero"></path><path fill="#000000" fill-opacity="0.0" d="m425.7061 336.75067l150.89761 56.81888" fill-rule="nonzero"></path><path stroke="#ffab40" stroke-width="4.0" stroke-linejoin="round" stroke-linecap="butt" d="m425.7061 336.75067l138.06857 51.98825" fill-rule="evenodd"></path><path fill="#ffab40" stroke="#ffab40" stroke-width="4.0" stroke-linecap="butt" d="m563.7747 388.73892l-5.794983 2.6246338l13.151489 0.14538574l-9.98114 -8.564941z" fill-rule="evenodd"></path></g></svg>

