<?xml version="1.0" standalone="yes"?>

<svg version="1.1" viewBox="0.0 0.0 960.0 540.0" fill="none" stroke="none" stroke-linecap="square" stroke-miterlimit="10" xmlns="http://www.w3.org/2000/svg" xmlns:xlink="http://www.w3.org/1999/xlink"><clipPath id="ge5667456f_0_222.0"><path d="m0 0l960.0 0l0 540.0l-960.0 0l0 -540.0z" clip-rule="nonzero"></path></clipPath><g clip-path="url(#ge5667456f_0_222.0)"><path fill="#ffffff" d="m0 0l960.0 0l0 540.0l-960.0 0z" fill-rule="nonzero"></path><path fill="#000000" fill-opacity="0.0" d="m32.72441 46.721786l894.55115 0l0 60.125984l-894.55115 0z" fill-rule="nonzero"></path><path fill="#000000" d="m65.41191 91.56178l-3.078125 0l0 -12.4375l-13.90625 0l0 12.4375l-3.078125 0l0 -26.40625l3.078125 0l0 11.234375l13.90625 0l0 -11.234375l3.078125 0l0 26.40625zm10.024811 0l-2.984375 0l0 -19.796875l2.984375 0l0 19.796875zm-3.25 -25.171875q0 -1.03125 0.5 -1.5q0.515625 -0.484375 1.28125 -0.484375q0.71875 0 1.234375 0.5q0.53125 0.484375 0.53125 1.484375q0 1.015625 -0.53125 1.515625q-0.515625 0.5 -1.234375 0.5q-0.765625 0 -1.28125 -0.5q-0.5 -0.5 -0.5 -1.515625zm25.910141 5.375l0 1.890625l-3.671875 0.4375q0.5 0.625 0.890625 1.65625q0.40625 1.015625 0.40625 2.296875q0 2.90625 -1.984375 4.640625q-1.984375 1.734375 -5.453125 1.734375q-0.890625 0 -1.671875 -0.140625q-1.90625 1.015625 -1.90625 2.546875q0 0.8125 0.65625 1.203125q0.671875 0.390625 2.3125 0.390625l3.5 0q3.21875 0 4.9375 1.359375q1.71875 1.34375 1.71875 3.9375q0 3.28125 -2.640625 5.0q-2.625 1.734375 -7.6875 1.734375q-3.875 0 -5.984375 -1.453125q-2.109375 -1.4375 -2.109375 -4.078125q0 -1.8125 1.15625 -3.125q1.15625 -1.3125 3.25 -1.78125q-0.75 -0.34375 -1.265625 -1.0625q-0.515625 -0.734375 -0.515625 -1.6875q0 -1.09375 0.578125 -1.90625q0.578125 -0.8125 1.828125 -1.5625q-1.546875 -0.640625 -2.515625 -2.15625q-0.953125 -1.515625 -0.953125 -3.46875q0 -3.25 1.9375 -5.0q1.953125 -1.765625 5.53125 -1.765625q1.5625 0 2.796875 0.359375l6.859375 0zm-15.796875 23.125q0 1.609375 1.359375 2.4375q1.359375 0.828125 3.875 0.828125q3.78125 0 5.59375 -1.125q1.8125 -1.125 1.8125 -3.0625q0 -1.609375 -1.0 -2.234375q-0.984375 -0.625 -3.71875 -0.625l-3.609375 0q-2.03125 0 -3.171875 0.96875q-1.140625 0.984375 -1.140625 2.8125zm1.625 -16.78125q0 2.078125 1.171875 3.140625q1.171875 1.0625 3.28125 1.0625q4.390625 0 4.390625 -4.265625q0 -4.453125 -4.453125 -4.453125q-2.109375 0 -3.25 1.140625q-1.140625 1.125 -1.140625 3.375zm31.965897 13.453125l0 -12.8125q0 -2.421875 -1.109375 -3.609375q-1.09375 -1.1875 -3.453125 -1.1875q-3.125 0 -4.5625 1.703125q-1.4375 1.6875 -1.4375 5.546875l0 10.359375l-2.984375 0l0 -28.109375l2.984375 0l0 8.5q0 1.546875 -0.140625 2.546875l0.1875 0q0.875 -1.421875 2.515625 -2.234375q1.640625 -0.828125 3.734375 -0.828125q3.625 0 5.4375 1.734375q1.828125 1.71875 1.828125 5.46875l0 12.921875l-3.0 0zm12.348373 0l-2.984375 0l0 -28.109375l2.984375 0l0 28.109375zm3.300766 -19.796875l3.21875 0l4.34375 11.28125q1.421875 3.875 1.765625 5.59375l0.140625 0q0.234375 -0.921875 0.984375 -3.15625q0.75 -2.234375 4.90625 -13.71875l3.21875 0l-8.515625 22.546875q-1.265625 3.34375 -2.953125 4.734375q-1.6875 1.40625 -4.140625 1.40625q-1.375 0 -2.703125 -0.3125l0 -2.40625q0.984375 0.21875 2.21875 0.21875q3.078125 0 4.40625 -3.46875l1.09375 -2.8125l-7.984375 -19.90625zm48.709564 19.796875l-3.28125 -8.40625l-10.59375 0l-3.25 8.40625l-3.109375 0l10.4375 -26.515625l2.59375 0l10.390625 26.515625l-3.1875 0zm-4.25 -11.171875l-3.0625 -8.171875q-0.59375 -1.5625 -1.234375 -3.8125q-0.390625 1.734375 -1.140625 3.8125l-3.109375 8.171875l8.546875 0zm15.152954 11.171875l-7.515625 -19.796875l3.21875 0l4.265625 11.734375q1.4375 4.125 1.6875 5.359375l0.15625 0q0.1875 -0.96875 1.25 -3.96875q1.0625 -3.015625 4.75 -13.125l3.203125 0l-7.515625 19.796875l-3.5 0zm26.544266 0l-0.59375 -2.8125l-0.15625 0q-1.46875 1.859375 -2.953125 2.515625q-1.46875 0.65625 -3.671875 0.65625q-2.9375 0 -4.609375 -1.515625q-1.671875 -1.515625 -1.671875 -4.3125q0 -6.0 9.59375 -6.296875l3.359375 -0.109375l0 -1.21875q0 -2.328125 -1.015625 -3.4375q-1.0 -1.125 -3.203125 -1.125q-2.46875 0 -5.59375 1.515625l-0.921875 -2.28125q1.46875 -0.796875 3.203125 -1.25q1.75 -0.453125 3.5 -0.453125q3.546875 0 5.25 1.578125q1.703125 1.5625 1.703125 5.03125l0 13.515625l-2.21875 0zm-6.78125 -2.109375q2.796875 0 4.390625 -1.53125q1.609375 -1.546875 1.609375 -4.3125l0 -1.78125l-3.0 0.125q-3.578125 0.125 -5.15625 1.109375q-1.578125 0.984375 -1.578125 3.0625q0 1.625 0.984375 2.484375q0.984375 0.84375 2.75 0.84375zm18.353882 2.109375l-2.984375 0l0 -19.796875l2.984375 0l0 19.796875zm-3.25 -25.171875q0 -1.03125 0.5 -1.5q0.515625 -0.484375 1.28125 -0.484375q0.71875 0 1.234375 0.5q0.53125 0.484375 0.53125 1.484375q0 1.015625 -0.53125 1.515625q-0.515625 0.5 -1.234375 0.5q-0.765625 0 -1.28125 -0.5q-0.5 -0.5 -0.5 -1.515625zm12.691391 25.171875l-2.984375 0l0 -28.109375l2.984375 0l0 28.109375zm18.628891 0l-0.59375 -2.8125l-0.15625 0q-1.46875 1.859375 -2.953125 2.515625q-1.46875 0.65625 -3.671875 0.65625q-2.9375 0 -4.609375 -1.515625q-1.671875 -1.515625 -1.671875 -4.3125q0 -6.0 9.59375 -6.296875l3.359375 -0.109375l0 -1.21875q0 -2.328125 -1.015625 -3.4375q-1.0 -1.125 -3.203125 -1.125q-2.46875 0 -5.59375 1.515625l-0.921875 -2.28125q1.46875 -0.796875 3.203125 -1.25q1.75 -0.453125 3.5 -0.453125q3.546875 0 5.25 1.578125q1.703125 1.5625 1.703125 5.03125l0 13.515625l-2.21875 0zm-6.78125 -2.109375q2.796875 0 4.390625 -1.53125q1.609375 -1.546875 1.609375 -4.3125l0 -1.78125l-3.0 0.125q-3.578125 0.125 -5.15625 1.109375q-1.578125 0.984375 -1.578125 3.0625q0 1.625 0.984375 2.484375q0.984375 0.84375 2.75 0.84375zm24.572632 -18.015625q3.90625 0 6.0625 2.671875q2.15625 2.65625 2.15625 7.53125q0 4.875 -2.171875 7.578125q-2.171875 2.703125 -6.046875 2.703125q-1.9375 0 -3.53125 -0.703125q-1.59375 -0.71875 -2.6875 -2.203125l-0.203125 0l-0.640625 2.546875l-2.140625 0l0 -28.109375l2.984375 0l0 6.828125q0 2.296875 -0.140625 4.125l0.140625 0q2.109375 -2.96875 6.21875 -2.96875zm-0.4375 2.515625q-3.0625 0 -4.421875 1.765625q-1.359375 1.75 -1.359375 5.921875q0 4.171875 1.390625 5.96875q1.40625 1.796875 4.46875 1.796875q2.765625 0 4.109375 -2.0q1.359375 -2.015625 1.359375 -5.796875q0 -3.875 -1.359375 -5.765625q-1.34375 -1.890625 -4.1875 -1.890625zm17.09317 17.609375l-2.984375 0l0 -28.109375l2.984375 0l0 28.109375zm14.816376 0.359375q-4.390625 0 -6.9375 -2.671875q-2.53125 -2.671875 -2.53125 -7.421875q0 -4.796875 2.359375 -7.609375q2.359375 -2.8125 6.328125 -2.8125q3.71875 0 5.890625 2.453125q2.171875 2.4375 2.171875 6.453125l0 1.890625l-13.640625 0q0.09375 3.484375 1.765625 5.296875q1.671875 1.796875 4.703125 1.796875q3.1875 0 6.3125 -1.328125l0 2.671875q-1.578125 0.6875 -3.0 0.984375q-1.421875 0.296875 -3.421875 0.296875zm-0.8125 -18.015625q-2.390625 0 -3.8125 1.5625q-1.40625 1.546875 -1.671875 4.296875l10.359375 0q0 -2.84375 -1.265625 -4.34375q-1.265625 -1.515625 -3.609375 -1.515625zm44.623352 4.203125q0 6.53125 -3.5625 10.0q-3.546875 3.453125 -10.203125 3.453125l-7.328125 0l0 -26.40625l8.09375 0q6.171875 0 9.578125 3.421875q3.421875 3.40625 3.421875 9.53125zm-3.25 0.109375q0 -5.171875 -2.59375 -7.78125q-2.59375 -2.625 -7.703125 -2.625l-4.46875 0l0 21.09375l3.734375 0q5.5 0 8.265625 -2.703125q2.765625 -2.703125 2.765625 -7.984375zm29.431122 13.34375l-3.078125 0l0 -12.4375l-13.90625 0l0 12.4375l-3.078125 0l0 -26.40625l3.078125 0l0 11.234375l13.90625 0l0 -11.234375l3.078125 0l0 26.40625zm18.790436 -24.046875q-4.34375 0 -6.875 2.90625q-2.515625 2.890625 -2.515625 7.9375q0 5.1875 2.421875 8.015625q2.4375 2.828125 6.9375 2.828125q2.765625 0 6.296875 -1.0l0 2.6875q-2.734375 1.03125 -6.765625 1.03125q-5.84375 0 -9.015625 -3.53125q-3.15625 -3.546875 -3.15625 -10.078125q0 -4.078125 1.515625 -7.140625q1.53125 -3.078125 4.40625 -4.734375q2.890625 -1.671875 6.796875 -1.671875q4.140625 0 7.25 1.515625l-1.296875 2.640625q-3.0 -1.40625 -6.0 -1.40625zm28.986298 5.328125q0 4.015625 -2.734375 6.171875q-2.734375 2.15625 -7.828125 2.15625l-3.109375 0l0 10.390625l-3.078125 0l0 -26.40625l6.859375 0q9.890625 0 9.890625 7.6875zm-13.671875 5.6875l2.765625 0q4.078125 0 5.90625 -1.3125q1.828125 -1.3125 1.828125 -4.234375q0 -2.609375 -1.71875 -3.890625q-1.71875 -1.28125 -5.34375 -1.28125l-3.4375 0l0 10.71875zm41.420013 7.625q0 2.765625 -2.0625 4.265625q-2.0625 1.5 -5.78125 1.5q-3.9375 0 -6.140625 -1.25l0 -2.78125q1.421875 0.734375 3.0625 1.15625q1.640625 0.40625 3.15625 0.40625q2.34375 0 3.609375 -0.75q1.265625 -0.75 1.265625 -2.296875q0 -1.15625 -1.0 -1.96875q-1.0 -0.828125 -3.921875 -1.9375q-2.75 -1.03125 -3.921875 -1.796875q-1.171875 -0.78125 -1.734375 -1.75q-0.5625 -0.984375 -0.5625 -2.328125q0 -2.421875 1.96875 -3.8125q1.96875 -1.40625 5.390625 -1.40625q3.203125 0 6.25 1.296875l-1.0625 2.4375q-2.984375 -1.234375 -5.40625 -1.234375q-2.125 0 -3.21875 0.671875q-1.078125 0.671875 -1.078125 1.84375q0 0.796875 0.40625 1.359375q0.40625 0.5625 1.3125 1.0625q0.90625 0.5 3.46875 1.46875q3.53125 1.28125 4.765625 2.578125q1.234375 1.296875 1.234375 3.265625zm13.401154 5.765625q-4.390625 0 -6.9375 -2.671875q-2.53125 -2.671875 -2.53125 -7.421875q0 -4.796875 2.359375 -7.609375q2.359375 -2.8125 6.328125 -2.8125q3.71875 0 5.890625 2.453125q2.171875 2.4375 2.171875 6.453125l0 1.890625l-13.640625 0q0.09375 3.484375 1.765625 5.296875q1.671875 1.796875 4.703125 1.796875q3.1875 0 6.3125 -1.328125l0 2.671875q-1.578125 0.6875 -3.0 0.984375q-1.421875 0.296875 -3.421875 0.296875zm-0.8125 -18.015625q-2.390625 0 -3.8125 1.5625q-1.40625 1.546875 -1.671875 4.296875l10.359375 0q0 -2.84375 -1.265625 -4.34375q-1.265625 -1.515625 -3.609375 -1.515625zm22.426758 -2.5q1.3125 0 2.359375 0.203125l-0.40625 2.796875q-1.234375 -0.28125 -2.171875 -0.28125q-2.40625 0 -4.125 1.953125q-1.703125 1.953125 -1.703125 4.859375l0 10.625l-2.984375 0l0 -19.796875l2.46875 0l0.34375 3.65625l0.140625 0q1.109375 -1.921875 2.65625 -2.96875q1.5625 -1.046875 3.421875 -1.046875zm10.534332 20.15625l-7.515625 -19.796875l3.21875 0l4.265625 11.734375q1.4375 4.125 1.6875 5.359375l0.15625 0q0.1875 -0.96875 1.25 -3.96875q1.0625 -3.015625 4.75 -13.125l3.203125 0l-7.515625 19.796875l-3.5 0zm22.731812 0.359375q-4.390625 0 -6.9375 -2.671875q-2.5312805 -2.671875 -2.5312805 -7.421875q0 -4.796875 2.3594055 -7.609375q2.359375 -2.8125 6.328125 -2.8125q3.71875 0 5.890625 2.453125q2.171875 2.4375 2.171875 6.453125l0 1.890625l-13.640625 0q0.09375 3.484375 1.765625 5.296875q1.671875 1.796875 4.703125 1.796875q3.1875 0 6.3125 -1.328125l0 2.671875q-1.578125 0.6875 -3.0 0.984375q-1.421875 0.296875 -3.421875 0.296875zm-0.8125 -18.015625q-2.390625 0 -3.8125 1.5625q-1.40625 1.546875 -1.671875 4.296875l10.359375 0q0 -2.84375 -1.265625 -4.34375q-1.265625 -1.515625 -3.609375 -1.515625zm22.426758 -2.5q1.3125 0 2.359375 0.203125l-0.40625 2.796875q-1.234375 -0.28125 -2.171875 -0.28125q-2.40625 0 -4.125 1.953125q-1.703125 1.953125 -1.703125 4.859375l0 10.625l-2.984375 0l0 -19.796875l2.46875 0l0.34375 3.65625l0.140625 0q1.109375 -1.921875 2.65625 -2.96875q1.5625 -1.046875 3.421875 -1.046875zm18.971802 14.75q0 2.765625 -2.0625 4.265625q-2.0625 1.5 -5.78125 1.5q-3.9375 0 -6.140625 -1.25l0 -2.78125q1.421875 0.734375 3.0625 1.15625q1.640625 0.40625 3.15625 0.40625q2.34375 0 3.609375 -0.75q1.265625 -0.75 1.265625 -2.296875q0 -1.15625 -1.0 -1.96875q-1.0 -0.828125 -3.921875 -1.9375q-2.75 -1.03125 -3.921875 -1.796875q-1.171875 -0.78125 -1.734375 -1.75q-0.5625 -0.984375 -0.5625 -2.328125q0 -2.421875 1.96875 -3.8125q1.96875 -1.40625 5.390625 -1.40625q3.203125 0 6.25 1.296875l-1.0625 2.4375q-2.984375 -1.234375 -5.40625 -1.234375q-2.125 0 -3.21875 0.671875q-1.078125 0.671875 -1.078125 1.84375q0 0.796875 0.40625 1.359375q0.40625 0.5625 1.3125 1.0625q0.90625 0.5 3.46875 1.46875q3.53125 1.28125 4.765625 2.578125q1.234375 1.296875 1.234375 3.265625z" fill-rule="nonzero"></path><path fill="#cfe2f3" d="m543.97504 151.32521l0 0c-1.7937622 -7.762436 4.09552 -15.446777 15.168762 -19.792282c11.073303 -4.345497 25.38855 -4.5900497 36.871338 -0.62986755l0 0c4.067505 -4.513405 11.512329 -7.6296005 20.082458 -8.405998c8.570129 -0.7763977 17.259033 0.8781967 23.438416 4.463295l0 0c3.4650269 -4.09214 10.268677 -6.8415375 17.996643 -7.27256c7.7279663 -0.43102264 15.28656 1.517334 19.993591 5.153679l0 0c6.260071 -4.3376617 16.220032 -6.163994 25.570068 -4.688736c9.350098 1.4752502 16.41095 5.987129 18.12732 11.583313l0 0c7.6696777 1.2319183 14.058289 4.3636017 17.51538 8.5859375c3.4570312 4.222336 3.6433105 9.121124 0.5107422 13.430649l0 0c7.552368 5.7881775 9.319031 13.50087 4.640747 20.259811c-4.6782837 6.7589417 -15.098694 11.548691 -27.372498 12.581802c-0.08648682 6.343521 -5.994507 12.164246 -15.446716 15.218628c-9.4522705 3.0543823 -20.972778 2.8654785 -30.121033 -0.493927c-3.8966675 7.597458 -14.864563 13.187592 -28.16504 14.355255c-13.300537 1.1676636 -26.549316 -2.2964478 -34.0224 -8.895737c-9.160461 3.2528076 -20.152222 4.18985 -30.49585 2.5997162c-10.343567 -1.5901184 -19.167664 -5.5734406 -24.48175 -11.051422l0 0c-9.36084 0.64505005 -18.411438 -2.2108612 -22.660095 -7.150345c-4.248657 -4.9394684 -2.7908325 -10.911026 3.6499023 -14.951004l0 0c-8.350159 -2.894043 -12.61084 -8.636795 -10.560425 -14.233612c2.050476 -5.5968323 9.947449 -9.77948 19.57306 -10.366867z" fill-rule="nonzero"></path><path fill="#000000" fill-opacity="0.0" d="m534.77734 176.22487l0 0c3.9404907 1.3657074 8.492615 1.9852142 13.045227 1.7753601m5.9629517 20.326477c1.9578247 -0.13491821 3.876831 -0.42059326 5.7075806 -0.8497009m49.267273 9.301056c-1.3769531 -1.2159729 -2.5298462 -2.5153503 -3.4390259 -3.8759918m65.628845 -1.5837555l0 0c0.7104492 -1.3851318 1.1707153 -2.81073 1.37323 -4.253006m44.19281 -10.471161c0.09210205 -6.753647 -6.421997 -12.937347 -16.744385 -15.895035m39.47589 -16.945862c-1.6716309 2.2997437 -4.223633 4.339813 -7.4558716 5.960251m-10.568665 -27.977448l0 0c0.28485107 0.9286957 0.416687 1.8713379 0.39361572 2.8148804m-44.09027 -9.709175l0 0c-1.5615234 1.0820312 -2.8480835 2.291191 -3.819519 3.5898209m-34.17102 -1.4714127l0 0c-0.83221436 0.98280334 -1.4536133 2.0227737 -1.8499756 3.095955m-41.67157 0.8468323l0 0c2.4297485 0.8379669 4.6775513 1.8465576 6.694153 3.003601m-58.73358 17.418655l0 0c0.24719238 1.06987 0.6378784 2.1265411 1.1682129 3.160141" fill-rule="nonzero"></path><path stroke="#000000" stroke-width="2.0" stroke-linejoin="round" stroke-linecap="butt" d="m543.97504 151.32521l0 0c-1.7937622 -7.762436 4.09552 -15.446777 15.168762 -19.792282c11.073303 -4.345497 25.38855 -4.5900497 36.871338 -0.62986755l0 0c4.067505 -4.513405 11.512329 -7.6296005 20.082458 -8.405998c8.570129 -0.7763977 17.259033 0.8781967 23.438416 4.463295l0 0c3.4650269 -4.09214 10.268677 -6.8415375 17.996643 -7.27256c7.7279663 -0.43102264 15.28656 1.517334 19.993591 5.153679l0 0c6.260071 -4.3376617 16.220032 -6.163994 25.570068 -4.688736c9.350098 1.4752502 16.41095 5.987129 18.12732 11.583313l0 0c7.6696777 1.2319183 14.058289 4.3636017 17.51538 8.5859375c3.4570312 4.222336 3.6433105 9.121124 0.5107422 13.430649l0 0c7.552368 5.7881775 9.319031 13.50087 4.640747 20.259811c-4.6782837 6.7589417 -15.098694 11.548691 -27.372498 12.581802c-0.08648682 6.343521 -5.994507 12.164246 -15.446716 15.218628c-9.4522705 3.0543823 -20.972778 2.8654785 -30.121033 -0.493927c-3.8966675 7.597458 -14.864563 13.187592 -28.16504 14.355255c-13.300537 1.1676636 -26.549316 -2.2964478 -34.0224 -8.895737c-9.160461 3.2528076 -20.152222 4.18985 -30.49585 2.5997162c-10.343567 -1.5901184 -19.167664 -5.5734406 -24.48175 -11.051422l0 0c-9.36084 0.64505005 -18.411438 -2.2108612 -22.660095 -7.150345c-4.248657 -4.9394684 -2.7908325 -10.911026 3.6499023 -14.951004l0 0c-8.350159 -2.894043 -12.61084 -8.636795 -10.560425 -14.233612c2.050476 -5.5968323 9.947449 -9.77948 19.57306 -10.366867z" fill-rule="nonzero"></path><path stroke="#000000" stroke-width="2.0" stroke-linejoin="round" stroke-linecap="butt" d="m534.77734 176.22487l0 0c3.9404907 1.3657074 8.492615 1.9852142 13.045227 1.7753601m5.9629517 20.326477c1.9578247 -0.13491821 3.876831 -0.42059326 5.7075806 -0.8497009m49.267273 9.301056c-1.3769531 -1.2159729 -2.5298462 -2.5153503 -3.4390259 -3.8759918m65.628845 -1.5837555l0 0c0.7104492 -1.3851318 1.1707153 -2.81073 1.37323 -4.253006m44.19281 -10.471161c0.09210205 -6.753647 -6.421997 -12.937347 -16.744385 -15.895035m39.47589 -16.945862c-1.6716309 2.2997437 -4.223633 4.339813 -7.4558716 5.960251m-10.568665 -27.977448l0 0c0.28485107 0.9286957 0.416687 1.8713379 0.39361572 2.8148804m-44.09027 -9.709175l0 0c-1.5615234 1.0820312 -2.8480835 2.291191 -3.819519 3.5898209m-34.17102 -1.4714127l0 0c-0.83221436 0.98280334 -1.4536133 2.0227737 -1.8499756 3.095955m-41.67157 0.8468323l0 0c2.4297485 0.8379669 4.6775513 1.8465576 6.694153 3.003601m-58.73358 17.418655l0 0c0.24719238 1.06987 0.6378784 2.1265411 1.1682129 3.160141" fill-rule="nonzero"></path><path fill="#efefef" d="m447.33047 337.9623l174.36221 0l0 191.02365l-174.36221 0z" fill-rule="nonzero"></path><path stroke="#000000" stroke-width="2.0" stroke-linejoin="round" stroke-linecap="butt" d="m447.33047 337.9623l174.36221 0l0 191.02365l-174.36221 0z" fill-rule="nonzero"></path><path fill="#efefef" d="m661.12897 337.9623l174.36224 0l0 191.02365l-174.36224 0z" fill-rule="nonzero"></path><path stroke="#000000" stroke-width="2.0" stroke-linejoin="round" stroke-linecap="butt" d="m661.12897 337.9623l174.36224 0l0 191.02365l-174.36224 0z" fill-rule="nonzero"></path><path fill="#92c68c" d="m674.1601 410.8766l143.9685 0l0 37.165375l-143.9685 0z" fill-rule="nonzero"></path><path stroke="#000000" stroke-width="2.0" stroke-linejoin="round" stroke-linecap="butt" d="m674.1601 410.8766l143.9685 0l0 37.165375l-143.9685 0z" fill-rule="nonzero"></path><path fill="#000000" d="m727.75903 435.0199l-0.078125 0q-1.0625 1.546875 -3.1875 1.546875q-2.0 0 -3.109375 -1.359375q-1.109375 -1.375 -1.109375 -3.890625q0 -2.515625 1.109375 -3.90625q1.125 -1.390625 3.109375 -1.390625q2.0625 0 3.171875 1.515625l0.125 0l-0.078125 -0.734375l-0.03125 -0.71875l0 -4.140625l1.546875 0l0 14.4375l-1.25 0l-0.21875 -1.359375zm-3.078125 0.25q1.578125 0 2.28125 -0.859375q0.71875 -0.859375 0.71875 -2.765625l0 -0.328125q0 -2.15625 -0.71875 -3.078125q-0.71875 -0.921875 -2.296875 -0.921875q-1.359375 0 -2.078125 1.0625q-0.71875 1.046875 -0.71875 2.96875q0 1.9375 0.71875 2.9375q0.71875 0.984375 2.09375 0.984375zm14.557373 1.109375l0 -6.578125q0 -1.25 -0.578125 -1.859375q-0.5625 -0.609375 -1.765625 -0.609375q-1.609375 0 -2.34375 0.875q-0.734375 0.875 -0.734375 2.859375l0 5.3125l-1.53125 0l0 -14.4375l1.53125 0l0 4.375q0 0.78125 -0.078125 1.296875l0.09375 0q0.453125 -0.71875 1.296875 -1.140625q0.84375 -0.421875 1.921875 -0.421875q1.859375 0 2.78125 0.890625q0.9375 0.875 0.9375 2.796875l0 6.640625l-1.53125 0zm8.560059 0.1875q-2.21875 0 -3.4375 -1.359375q-1.203125 -1.359375 -1.203125 -3.84375q0 -2.5625 1.234375 -3.953125q1.234375 -1.390625 3.5 -1.390625q0.734375 0 1.46875 0.171875q0.734375 0.15625 1.15625 0.359375l-0.484375 1.3125q-0.5 -0.203125 -1.109375 -0.328125q-0.609375 -0.140625 -1.0625 -0.140625q-3.109375 0 -3.109375 3.953125q0 1.875 0.75 2.875q0.765625 1.0 2.25 1.0q1.28125 0 2.609375 -0.546875l0 1.359375q-1.015625 0.53125 -2.5625 0.53125zm9.537964 0q-0.984375 0 -1.8125 -0.359375q-0.8125 -0.375 -1.375 -1.140625l-0.109375 0q0.109375 0.890625 0.109375 1.6875l0 4.1875l-1.53125 0l0 -14.734375l1.25 0l0.203125 1.390625l0.078125 0q0.59375 -0.828125 1.375 -1.203125q0.796875 -0.375 1.8125 -0.375q2.03125 0 3.125 1.390625q1.09375 1.375 1.09375 3.875q0 2.5 -1.125 3.890625q-1.109375 1.390625 -3.09375 1.390625zm-0.21875 -9.234375q-1.5625 0 -2.265625 0.875q-0.6875 0.859375 -0.703125 2.734375l0 0.34375q0 2.140625 0.71875 3.0625q0.71875 0.921875 2.28125 0.921875q1.328125 0 2.0625 -1.0625q0.75 -1.0625 0.75 -2.9375q0 -1.90625 -0.75 -2.921875q-0.734375 -1.015625 -2.09375 -1.015625zm15.135559 9.046875l-8.921875 0l0 -1.328125l3.578125 -3.59375q1.625 -1.640625 2.140625 -2.34375q0.53125 -0.71875 0.78125 -1.375q0.265625 -0.671875 0.265625 -1.4375q0 -1.09375 -0.65625 -1.71875q-0.65625 -0.640625 -1.828125 -0.640625q-0.84375 0 -1.609375 0.28125q-0.75 0.265625 -1.671875 1.0l-0.8125 -1.046875q1.875 -1.5625 4.078125 -1.5625q1.90625 0 2.984375 0.984375q1.09375 0.984375 1.09375 2.625q0 1.296875 -0.71875 2.5625q-0.71875 1.25 -2.71875 3.1875l-2.96875 2.90625l0 0.078125l6.984375 0l0 1.421875z" fill-rule="nonzero"></path><path fill="#000000" fill-opacity="0.0" d="m445.1638 296.27667l174.36221 0l0 37.165375l-174.36221 0z" fill-rule="nonzero"></path><path fill="#000000" d="m462.75754 323.1967l0 -6.578125q0 -1.25 -0.578125 -1.859375q-0.5625 -0.609375 -1.765625 -0.609375q-1.59375 0 -2.34375 0.875q-0.734375 0.859375 -0.734375 2.84375l0 5.328125l-1.53125 0l0 -10.171875l1.25 0l0.25 1.390625l0.0625 0q0.484375 -0.75 1.328125 -1.15625q0.859375 -0.421875 1.90625 -0.421875q1.84375 0 2.765625 0.890625q0.921875 0.890625 0.921875 2.828125l0 6.640625l-1.53125 0zm11.450653 0l0 -6.578125q0 -1.25 -0.578125 -1.859375q-0.5625 -0.609375 -1.765625 -0.609375q-1.59375 0 -2.34375 0.875q-0.734375 0.859375 -0.734375 2.84375l0 5.328125l-1.53125 0l0 -10.171875l1.25 0l0.25 1.390625l0.0625 0q0.484375 -0.75 1.328125 -1.15625q0.859375 -0.421875 1.90625 -0.421875q1.84375 0 2.765625 0.890625q0.921875 0.890625 0.921875 2.828125l0 6.640625l-1.53125 0zm9.497498 0l-1.515625 0l0 -9.671875q0 -1.203125 0.078125 -2.28125q-0.1875 0.203125 -0.4375 0.421875q-0.234375 0.203125 -2.203125 1.796875l-0.8125 -1.0625l3.578125 -2.765625l1.3125 0l0 13.5625z" fill-rule="nonzero"></path><path fill="#000000" fill-opacity="0.0" d="m658.96234 296.27667l174.36218 0l0 37.165375l-174.36218 0z" fill-rule="nonzero"></path><path fill="#000000" d="m676.5561 323.1967l0 -6.578125q0 -1.25 -0.578125 -1.859375q-0.5625 -0.609375 -1.765625 -0.609375q-1.59375 0 -2.34375 0.875q-0.734375 0.859375 -0.734375 2.84375l0 5.328125l-1.53125 0l0 -10.171875l1.25 0l0.25 1.390625l0.0625 0q0.484375 -0.75 1.328125 -1.15625q0.859375 -0.421875 1.90625 -0.421875q1.84375 0 2.765625 0.890625q0.921875 0.890625 0.921875 2.828125l0 6.640625l-1.53125 0zm11.450623 0l0 -6.578125q0 -1.25 -0.578125 -1.859375q-0.5625 -0.609375 -1.765625 -0.609375q-1.59375 0 -2.34375 0.875q-0.734375 0.859375 -0.734375 2.84375l0 5.328125l-1.53125 0l0 -10.171875l1.25 0l0.25 1.390625l0.0625 0q0.484375 -0.75 1.328125 -1.15625q0.859375 -0.421875 1.90625 -0.421875q1.84375 0 2.765625 0.890625q0.921875 0.890625 0.921875 2.828125l0 6.640625l-1.53125 0zm12.700623 0l-8.921875 0l0 -1.328125l3.578125 -3.59375q1.625 -1.640625 2.140625 -2.34375q0.53125 -0.71875 0.78125 -1.375q0.265625 -0.671875 0.265625 -1.4375q0 -1.09375 -0.65625 -1.71875q-0.65625 -0.640625 -1.828125 -0.640625q-0.84375 0 -1.609375 0.28125q-0.75 0.265625 -1.671875 1.0l-0.8125 -1.046875q1.875 -1.5625 4.078125 -1.5625q1.90625 0 2.984375 0.984375q1.09375 0.984375 1.09375 2.625q0 1.296875 -0.71875 2.5625q-0.71875 1.25 -2.71875 3.1875l-2.96875 2.90625l0 0.078125l6.984375 0l0 1.421875z" fill-rule="nonzero"></path><path fill="#000000" fill-opacity="0.0" d="m447.34647 275.7874l388.97635 0" fill-rule="nonzero"></path><path stroke="#000000" stroke-width="2.0" stroke-linejoin="round" stroke-linecap="butt" d="m447.34647 275.7874l388.97635 0" fill-rule="nonzero"></path><path fill="#000000" fill-opacity="0.0" d="m575.9526 277.46014l0 60.0" fill-rule="nonzero"></path><path stroke="#000000" stroke-width="2.0" stroke-linejoin="round" stroke-linecap="butt" d="m575.9526 277.46014l0 60.0" fill-rule="nonzero"></path><path fill="#000000" fill-opacity="0.0" d="m785.56036 277.46014l0 60.0" fill-rule="nonzero"></path><path stroke="#000000" stroke-width="2.0" stroke-linejoin="round" stroke-linecap="butt" d="m785.56036 277.46014l0 60.0" fill-rule="nonzero"></path><path fill="#000000" fill-opacity="0.0" d="m639.2448 215.54663l0 60.0" fill-rule="nonzero"></path><path stroke="#000000" stroke-width="2.0" stroke-linejoin="round" stroke-linecap="butt" d="m639.2448 215.54663l0 60.0" fill-rule="nonzero"></path><path fill="#9fc5e8" d="m460.3596 357.59317l143.96848 0l0 37.165375l-143.96848 0z" fill-rule="nonzero"></path><path stroke="#000000" stroke-width="2.0" stroke-linejoin="round" stroke-linecap="butt" d="m460.3596 357.59317l143.96848 0l0 37.165375l-143.96848 0z" fill-rule="nonzero"></path><path fill="#000000" d="m513.9585 381.73648l-0.078125 0q-1.0625 1.546875 -3.1875305 1.546875q-2.0 0 -3.109375 -1.359375q-1.109375 -1.375 -1.109375 -3.890625q0 -2.515625 1.109375 -3.90625q1.125 -1.390625 3.109375 -1.390625q2.0625305 0 3.1719055 1.515625l0.125 0l-0.078125 -0.734375l-0.03125 -0.71875l0 -4.140625l1.546875 0l0 14.4375l-1.25 0l-0.21875 -1.359375zm-3.0781555 0.25q1.5781555 0 2.2812805 -0.859375q0.71875 -0.859375 0.71875 -2.765625l0 -0.328125q0 -2.15625 -0.71875 -3.078125q-0.71875 -0.921875 -2.2969055 -0.921875q-1.359375 0 -2.078125 1.0625q-0.71875 1.046875 -0.71875 2.96875q0 1.9375 0.71875 2.9375q0.71875 0.984375 2.09375 0.984375zm14.557404 1.109375l0 -6.578125q0 -1.25 -0.578125 -1.859375q-0.5625 -0.609375 -1.765625 -0.609375q-1.609375 0 -2.34375 0.875q-0.734375 0.875 -0.734375 2.859375l0 5.3125l-1.53125 0l0 -14.4375l1.53125 0l0 4.375q0 0.78125 -0.078125 1.296875l0.09375 0q0.453125 -0.71875 1.296875 -1.140625q0.84375 -0.421875 1.921875 -0.421875q1.859375 0 2.78125 0.890625q0.9375 0.875 0.9375 2.796875l0 6.640625l-1.53125 0zm8.560059 0.1875q-2.21875 0 -3.4375 -1.359375q-1.203125 -1.359375 -1.203125 -3.84375q0 -2.5625 1.234375 -3.953125q1.234375 -1.390625 3.5 -1.390625q0.734375 0 1.46875 0.171875q0.734375 0.15625 1.15625 0.359375l-0.484375 1.3125q-0.5 -0.203125 -1.109375 -0.328125q-0.609375 -0.140625 -1.0625 -0.140625q-3.109375 0 -3.109375 3.953125q0 1.875 0.75 2.875q0.765625 1.0 2.25 1.0q1.28125 0 2.609375 -0.546875l0 1.359375q-1.015625 0.53125 -2.5625 0.53125zm9.537964 0q-0.984375 0 -1.8125 -0.359375q-0.8125 -0.375 -1.375 -1.140625l-0.109375 0q0.109375 0.890625 0.109375 1.6875l0 4.1875l-1.53125 0l0 -14.734375l1.25 0l0.203125 1.390625l0.078125 0q0.59375 -0.828125 1.375 -1.203125q0.796875 -0.375 1.8125 -0.375q2.03125 0 3.125 1.390625q1.09375 1.375 1.09375 3.875q0 2.5 -1.125 3.890625q-1.109375 1.390625 -3.09375 1.390625zm-0.21875 -9.234375q-1.5625 0 -2.265625 0.875q-0.6875 0.859375 -0.703125 2.734375l0 0.34375q0 2.140625 0.71875 3.0625q0.71875 0.921875 2.28125 0.921875q1.328125 0 2.0625 -1.0625q0.75 -1.0625 0.75 -2.9375q0 -1.90625 -0.75 -2.921875q-0.734375 -1.015625 -2.09375 -1.015625zm11.932434 9.046875l-1.515625 0l0 -9.671875q0 -1.203125 0.078125 -2.28125q-0.1875 0.203125 -0.4375 0.421875q-0.234375 0.203125 -2.203125 1.796875l-0.8125 -1.0625l3.578125 -2.765625l1.3125 0l0 13.5625z" fill-rule="nonzero"></path><path fill="#000000" fill-opacity="0.0" d="m24.0 120.25459l436.9449 0l0 263.40155l-436.9449 0z" fill-rule="nonzero"></path><path fill="#92c68c" d="m460.3596 410.8766l143.96848 0l0 37.165375l-143.96848 0z" fill-rule="nonzero"></path><path stroke="#000000" stroke-width="2.0" stroke-linejoin="round" stroke-linecap="butt" d="m460.3596 410.8766l143.96848 0l0 37.165375l-143.96848 0z" fill-rule="nonzero"></path><path fill="#000000" d="m513.9585 435.0199l-0.078125 0q-1.0625 1.546875 -3.1875305 1.546875q-2.0 0 -3.109375 -1.359375q-1.109375 -1.375 -1.109375 -3.890625q0 -2.515625 1.109375 -3.90625q1.125 -1.390625 3.109375 -1.390625q2.0625305 0 3.1719055 1.515625l0.125 0l-0.078125 -0.734375l-0.03125 -0.71875l0 -4.140625l1.546875 0l0 14.4375l-1.25 0l-0.21875 -1.359375zm-3.0781555 0.25q1.5781555 0 2.2812805 -0.859375q0.71875 -0.859375 0.71875 -2.765625l0 -0.328125q0 -2.15625 -0.71875 -3.078125q-0.71875 -0.921875 -2.2969055 -0.921875q-1.359375 0 -2.078125 1.0625q-0.71875 1.046875 -0.71875 2.96875q0 1.9375 0.71875 2.9375q0.71875 0.984375 2.09375 0.984375zm14.557404 1.109375l0 -6.578125q0 -1.25 -0.578125 -1.859375q-0.5625 -0.609375 -1.765625 -0.609375q-1.609375 0 -2.34375 0.875q-0.734375 0.875 -0.734375 2.859375l0 5.3125l-1.53125 0l0 -14.4375l1.53125 0l0 4.375q0 0.78125 -0.078125 1.296875l0.09375 0q0.453125 -0.71875 1.296875 -1.140625q0.84375 -0.421875 1.921875 -0.421875q1.859375 0 2.78125 0.890625q0.9375 0.875 0.9375 2.796875l0 6.640625l-1.53125 0zm8.560059 0.1875q-2.21875 0 -3.4375 -1.359375q-1.203125 -1.359375 -1.203125 -3.84375q0 -2.5625 1.234375 -3.953125q1.234375 -1.390625 3.5 -1.390625q0.734375 0 1.46875 0.171875q0.734375 0.15625 1.15625 0.359375l-0.484375 1.3125q-0.5 -0.203125 -1.109375 -0.328125q-0.609375 -0.140625 -1.0625 -0.140625q-3.109375 0 -3.109375 3.953125q0 1.875 0.75 2.875q0.765625 1.0 2.25 1.0q1.28125 0 2.609375 -0.546875l0 1.359375q-1.015625 0.53125 -2.5625 0.53125zm9.537964 0q-0.984375 0 -1.8125 -0.359375q-0.8125 -0.375 -1.375 -1.140625l-0.109375 0q0.109375 0.890625 0.109375 1.6875l0 4.1875l-1.53125 0l0 -14.734375l1.25 0l0.203125 1.390625l0.078125 0q0.59375 -0.828125 1.375 -1.203125q0.796875 -0.375 1.8125 -0.375q2.03125 0 3.125 1.390625q1.09375 1.375 1.09375 3.875q0 2.5 -1.125 3.890625q-1.109375 1.390625 -3.09375 1.390625zm-0.21875 -9.234375q-1.5625 0 -2.265625 0.875q-0.6875 0.859375 -0.703125 2.734375l0 0.34375q0 2.140625 0.71875 3.0625q0.71875 0.921875 2.28125 0.921875q1.328125 0 2.0625 -1.0625q0.75 -1.0625 0.75 -2.9375q0 -1.90625 -0.75 -2.921875q-0.734375 -1.015625 -2.09375 -1.015625zm15.135559 9.046875l-8.921875 0l0 -1.328125l3.578125 -3.59375q1.625 -1.640625 2.140625 -2.34375q0.53125 -0.71875 0.78125 -1.375q0.265625 -0.671875 0.265625 -1.4375q0 -1.09375 -0.65625 -1.71875q-0.65625 -0.640625 -1.828125 -0.640625q-0.84375 0 -1.609375 0.28125q-0.75 0.265625 -1.671875 1.0l-0.8125 -1.046875q1.875 -1.5625 4.078125 -1.5625q1.90625 0 2.984375 0.984375q1.09375 0.984375 1.09375 2.625q0 1.296875 -0.71875 2.5625q-0.71875 1.25 -2.71875 3.1875l-2.96875 2.90625l0 0.078125l6.984375 0l0 1.421875z" fill-rule="nonzero"></path><path fill="#9fc5e8" d="m676.32544 357.59317l143.9685 0l0 37.165375l-143.9685 0z" fill-rule="nonzero"></path><path stroke="#000000" stroke-width="2.0" stroke-linejoin="round" stroke-linecap="butt" d="m676.32544 357.59317l143.9685 0l0 37.165375l-143.9685 0z" fill-rule="nonzero"></path><path fill="#000000" d="m729.9244 381.73648l-0.078125 0q-1.0625 1.546875 -3.1875 1.546875q-2.0 0 -3.109375 -1.359375q-1.109375 -1.375 -1.109375 -3.890625q0 -2.515625 1.109375 -3.90625q1.125 -1.390625 3.109375 -1.390625q2.0625 0 3.171875 1.515625l0.125 0l-0.078125 -0.734375l-0.03125 -0.71875l0 -4.140625l1.546875 0l0 14.4375l-1.25 0l-0.21875 -1.359375zm-3.078125 0.25q1.578125 0 2.28125 -0.859375q0.71875 -0.859375 0.71875 -2.765625l0 -0.328125q0 -2.15625 -0.71875 -3.078125q-0.71875 -0.921875 -2.296875 -0.921875q-1.359375 0 -2.078125 1.0625q-0.71875 1.046875 -0.71875 2.96875q0 1.9375 0.71875 2.9375q0.71875 0.984375 2.09375 0.984375zm14.557373 1.109375l0 -6.578125q0 -1.25 -0.578125 -1.859375q-0.5625 -0.609375 -1.765625 -0.609375q-1.609375 0 -2.34375 0.875q-0.734375 0.875 -0.734375 2.859375l0 5.3125l-1.53125 0l0 -14.4375l1.53125 0l0 4.375q0 0.78125 -0.078125 1.296875l0.09375 0q0.453125 -0.71875 1.296875 -1.140625q0.84375 -0.421875 1.921875 -0.421875q1.859375 0 2.78125 0.890625q0.9375 0.875 0.9375 2.796875l0 6.640625l-1.53125 0zm8.560059 0.1875q-2.21875 0 -3.4375 -1.359375q-1.203125 -1.359375 -1.203125 -3.84375q0 -2.5625 1.234375 -3.953125q1.234375 -1.390625 3.5 -1.390625q0.734375 0 1.46875 0.171875q0.734375 0.15625 1.15625 0.359375l-0.484375 1.3125q-0.5 -0.203125 -1.109375 -0.328125q-0.609375 -0.140625 -1.0625 -0.140625q-3.109375 0 -3.109375 3.953125q0 1.875 0.75 2.875q0.765625 1.0 2.25 1.0q1.28125 0 2.609375 -0.546875l0 1.359375q-1.015625 0.53125 -2.5625 0.53125zm9.537964 0q-0.984375 0 -1.8125 -0.359375q-0.8125 -0.375 -1.375 -1.140625l-0.109375 0q0.109375 0.890625 0.109375 1.6875l0 4.1875l-1.53125 0l0 -14.734375l1.25 0l0.203125 1.390625l0.078125 0q0.59375 -0.828125 1.375 -1.203125q0.796875 -0.375 1.8125 -0.375q2.03125 0 3.125 1.390625q1.09375 1.375 1.09375 3.875q0 2.5 -1.125 3.890625q-1.109375 1.390625 -3.09375 1.390625zm-0.21875 -9.234375q-1.5625 0 -2.265625 0.875q-0.6875 0.859375 -0.703125 2.734375l0 0.34375q0 2.140625 0.71875 3.0625q0.71875 0.921875 2.28125 0.921875q1.328125 0 2.0625 -1.0625q0.75 -1.0625 0.75 -2.9375q0 -1.90625 -0.75 -2.921875q-0.734375 -1.015625 -2.09375 -1.015625zm11.932434 9.046875l-1.515625 0l0 -9.671875q0 -1.203125 0.078125 -2.28125q-0.1875 0.203125 -0.4375 0.421875q-0.234375 0.203125 -2.203125 1.796875l-0.8125 -1.0625l3.578125 -2.765625l1.3125 0l0 13.5625z" fill-rule="nonzero"></path><path fill="#ffab40" d="m460.3596 464.16006l143.96848 0l0 37.165344l-143.96848 0z" fill-rule="nonzero"></path><path stroke="#000000" stroke-width="2.0" stroke-linejoin="round" stroke-linecap="butt" d="m460.3596 464.16006l143.96848 0l0 37.165344l-143.96848 0z" fill-rule="nonzero"></path><path fill="#000000" d="m513.9585 488.30338l-0.078125 0q-1.0625 1.546875 -3.1875305 1.546875q-2.0 0 -3.109375 -1.359375q-1.109375 -1.375 -1.109375 -3.890625q0 -2.515625 1.109375 -3.90625q1.125 -1.390625 3.109375 -1.390625q2.0625305 0 3.1719055 1.515625l0.125 0l-0.078125 -0.734375l-0.03125 -0.71875l0 -4.140625l1.546875 0l0 14.4375l-1.25 0l-0.21875 -1.359375zm-3.0781555 0.25q1.5781555 0 2.2812805 -0.859375q0.71875 -0.859375 0.71875 -2.765625l0 -0.328125q0 -2.15625 -0.71875 -3.078125q-0.71875 -0.921875 -2.2969055 -0.921875q-1.359375 0 -2.078125 1.0625q-0.71875 1.046875 -0.71875 2.96875q0 1.9375 0.71875 2.9375q0.71875 0.984375 2.09375 0.984375zm14.557404 1.109375l0 -6.578125q0 -1.25 -0.578125 -1.859375q-0.5625 -0.609375 -1.765625 -0.609375q-1.609375 0 -2.34375 0.875q-0.734375 0.875 -0.734375 2.859375l0 5.3125l-1.53125 0l0 -14.4375l1.53125 0l0 4.375q0 0.78125 -0.078125 1.296875l0.09375 0q0.453125 -0.71875 1.296875 -1.140625q0.84375 -0.421875 1.921875 -0.421875q1.859375 0 2.78125 0.890625q0.9375 0.875 0.9375 2.796875l0 6.640625l-1.53125 0zm8.560059 0.1875q-2.21875 0 -3.4375 -1.359375q-1.203125 -1.359375 -1.203125 -3.84375q0 -2.5625 1.234375 -3.953125q1.234375 -1.390625 3.5 -1.390625q0.734375 0 1.46875 0.171875q0.734375 0.15625 1.15625 0.359375l-0.484375 1.3125q-0.5 -0.203125 -1.109375 -0.328125q-0.609375 -0.140625 -1.0625 -0.140625q-3.109375 0 -3.109375 3.953125q0 1.875 0.75 2.875q0.765625 1.0 2.25 1.0q1.28125 0 2.609375 -0.546875l0 1.359375q-1.015625 0.53125 -2.5625 0.53125zm9.537964 0q-0.984375 0 -1.8125 -0.359375q-0.8125 -0.375 -1.375 -1.140625l-0.109375 0q0.109375 0.890625 0.109375 1.6875l0 4.1875l-1.53125 0l0 -14.734375l1.25 0l0.203125 1.390625l0.078125 0q0.59375 -0.828125 1.375 -1.203125q0.796875 -0.375 1.8125 -0.375q2.03125 0 3.125 1.390625q1.09375 1.375 1.09375 3.875q0 2.5 -1.125 3.890625q-1.109375 1.390625 -3.09375 1.390625zm-0.21875 -9.234375q-1.5625 0 -2.265625 0.875q-0.6875 0.859375 -0.703125 2.734375l0 0.34375q0 2.140625 0.71875 3.0625q0.71875 0.921875 2.28125 0.921875q1.328125 0 2.0625 -1.0625q0.75 -1.0625 0.75 -2.9375q0 -1.90625 -0.75 -2.921875q-0.734375 -1.015625 -2.09375 -1.015625zm14.619934 -1.328125q0 1.296875 -0.734375 2.125q-0.71875 0.828125 -2.046875 1.109375l0 0.078125q1.625 0.203125 2.40625 1.03125q0.796875 0.828125 0.796875 2.1875q0 1.9375 -1.34375 2.984375q-1.34375 1.046875 -3.828125 1.046875q-1.078125 0 -1.96875 -0.171875q-0.890625 -0.15625 -1.734375 -0.5625l0 -1.46875q0.875 0.4375 1.875 0.671875q1.0 0.21875 1.890625 0.21875q3.515625 0 3.515625 -2.75q0 -2.46875 -3.875 -2.46875l-1.34375 0l0 -1.328125l1.359375 0q1.578125 0 2.5 -0.703125q0.9375 -0.703125 0.9375 -1.9375q0 -1.0 -0.6875 -1.5625q-0.671875 -0.5625 -1.84375 -0.5625q-0.890625 0 -1.6875 0.25q-0.78125 0.234375 -1.796875 0.875l-0.765625 -1.03125q0.828125 -0.65625 1.921875 -1.03125q1.09375 -0.390625 2.296875 -0.390625q1.96875 0 3.0625 0.90625q1.09375 0.90625 1.09375 2.484375z" fill-rule="nonzero"></path><path fill="#ffab40" d="m674.1601 464.16006l143.9685 0l0 37.165344l-143.9685 0z" fill-rule="nonzero"></path><path stroke="#000000" stroke-width="2.0" stroke-linejoin="round" stroke-linecap="butt" d="m674.1601 464.16006l143.9685 0l0 37.165344l-143.9685 0z" fill-rule="nonzero"></path><path fill="#000000" d="m727.75903 488.30338l-0.078125 0q-1.0625 1.546875 -3.1875 1.546875q-2.0 0 -3.109375 -1.359375q-1.109375 -1.375 -1.109375 -3.890625q0 -2.515625 1.109375 -3.90625q1.125 -1.390625 3.109375 -1.390625q2.0625 0 3.171875 1.515625l0.125 0l-0.078125 -0.734375l-0.03125 -0.71875l0 -4.140625l1.546875 0l0 14.4375l-1.25 0l-0.21875 -1.359375zm-3.078125 0.25q1.578125 0 2.28125 -0.859375q0.71875 -0.859375 0.71875 -2.765625l0 -0.328125q0 -2.15625 -0.71875 -3.078125q-0.71875 -0.921875 -2.296875 -0.921875q-1.359375 0 -2.078125 1.0625q-0.71875 1.046875 -0.71875 2.96875q0 1.9375 0.71875 2.9375q0.71875 0.984375 2.09375 0.984375zm14.557373 1.109375l0 -6.578125q0 -1.25 -0.578125 -1.859375q-0.5625 -0.609375 -1.765625 -0.609375q-1.609375 0 -2.34375 0.875q-0.734375 0.875 -0.734375 2.859375l0 5.3125l-1.53125 0l0 -14.4375l1.53125 0l0 4.375q0 0.78125 -0.078125 1.296875l0.09375 0q0.453125 -0.71875 1.296875 -1.140625q0.84375 -0.421875 1.921875 -0.421875q1.859375 0 2.78125 0.890625q0.9375 0.875 0.9375 2.796875l0 6.640625l-1.53125 0zm8.560059 0.1875q-2.21875 0 -3.4375 -1.359375q-1.203125 -1.359375 -1.203125 -3.84375q0 -2.5625 1.234375 -3.953125q1.234375 -1.390625 3.5 -1.390625q0.734375 0 1.46875 0.171875q0.734375 0.15625 1.15625 0.359375l-0.484375 1.3125q-0.5 -0.203125 -1.109375 -0.328125q-0.609375 -0.140625 -1.0625 -0.140625q-3.109375 0 -3.109375 3.953125q0 1.875 0.75 2.875q0.765625 1.0 2.25 1.0q1.28125 0 2.609375 -0.546875l0 1.359375q-1.015625 0.53125 -2.5625 0.53125zm9.537964 0q-0.984375 0 -1.8125 -0.359375q-0.8125 -0.375 -1.375 -1.140625l-0.109375 0q0.109375 0.890625 0.109375 1.6875l0 4.1875l-1.53125 0l0 -14.734375l1.25 0l0.203125 1.390625l0.078125 0q0.59375 -0.828125 1.375 -1.203125q0.796875 -0.375 1.8125 -0.375q2.03125 0 3.125 1.390625q1.09375 1.375 1.09375 3.875q0 2.5 -1.125 3.890625q-1.109375 1.390625 -3.09375 1.390625zm-0.21875 -9.234375q-1.5625 0 -2.265625 0.875q-0.6875 0.859375 -0.703125 2.734375l0 0.34375q0 2.140625 0.71875 3.0625q0.71875 0.921875 2.28125 0.921875q1.328125 0 2.0625 -1.0625q0.75 -1.0625 0.75 -2.9375q0 -1.90625 -0.75 -2.921875q-0.734375 -1.015625 -2.09375 -1.015625zm14.619934 -1.328125q0 1.296875 -0.734375 2.125q-0.71875 0.828125 -2.046875 1.109375l0 0.078125q1.625 0.203125 2.40625 1.03125q0.796875 0.828125 0.796875 2.1875q0 1.9375 -1.34375 2.984375q-1.34375 1.046875 -3.828125 1.046875q-1.078125 0 -1.96875 -0.171875q-0.890625 -0.15625 -1.734375 -0.5625l0 -1.46875q0.875 0.4375 1.875 0.671875q1.0 0.21875 1.890625 0.21875q3.515625 0 3.515625 -2.75q0 -2.46875 -3.875 -2.46875l-1.34375 0l0 -1.328125l1.359375 0q1.578125 0 2.5 -0.703125q0.9375 -0.703125 0.9375 -1.9375q0 -1.0 -0.6875 -1.5625q-0.671875 -0.5625 -1.84375 -0.5625q-0.890625 0 -1.6875 0.25q-0.78125 0.234375 -1.796875 0.875l-0.765625 -1.03125q0.828125 -0.65625 1.921875 -1.03125q1.09375 -0.390625 2.296875 -0.390625q1.96875 0 3.0625 0.90625q1.09375 0.90625 1.09375 2.484375z" fill-rule="nonzero"></path><path fill="#000000" fill-opacity="0.0" d="m40.535435 180.66405l374.23624 0l0 320.66144l-374.23624 0z" fill-rule="nonzero"></path><path fill="#000000" d="m65.56668 203.96967q0 4.25 -2.3124962 6.5q-2.296875 2.234375 -6.609375 2.234375l-4.75 0l0 -17.140625l5.25 0q4.0 0 6.203125 2.21875q2.2187462 2.21875 2.2187462 6.1875zm-2.1093712 0.078125q0 -3.359375 -1.6875 -5.046875q-1.671875 -1.703125 -4.984375 -1.703125l-2.90625 0l0 13.6875l2.4375 0q3.5625 0 5.34375 -1.75q1.796875 -1.765625 1.796875 -5.1875zm18.93359 8.65625l-1.984375 0l0 -8.0625l-9.03125 0l0 8.0625l-1.984375 0l0 -17.140625l1.984375 0l0 7.296875l9.03125 0l0 -7.296875l1.984375 0l0 17.140625zm12.035156 -15.59375q-2.8125 0 -4.453125 1.875q-1.640625 1.875 -1.640625 5.15625q0 3.359375 1.578125 5.203125q1.578125 1.828125 4.5 1.828125q1.796875 0 4.09375 -0.65625l0 1.75q-1.78125 0.671875 -4.40625 0.671875q-3.78125 0 -5.84375 -2.296875q-2.046875 -2.296875 -2.046875 -6.53125q0 -2.640625 0.984375 -4.625q1.0 -2.0 2.859375 -3.078125q1.875 -1.078125 4.40625 -1.078125q2.6875 0 4.703125 0.984375l-0.84375 1.703125q-1.9375 -0.90625 -3.890625 -0.90625zm18.671875 3.453125q0 2.59375 -1.78125 4.0q-1.765625 1.40625 -5.078125 1.40625l-2.015625 0l0 6.734375l-1.984375 0l0 -17.140625l4.4375 0q6.421875 0 6.421875 5.0zm-8.875 3.6875l1.796875 0q2.65625 0 3.828125 -0.84375q1.1875 -0.859375 1.1875 -2.75q0 -1.703125 -1.109375 -2.53125q-1.109375 -0.828125 -3.46875 -0.828125l-2.234375 0l0 6.953125zm20.355469 8.453125l-1.953125 0l0 -12.84375l1.953125 0l0 12.84375zm-2.109375 -16.328125q0 -0.671875 0.328125 -0.96875q0.328125 -0.3125 0.8125 -0.3125q0.46875 0 0.8125 0.3125q0.34375 0.3125 0.34375 0.96875q0 0.65625 -0.34375 0.984375q-0.34375 0.3125 -0.8125 0.3125q-0.484375 0 -0.8125 -0.3125q-0.328125 -0.328125 -0.328125 -0.984375zm15.0234375 16.328125l0 -8.3125q0 -1.5625 -0.71875 -2.328125q-0.71875 -0.78125 -2.234375 -0.78125q-2.015625 0 -2.953125 1.09375q-0.9375 1.078125 -0.9375 3.59375l0 6.734375l-1.953125 0l0 -12.84375l1.578125 0l0.328125 1.75l0.09375 0q0.59375 -0.9375 1.671875 -1.453125q1.078125 -0.53125 2.40625 -0.53125q2.3125 0 3.484375 1.125q1.171875 1.109375 1.171875 3.578125l0 8.375l-1.9375 0zm14.730469 0l0 -8.3125q0 -1.5625 -0.71875 -2.328125q-0.71875 -0.78125 -2.234375 -0.78125q-2.03125 0 -2.96875 1.109375q-0.921875 1.09375 -0.921875 3.59375l0 6.71875l-1.953125 0l0 -18.234375l1.953125 0l0 5.515625q0 1.0 -0.09375 1.65625l0.109375 0q0.578125 -0.921875 1.640625 -1.453125q1.0625 -0.546875 2.421875 -0.546875q2.34375 0 3.515625 1.125q1.1875 1.125 1.1875 3.5625l0 8.375l-1.9375 0zm11.355469 0.234375q-2.84375 0 -4.5 -1.734375q-1.640625 -1.734375 -1.640625 -4.8125q0 -3.109375 1.53125 -4.9375q1.53125 -1.828125 4.109375 -1.828125q2.421875 0 3.828125 1.59375q1.40625 1.578125 1.40625 4.1875l0 1.21875l-8.859375 0q0.0625 2.265625 1.140625 3.4375q1.09375 1.171875 3.0625 1.171875q2.078125 0 4.09375 -0.859375l0 1.734375q-1.03125 0.4375 -1.953125 0.625q-0.90625 0.203125 -2.21875 0.203125zm-0.515625 -11.6875q-1.546875 0 -2.46875 1.015625q-0.921875 1.0 -1.09375 2.78125l6.71875 0q0 -1.84375 -0.828125 -2.8125q-0.8125 -0.984375 -2.328125 -0.984375zm14.417969 -1.625q0.859375 0 1.53125 0.140625l-0.265625 1.796875q-0.796875 -0.171875 -1.40625 -0.171875q-1.5625 0 -2.671875 1.265625q-1.09375 1.265625 -1.09375 3.15625l0 6.890625l-1.953125 0l0 -12.84375l1.609375 0l0.21875 2.375l0.09375 0q0.71875 -1.25 1.71875 -1.921875q1.015625 -0.6875 2.21875 -0.6875zm9.359375 13.3125q-2.84375 0 -4.5 -1.734375q-1.640625 -1.734375 -1.640625 -4.8125q0 -3.109375 1.53125 -4.9375q1.53125 -1.828125 4.109375 -1.828125q2.421875 0 3.828125 1.59375q1.40625 1.578125 1.40625 4.1875l0 1.21875l-8.859375 0q0.0625 2.265625 1.140625 3.4375q1.09375 1.171875 3.0625 1.171875q2.078125 0 4.09375 -0.859375l0 1.734375q-1.03125 0.4375 -1.953125 0.625q-0.90625 0.203125 -2.21875 0.203125zm-0.515625 -11.6875q-1.546875 0 -2.46875 1.015625q-0.921875 1.0 -1.09375 2.78125l6.71875 0q0 -1.84375 -0.828125 -2.8125q-0.8125 -0.984375 -2.328125 -0.984375zm17.355469 11.453125l0 -8.3125q0 -1.5625 -0.71875 -2.328125q-0.71875 -0.78125 -2.234375 -0.78125q-2.015625 0 -2.953125 1.09375q-0.9375 1.078125 -0.9375 3.59375l0 6.734375l-1.953125 0l0 -12.84375l1.578125 0l0.328125 1.75l0.09375 0q0.59375 -0.9375 1.671875 -1.453125q1.078125 -0.53125 2.40625 -0.53125q2.3125 0 3.484375 1.125q1.171875 1.109375 1.171875 3.578125l0 8.375l-1.9375 0zm10.089844 -1.375q0.515625 0 0.984375 -0.078125q0.484375 -0.078125 0.765625 -0.15625l0 1.484375q-0.3125 0.15625 -0.9375 0.25q-0.609375 0.109375 -1.09375 0.109375q-3.734375 0 -3.734375 -3.921875l0 -7.640625l-1.84375 0l0 -0.9375l1.84375 -0.8125l0.828125 -2.75l1.125 0l0 2.984375l3.71875 0l0 1.515625l-3.71875 0l0 7.546875q0 1.171875 0.546875 1.796875q0.546875 0.609375 1.515625 0.609375zm6.2695312 1.375l-1.953125 0l0 -18.234375l1.953125 0l0 18.234375zm2.0859375 -12.84375l2.078125 0l2.8125 7.328125q0.921875 2.5 1.15625 3.609375l0.09375 0q0.140625 -0.59375 0.625 -2.03125q0.5 -1.453125 3.1875 -8.90625l2.09375 0l-5.53125 14.625q-0.8125 2.171875 -1.90625 3.078125q-1.09375 0.90625 -2.6875 0.90625q-0.890625 0 -1.765625 -0.203125l0 -1.546875q0.640625 0.140625 1.4375 0.140625q2.015625 0 2.859375 -2.25l0.71875 -1.828125l-5.171875 -12.921875zm28.640625 9.34375q0 1.78125 -1.34375 2.765625q-1.328125 0.96875 -3.734375 0.96875q-2.5625 0 -3.984375 -0.8125l0 -1.796875q0.921875 0.46875 1.984375 0.734375q1.0625 0.265625 2.046875 0.265625q1.515625 0 2.328125 -0.484375q0.828125 -0.484375 0.828125 -1.484375q0 -0.75 -0.65625 -1.28125q-0.640625 -0.53125 -2.53125 -1.265625q-1.78125 -0.65625 -2.546875 -1.15625q-0.75 -0.5 -1.125 -1.125q-0.359375 -0.640625 -0.359375 -1.515625q0 -1.578125 1.265625 -2.484375q1.28125 -0.90625 3.515625 -0.90625q2.0625 0 4.046875 0.84375l-0.6875 1.578125q-1.9375 -0.796875 -3.5 -0.796875q-1.390625 0 -2.09375 0.4375q-0.703125 0.4375 -0.703125 1.1875q0 0.515625 0.265625 0.890625q0.265625 0.359375 0.84375 0.6875q0.59375 0.328125 2.25 0.953125q2.296875 0.828125 3.09375 1.671875q0.796875 0.84375 0.796875 2.125zm4.9960938 -9.34375l0 8.328125q0 1.578125 0.71875 2.359375q0.71875 0.765625 2.234375 0.765625q2.015625 0 2.9375 -1.09375q0.9375 -1.109375 0.9375 -3.609375l0 -6.75l1.953125 0l0 12.84375l-1.609375 0l-0.28125 -1.71875l-0.109375 0q-0.59375 0.9375 -1.65625 1.453125q-1.0625 0.5 -2.421875 0.5q-2.34375 0 -3.515625 -1.109375q-1.15625 -1.125 -1.15625 -3.5625l0 -8.40625l1.96875 0zm18.886719 13.078125q-1.265625 0 -2.296875 -0.453125q-1.03125 -0.46875 -1.734375 -1.4375l-0.140625 0q0.140625 1.125 0.140625 2.140625l0 5.28125l-1.953125 0l0 -18.609375l1.578125 0l0.28125 1.75l0.09375 0q0.75 -1.046875 1.734375 -1.515625q1.0 -0.46875 2.296875 -0.46875q2.546875 0 3.9375 1.75q1.390625 1.734375 1.390625 4.890625q0 3.171875 -1.421875 4.921875q-1.40625 1.75 -3.90625 1.75zm-0.28125 -11.65625q-1.96875 0 -2.859375 1.09375q-0.875 1.078125 -0.890625 3.453125l0 0.4375q0 2.703125 0.890625 3.875q0.90625 1.171875 2.90625 1.171875q1.65625 0 2.59375 -1.34375q0.953125 -1.359375 0.953125 -3.71875q0 -2.40625 -0.953125 -3.6875q-0.9375 -1.28125 -2.640625 -1.28125zm14.988281 11.65625q-1.265625 0 -2.296875 -0.453125q-1.03125 -0.46875 -1.734375 -1.4375l-0.140625 0q0.140625 1.125 0.140625 2.140625l0 5.28125l-1.953125 0l0 -18.609375l1.578125 0l0.28125 1.75l0.09375 0q0.75 -1.046875 1.734375 -1.515625q1.0 -0.46875 2.296875 -0.46875q2.546875 0 3.9375 1.75q1.390625 1.734375 1.390625 4.890625q0 3.171875 -1.421875 4.921875q-1.40625 1.75 -3.90625 1.75zm-0.28125 -11.65625q-1.96875 0 -2.859375 1.09375q-0.875 1.078125 -0.890625 3.453125l0 0.4375q0 2.703125 0.890625 3.875q0.90625 1.171875 2.90625 1.171875q1.65625 0 2.59375 -1.34375q0.953125 -1.359375 0.953125 -3.71875q0 -2.40625 -0.953125 -3.6875q-0.9375 -1.28125 -2.640625 -1.28125zm20.097656 4.984375q0 3.140625 -1.59375 4.90625q-1.578125 1.765625 -4.359375 1.765625q-1.734375 0 -3.078125 -0.8125q-1.328125 -0.8125 -2.0625 -2.3125q-0.71875 -1.515625 -0.71875 -3.546875q0 -3.140625 1.5625 -4.890625q1.578125 -1.75 4.375 -1.75q2.6875 0 4.28125 1.796875q1.59375 1.78125 1.59375 4.84375zm-9.796875 0q0 2.46875 0.984375 3.765625q0.984375 1.28125 2.90625 1.28125q1.90625 0 2.890625 -1.28125q1.0 -1.296875 1.0 -3.765625q0 -2.453125 -1.0 -3.71875q-0.984375 -1.265625 -2.921875 -1.265625q-1.90625 0 -2.890625 1.25q-0.96875 1.25 -0.96875 3.734375zm19.058594 -6.640625q0.859375 0 1.53125 0.140625l-0.265625 1.796875q-0.796875 -0.171875 -1.40625 -0.171875q-1.5625 0 -2.671875 1.265625q-1.09375 1.265625 -1.09375 3.15625l0 6.890625l-1.953125 0l0 -12.84375l1.609375 0l0.21875 2.375l0.09375 0q0.71875 -1.25 1.71875 -1.921875q1.015625 -0.6875 2.21875 -0.6875zm8.09375 11.703125q0.515625 0 0.984375 -0.078125q0.484375 -0.078125 0.765625 -0.15625l0 1.484375q-0.3125 0.15625 -0.9375 0.25q-0.609375 0.109375 -1.09375 0.109375q-3.734375 0 -3.734375 -3.921875l0 -7.640625l-1.84375 0l0 -0.9375l1.84375 -0.8125l0.828125 -2.75l1.125 0l0 2.984375l3.71875 0l0 1.515625l-3.71875 0l0 7.546875q0 1.171875 0.546875 1.796875q0.546875 0.609375 1.515625 0.609375zm12.597656 -2.125q0 1.78125 -1.34375 2.765625q-1.328125 0.96875 -3.734375 0.96875q-2.5625 0 -3.984375 -0.8125l0 -1.796875q0.921875 0.46875 1.984375 0.734375q1.0625 0.265625 2.046875 0.265625q1.515625 0 2.328125 -0.484375q0.828125 -0.484375 0.828125 -1.484375q0 -0.75 -0.65625 -1.28125q-0.640625 -0.53125 -2.53125 -1.265625q-1.78125 -0.65625 -2.546875 -1.15625q-0.75 -0.5 -1.125 -1.125q-0.359375 -0.640625 -0.359375 -1.515625q0 -1.578125 1.265625 -2.484375q1.28125 -0.90625 3.515625 -0.90625q2.0625 0 4.046875 0.84375l-0.6875 1.578125q-1.9375 -0.796875 -3.5 -0.796875q-1.390625 0 -2.09375 0.4375q-0.703125 0.4375 -0.703125 1.1875q0 0.515625 0.265625 0.890625q0.265625 0.359375 0.84375 0.6875q0.59375 0.328125 2.25 0.953125q2.296875 0.828125 3.09375 1.671875q0.796875 0.84375 0.796875 2.125zm22.699219 3.5l-1.984375 0l0 -8.0625l-9.03125 0l0 8.0625l-1.984375 0l0 -17.140625l1.984375 0l0 7.296875l9.03125 0l0 -7.296875l1.984375 0l0 17.140625zm15.472656 0l-2.125 -5.453125l-6.875 0l-2.109375 5.453125l-2.015625 0l6.78125 -17.203125l1.671875 0l6.734375 17.203125l-2.0625 0zm-2.75 -7.25l-2.0 -5.296875q-0.375 -1.015625 -0.796875 -2.484375q-0.25 1.125 -0.734375 2.484375l-2.015625 5.296875l5.546875 0zm6.59375 6.0q0 -0.78125 0.359375 -1.1875q0.359375 -0.40625 1.03125 -0.40625q0.671875 0 1.046875 0.40625q0.390625 0.40625 0.390625 1.1875q0 0.765625 -0.390625 1.1875q-0.390625 0.40625 -1.046875 0.40625q-0.609375 0 -1.0 -0.375q-0.390625 -0.375 -0.390625 -1.21875zm0 -10.34375q0 -1.578125 1.390625 -1.578125q1.4375 0 1.4375 1.578125q0 0.765625 -0.390625 1.171875q-0.390625 0.40625 -1.046875 0.40625q-0.609375 0 -1.0 -0.359375q-0.390625 -0.375 -0.390625 -1.21875z" fill-rule="nonzero"></path><path fill="#000000" d="m68.01698 238.26654q1.015625 0 2.0 0.53125q0.984375 0.515625 1.53125 1.5q0.546875 0.984375 0.546875 2.046875q0 1.6875 -1.203125 2.890625q-1.1875 1.203125 -2.875 1.203125q-1.703125 0 -2.90625 -1.203125q-1.1874962 -1.203125 -1.1874962 -2.890625q0 -1.0625 0.5468712 -2.046875q0.546875 -0.984375 1.53125 -1.5q0.984375 -0.53125 2.015625 -0.53125z" fill-rule="nonzero"></path><path fill="#000000" d="m110.66043 247.70404l-2.125 -5.453125l-6.875 0l-2.109375 5.453125l-2.015625 0l6.78125 -17.203125l1.671875 0l6.734375 17.203125l-2.0625 0zm-2.75 -7.25l-2.0 -5.296875q-0.375 -1.015625 -0.796875 -2.484375q-0.25 1.125 -0.734375 2.484375l-2.015625 5.296875l5.546875 0zm8.828125 7.25l-1.953125 0l0 -18.234375l1.953125 0l0 18.234375zm6.0703125 0l-1.953125 0l0 -18.234375l1.953125 0l0 18.234375zm24.320312 -8.734375q0 4.25 -2.3125 6.5q-2.296875 2.234375 -6.609375 2.234375l-4.75 0l0 -17.140625l5.25 0q4.0 0 6.203125 2.21875q2.21875 2.21875 2.21875 6.1875zm-2.109375 0.078125q0 -3.359375 -1.6875 -5.046875q-1.671875 -1.703125 -4.984375 -1.703125l-2.90625 0l0 13.6875l2.4375 0q3.5625 0 5.34375 -1.75q1.796875 -1.765625 1.796875 -5.1875zm18.933594 8.65625l-1.984375 0l0 -8.0625l-9.03125 0l0 8.0625l-1.984375 0l0 -17.140625l1.984375 0l0 7.296875l9.03125 0l0 -7.296875l1.984375 0l0 17.140625zm12.035156 -15.59375q-2.8125 0 -4.453125 1.875q-1.640625 1.875 -1.640625 5.15625q0 3.359375 1.578125 5.203125q1.578125 1.828125 4.5 1.828125q1.796875 0 4.09375 -0.65625l0 1.75q-1.78125 0.671875 -4.40625 0.671875q-3.78125 0 -5.84375 -2.296875q-2.046875 -2.296875 -2.046875 -6.53125q0 -2.640625 0.984375 -4.625q1.0 -2.0 2.859375 -3.078125q1.875 -1.078125 4.40625 -1.078125q2.6875 0 4.703125 0.984375l-0.84375 1.703125q-1.9375 -0.90625 -3.890625 -0.90625zm18.671875 3.453125q0 2.59375 -1.78125 4.0q-1.765625 1.40625 -5.078125 1.40625l-2.015625 0l0 6.734375l-1.984375 0l0 -17.140625l4.4375 0q6.421875 0 6.421875 5.0zm-8.875 3.6875l1.796875 0q2.65625 0 3.828125 -0.84375q1.1875 -0.859375 1.1875 -2.75q0 -1.703125 -1.109375 -2.53125q-1.109375 -0.828125 -3.46875 -0.828125l-2.234375 0l0 6.953125zm22.558594 7.078125q0.515625 0 0.984375 -0.078125q0.484375 -0.078125 0.765625 -0.15625l0 1.484375q-0.3125 0.15625 -0.9375 0.25q-0.609375 0.109375 -1.09375 0.109375q-3.734375 0 -3.734375 -3.921875l0 -7.640625l-1.84375 0l0 -0.9375l1.84375 -0.8125l0.828125 -2.75l1.125 0l0 2.984375l3.71875 0l0 1.515625l-3.71875 0l0 7.546875q0 1.171875 0.546875 1.796875q0.546875 0.609375 1.515625 0.609375zm10.175781 -11.703125q0.859375 0 1.53125 0.140625l-0.265625 1.796875q-0.796875 -0.171875 -1.40625 -0.171875q-1.5625 0 -2.671875 1.265625q-1.09375 1.265625 -1.09375 3.15625l0 6.890625l-1.953125 0l0 -12.84375l1.609375 0l0.21875 2.375l0.09375 0q0.71875 -1.25 1.71875 -1.921875q1.015625 -0.6875 2.21875 -0.6875zm11.84375 13.078125l-0.390625 -1.828125l-0.09375 0q-0.96875 1.203125 -1.921875 1.640625q-0.953125 0.421875 -2.375 0.421875q-1.921875 0 -3.0 -0.984375q-1.078125 -0.984375 -1.078125 -2.796875q0 -3.890625 6.21875 -4.078125l2.171875 -0.078125l0 -0.796875q0 -1.515625 -0.65625 -2.234375q-0.640625 -0.71875 -2.0625 -0.71875q-1.609375 0 -3.640625 0.984375l-0.59375 -1.484375q0.953125 -0.515625 2.078125 -0.8125q1.125 -0.296875 2.265625 -0.296875q2.296875 0 3.40625 1.03125q1.109375 1.015625 1.109375 3.265625l0 8.765625l-1.4375 0zm-4.40625 -1.375q1.828125 0 2.859375 -0.984375q1.03125 -1.0 1.03125 -2.796875l0 -1.15625l-1.9375 0.078125q-2.328125 0.078125 -3.359375 0.71875q-1.015625 0.640625 -1.015625 1.984375q0 1.0625 0.640625 1.609375q0.640625 0.546875 1.78125 0.546875zm15.644531 -9.953125l-3.28125 0l0 11.328125l-1.9375 0l0 -11.328125l-2.296875 0l0 -0.890625l2.296875 -0.703125l0 -0.703125q0 -4.734375 4.140625 -4.734375q1.015625 0 2.390625 0.40625l-0.515625 1.5625q-1.125 -0.375 -1.921875 -0.375q-1.09375 0 -1.625 0.734375q-0.53125 0.734375 -0.53125 2.359375l0 0.828125l3.28125 0l0 1.515625zm8.1328125 0l-3.28125 0l0 11.328125l-1.9375 0l0 -11.328125l-2.296875 0l0 -0.890625l2.296875 -0.703125l0 -0.703125q0 -4.734375 4.140625 -4.734375q1.015625 0 2.390625 0.40625l-0.515625 1.5625q-1.125 -0.375 -1.921875 -0.375q-1.09375 0 -1.625 0.734375q-0.53125 0.734375 -0.53125 2.359375l0 0.828125l3.28125 0l0 1.515625zm4.2890625 11.328125l-1.953125 0l0 -12.84375l1.953125 0l0 12.84375zm-2.109375 -16.328125q0 -0.671875 0.328125 -0.96875q0.328125 -0.3125 0.8125 -0.3125q0.46875 0 0.8125 0.3125q0.34375 0.3125 0.34375 0.96875q0 0.65625 -0.34375 0.984375q-0.34375 0.3125 -0.8125 0.3125q-0.484375 0 -0.8125 -0.3125q-0.328125 -0.328125 -0.328125 -0.984375zm11.3671875 16.5625q-2.796875 0 -4.328125 -1.71875q-1.53125 -1.71875 -1.53125 -4.859375q0 -3.21875 1.546875 -4.96875q1.5625 -1.765625 4.4375 -1.765625q0.921875 0 1.84375 0.203125q0.9375 0.1875 1.453125 0.46875l-0.59375 1.640625q-0.640625 -0.25 -1.40625 -0.421875q-0.765625 -0.171875 -1.34375 -0.171875q-3.921875 0 -3.921875 5.0q0 2.359375 0.953125 3.625q0.96875 1.265625 2.84375 1.265625q1.59375 0 3.28125 -0.6875l0 1.71875q-1.28125 0.671875 -3.234375 0.671875zm14.472656 -0.234375l-1.953125 0l0 -12.84375l1.953125 0l0 12.84375zm-2.109375 -16.328125q0 -0.671875 0.328125 -0.96875q0.328125 -0.3125 0.8125 -0.3125q0.46875 0 0.8125 0.3125q0.34375 0.3125 0.34375 0.96875q0 0.65625 -0.34375 0.984375q-0.34375 0.3125 -0.8125 0.3125q-0.484375 0 -0.8125 -0.3125q-0.328125 -0.328125 -0.328125 -0.984375zm14.5078125 12.828125q0 1.78125 -1.34375 2.765625q-1.328125 0.96875 -3.734375 0.96875q-2.5625 0 -3.984375 -0.8125l0 -1.796875q0.921875 0.46875 1.984375 0.734375q1.0625 0.265625 2.046875 0.265625q1.515625 0 2.328125 -0.484375q0.828125 -0.484375 0.828125 -1.484375q0 -0.75 -0.65625 -1.28125q-0.640625 -0.53125 -2.53125 -1.265625q-1.78125 -0.65625 -2.546875 -1.15625q-0.75 -0.5 -1.125 -1.125q-0.359375 -0.640625 -0.359375 -1.515625q0 -1.578125 1.265625 -2.484375q1.28125 -0.90625 3.515625 -0.90625q2.0625 0 4.046875 0.84375l-0.6875 1.578125q-1.9375 -0.796875 -3.5 -0.796875q-1.390625 0 -2.09375 0.4375q-0.703125 0.4375 -0.703125 1.1875q0 0.515625 0.265625 0.890625q0.265625 0.359375 0.84375 0.6875q0.59375 0.328125 2.25 0.953125q2.296875 0.828125 3.09375 1.671875q0.796875 0.84375 0.796875 2.125z" fill-rule="nonzero"></path><path fill="#000000" d="m105.582306 269.64154q2.53125 0 3.921875 1.734375q1.40625 1.734375 1.40625 4.890625q0 3.171875 -1.421875 4.921875q-1.40625 1.75 -3.90625 1.75q-1.265625 0 -2.296875 -0.453125q-1.03125 -0.46875 -1.734375 -1.4375l-0.140625 0l-0.421875 1.65625l-1.390625 0l0 -18.234375l1.953125 0l0 4.421875q0 1.5 -0.09375 2.671875l0.09375 0q1.359375 -1.921875 4.03125 -1.921875zm-0.28125 1.640625q-2.0 0 -2.875 1.140625q-0.875 1.140625 -0.875 3.84375q0 2.703125 0.890625 3.875q0.90625 1.171875 2.90625 1.171875q1.78125 0 2.65625 -1.3125q0.890625 -1.3125 0.890625 -3.75q0 -2.515625 -0.890625 -3.734375q-0.875 -1.234375 -2.703125 -1.234375zm14.863281 -1.65625q0.859375 0 1.53125 0.140625l-0.265625 1.796875q-0.796875 -0.171875 -1.40625 -0.171875q-1.5625 0 -2.671875 1.265625q-1.09375 1.265625 -1.09375 3.15625l0 6.890625l-1.953125 0l0 -12.84375l1.609375 0l0.21875 2.375l0.09375 0q0.71875 -1.25 1.71875 -1.921875q1.015625 -0.6875 2.21875 -0.6875zm15.03125 6.640625q0 3.140625 -1.59375 4.90625q-1.578125 1.765625 -4.359375 1.765625q-1.734375 0 -3.078125 -0.8125q-1.328125 -0.8125 -2.0625 -2.3125q-0.71875 -1.515625 -0.71875 -3.546875q0 -3.140625 1.5625 -4.890625q1.578125 -1.75 4.375 -1.75q2.6875 0 4.28125 1.796875q1.59375 1.78125 1.59375 4.84375zm-9.796875 0q0 2.46875 0.984375 3.765625q0.984375 1.28125 2.90625 1.28125q1.90625 0 2.890625 -1.28125q1.0 -1.296875 1.0 -3.765625q0 -2.453125 -1.0 -3.71875q-0.984375 -1.265625 -2.921875 -1.265625q-1.90625 0 -2.890625 1.25q-0.96875 1.25 -0.96875 3.734375zm21.105469 6.4375l-0.390625 -1.828125l-0.09375 0q-0.96875 1.203125 -1.921875 1.640625q-0.953125 0.421875 -2.375 0.421875q-1.921875 0 -3.0 -0.984375q-1.078125 -0.984375 -1.078125 -2.796875q0 -3.890625 6.21875 -4.078125l2.171875 -0.078125l0 -0.796875q0 -1.515625 -0.65625 -2.234375q-0.640625 -0.71875 -2.0625 -0.71875q-1.609375 0 -3.640625 0.984375l-0.59375 -1.484375q0.953125 -0.515625 2.078125 -0.8125q1.125 -0.296875 2.265625 -0.296875q2.296875 0 3.40625 1.03125q1.109375 1.015625 1.109375 3.265625l0 8.765625l-1.4375 0zm-4.40625 -1.375q1.828125 0 2.859375 -0.984375q1.03125 -1.0 1.03125 -2.796875l0 -1.15625l-1.9375 0.078125q-2.328125 0.078125 -3.359375 0.71875q-1.015625 0.640625 -1.015625 1.984375q0 1.0625 0.640625 1.609375q0.640625 0.546875 1.78125 0.546875zm18.597656 -0.34375l-0.109375 0q-1.34375 1.953125 -4.03125 1.953125q-2.515625 0 -3.921875 -1.71875q-1.40625 -1.734375 -1.40625 -4.90625q0 -3.171875 1.40625 -4.921875q1.40625 -1.765625 3.921875 -1.765625q2.609375 0 4.0 1.890625l0.15625 0l-0.078125 -0.921875l-0.046875 -0.90625l0 -5.21875l1.9375 0l0 18.234375l-1.578125 0l-0.25 -1.71875zm-3.890625 0.328125q1.984375 0 2.875 -1.078125q0.90625 -1.09375 0.90625 -3.515625l0 -0.40625q0 -2.734375 -0.90625 -3.890625q-0.90625 -1.171875 -2.90625 -1.171875q-1.703125 0 -2.625 1.328125q-0.90625 1.328125 -0.90625 3.765625q0 2.453125 0.90625 3.71875q0.90625 1.25 2.65625 1.25zm14.988281 1.625q-2.796875 0 -4.328125 -1.71875q-1.53125 -1.71875 -1.53125 -4.859375q0 -3.21875 1.546875 -4.96875q1.5625 -1.765625 4.4375 -1.765625q0.921875 0 1.84375 0.203125q0.9375 0.1875 1.453125 0.46875l-0.59375 1.640625q-0.640625 -0.25 -1.40625 -0.421875q-0.765625 -0.171875 -1.34375 -0.171875q-3.921875 0 -3.921875 5.0q0 2.359375 0.953125 3.625q0.96875 1.265625 2.84375 1.265625q1.59375 0 3.28125 -0.6875l0 1.71875q-1.28125 0.671875 -3.234375 0.671875zm14.191406 -0.234375l-0.390625 -1.828125l-0.09375 0q-0.96875 1.203125 -1.921875 1.640625q-0.953125 0.421875 -2.375 0.421875q-1.921875 0 -3.0 -0.984375q-1.078125 -0.984375 -1.078125 -2.796875q0 -3.890625 6.21875 -4.078125l2.171875 -0.078125l0 -0.796875q0 -1.515625 -0.65625 -2.234375q-0.640625 -0.71875 -2.0625 -0.71875q-1.609375 0 -3.640625 0.984375l-0.59375 -1.484375q0.953125 -0.515625 2.078125 -0.8125q1.125 -0.296875 2.265625 -0.296875q2.296875 0 3.40625 1.03125q1.109375 1.015625 1.109375 3.265625l0 8.765625l-1.4375 0zm-4.40625 -1.375q1.828125 0 2.859375 -0.984375q1.03125 -1.0 1.03125 -2.796875l0 -1.15625l-1.9375 0.078125q-2.328125 0.078125 -3.359375 0.71875q-1.015625 0.640625 -1.015625 1.984375q0 1.0625 0.640625 1.609375q0.640625 0.546875 1.78125 0.546875zm18.128906 -2.125q0 1.78125 -1.34375 2.765625q-1.328125 0.96875 -3.734375 0.96875q-2.5625 0 -3.984375 -0.8125l0 -1.796875q0.921875 0.46875 1.984375 0.734375q1.0625 0.265625 2.046875 0.265625q1.515625 0 2.328125 -0.484375q0.828125 -0.484375 0.828125 -1.484375q0 -0.75 -0.65625 -1.28125q-0.640625 -0.53125 -2.53125 -1.265625q-1.78125 -0.65625 -2.546875 -1.15625q-0.75 -0.5 -1.125 -1.125q-0.359375 -0.640625 -0.359375 -1.515625q0 -1.578125 1.265625 -2.484375q1.28125 -0.90625 3.515625 -0.90625q2.0625 0 4.046875 0.84375l-0.6875 1.578125q-1.9375 -0.796875 -3.5 -0.796875q-1.390625 0 -2.09375 0.4375q-0.703125 0.4375 -0.703125 1.1875q0 0.515625 0.265625 0.890625q0.265625 0.359375 0.84375 0.6875q0.59375 0.328125 2.25 0.953125q2.296875 0.828125 3.09375 1.671875q0.796875 0.84375 0.796875 2.125zm7.3242188 2.125q0.515625 0 0.984375 -0.078125q0.484375 -0.078125 0.765625 -0.15625l0 1.484375q-0.3125 0.15625 -0.9375 0.25q-0.609375 0.109375 -1.09375 0.109375q-3.734375 0 -3.734375 -3.921875l0 -7.640625l-1.84375 0l0 -0.9375l1.84375 -0.8125l0.828125 -2.75l1.125 0l0 2.984375l3.71875 0l0 1.515625l-3.71875 0l0 7.546875q0 1.171875 0.546875 1.796875q0.546875 0.609375 1.515625 0.609375z" fill-rule="nonzero"></path><path fill="#000000" d="m68.01698 308.26654q1.015625 0 2.0 0.53125q0.984375 0.515625 1.53125 1.5q0.546875 0.984375 0.546875 2.046875q0 1.6875 -1.203125 2.890625q-1.1875 1.203125 -2.875 1.203125q-1.703125 0 -2.90625 -1.203125q-1.1874962 -1.203125 -1.1874962 -2.890625q0 -1.0625 0.5468712 -2.046875q0.546875 -0.984375 1.53125 -1.5q0.984375 -0.53125 2.015625 -0.53125z" fill-rule="nonzero"></path><path fill="#000000" d="m109.56668 313.14154q0 2.265625 -1.640625 3.53125q-1.640625 1.265625 -4.453125 1.265625q-3.046875 0 -4.6875 -0.78125l0 -1.921875q1.046875 0.4375 2.28125 0.703125q1.25 0.25 2.46875 0.25q2.0 0 3.0 -0.75q1.015625 -0.765625 1.015625 -2.109375q0 -0.890625 -0.359375 -1.453125q-0.359375 -0.578125 -1.203125 -1.046875q-0.828125 -0.484375 -2.546875 -1.09375q-2.390625 -0.859375 -3.421875 -2.03125q-1.015625 -1.171875 -1.015625 -3.0625q0 -1.96875 1.484375 -3.140625q1.484375 -1.171875 3.9375 -1.171875q2.5625 0 4.703125 0.9375l-0.625 1.734375q-2.125 -0.890625 -4.125 -0.890625q-1.578125 0 -2.46875 0.6875q-0.890625 0.671875 -0.890625 1.875q0 0.890625 0.328125 1.46875q0.328125 0.5625 1.109375 1.03125q0.78125 0.46875 2.375 1.046875q2.703125 0.96875 3.71875 2.078125q1.015625 1.09375 1.015625 2.84375zm8.625 4.796875q-2.84375 0 -4.5 -1.734375q-1.640625 -1.734375 -1.640625 -4.8125q0 -3.109375 1.53125 -4.9375q1.53125 -1.828125 4.109375 -1.828125q2.421875 0 3.828125 1.59375q1.40625 1.578125 1.40625 4.1875l0 1.21875l-8.859375 0q0.0625 2.265625 1.140625 3.4375q1.09375 1.171875 3.0625 1.171875q2.078125 0 4.09375 -0.859375l0 1.734375q-1.03125 0.4375 -1.953125 0.625q-0.90625 0.203125 -2.21875 0.203125zm-0.515625 -11.6875q-1.546875 0 -2.46875 1.015625q-0.921875 1.0 -1.09375 2.78125l6.71875 0q0 -1.84375 -0.828125 -2.8125q-0.8125 -0.984375 -2.328125 -0.984375zm14.417969 -1.625q0.859375 0 1.53125 0.140625l-0.265625 1.796875q-0.796875 -0.171875 -1.40625 -0.171875q-1.5625 0 -2.671875 1.265625q-1.09375 1.265625 -1.09375 3.15625l0 6.890625l-1.953125 0l0 -12.84375l1.609375 0l0.21875 2.375l0.09375 0q0.71875 -1.25 1.71875 -1.921875q1.015625 -0.6875 2.21875 -0.6875zm6.75 13.078125l-4.875 -12.84375l2.09375 0l2.765625 7.609375q0.9375 2.671875 1.09375 3.46875l0.09375 0q0.125 -0.609375 0.8125 -2.5625q0.6875 -1.953125 3.078125 -8.515625l2.09375 0l-4.875 12.84375l-2.28125 0zm14.6328125 0.234375q-2.84375 0 -4.5 -1.734375q-1.640625 -1.734375 -1.640625 -4.8125q0 -3.109375 1.53125 -4.9375q1.53125 -1.828125 4.109375 -1.828125q2.421875 0 3.828125 1.59375q1.40625 1.578125 1.40625 4.1875l0 1.21875l-8.859375 0q0.0625 2.265625 1.140625 3.4375q1.09375 1.171875 3.0625 1.171875q2.078125 0 4.09375 -0.859375l0 1.734375q-1.03125 0.4375 -1.953125 0.625q-0.90625 0.203125 -2.21875 0.203125zm-0.515625 -11.6875q-1.546875 0 -2.46875 1.015625q-0.921875 1.0 -1.09375 2.78125l6.71875 0q0 -1.84375 -0.828125 -2.8125q-0.8125 -0.984375 -2.328125 -0.984375zm14.417969 -1.625q0.859375 0 1.53125 0.140625l-0.265625 1.796875q-0.796875 -0.171875 -1.40625 -0.171875q-1.5625 0 -2.671875 1.265625q-1.09375 1.265625 -1.09375 3.15625l0 6.890625l-1.953125 0l0 -12.84375l1.609375 0l0.21875 2.375l0.09375 0q0.71875 -1.25 1.71875 -1.921875q1.015625 -0.6875 2.21875 -0.6875zm12.21875 9.578125q0 1.78125 -1.34375 2.765625q-1.328125 0.96875 -3.734375 0.96875q-2.5625 0 -3.984375 -0.8125l0 -1.796875q0.921875 0.46875 1.984375 0.734375q1.0625 0.265625 2.046875 0.265625q1.515625 0 2.328125 -0.484375q0.828125 -0.484375 0.828125 -1.484375q0 -0.75 -0.65625 -1.28125q-0.640625 -0.53125 -2.53125 -1.265625q-1.78125 -0.65625 -2.546875 -1.15625q-0.75 -0.5 -1.125 -1.125q-0.359375 -0.640625 -0.359375 -1.515625q0 -1.578125 1.265625 -2.484375q1.28125 -0.90625 3.515625 -0.90625q2.0625 0 4.046875 0.84375l-0.6875 1.578125q-1.9375 -0.796875 -3.5 -0.796875q-1.390625 0 -2.09375 0.4375q-0.703125 0.4375 -0.703125 1.1875q0 0.515625 0.265625 0.890625q0.265625 0.359375 0.84375 0.6875q0.59375 0.328125 2.25 0.953125q2.296875 0.828125 3.09375 1.671875q0.796875 0.84375 0.796875 2.125zm15.261719 -9.578125q0.859375 0 1.53125 0.140625l-0.265625 1.796875q-0.796875 -0.171875 -1.40625 -0.171875q-1.5625 0 -2.671875 1.265625q-1.09375 1.265625 -1.09375 3.15625l0 6.890625l-1.953125 0l0 -12.84375l1.609375 0l0.21875 2.375l0.09375 0q0.71875 -1.25 1.71875 -1.921875q1.015625 -0.6875 2.21875 -0.6875zm11.84375 13.078125l-0.390625 -1.828125l-0.09375 0q-0.96875 1.203125 -1.921875 1.640625q-0.953125 0.421875 -2.375 0.421875q-1.921875 0 -3.0 -0.984375q-1.078125 -0.984375 -1.078125 -2.796875q0 -3.890625 6.21875 -4.078125l2.171875 -0.078125l0 -0.796875q0 -1.515625 -0.65625 -2.234375q-0.640625 -0.71875 -2.0625 -0.71875q-1.609375 0 -3.640625 0.984375l-0.59375 -1.484375q0.953125 -0.515625 2.078125 -0.8125q1.125 -0.296875 2.265625 -0.296875q2.296875 0 3.40625 1.03125q1.109375 1.015625 1.109375 3.265625l0 8.765625l-1.4375 0zm-4.40625 -1.375q1.828125 0 2.859375 -0.984375q1.03125 -1.0 1.03125 -2.796875l0 -1.15625l-1.9375 0.078125q-2.328125 0.078125 -3.359375 0.71875q-1.015625 0.640625 -1.015625 1.984375q0 1.0625 0.640625 1.609375q0.640625 0.546875 1.78125 0.546875zm14.988281 1.609375q-2.796875 0 -4.328125 -1.71875q-1.53125 -1.71875 -1.53125 -4.859375q0 -3.21875 1.546875 -4.96875q1.5625 -1.765625 4.4375 -1.765625q0.921875 0 1.84375 0.203125q0.9375 0.1875 1.453125 0.46875l-0.59375 1.640625q-0.640625 -0.25 -1.40625 -0.421875q-0.765625 -0.171875 -1.34375 -0.171875q-3.921875 0 -3.921875 5.0q0 2.359375 0.953125 3.625q0.96875 1.265625 2.84375 1.265625q1.59375 0 3.28125 -0.6875l0 1.71875q-1.28125 0.671875 -3.234375 0.671875zm11.707031 0q-2.84375 0 -4.5 -1.734375q-1.640625 -1.734375 -1.640625 -4.8125q0 -3.109375 1.53125 -4.9375q1.53125 -1.828125 4.109375 -1.828125q2.421875 0 3.828125 1.59375q1.40625 1.578125 1.40625 4.1875l0 1.21875l-8.859375 0q0.0625 2.265625 1.140625 3.4375q1.09375 1.171875 3.0625 1.171875q2.078125 0 4.09375 -0.859375l0 1.734375q-1.03125 0.4375 -1.953125 0.625q-0.90625 0.203125 -2.21875 0.203125zm-0.515625 -11.6875q-1.546875 0 -2.46875 1.015625q-0.921875 1.0 -1.09375 2.78125l6.71875 0q0 -1.84375 -0.828125 -2.8125q-0.8125 -0.984375 -2.328125 -0.984375zm18.949219 10.078125q0.515625 0 0.984375 -0.078125q0.484375 -0.078125 0.765625 -0.15625l0 1.484375q-0.3125 0.15625 -0.9375 0.25q-0.609375 0.109375 -1.09375 0.109375q-3.734375 0 -3.734375 -3.921875l0 -7.640625l-1.84375 0l0 -0.9375l1.84375 -0.8125l0.828125 -2.75l1.125 0l0 2.984375l3.71875 0l0 1.515625l-3.71875 0l0 7.546875q0 1.171875 0.546875 1.796875q0.546875 0.609375 1.515625 0.609375zm15.410156 -5.0625q0 3.140625 -1.59375 4.90625q-1.578125 1.765625 -4.359375 1.765625q-1.734375 0 -3.078125 -0.8125q-1.328125 -0.8125 -2.0625 -2.3125q-0.71875 -1.515625 -0.71875 -3.546875q0 -3.140625 1.5625 -4.890625q1.578125 -1.75 4.375 -1.75q2.6875 0 4.28125 1.796875q1.59375 1.78125 1.59375 4.84375zm-9.796875 0q0 2.46875 0.984375 3.765625q0.984375 1.28125 2.90625 1.28125q1.90625 0 2.890625 -1.28125q1.0 -1.296875 1.0 -3.765625q0 -2.453125 -1.0 -3.71875q-0.984375 -1.265625 -2.921875 -1.265625q-1.90625 0 -2.890625 1.25q-0.96875 1.25 -0.96875 3.734375zm30.527344 0q0 3.140625 -1.59375 4.90625q-1.578125 1.765625 -4.359375 1.765625q-1.734375 0 -3.078125 -0.8125q-1.328125 -0.8125 -2.0625 -2.3125q-0.71875 -1.515625 -0.71875 -3.546875q0 -3.140625 1.5625 -4.890625q1.578125 -1.75 4.375 -1.75q2.6875 0 4.28125 1.796875q1.59375 1.78125 1.59375 4.84375zm-9.796875 0q0 2.46875 0.984375 3.765625q0.984375 1.28125 2.90625 1.28125q1.90625 0 2.890625 -1.28125q1.0 -1.296875 1.0 -3.765625q0 -2.453125 -1.0 -3.71875q-0.984375 -1.265625 -2.921875 -1.265625q-1.90625 0 -2.890625 1.25q-0.96875 1.25 -0.96875 3.734375zm18.996094 -4.890625l-3.28125 0l0 11.328125l-1.9375 0l0 -11.328125l-2.296875 0l0 -0.890625l2.296875 -0.703125l0 -0.703125q0 -4.734375 4.140625 -4.734375q1.015625 0 2.390625 0.40625l-0.515625 1.5625q-1.125 -0.375 -1.921875 -0.375q-1.09375 0 -1.625 0.734375q-0.53125 0.734375 -0.53125 2.359375l0 0.828125l3.28125 0l0 1.515625zm8.1328125 0l-3.28125 0l0 11.328125l-1.9375 0l0 -11.328125l-2.296875 0l0 -0.890625l2.296875 -0.703125l0 -0.703125q0 -4.734375 4.140625 -4.734375q1.015625 0 2.390625 0.40625l-0.515625 1.5625q-1.125 -0.375 -1.921875 -0.375q-1.09375 0 -1.625 0.734375q-0.53125 0.734375 -0.53125 2.359375l0 0.828125l3.28125 0l0 1.515625zm7.7578125 11.5625q-2.84375 0 -4.5 -1.734375q-1.640625 -1.734375 -1.640625 -4.8125q0 -3.109375 1.53125 -4.9375q1.53125 -1.828125 4.109375 -1.828125q2.421875 0 3.828125 1.59375q1.40625 1.578125 1.40625 4.1875l0 1.21875l-8.859375 0q0.0625 2.265625 1.140625 3.4375q1.09375 1.171875 3.0625 1.171875q2.078125 0 4.09375 -0.859375l0 1.734375q-1.03125 0.4375 -1.953125 0.625q-0.90625 0.203125 -2.21875 0.203125zm-0.515625 -11.6875q-1.546875 0 -2.46875 1.015625q-0.921875 1.0 -1.09375 2.78125l6.71875 0q0 -1.84375 -0.828125 -2.8125q-0.8125 -0.984375 -2.328125 -0.984375zm14.417969 -1.625q0.859375 0 1.53125 0.140625l-0.265625 1.796875q-0.796875 -0.171875 -1.40625 -0.171875q-1.5625 0 -2.671875 1.265625q-1.09375 1.265625 -1.09375 3.15625l0 6.890625l-1.953125 0l0 -12.84375l1.609375 0l0.21875 2.375l0.09375 0q0.71875 -1.25 1.71875 -1.921875q1.015625 -0.6875 2.21875 -0.6875zm10.46875 13.078125l0 -17.140625l1.984375 0l0 17.140625l-1.984375 0zm17.550781 -12.140625q0 2.59375 -1.78125 4.0q-1.765625 1.40625 -5.078125 1.40625l-2.015625 0l0 6.734375l-1.984375 0l0 -17.140625l4.4375 0q6.421875 0 6.421875 5.0zm-8.875 3.6875l1.796875 0q2.65625 0 3.828125 -0.84375q1.1875 -0.859375 1.1875 -2.75q0 -1.703125 -1.109375 -2.53125q-1.109375 -0.828125 -3.46875 -0.828125l-2.234375 0l0 6.953125z" fill-rule="nonzero"></path><path fill="#000000" d="m68.01698 343.26654q1.015625 0 2.0 0.53125q0.984375 0.515625 1.53125 1.5q0.546875 0.984375 0.546875 2.046875q0 1.6875 -1.203125 2.890625q-1.1875 1.203125 -2.875 1.203125q-1.703125 0 -2.90625 -1.203125q-1.1874962 -1.203125 -1.1874962 -2.890625q0 -1.0625 0.5468712 -2.046875q0.546875 -0.984375 1.53125 -1.5q0.984375 -0.53125 2.015625 -0.53125z" fill-rule="nonzero"></path><path fill="#000000" d="m107.22293 337.1103q-2.8125 0 -4.453125 1.875q-1.640625 1.875 -1.640625 5.15625q0 3.359375 1.578125 5.203125q1.578125 1.828125 4.5 1.828125q1.796875 0 4.09375 -0.65625l0 1.75q-1.78125 0.671875 -4.40625 0.671875q-3.78125 0 -5.84375 -2.296875q-2.046875 -2.296875 -2.046875 -6.53125q0 -2.640625 0.984375 -4.625q1.0 -2.0 2.859375 -3.078125q1.875 -1.078125 4.40625 -1.078125q2.6875 0 4.703125 0.984375l-0.84375 1.703125q-1.9375 -0.90625 -3.890625 -0.90625zm9.46875 15.59375l-1.953125 0l0 -18.234375l1.953125 0l0 18.234375zm6.0703125 0l-1.953125 0l0 -12.84375l1.953125 0l0 12.84375zm-2.109375 -16.328125q0 -0.671875 0.328125 -0.96875q0.328125 -0.3125 0.8125 -0.3125q0.46875 0 0.8125 0.3125q0.34375 0.3125 0.34375 0.96875q0 0.65625 -0.34375 0.984375q-0.34375 0.3125 -0.8125 0.3125q-0.484375 0 -0.8125 -0.3125q-0.328125 -0.328125 -0.328125 -0.984375zm11.6484375 16.5625q-2.84375 0 -4.5 -1.734375q-1.640625 -1.734375 -1.640625 -4.8125q0 -3.109375 1.53125 -4.9375q1.53125 -1.828125 4.109375 -1.828125q2.421875 0 3.828125 1.59375q1.40625 1.578125 1.40625 4.1875l0 1.21875l-8.859375 0q0.0625 2.265625 1.140625 3.4375q1.09375 1.171875 3.0625 1.171875q2.078125 0 4.09375 -0.859375l0 1.734375q-1.03125 0.4375 -1.953125 0.625q-0.90625 0.203125 -2.21875 0.203125zm-0.515625 -11.6875q-1.546875 0 -2.46875 1.015625q-0.921875 1.0 -1.09375 2.78125l6.71875 0q0 -1.84375 -0.828125 -2.8125q-0.8125 -0.984375 -2.328125 -0.984375zm17.355469 11.453125l0 -8.3125q0 -1.5625 -0.71875 -2.328125q-0.71875 -0.78125 -2.234375 -0.78125q-2.015625 0 -2.953125 1.09375q-0.9375 1.078125 -0.9375 3.59375l0 6.734375l-1.953125 0l0 -12.84375l1.578125 0l0.328125 1.75l0.09375 0q0.59375 -0.9375 1.671875 -1.453125q1.078125 -0.53125 2.40625 -0.53125q2.3125 0 3.484375 1.125q1.171875 1.109375 1.171875 3.578125l0 8.375l-1.9375 0zm10.089844 -1.375q0.515625 0 0.984375 -0.078125q0.484375 -0.078125 0.765625 -0.15625l0 1.484375q-0.3125 0.15625 -0.9375 0.25q-0.609375 0.109375 -1.09375 0.109375q-3.734375 0 -3.734375 -3.921875l0 -7.640625l-1.84375 0l0 -0.9375l1.84375 -0.8125l0.828125 -2.75l1.125 0l0 2.984375l3.71875 0l0 1.515625l-3.71875 0l0 7.546875q0 1.171875 0.546875 1.796875q0.546875 0.609375 1.515625 0.609375zm21.613281 1.375l-2.125 -5.453125l-6.875 0l-2.109375 5.453125l-2.015625 0l6.78125 -17.203125l1.671875 0l6.734375 17.203125l-2.0625 0zm-2.75 -7.25l-2.0 -5.296875q-0.375 -1.015625 -0.796875 -2.484375q-0.25 1.125 -0.734375 2.484375l-2.015625 5.296875l5.546875 0zm14.5 -8.34375q-2.8125 0 -4.453125 1.875q-1.640625 1.875 -1.640625 5.15625q0 3.359375 1.578125 5.203125q1.578125 1.828125 4.5 1.828125q1.796875 0 4.09375 -0.65625l0 1.75q-1.78125 0.671875 -4.40625 0.671875q-3.78125 0 -5.84375 -2.296875q-2.046875 -2.296875 -2.046875 -6.53125q0 -2.640625 0.984375 -4.625q1.0 -2.0 2.859375 -3.078125q1.875 -1.078125 4.40625 -1.078125q2.6875 0 4.703125 0.984375l-0.84375 1.703125q-1.9375 -0.90625 -3.890625 -0.90625zm20.1875 15.59375l-2.34375 0l-6.25 -8.3125l-1.796875 1.59375l0 6.71875l-1.984375 0l0 -17.140625l1.984375 0l0 8.5l7.78125 -8.5l2.34375 0l-6.890625 7.453125l7.15625 9.6875zm10.339844 -3.5q0 1.78125 -1.34375 2.765625q-1.328125 0.96875 -3.734375 0.96875q-2.5625 0 -3.984375 -0.8125l0 -1.796875q0.921875 0.46875 1.984375 0.734375q1.0625 0.265625 2.046875 0.265625q1.515625 0 2.328125 -0.484375q0.828125 -0.484375 0.828125 -1.484375q0 -0.75 -0.65625 -1.28125q-0.640625 -0.53125 -2.53125 -1.265625q-1.78125 -0.65625 -2.546875 -1.15625q-0.75 -0.5 -1.125 -1.125q-0.359375 -0.640625 -0.359375 -1.515625q0 -1.578125 1.265625 -2.484375q1.28125 -0.90625 3.515625 -0.90625q2.0625 0 4.046875 0.84375l-0.6875 1.578125q-1.9375 -0.796875 -3.5 -0.796875q-1.390625 0 -2.09375 0.4375q-0.703125 0.4375 -0.703125 1.1875q0 0.515625 0.265625 0.890625q0.265625 0.359375 0.84375 0.6875q0.59375 0.328125 2.25 0.953125q2.296875 0.828125 3.09375 1.671875q0.796875 0.84375 0.796875 2.125zm19.886719 3.5l-2.34375 -7.53125q-0.234375 -0.703125 -0.84375 -3.140625l-0.09375 0q-0.46875 2.046875 -0.8125 3.15625l-2.421875 7.515625l-2.25 0l-3.515625 -12.84375l2.046875 0q1.234375 4.84375 1.890625 7.375q0.65625 2.53125 0.75 3.40625l0.09375 0q0.125 -0.671875 0.40625 -1.734375q0.296875 -1.0625 0.5 -1.671875l2.359375 -7.375l2.109375 0l2.296875 7.375q0.65625 2.015625 0.890625 3.375l0.09375 0q0.046875 -0.421875 0.25 -1.296875q0.203125 -0.875 2.4375 -9.453125l2.015625 0l-3.546875 12.84375l-2.3125 0zm10.136719 0l-1.953125 0l0 -12.84375l1.953125 0l0 12.84375zm-2.109375 -16.328125q0 -0.671875 0.328125 -0.96875q0.328125 -0.3125 0.8125 -0.3125q0.46875 0 0.8125 0.3125q0.34375 0.3125 0.34375 0.96875q0 0.65625 -0.34375 0.984375q-0.34375 0.3125 -0.8125 0.3125q-0.484375 0 -0.8125 -0.3125q-0.328125 -0.328125 -0.328125 -0.984375zm15.0234375 16.328125l0 -8.3125q0 -1.5625 -0.71875 -2.328125q-0.71875 -0.78125 -2.234375 -0.78125q-2.015625 0 -2.953125 1.09375q-0.9375 1.078125 -0.9375 3.59375l0 6.734375l-1.953125 0l0 -12.84375l1.578125 0l0.328125 1.75l0.09375 0q0.59375 -0.9375 1.671875 -1.453125q1.078125 -0.53125 2.40625 -0.53125q2.3125 0 3.484375 1.125q1.171875 1.109375 1.171875 3.578125l0 8.375l-1.9375 0zm14.730469 0l0 -8.3125q0 -1.5625 -0.71875 -2.328125q-0.71875 -0.78125 -2.234375 -0.78125q-2.015625 0 -2.953125 1.09375q-0.9375 1.078125 -0.9375 3.59375l0 6.734375l-1.953125 0l0 -12.84375l1.578125 0l0.328125 1.75l0.09375 0q0.59375 -0.9375 1.671875 -1.453125q1.078125 -0.53125 2.40625 -0.53125q2.3125 0 3.484375 1.125q1.171875 1.109375 1.171875 3.578125l0 8.375l-1.9375 0zm7.8867188 0l-1.953125 0l0 -12.84375l1.953125 0l0 12.84375zm-2.109375 -16.328125q0 -0.671875 0.328125 -0.96875q0.328125 -0.3125 0.8125 -0.3125q0.46875 0 0.8125 0.3125q0.34375 0.3125 0.34375 0.96875q0 0.65625 -0.34375 0.984375q-0.34375 0.3125 -0.8125 0.3125q-0.484375 0 -0.8125 -0.3125q-0.328125 -0.328125 -0.328125 -0.984375zm15.0234375 16.328125l0 -8.3125q0 -1.5625 -0.71875 -2.328125q-0.71875 -0.78125 -2.234375 -0.78125q-2.015625 0 -2.953125 1.09375q-0.9375 1.078125 -0.9375 3.59375l0 6.734375l-1.953125 0l0 -12.84375l1.578125 0l0.328125 1.75l0.09375 0q0.59375 -0.9375 1.671875 -1.453125q1.078125 -0.53125 2.40625 -0.53125q2.3125 0 3.484375 1.125q1.171875 1.109375 1.171875 3.578125l0 8.375l-1.9375 0zm16.449219 -12.84375l0 1.234375l-2.375 0.28125q0.328125 0.40625 0.578125 1.078125q0.265625 0.65625 0.265625 1.484375q0 1.890625 -1.296875 3.015625q-1.28125 1.125 -3.53125 1.125q-0.578125 0 -1.078125 -0.09375q-1.25 0.65625 -1.25 1.640625q0 0.53125 0.4375 0.78125q0.4375 0.25 1.484375 0.25l2.28125 0q2.078125 0 3.1875 0.890625q1.125 0.875 1.125 2.546875q0 2.140625 -1.71875 3.25q-1.703125 1.125 -4.984375 1.125q-2.515625 0 -3.890625 -0.9375q-1.359375 -0.9375 -1.359375 -2.640625q0 -1.171875 0.75 -2.03125q0.75 -0.859375 2.109375 -1.171875q-0.484375 -0.21875 -0.828125 -0.6875q-0.328125 -0.46875 -0.328125 -1.09375q0 -0.703125 0.375 -1.21875q0.375 -0.53125 1.1875 -1.03125q-1.0 -0.40625 -1.625 -1.390625q-0.625 -0.984375 -0.625 -2.25q0 -2.109375 1.265625 -3.25q1.265625 -1.140625 3.578125 -1.140625q1.015625 0 1.828125 0.234375l4.4375 0zm-10.25 15.0q0 1.046875 0.875 1.578125q0.890625 0.546875 2.53125 0.546875q2.453125 0 3.625 -0.734375q1.171875 -0.734375 1.171875 -1.984375q0 -1.046875 -0.640625 -1.453125q-0.640625 -0.40625 -2.421875 -0.40625l-2.328125 0q-1.328125 0 -2.078125 0.625q-0.734375 0.640625 -0.734375 1.828125zm1.0625 -10.890625q0 1.34375 0.75 2.046875q0.765625 0.6875 2.125 0.6875q2.859375 0 2.859375 -2.765625q0 -2.890625 -2.890625 -2.890625q-1.375 0 -2.109375 0.734375q-0.734375 0.734375 -0.734375 2.1875zm26.335938 5.234375q0 1.78125 -1.34375 2.765625q-1.328125 0.96875 -3.734375 0.96875q-2.5625 0 -3.984375 -0.8125l0 -1.796875q0.921875 0.46875 1.984375 0.734375q1.0625 0.265625 2.046875 0.265625q1.515625 0 2.328125 -0.484375q0.828125 -0.484375 0.828125 -1.484375q0 -0.75 -0.65625 -1.28125q-0.640625 -0.53125 -2.53125 -1.265625q-1.78125 -0.65625 -2.546875 -1.15625q-0.75 -0.5 -1.125 -1.125q-0.359375 -0.640625 -0.359375 -1.515625q0 -1.578125 1.265625 -2.484375q1.28125 -0.90625 3.515625 -0.90625q2.0625 0 4.046875 0.84375l-0.6875 1.578125q-1.9375 -0.796875 -3.5 -0.796875q-1.390625 0 -2.09375 0.4375q-0.703125 0.4375 -0.703125 1.1875q0 0.515625 0.265625 0.890625q0.265625 0.359375 0.84375 0.6875q0.59375 0.328125 2.25 0.953125q2.296875 0.828125 3.09375 1.671875q0.796875 0.84375 0.796875 2.125zm8.589844 3.734375q-2.84375 0 -4.5 -1.734375q-1.640625 -1.734375 -1.640625 -4.8125q0 -3.109375 1.53125 -4.9375q1.53125 -1.828125 4.109375 -1.828125q2.421875 0 3.828125 1.59375q1.40625 1.578125 1.40625 4.1875l0 1.21875l-8.859375 0q0.0625 2.265625 1.140625 3.4375q1.09375 1.171875 3.0625 1.171875q2.078125 0 4.09375 -0.859375l0 1.734375q-1.03125 0.4375 -1.953125 0.625q-0.90625 0.203125 -2.21875 0.203125zm-0.515625 -11.6875q-1.546875 0 -2.46875 1.015625q-0.921875 1.0 -1.09375 2.78125l6.71875 0q0 -1.84375 -0.828125 -2.8125q-0.8125 -0.984375 -2.328125 -0.984375zm14.417969 -1.625q0.859375 0 1.53125 0.140625l-0.265625 1.796875q-0.796875 -0.171875 -1.40625 -0.171875q-1.5625 0 -2.671875 1.265625q-1.09375 1.265625 -1.09375 3.15625l0 6.890625l-1.953125 0l0 -12.84375l1.609375 0l0.21875 2.375l0.09375 0q0.71875 -1.25 1.71875 -1.921875q1.015625 -0.6875 2.21875 -0.6875zm6.75 13.078125l-4.875 -12.84375l2.09375 0l2.765625 7.609375q0.9375 2.671875 1.09375 3.46875l0.09375 0q0.125 -0.609375 0.8125 -2.5625q0.6875 -1.953125 3.078125 -8.515625l2.09375 0l-4.875 12.84375l-2.28125 0zm14.6328125 0.234375q-2.84375 0 -4.5 -1.734375q-1.640625 -1.734375 -1.640625 -4.8125q0 -3.109375 1.53125 -4.9375q1.53125 -1.828125 4.109375 -1.828125q2.421875 0 3.828125 1.59375q1.40625 1.578125 1.40625 4.1875l0 1.21875l-8.859375 0q0.0625 2.265625 1.140625 3.4375q1.09375 1.171875 3.0625 1.171875q2.078125 0 4.09375 -0.859375l0 1.734375q-1.03125 0.4375 -1.953125 0.625q-0.90625 0.203125 -2.21875 0.203125zm-0.515625 -11.6875q-1.546875 0 -2.46875 1.015625q-0.921875 1.0 -1.09375 2.78125l6.71875 0q0 -1.84375 -0.828125 -2.8125q-0.8125 -0.984375 -2.328125 -0.984375zm14.417969 -1.625q0.859375 0 1.53125 0.140625l-0.265625 1.796875q-0.796875 -0.171875 -1.40625 -0.171875q-1.5625 0 -2.671875 1.265625q-1.09375 1.265625 -1.09375 3.15625l0 6.890625l-1.953125 0l0 -12.84375l1.609375 0l0.21875 2.375l0.09375 0q0.71875 -1.25 1.71875 -1.921875q1.015625 -0.6875 2.21875 -0.6875z" fill-rule="nonzero"></path><path fill="#000000" d="m68.01698 378.26654q1.015625 0 2.0 0.53125q0.984375 0.515625 1.53125 1.5q0.546875 0.984375 0.546875 2.046875q0 1.6875 -1.203125 2.890625q-1.1875 1.203125 -2.875 1.203125q-1.703125 0 -2.90625 -1.203125q-1.1874962 -1.203125 -1.1874962 -2.890625q0 -1.0625 0.5468712 -2.046875q0.546875 -0.984375 1.53125 -1.5q0.984375 -0.53125 2.015625 -0.53125z" fill-rule="nonzero"></path><path fill="#000000" d="m109.56668 383.14154q0 2.265625 -1.640625 3.53125q-1.640625 1.265625 -4.453125 1.265625q-3.046875 0 -4.6875 -0.78125l0 -1.921875q1.046875 0.4375 2.28125 0.703125q1.25 0.25 2.46875 0.25q2.0 0 3.0 -0.75q1.015625 -0.765625 1.015625 -2.109375q0 -0.890625 -0.359375 -1.453125q-0.359375 -0.578125 -1.203125 -1.046875q-0.828125 -0.484375 -2.546875 -1.09375q-2.390625 -0.859375 -3.421875 -2.03125q-1.015625 -1.171875 -1.015625 -3.0625q0 -1.96875 1.484375 -3.140625q1.484375 -1.171875 3.9375 -1.171875q2.5625 0 4.703125 0.9375l-0.625 1.734375q-2.125 -0.890625 -4.125 -0.890625q-1.578125 0 -2.46875 0.6875q-0.890625 0.671875 -0.890625 1.875q0 0.890625 0.328125 1.46875q0.328125 0.5625 1.109375 1.03125q0.78125 0.46875 2.375 1.046875q2.703125 0.96875 3.71875 2.078125q1.015625 1.09375 1.015625 2.84375zm8.625 4.796875q-2.84375 0 -4.5 -1.734375q-1.640625 -1.734375 -1.640625 -4.8125q0 -3.109375 1.53125 -4.9375q1.53125 -1.828125 4.109375 -1.828125q2.421875 0 3.828125 1.59375q1.40625 1.578125 1.40625 4.1875l0 1.21875l-8.859375 0q0.0625 2.265625 1.140625 3.4375q1.09375 1.171875 3.0625 1.171875q2.078125 0 4.09375 -0.859375l0 1.734375q-1.03125 0.4375 -1.953125 0.625q-0.90625 0.203125 -2.21875 0.203125zm-0.515625 -11.6875q-1.546875 0 -2.46875 1.015625q-0.921875 1.0 -1.09375 2.78125l6.71875 0q0 -1.84375 -0.828125 -2.8125q-0.8125 -0.984375 -2.328125 -0.984375zm14.417969 -1.625q0.859375 0 1.53125 0.140625l-0.265625 1.796875q-0.796875 -0.171875 -1.40625 -0.171875q-1.5625 0 -2.671875 1.265625q-1.09375 1.265625 -1.09375 3.15625l0 6.890625l-1.953125 0l0 -12.84375l1.609375 0l0.21875 2.375l0.09375 0q0.71875 -1.25 1.71875 -1.921875q1.015625 -0.6875 2.21875 -0.6875zm6.75 13.078125l-4.875 -12.84375l2.09375 0l2.765625 7.609375q0.9375 2.671875 1.09375 3.46875l0.09375 0q0.125 -0.609375 0.8125 -2.5625q0.6875 -1.953125 3.078125 -8.515625l2.09375 0l-4.875 12.84375l-2.28125 0zm14.6328125 0.234375q-2.84375 0 -4.5 -1.734375q-1.640625 -1.734375 -1.640625 -4.8125q0 -3.109375 1.53125 -4.9375q1.53125 -1.828125 4.109375 -1.828125q2.421875 0 3.828125 1.59375q1.40625 1.578125 1.40625 4.1875l0 1.21875l-8.859375 0q0.0625 2.265625 1.140625 3.4375q1.09375 1.171875 3.0625 1.171875q2.078125 0 4.09375 -0.859375l0 1.734375q-1.03125 0.4375 -1.953125 0.625q-0.90625 0.203125 -2.21875 0.203125zm-0.515625 -11.6875q-1.546875 0 -2.46875 1.015625q-0.921875 1.0 -1.09375 2.78125l6.71875 0q0 -1.84375 -0.828125 -2.8125q-0.8125 -0.984375 -2.328125 -0.984375zm14.417969 -1.625q0.859375 0 1.53125 0.140625l-0.265625 1.796875q-0.796875 -0.171875 -1.40625 -0.171875q-1.5625 0 -2.671875 1.265625q-1.09375 1.265625 -1.09375 3.15625l0 6.890625l-1.953125 0l0 -12.84375l1.609375 0l0.21875 2.375l0.09375 0q0.71875 -1.25 1.71875 -1.921875q1.015625 -0.6875 2.21875 -0.6875zm12.21875 9.578125q0 1.78125 -1.34375 2.765625q-1.328125 0.96875 -3.734375 0.96875q-2.5625 0 -3.984375 -0.8125l0 -1.796875q0.921875 0.46875 1.984375 0.734375q1.0625 0.265625 2.046875 0.265625q1.515625 0 2.328125 -0.484375q0.828125 -0.484375 0.828125 -1.484375q0 -0.75 -0.65625 -1.28125q-0.640625 -0.53125 -2.53125 -1.265625q-1.78125 -0.65625 -2.546875 -1.15625q-0.75 -0.5 -1.125 -1.125q-0.359375 -0.640625 -0.359375 -1.515625q0 -1.578125 1.265625 -2.484375q1.28125 -0.90625 3.515625 -0.90625q2.0625 0 4.046875 0.84375l-0.6875 1.578125q-1.9375 -0.796875 -3.5 -0.796875q-1.390625 0 -2.09375 0.4375q-0.703125 0.4375 -0.703125 1.1875q0 0.515625 0.265625 0.890625q0.265625 0.359375 0.84375 0.6875q0.59375 0.328125 2.25 0.953125q2.296875 0.828125 3.09375 1.671875q0.796875 0.84375 0.796875 2.125zm17.308594 3.5l-0.390625 -1.828125l-0.09375 0q-0.96875 1.203125 -1.921875 1.640625q-0.953125 0.421875 -2.375 0.421875q-1.921875 0 -3.0 -0.984375q-1.078125 -0.984375 -1.078125 -2.796875q0 -3.890625 6.21875 -4.078125l2.171875 -0.078125l0 -0.796875q0 -1.515625 -0.65625 -2.234375q-0.640625 -0.71875 -2.0625 -0.71875q-1.609375 0 -3.640625 0.984375l-0.59375 -1.484375q0.953125 -0.515625 2.078125 -0.8125q1.125 -0.296875 2.265625 -0.296875q2.296875 0 3.40625 1.03125q1.109375 1.015625 1.109375 3.265625l0 8.765625l-1.4375 0zm-4.40625 -1.375q1.828125 0 2.859375 -0.984375q1.03125 -1.0 1.03125 -2.796875l0 -1.15625l-1.9375 0.078125q-2.328125 0.078125 -3.359375 0.71875q-1.015625 0.640625 -1.015625 1.984375q0 1.0625 0.640625 1.609375q0.640625 0.546875 1.78125 0.546875zm11.800781 1.375l-1.953125 0l0 -18.234375l1.953125 0l0 18.234375zm6.0703125 0l-1.953125 0l0 -18.234375l1.953125 0l0 18.234375zm12.1796875 -12.84375l0 8.328125q0 1.578125 0.71875 2.359375q0.71875 0.765625 2.234375 0.765625q2.015625 0 2.9375 -1.09375q0.9375 -1.109375 0.9375 -3.609375l0 -6.75l1.953125 0l0 12.84375l-1.609375 0l-0.28125 -1.71875l-0.109375 0q-0.59375 0.9375 -1.65625 1.453125q-1.0625 0.5 -2.421875 0.5q-2.34375 0 -3.515625 -1.109375q-1.15625 -1.125 -1.15625 -3.5625l0 -8.40625l1.96875 0zm18.886719 13.078125q-1.265625 0 -2.296875 -0.453125q-1.03125 -0.46875 -1.734375 -1.4375l-0.140625 0q0.140625 1.125 0.140625 2.140625l0 5.28125l-1.953125 0l0 -18.609375l1.578125 0l0.28125 1.75l0.09375 0q0.75 -1.046875 1.734375 -1.515625q1.0 -0.46875 2.296875 -0.46875q2.546875 0 3.9375 1.75q1.390625 1.734375 1.390625 4.890625q0 3.171875 -1.421875 4.921875q-1.40625 1.75 -3.90625 1.75zm-0.28125 -11.65625q-1.96875 0 -2.859375 1.09375q-0.875 1.078125 -0.890625 3.453125l0 0.4375q0 2.703125 0.890625 3.875q0.90625 1.171875 2.90625 1.171875q1.65625 0 2.59375 -1.34375q0.953125 -1.359375 0.953125 -3.71875q0 -2.40625 -0.953125 -3.6875q-0.9375 -1.28125 -2.640625 -1.28125zm17.753906 9.703125l-0.109375 0q-1.34375 1.953125 -4.03125 1.953125q-2.515625 0 -3.921875 -1.71875q-1.40625 -1.734375 -1.40625 -4.90625q0 -3.171875 1.40625 -4.921875q1.40625 -1.765625 3.921875 -1.765625q2.609375 0 4.0 1.890625l0.15625 0l-0.078125 -0.921875l-0.046875 -0.90625l0 -5.21875l1.9375 0l0 18.234375l-1.578125 0l-0.25 -1.71875zm-3.890625 0.328125q1.984375 0 2.875 -1.078125q0.90625 -1.09375 0.90625 -3.515625l0 -0.40625q0 -2.734375 -0.90625 -3.890625q-0.90625 -1.171875 -2.90625 -1.171875q-1.703125 0 -2.625 1.328125q-0.90625 1.328125 -0.90625 3.765625q0 2.453125 0.90625 3.71875q0.90625 1.25 2.65625 1.25zm17.753906 1.390625l-0.390625 -1.828125l-0.09375 0q-0.96875 1.203125 -1.921875 1.640625q-0.953125 0.421875 -2.375 0.421875q-1.921875 0 -3.0 -0.984375q-1.078125 -0.984375 -1.078125 -2.796875q0 -3.890625 6.21875 -4.078125l2.171875 -0.078125l0 -0.796875q0 -1.515625 -0.65625 -2.234375q-0.640625 -0.71875 -2.0625 -0.71875q-1.609375 0 -3.640625 0.984375l-0.59375 -1.484375q0.953125 -0.515625 2.078125 -0.8125q1.125 -0.296875 2.265625 -0.296875q2.296875 0 3.40625 1.03125q1.109375 1.015625 1.109375 3.265625l0 8.765625l-1.4375 0zm-4.40625 -1.375q1.828125 0 2.859375 -0.984375q1.03125 -1.0 1.03125 -2.796875l0 -1.15625l-1.9375 0.078125q-2.328125 0.078125 -3.359375 0.71875q-1.015625 0.640625 -1.015625 1.984375q0 1.0625 0.640625 1.609375q0.640625 0.546875 1.78125 0.546875zm14.003906 0q0.515625 0 0.984375 -0.078125q0.484375 -0.078125 0.765625 -0.15625l0 1.484375q-0.3125 0.15625 -0.9375 0.25q-0.609375 0.109375 -1.09375 0.109375q-3.734375 0 -3.734375 -3.921875l0 -7.640625l-1.84375 0l0 -0.9375l1.84375 -0.8125l0.828125 -2.75l1.125 0l0 2.984375l3.71875 0l0 1.515625l-3.71875 0l0 7.546875q0 1.171875 0.546875 1.796875q0.546875 0.609375 1.515625 0.609375zm9.738281 1.609375q-2.84375 0 -4.5 -1.734375q-1.640625 -1.734375 -1.640625 -4.8125q0 -3.109375 1.53125 -4.9375q1.53125 -1.828125 4.109375 -1.828125q2.421875 0 3.828125 1.59375q1.40625 1.578125 1.40625 4.1875l0 1.21875l-8.859375 0q0.0625 2.265625 1.140625 3.4375q1.09375 1.171875 3.0625 1.171875q2.078125 0 4.09375 -0.859375l0 1.734375q-1.03125 0.4375 -1.953125 0.625q-0.90625 0.203125 -2.21875 0.203125zm-0.515625 -11.6875q-1.546875 0 -2.46875 1.015625q-0.921875 1.0 -1.09375 2.78125l6.71875 0q0 -1.84375 -0.828125 -2.8125q-0.8125 -0.984375 -2.328125 -0.984375zm16.746094 11.453125l-1.953125 0l0 -18.234375l1.953125 0l0 18.234375zm9.5390625 0.234375q-2.84375 0 -4.5 -1.734375q-1.640625 -1.734375 -1.640625 -4.8125q0 -3.109375 1.53125 -4.9375q1.53125 -1.828125 4.109375 -1.828125q2.421875 0 3.828125 1.59375q1.40625 1.578125 1.40625 4.1875l0 1.21875l-8.859375 0q0.0625 2.265625 1.140625 3.4375q1.09375 1.171875 3.0625 1.171875q2.078125 0 4.09375 -0.859375l0 1.734375q-1.03125 0.4375 -1.953125 0.625q-0.90625 0.203125 -2.21875 0.203125zm-0.515625 -11.6875q-1.546875 0 -2.46875 1.015625q-0.921875 1.0 -1.09375 2.78125l6.71875 0q0 -1.84375 -0.828125 -2.8125q-0.8125 -0.984375 -2.328125 -0.984375zm16.464844 11.453125l-0.390625 -1.828125l-0.09375 0q-0.96875 1.203125 -1.921875 1.640625q-0.953125 0.421875 -2.375 0.421875q-1.921875 0 -3.0 -0.984375q-1.078125 -0.984375 -1.078125 -2.796875q0 -3.890625 6.21875 -4.078125l2.171875 -0.078125l0 -0.796875q0 -1.515625 -0.65625 -2.234375q-0.640625 -0.71875 -2.0625 -0.71875q-1.609375 0 -3.640625 0.984375l-0.59375 -1.484375q0.953125 -0.515625 2.078125 -0.8125q1.125 -0.296875 2.265625 -0.296875q2.296875 0 3.40625 1.03125q1.109375 1.015625 1.109375 3.265625l0 8.765625l-1.4375 0zm-4.40625 -1.375q1.828125 0 2.859375 -0.984375q1.03125 -1.0 1.03125 -2.796875l0 -1.15625l-1.9375 0.078125q-2.328125 0.078125 -3.359375 0.71875q-1.015625 0.640625 -1.015625 1.984375q0 1.0625 0.640625 1.609375q0.640625 0.546875 1.78125 0.546875zm18.128906 -2.125q0 1.78125 -1.34375 2.765625q-1.328125 0.96875 -3.734375 0.96875q-2.5625 0 -3.984375 -0.8125l0 -1.796875q0.921875 0.46875 1.984375 0.734375q1.0625 0.265625 2.046875 0.265625q1.515625 0 2.328125 -0.484375q0.828125 -0.484375 0.828125 -1.484375q0 -0.75 -0.65625 -1.28125q-0.640625 -0.53125 -2.53125 -1.265625q-1.78125 -0.65625 -2.546875 -1.15625q-0.75 -0.5 -1.125 -1.125q-0.359375 -0.640625 -0.359375 -1.515625q0 -1.578125 1.265625 -2.484375q1.28125 -0.90625 3.515625 -0.90625q2.0625 0 4.046875 0.84375l-0.6875 1.578125q-1.9375 -0.796875 -3.5 -0.796875q-1.390625 0 -2.09375 0.4375q-0.703125 0.4375 -0.703125 1.1875q0 0.515625 0.265625 0.890625q0.265625 0.359375 0.84375 0.6875q0.59375 0.328125 2.25 0.953125q2.296875 0.828125 3.09375 1.671875q0.796875 0.84375 0.796875 2.125zm8.589844 3.734375q-2.84375 0 -4.5 -1.734375q-1.640625 -1.734375 -1.640625 -4.8125q0 -3.109375 1.53125 -4.9375q1.53125 -1.828125 4.109375 -1.828125q2.421875 0 3.828125 1.59375q1.40625 1.578125 1.40625 4.1875l0 1.21875l-8.859375 0q0.0625 2.265625 1.140625 3.4375q1.09375 1.171875 3.0625 1.171875q2.078125 0 4.09375 -0.859375l0 1.734375q-1.03125 0.4375 -1.953125 0.625q-0.90625 0.203125 -2.21875 0.203125zm-0.515625 -11.6875q-1.546875 0 -2.46875 1.015625q-0.921875 1.0 -1.09375 2.78125l6.71875 0q0 -1.84375 -0.828125 -2.8125q-0.8125 -0.984375 -2.328125 -0.984375z" fill-rule="nonzero"></path><path fill="#000000" d="m103.75418 421.32904q0.515625 0 0.984375 -0.078125q0.484375 -0.078125 0.765625 -0.15625l0 1.484375q-0.3125 0.15625 -0.9375 0.25q-0.609375 0.109375 -1.09375 0.109375q-3.734375 0 -3.734375 -3.921875l0 -7.640625l-1.84375 0l0 -0.9375l1.84375 -0.8125l0.828125 -2.75l1.125 0l0 2.984375l3.71875 0l0 1.515625l-3.71875 0l0 7.546875q0 1.171875 0.546875 1.796875q0.546875 0.609375 1.515625 0.609375zm12.222656 1.375l-0.390625 -1.828125l-0.09375 0q-0.96875 1.203125 -1.921875 1.640625q-0.953125 0.421875 -2.375 0.421875q-1.921875 0 -3.0 -0.984375q-1.078125 -0.984375 -1.078125 -2.796875q0 -3.890625 6.21875 -4.078125l2.171875 -0.078125l0 -0.796875q0 -1.515625 -0.65625 -2.234375q-0.640625 -0.71875 -2.0625 -0.71875q-1.609375 0 -3.640625 0.984375l-0.59375 -1.484375q0.953125 -0.515625 2.078125 -0.8125q1.125 -0.296875 2.265625 -0.296875q2.296875 0 3.40625 1.03125q1.109375 1.015625 1.109375 3.265625l0 8.765625l-1.4375 0zm-4.40625 -1.375q1.828125 0 2.859375 -0.984375q1.03125 -1.0 1.03125 -2.796875l0 -1.15625l-1.9375 0.078125q-2.328125 0.078125 -3.359375 0.71875q-1.015625 0.640625 -1.015625 1.984375q0 1.0625 0.640625 1.609375q0.640625 0.546875 1.78125 0.546875zm15.832031 -11.6875q2.53125 0 3.921875 1.734375q1.40625 1.734375 1.40625 4.890625q0 3.171875 -1.421875 4.921875q-1.40625 1.75 -3.90625 1.75q-1.265625 0 -2.296875 -0.453125q-1.03125 -0.46875 -1.734375 -1.4375l-0.140625 0l-0.421875 1.65625l-1.390625 0l0 -18.234375l1.953125 0l0 4.421875q0 1.5 -0.09375 2.671875l0.09375 0q1.359375 -1.921875 4.03125 -1.921875zm-0.28125 1.640625q-2.0 0 -2.875 1.140625q-0.875 1.140625 -0.875 3.84375q0 2.703125 0.890625 3.875q0.90625 1.171875 2.90625 1.171875q1.78125 0 2.65625 -1.3125q0.890625 -1.3125 0.890625 -3.75q0 -2.515625 -0.890625 -3.734375q-0.875 -1.234375 -2.703125 -1.234375zm10.957031 11.421875l-1.953125 0l0 -18.234375l1.953125 0l0 18.234375zm9.5390625 0.234375q-2.84375 0 -4.5 -1.734375q-1.640625 -1.734375 -1.640625 -4.8125q0 -3.109375 1.53125 -4.9375q1.53125 -1.828125 4.109375 -1.828125q2.421875 0 3.828125 1.59375q1.40625 1.578125 1.40625 4.1875l0 1.21875l-8.859375 0q0.0625 2.265625 1.140625 3.4375q1.09375 1.171875 3.0625 1.171875q2.078125 0 4.09375 -0.859375l0 1.734375q-1.03125 0.4375 -1.953125 0.625q-0.90625 0.203125 -2.21875 0.203125zm-0.515625 -11.6875q-1.546875 0 -2.46875 1.015625q-0.921875 1.0 -1.09375 2.78125l6.71875 0q0 -1.84375 -0.828125 -2.8125q-0.8125 -0.984375 -2.328125 -0.984375zm16.839844 7.953125q0 1.78125 -1.34375 2.765625q-1.328125 0.96875 -3.734375 0.96875q-2.5625 0 -3.984375 -0.8125l0 -1.796875q0.921875 0.46875 1.984375 0.734375q1.0625 0.265625 2.046875 0.265625q1.515625 0 2.328125 -0.484375q0.828125 -0.484375 0.828125 -1.484375q0 -0.75 -0.65625 -1.28125q-0.640625 -0.53125 -2.53125 -1.265625q-1.78125 -0.65625 -2.546875 -1.15625q-0.75 -0.5 -1.125 -1.125q-0.359375 -0.640625 -0.359375 -1.515625q0 -1.578125 1.265625 -2.484375q1.28125 -0.90625 3.515625 -0.90625q2.0625 0 4.046875 0.84375l-0.6875 1.578125q-1.9375 -0.796875 -3.5 -0.796875q-1.390625 0 -2.09375 0.4375q-0.703125 0.4375 -0.703125 1.1875q0 0.515625 0.265625 0.890625q0.265625 0.359375 0.84375 0.6875q0.59375 0.328125 2.25 0.953125q2.296875 0.828125 3.09375 1.671875q0.796875 0.84375 0.796875 2.125z" fill-rule="nonzero"></path></g></svg>

