<?xml version="1.0" encoding="UTF-8" standalone="no"?>
<!-- Created with Inkscape (http://www.inkscape.org/) -->

<svg
   xmlns:dc="http://purl.org/dc/elements/1.1/"
   xmlns:cc="http://creativecommons.org/ns#"
   xmlns:rdf="http://www.w3.org/1999/02/22-rdf-syntax-ns#"
   xmlns:svg="http://www.w3.org/2000/svg"
   xmlns="http://www.w3.org/2000/svg"
   xmlns:sodipodi="http://sodipodi.sourceforge.net/DTD/sodipodi-0.dtd"
   xmlns:inkscape="http://www.inkscape.org/namespaces/inkscape"
   id="svg5164"
   version="1.1"
   inkscape:version="0.48.4 r9939"
   width="986.5375"
   height="204.6375"
   xml:space="preserve"
   sodipodi:docname="logo_linuxconeu.eps"><metadata
     id="metadata5170"><rdf:RDF><cc:Work
         rdf:about=""><dc:format>image/svg+xml</dc:format><dc:type
           rdf:resource="http://purl.org/dc/dcmitype/StillImage" /><dc:title></dc:title></cc:Work></rdf:RDF></metadata><defs
     id="defs5168" /><sodipodi:namedview
     pagecolor="#ffffff"
     bordercolor="#666666"
     borderopacity="1"
     objecttolerance="10"
     gridtolerance="10"
     guidetolerance="10"
     inkscape:pageopacity="0"
     inkscape:pageshadow="2"
     inkscape:window-width="640"
     inkscape:window-height="480"
     id="namedview5166"
     showgrid="false"
     inkscape:zoom="0.39836297"
     inkscape:cx="493.26874"
     inkscape:cy="102.31875"
     inkscape:window-x="41"
     inkscape:window-y="24"
     inkscape:window-maximized="0"
     inkscape:current-layer="g5172" /><g
     id="g5172"
     inkscape:groupmode="layer"
     inkscape:label="ink_ext_XXXXXX"
     transform="matrix(1.25,0,0,-1.25,0,204.6375)"><g
       id="g5174"
       transform="scale(0.1,0.1)"><path
         d="m 2196.25,601.551 -547.36,0 0,717.729 181.09,0 0,-584.081 366.27,0 0,-133.648"
         style="fill:#231f20;fill-opacity:1;fill-rule:nonzero;stroke:none"
         id="path5176" /><path
         d="m 2326.72,601.551 181.09,0 0,717.73 -181.09,0 0,-717.73 z"
         style="fill:#231f20;fill-opacity:1;fill-rule:nonzero;stroke:none"
         id="path5178" /><path
         d="m 3423.46,601.551 -149.44,0 -396.8,444.199 0,-444.199 -177.9,0 0,717.729 163.11,0 384.1,-422.815 0,422.815 176.93,0 0,-717.729"
         style="fill:#231f20;fill-opacity:1;fill-rule:nonzero;stroke:none"
         id="path5180" /><path
         d="m 4324.26,928.918 c 0,-28.484 -1.97,-56.988 -4.12,-78.973 -5.31,-52.675 -27.34,-104.179 -57.95,-142.175 -39.86,-47.313 -111.4,-89.391 -179.94,-103.969 -36.83,-7.602 -77.83,-11.68 -122.05,-11.68 -92.49,0 -156.77,15.758 -218.91,52.633 -33.6,21.055 -62.09,46.297 -83.18,74.59 -38.93,52.625 -54.66,112.715 -54.66,204.402 l 0,395.534 180.93,0 0,-355.737 c 0,-70.504 6.38,-107.27 23.34,-139.961 29.26,-54.719 86.18,-87.297 156.68,-87.297 86.39,0 157.87,53.699 173.63,130.598 3.21,15.539 5.35,30.441 5.35,45.23 l 0,407.167 180.88,0 0,-390.362"
         style="fill:#231f20;fill-opacity:1;fill-rule:nonzero;stroke:none"
         id="path5182" /><path
         d="m 4961.1,973.047 311.52,-371.496 -231.62,0 -194.75,236.824 -191.44,-236.824 -228.56,0 304.34,371.496 -287.46,346.233 231.74,0 171.38,-211.34 168.33,211.34 227.55,0 -281.03,-346.233"
         style="fill:#231f20;fill-opacity:1;fill-rule:nonzero;stroke:none"
         id="path5184" /><path
         d="m 6052.45,663.773 c -94.65,-50.543 -177.99,-71.652 -282.05,-71.652 -246.1,0 -417.82,150.434 -417.82,366.25 0,134.589 75.78,255.709 201.04,319.939 65.27,33.77 143.18,50.49 232.58,50.49 74.76,0 125.25,-8.28 196.85,-34.73 29.69,-10.48 38.95,-14.68 60.88,-28.32 l 0,-165.32 c -63.03,47.44 -158.81,77.93 -245.02,77.93 -153.77,0 -260.1,-89.58 -260.1,-217.852 0,-129.477 105.37,-220.043 254.85,-220.043 69.39,0 150.43,24.336 215.58,63.133 l 35.92,21.164 7.29,4.238 0,-165.227"
         style="fill:#231f20;fill-opacity:1;fill-rule:nonzero;stroke:none"
         id="path5186" /><path
         d="m 6599.67,1176.41 c -136.72,0 -225.13,-85.48 -225.13,-220.137 0,-130.601 91.58,-218.867 227.22,-218.867 130.55,0 225.35,91.594 225.35,217.746 1.02,134.758 -88.41,221.258 -227.44,221.258 z m -2.09,-584.289 c -229.41,0 -408.32,160.942 -408.32,367.43 0,208.179 178.91,369.249 411.55,369.249 231.62,0 411.64,-161.07 411.64,-369.249 0,-208.531 -180.02,-367.43 -414.87,-367.43"
         style="fill:#231f20;fill-opacity:1;fill-rule:nonzero;stroke:none"
         id="path5188" /><path
         d="m 7892.31,601.551 -149.57,0 -396.7,444.199 0,-444.199 -178.03,0 0,717.729 163.19,0 384.1,-422.815 0,422.815 177.01,0 0,-717.729"
         style="fill:#231f20;fill-opacity:1;fill-rule:nonzero;stroke:none"
         id="path5190" /><path
         d="M 723.629,397.148 C 405.289,363.859 120.203,595.059 87.0078,913.559 53.8555,1231.77 285,1516.82 603.391,1550.1 921.598,1583.25 1206.76,1352.16 1239.82,1033.77 1273.15,715.379 1042.02,430.43 723.629,397.148 z M 1323.4,1042.45 C 1285.3,1407.1 958.977,1671.46 594.551,1633.49 230.172,1595.39 -34.4102,1269.28 3.63672,904.664 41.6367,540.238 367.852,275.66 732.387,313.711 1096.84,351.809 1361.31,678.133 1323.4,1042.45"
         style="fill:#231f20;fill-opacity:1;fill-rule:nonzero;stroke:none"
         id="path5192" /><path
         d="m 708.027,1479.5 c 0,0 -101.019,46.33 -161.605,-72.22 -38.262,-75.27 22.723,-168.73 -26.871,-267.93 C 469.973,1040.21 306.895,911.207 326.832,744 c 1.551,-12.703 1.359,-25.457 8.52,-5.734 7.074,19.718 82.558,154.507 143.168,208.308 12.679,11.313 9.918,1.395 8.523,-12.828 -1.578,-14.066 -27.441,-150.09 18.383,-237.871 36.176,-69.516 7.48,-97.863 31.082,-132.645 29.742,-43.89 -16.32,-107.082 19.078,-114.14 7.855,-1.508 14.441,16.82 19.883,17.84 19.371,3.05 10.261,-14.739 21.308,-11.52 6.399,2.09 4.766,11.301 12.727,18.539 4.875,4.231 12.539,-18.109 19.152,-13.449 6.485,4.711 11.817,36.602 14.211,43.199 8.485,24.11 12.668,20.41 38.207,37.571 25.485,16.98 51.039,38.421 51.039,19.71 0,-18.332 -10.605,-21.8 0,-29.64 10.114,-7.5 39.446,-12.11 58.879,-6.539 6.156,2.097 -0.992,11.898 5.547,13.621 11.895,3.058 29.578,-6.863 36.172,0 4.477,4.66 -2.789,10.387 2.949,14.199 9.164,6.32 30.547,10.289 28.348,15.551 -3.188,6.848 -31.406,14.199 -39.789,14.199 -18.465,0 -20.926,-0.699 -22.614,12.688 -1.402,10.621 9.911,93.687 13.399,141.011 2.785,36.758 0.672,141.692 -10.613,214.121 0,0 65.164,-28.804 110.504,-190.652 9.89,-35.363 22.718,-18.215 25.457,-7.07 2.89,11.258 42.464,67.957 -33.981,209.594 -47.562,88.377 -112.191,134.917 -121.785,164.667 -46.711,142.98 -39.789,129.56 -58.902,165.71 -7.817,14.63 -18.411,31.24 -8.438,59.4 9.859,28.43 31.914,62.41 55.899,73.66 24.085,11.42 43.972,24.15 46.839,31.25 2.836,7.15 6.993,4.21 6.993,12.8 0,8.31 -6.993,35.32 -118.95,9.95"
         style="fill:#231f20;fill-opacity:1;fill-rule:nonzero;stroke:none"
         id="path5194" /><path
         d="m 1670.83,435.172 243.27,0 0,-41.551 -200.84,0 0,-133.031 199.11,0 0,-41.559 -199.11,0 0,-166.8005 199.11,0 0,-41.5508 -241.54,0 0,424.4923"
         style="fill:#80cc28;fill-opacity:1;fill-rule:nonzero;stroke:none"
         id="path5196" /><path
         d="m 1988.84,435.172 42.42,0 0,-256.25 c 0,-30.402 0.58,-49.352 1.74,-56.852 2.11,-16.738 7.02,-30.738 14.71,-41.988 7.7,-11.25 19.53,-20.6836 35.5,-28.2812 15.96,-7.6016 32.03,-11.4024 48.19,-11.4024 14.04,0 27.51,2.9805 40.4,8.9532 12.89,5.957 23.66,14.2304 32.32,24.8203 8.66,10.5664 15.01,23.3672 19.05,38.3671 2.88,10.781 4.33,32.91 4.33,66.383 l 0,256.25 42.42,0 0,-256.25 c 0,-37.902 -3.71,-68.543 -11.12,-91.9103 -7.4,-23.3828 -22.21,-43.7226 -44.43,-61.0429 C 2192.14,8.66016 2165.26,0 2133.71,0 c -34.25,0 -63.59,8.17969 -88.02,24.5313 -24.43,16.3476 -40.78,38 -49.05,64.9296 -5.2,16.5391 -7.8,46.3591 -7.8,89.4611 l 0,256.25"
         style="fill:#80cc28;fill-opacity:1;fill-rule:nonzero;stroke:none"
         id="path5198" /><path
         d="m 2419.11,393.621 0,-144.289 73.13,-0.582 c 28.32,0 49.27,2.691 62.86,8.082 13.59,5.379 24.19,14 31.79,25.828 7.62,11.828 11.43,25.051 11.43,39.68 0,14.23 -3.86,27.172 -11.57,38.808 -7.71,11.641 -17.82,19.961 -30.35,24.961 -12.52,5 -33.34,7.512 -62.43,7.512 l -74.86,0 z m -42.42,41.551 84.55,0 c 47.13,0 79.07,-1.934 95.81,-5.781 25.2,-5.782 45.68,-18.153 61.47,-37.121 15.77,-18.981 23.66,-42.34 23.66,-70.079 0,-23.109 -5.44,-43.429 -16.31,-60.961 -10.87,-17.531 -26.4,-30.781 -46.6,-39.73 -20.2,-8.961 -48.1,-13.539 -83.69,-13.73 l 152.66,-197.0903 -52.48,0 -152.67,197.0903 -23.98,0 0,-197.0903 -42.42,0 0,424.4923"
         style="fill:#80cc28;fill-opacity:1;fill-rule:nonzero;stroke:none"
         id="path5200" /><path
         d="m 2937.1,404.59 c -31.41,0 -61.19,-8.192 -89.32,-24.559 -28.13,-16.371 -50.1,-38.41 -65.9,-66.133 -15.8,-27.726 -23.7,-58.628 -23.7,-92.707 0,-50.441 17.49,-93.043 52.46,-127.8004 34.97,-34.75 77.12,-52.1211 126.46,-52.1211 32.94,0 63.44,7.9922 91.47,23.9688 28.04,15.9805 49.91,37.8317 65.61,65.5507 15.71,27.731 23.56,58.543 23.56,92.422 0,33.699 -7.85,64.168 -23.56,91.41 -15.7,27.25 -37.81,49.039 -66.32,65.41 -28.52,16.367 -58.78,24.559 -90.76,24.559 z m -1.88,41.262 c 64.3,0 118.1,-21.454 161.42,-64.352 43.31,-42.91 64.97,-95.711 64.97,-158.43 0,-62.14 -21.61,-114.851 -64.83,-158.1403 C 3053.56,21.6484 3000.86,0 2938.69,0 c -62.95,0 -116.09,21.5391 -159.4,64.6406 -43.31,43.0974 -64.97,95.2304 -64.97,156.4104 0,40.781 9.86,78.59 29.6,113.41 19.73,34.82 46.63,62.09 80.7,81.809 34.08,19.718 70.94,29.582 110.6,29.582"
         style="fill:#80cc28;fill-opacity:1;fill-rule:nonzero;stroke:none"
         id="path5202" /><path
         d="m 3288.87,393.621 0,-144 71.85,-0.859 c 29.05,0 50.31,2.629 63.78,7.91 13.46,5.277 24.04,13.82 31.75,25.637 7.69,11.8 11.54,25 11.54,39.601 0,14.199 -3.85,27.211 -11.54,39.02 -7.71,11.808 -17.85,20.211 -30.45,25.199 -12.61,4.992 -33.24,7.492 -61.9,7.492 l -75.03,0 z m -42.42,41.551 84.55,0 c 48.48,0 81.19,-2.121 98.12,-6.352 24.24,-5.961 44.05,-18.23 59.44,-36.789 15.39,-18.57 23.09,-41.89 23.09,-69.98 0,-28.281 -7.5,-51.61 -22.51,-69.981 -15,-18.371 -35.69,-30.73 -62.05,-37.082 -19.23,-4.617 -55.21,-6.929 -107.92,-6.929 l -30.3,0 0,-197.3793 -42.42,0 0,424.4923"
         style="fill:#80cc28;fill-opacity:1;fill-rule:nonzero;stroke:none"
         id="path5204" /><path
         d="m 3596.78,435.172 243.27,0 0,-41.551 -200.85,0 0,-133.031 199.12,0 0,-41.559 -199.12,0 0,-166.8005 199.12,0 0,-41.5508 -241.54,0 0,424.4923"
         style="fill:#80cc28;fill-opacity:1;fill-rule:nonzero;stroke:none"
         id="path5206" /></g></g></svg>