<?xml version="1.0" encoding="UTF-8" standalone="no"?>
<!-- Created with Inkscape (http://www.inkscape.org/) -->

<svg
   xmlns:dc="http://purl.org/dc/elements/1.1/"
   xmlns:cc="http://creativecommons.org/ns#"
   xmlns:rdf="http://www.w3.org/1999/02/22-rdf-syntax-ns#"
   xmlns:svg="http://www.w3.org/2000/svg"
   xmlns="http://www.w3.org/2000/svg"
   xmlns:sodipodi="http://sodipodi.sourceforge.net/DTD/sodipodi-0.dtd"
   xmlns:inkscape="http://www.inkscape.org/namespaces/inkscape"
   id="svg5164"
   version="1.1"
   inkscape:version="0.48.4 r9939"
   width="165.87737"
   height="165.88094"
   xml:space="preserve"
   sodipodi:docname="logo_linuxconeu.svg"><metadata
     id="metadata5170"><rdf:RDF><cc:Work
         rdf:about=""><dc:format>image/svg+xml</dc:format><dc:type
           rdf:resource="http://purl.org/dc/dcmitype/StillImage" /><dc:title></dc:title></cc:Work></rdf:RDF></metadata><defs
     id="defs5168" /><sodipodi:namedview
     pagecolor="#ffffff"
     bordercolor="#666666"
     borderopacity="1"
     objecttolerance="10"
     gridtolerance="10"
     guidetolerance="10"
     inkscape:pageopacity="0"
     inkscape:pageshadow="2"
     inkscape:window-width="640"
     inkscape:window-height="480"
     id="namedview5166"
     showgrid="false"
     inkscape:zoom="0.39836297"
     inkscape:cx="493.26909"
     inkscape:cy="63.559911"
     inkscape:window-x="41"
     inkscape:window-y="24"
     inkscape:window-maximized="0"
     inkscape:current-layer="g5172"
     fit-margin-top="0"
     fit-margin-left="0"
     fit-margin-right="0"
     fit-margin-bottom="0" /><g
     id="g5172"
     inkscape:groupmode="layer"
     inkscape:label="ink_ext_XXXXXX"
     transform="matrix(1.25,0,0,-1.25,3.5061407e-4,204.63977)"><path
       inkscape:connector-curvature="0"
       id="path5192"
       style="fill:#231f20;fill-opacity:1;fill-rule:nonzero;stroke:none"
       d="M 72.3629,39.7148 C 40.5289,36.3859 12.0203,59.5059 8.70078,91.3559 5.38555,123.177 28.5,151.682 60.3391,155.01 92.1598,158.325 120.676,135.216 123.982,103.377 127.315,71.5379 104.202,43.043 72.3629,39.7148 z M 132.34,104.245 C 128.53,140.71 95.8977,167.146 59.4551,163.349 23.0172,159.539 -3.44102,126.928 0.363672,90.4664 4.16367,54.0238 36.7852,27.566 73.2387,31.3711 109.684,35.1809 136.131,67.8133 132.34,104.245" /><path
       inkscape:connector-curvature="0"
       id="path5194"
       style="fill:#231f20;fill-opacity:1;fill-rule:nonzero;stroke:none"
       d="m 70.8027,147.95 c 0,0 -10.1019,4.633 -16.1605,-7.222 -3.8262,-7.527 2.2723,-16.873 -2.6871,-26.793 C 46.9973,104.021 30.6895,91.1207 32.6832,74.4 c 0.1551,-1.2703 0.1359,-2.5457 0.852,-0.5734 0.7074,1.9718 8.2558,15.4507 14.3168,20.8308 1.2679,1.1313 0.9918,0.1395 0.8523,-1.2828 -0.1578,-1.4066 -2.7441,-15.009 1.8383,-23.7871 3.6176,-6.9516 0.748,-9.7863 3.1082,-13.2645 2.9742,-4.389 -1.632,-10.7082 1.9078,-11.414 0.7855,-0.1508 1.4441,1.682 1.9883,1.784 1.9371,0.305 1.0261,-1.4739 2.1308,-1.152 0.6399,0.209 0.4766,1.1301 1.2727,1.8539 0.4875,0.4231 1.2539,-1.8109 1.9152,-1.3449 0.6485,0.4711 1.1817,3.6602 1.4211,4.3199 0.8485,2.411 1.2668,2.041 3.8207,3.7571 2.5485,1.698 5.1039,3.8421 5.1039,1.971 0,-1.8332 -1.0605,-2.18 0,-2.964 1.0114,-0.75 3.9446,-1.211 5.8879,-0.6539 0.6156,0.2097 -0.0992,1.1898 0.5547,1.3621 1.1895,0.3058 2.9578,-0.6863 3.6172,0 0.4477,0.466 -0.2789,1.0387 0.2949,1.4199 0.9164,0.632 3.0547,1.0289 2.8348,1.5551 -0.3188,0.6848 -3.1406,1.4199 -3.9789,1.4199 -1.8465,0 -2.0926,-0.0699 -2.2614,1.2688 -0.1402,1.0621 0.9911,9.3687 1.3399,14.1011 0.2785,3.6758 0.0672,14.1692 -1.0613,21.4121 0,0 6.5164,-2.8804 11.0504,-19.0652 0.989,-3.5363 2.2718,-1.8215 2.5457,-0.707 0.289,1.1258 4.2464,6.7957 -3.3981,20.9594 -4.7562,8.8377 -11.2191,13.4917 -12.1785,16.4667 -4.6711,14.298 -3.9789,12.956 -5.8902,16.571 -0.7817,1.463 -1.8411,3.124 -0.8438,5.94 0.9859,2.843 3.1914,6.241 5.5899,7.366 2.4085,1.142 4.3972,2.415 4.6839,3.125 0.2836,0.715 0.6993,0.421 0.6993,1.28 0,0.831 -0.6993,3.532 -11.895,0.995" /></g></svg>