<?xml version="1.0" encoding="UTF-8" standalone="no"?>
<svg
   xmlns:dc="http://purl.org/dc/elements/1.1/"
   xmlns:cc="http://creativecommons.org/ns#"
   xmlns:rdf="http://www.w3.org/1999/02/22-rdf-syntax-ns#"
   xmlns:svg="http://www.w3.org/2000/svg"
   xmlns="http://www.w3.org/2000/svg"
   xmlns:sodipodi="http://sodipodi.sourceforge.net/DTD/sodipodi-0.dtd"
   xmlns:inkscape="http://www.inkscape.org/namespaces/inkscape"
   version="1.1"
   viewBox="0 0 522.00001 354.00965"
   stroke-miterlimit="10"
   id="svg3164"
   inkscape:version="0.48.4 r9939"
   width="100%"
   height="100%"
   sodipodi:docname="simple-cloud.svg"
   style="fill:none;stroke:none">
  <metadata
     id="metadata3247">
    <rdf:RDF>
      <cc:Work
         rdf:about="">
        <dc:format>image/svg+xml</dc:format>
        <dc:type
           rdf:resource="http://purl.org/dc/dcmitype/StillImage" />
      </cc:Work>
    </rdf:RDF>
  </metadata>
  <defs
     id="defs3245" />
  <sodipodi:namedview
     pagecolor="#ffffff"
     bordercolor="#666666"
     borderopacity="1"
     objecttolerance="10"
     gridtolerance="10"
     guidetolerance="10"
     inkscape:pageopacity="0"
     inkscape:pageshadow="2"
     inkscape:window-width="640"
     inkscape:window-height="480"
     id="namedview3243"
     showgrid="false"
     fit-margin-top="0"
     fit-margin-left="0"
     fit-margin-right="0"
     fit-margin-bottom="0"
     inkscape:zoom="0.32777778"
     inkscape:cx="353.00001"
     inkscape:cy="33"
     inkscape:window-x="41"
     inkscape:window-y="24"
     inkscape:window-maximized="0"
     inkscape:current-layer="svg3164" />
  <clipPath
     id="p.0">
    <path
       d="M 0,0 960,0 960,720 0,720 0,0 z"
       clip-rule="nonzero"
       id="path3167"
       inkscape:connector-curvature="0" />
  </clipPath>
  <path
     style="fill:#000000;fill-opacity:0;fill-rule:nonzero"
     inkscape:connector-curvature="0"
     id="path3171"
     d="m -126.99999,-38.990349 960,0 0,719.999999 -960,0 z" />
  <path
     style="fill:#ffff00;fill-rule:nonzero"
     inkscape:connector-curvature="0"
     id="path3173"
     d="m 1.0000093,113.00965 71.9999997,0 0,30.55118 -71.9999997,0 z" />
  <path
     style="stroke:#000000;stroke-width:2;stroke-linecap:butt;stroke-linejoin:round"
     inkscape:connector-curvature="0"
     id="path3175"
     d="m 1.0000093,113.00965 71.9999997,0 0,30.55118 -71.9999997,0 z" />
  <path
     style="fill:#000000;fill-rule:nonzero"
     inkscape:connector-curvature="0"
     id="path3177"
     d="m 28.396429,132.02525 3.03125,-7.875 1.10937,0 3.23438,7.875 -1.1875,0 -0.92188,-2.39063 -3.29687,0 -0.85938,2.39063 -1.10937,0 z m 2.26562,-3.23438 2.67188,0 -0.8125,-2.1875 q -0.375,-0.98437 -0.5625,-1.625 -0.15625,0.75 -0.42188,1.5 l -0.875,2.3125 z m 5.70139,3.23438 0,-7.875 2.96875,0 q 0.79688,0 1.20313,0.0781 0.57812,0.0937 0.96875,0.375 0.39062,0.26563 0.625,0.75 0.25,0.48438 0.25,1.07813 0,1 -0.64063,1.70312 -0.64062,0.6875 -2.3125,0.6875 l -2.01562,0 0,3.20313 -1.04688,0 z m 1.04688,-4.125 2.03125,0 q 1.01562,0 1.4375,-0.375 0.42187,-0.375 0.42187,-1.0625 0,-0.5 -0.25,-0.84375 -0.25,-0.35938 -0.65625,-0.46875 -0.26562,-0.0625 -0.96875,-0.0625 l -2.01562,0 0,2.8125 z m 6.24826,4.125 0,-7.875 1.03125,0 0,7.875 -1.03125,0 z" />
  <path
     style="fill:#00ff00;fill-rule:nonzero"
     inkscape:connector-curvature="0"
     id="path3179"
     d="m 449.00001,113.00965 72,0 0,30.55118 -72,0 z" />
  <path
     style="stroke:#000000;stroke-width:2;stroke-linecap:butt;stroke-linejoin:round"
     inkscape:connector-curvature="0"
     id="path3181"
     d="m 449.00001,113.00965 72,0 0,30.55118 -72,0 z" />
  <path
     style="fill:#000000;fill-rule:nonzero"
     inkscape:connector-curvature="0"
     id="path3183"
     d="m 466.30301,132.02525 0,-7.875 1.0625,0 4.14062,6.1875 0,-6.1875 1,0 0,7.875 -1.07812,0 -4.125,-6.1875 0,6.1875 -1,0 z m 11.47681,-1.84375 1,0.125 q -0.23438,0.875 -0.875,1.35937 -0.64063,0.48438 -1.625,0.48438 -1.25,0 -1.98438,-0.76563 -0.73437,-0.76562 -0.73437,-2.15625 0,-1.45312 0.73437,-2.23437 0.75,-0.79688 1.92188,-0.79688 1.15625,0 1.875,0.78125 0.71875,0.76563 0.71875,2.1875 0,0.0781 0,0.25 l -4.25,0 q 0.0469,0.9375 0.51562,1.4375 0.48438,0.5 1.20313,0.5 0.53125,0 0.90625,-0.26562 0.375,-0.28125 0.59375,-0.90625 z m -3.17188,-1.5625 3.1875,0 q -0.0625,-0.71875 -0.35937,-1.07813 -0.46875,-0.54687 -1.20313,-0.54687 -0.67187,0 -1.125,0.45312 -0.45312,0.4375 -0.5,1.17188 z m 7.31714,2.54687 0.125,0.84375 q -0.40625,0.0937 -0.71875,0.0937 -0.53125,0 -0.82812,-0.17187 -0.28125,-0.17188 -0.40625,-0.4375 -0.10938,-0.26563 -0.10938,-1.14063 l 0,-3.28125 -0.71875,0 0,-0.75 0.71875,0 0,-1.40625 0.95313,-0.59375 0,2 0.98437,0 0,0.75 -0.98437,0 0,3.34375 q 0,0.40625 0.0469,0.53125 0.0625,0.10938 0.17188,0.1875 0.125,0.0625 0.32812,0.0625 0.17188,0 0.4375,-0.0312 z m 1.89813,0.85938 -1.75,-5.70313 1,0 0.90625,3.29688 0.34375,1.21875 q 0.0156,-0.0937 0.29688,-1.17188 l 0.90625,-3.34375 0.98437,0 0.85938,3.3125 0.28125,1.07813 0.32812,-1.09375 0.98438,-3.29688 0.9375,0 -1.78125,5.70313 -1,0 -0.92188,-3.42188 -0.21875,-0.96875 -1.15625,4.39063 -1,0 z m 6.27375,-2.85938 q 0,-1.57812 0.89062,-2.34375 0.73438,-0.625 1.79688,-0.625 1.17187,0 1.90625,0.76563 0.75,0.76562 0.75,2.125 0,1.10937 -0.32813,1.75 -0.32812,0.625 -0.96875,0.96875 -0.625,0.34375 -1.35937,0.34375 -1.20313,0 -1.95313,-0.76563 -0.73437,-0.76562 -0.73437,-2.21875 z m 1,0 q 0,1.10938 0.46875,1.65625 0.48437,0.53125 1.21875,0.53125 0.71875,0 1.1875,-0.54687 0.48437,-0.54688 0.48437,-1.67188 0,-1.04687 -0.48437,-1.59375 -0.48438,-0.54687 -1.1875,-0.54687 -0.73438,0 -1.21875,0.54687 -0.46875,0.53125 -0.46875,1.625 z m 5.28588,2.85938 0,-5.70313 0.85938,0 0,0.85938 q 0.34375,-0.60938 0.625,-0.79688 0.28125,-0.1875 0.60937,-0.1875 0.5,0 1,0.3125 l -0.32812,0.89063 q -0.35938,-0.20313 -0.71875,-0.20313 -0.3125,0 -0.5625,0.1875 -0.25,0.1875 -0.35938,0.53125 -0.15625,0.51563 -0.15625,1.125 l 0,2.98438 -0.96875,0 z m 3.56421,0 0,-7.875 0.96875,0 0,4.48437 2.28125,-2.3125 1.25,0 -2.17187,2.10938 2.39062,3.59375 -1.1875,0 -1.89062,-2.92188 -0.67188,0.65625 0,2.26563 -0.96875,0 z" />
  <path
     style="fill:#999999;fill-rule:nonzero"
     inkscape:connector-curvature="0"
     id="path3185"
     d="m 1.0000093,202.45847 71.9999997,0 0,30.55118 -71.9999997,0 z" />
  <path
     style="stroke:#000000;stroke-width:2;stroke-linecap:butt;stroke-linejoin:round"
     inkscape:connector-curvature="0"
     id="path3187"
     d="m 1.0000093,202.45847 71.9999997,0 0,30.55118 -71.9999997,0 z" />
  <path
     style="fill:#000000;fill-rule:nonzero"
     inkscape:connector-curvature="0"
     id="path3189"
     d="m 20.371549,218.70845 1.04687,0.26562 q -0.32812,1.28125 -1.1875,1.96875 -0.84375,0.67188 -2.07812,0.67188 -1.28125,0 -2.07813,-0.51563 -0.79687,-0.53125 -1.21875,-1.51562 -0.40625,-0.98438 -0.40625,-2.10938 0,-1.21875 0.46875,-2.14062 0.46875,-0.92188 1.32813,-1.39063 0.875,-0.48437 1.92187,-0.48437 1.1875,0 1.98438,0.60937 0.8125,0.59375 1.125,1.6875 l -1.03125,0.25 q -0.26563,-0.85937 -0.79688,-1.25 -0.51562,-0.39062 -1.29687,-0.39062 -0.92188,0 -1.53125,0.4375 -0.60938,0.42187 -0.85938,1.15625 -0.23437,0.73437 -0.23437,1.51562 0,1 0.28125,1.75 0.29687,0.75 0.90625,1.125 0.625,0.375 1.34375,0.375 0.875,0 1.48437,-0.5 0.60938,-0.51562 0.82813,-1.51562 z m 1.58623,-0.0937 q 0,-1.57813 0.89062,-2.34375 0.73438,-0.625 1.79688,-0.625 1.17187,0 1.90625,0.76562 0.75,0.76563 0.75,2.125 0,1.10938 -0.32813,1.75 -0.32812,0.625 -0.96875,0.96875 -0.625,0.34375 -1.35937,0.34375 -1.20313,0 -1.95313,-0.76562 -0.73437,-0.76563 -0.73437,-2.21875 z m 1,0 q 0,1.10937 0.46875,1.65625 0.48437,0.53125 1.21875,0.53125 0.71875,0 1.1875,-0.54688 0.48437,-0.54687 0.48437,-1.67187 0,-1.04688 -0.48437,-1.59375 -0.48438,-0.54688 -1.1875,-0.54688 -0.73438,0 -1.21875,0.54688 -0.46875,0.53125 -0.46875,1.625 z m 5.28587,2.85937 0,-5.70312 0.875,0 0,0.8125 q 0.625,-0.9375 1.8125,-0.9375 0.51563,0 0.95313,0.1875 0.4375,0.17187 0.64062,0.48437 0.21875,0.29688 0.3125,0.70313 0.0469,0.28125 0.0469,0.95312 l 0,3.5 -0.96875,0 0,-3.46875 q 0,-0.59375 -0.10938,-0.875 -0.10937,-0.29687 -0.40625,-0.46875 -0.28125,-0.1875 -0.67187,-0.1875 -0.60938,0 -1.0625,0.39063 -0.45313,0.39062 -0.45313,1.5 l 0,3.10937 -0.96875,0 z m 8.0515,-0.85937 0.125,0.84375 q -0.40625,0.0937 -0.71875,0.0937 -0.53125,0 -0.82813,-0.17188 -0.28125,-0.17187 -0.40625,-0.4375 -0.10937,-0.26562 -0.10937,-1.14062 l 0,-3.28125 -0.71875,0 0,-0.75 0.71875,0 0,-1.40625 0.95312,-0.59375 0,2 0.98438,0 0,0.75 -0.98438,0 0,3.34375 q 0,0.40625 0.0469,0.53125 0.0625,0.10937 0.17187,0.1875 0.125,0.0625 0.32813,0.0625 0.17187,0 0.4375,-0.0312 z m 0.83565,0.85937 0,-5.70312 0.85937,0 0,0.85937 q 0.34375,-0.60937 0.625,-0.79687 0.28125,-0.1875 0.60938,-0.1875 0.5,0 1,0.3125 l -0.32813,0.89062 q -0.35937,-0.20312 -0.71875,-0.20312 -0.3125,0 -0.5625,0.1875 -0.25,0.1875 -0.35937,0.53125 -0.15625,0.51562 -0.15625,1.125 l 0,2.98437 -0.96875,0 z m 3.18924,-2.85937 q 0,-1.57813 0.89062,-2.34375 0.73438,-0.625 1.79688,-0.625 1.17187,0 1.90625,0.76562 0.75,0.76563 0.75,2.125 0,1.10938 -0.32813,1.75 -0.32812,0.625 -0.96875,0.96875 -0.625,0.34375 -1.35937,0.34375 -1.20313,0 -1.95313,-0.76562 -0.73437,-0.76563 -0.73437,-2.21875 z m 1,0 q 0,1.10937 0.46875,1.65625 0.48437,0.53125 1.21875,0.53125 0.71875,0 1.1875,-0.54688 0.48437,-0.54687 0.48437,-1.67187 0,-1.04688 -0.48437,-1.59375 -0.48438,-0.54688 -1.1875,-0.54688 -0.73438,0 -1.21875,0.54688 -0.46875,0.53125 -0.46875,1.625 z m 5.27024,2.85937 0,-7.875 0.96875,0 0,7.875 -0.96875,0 z m 2.36748,0 0,-7.875 0.96875,0 0,7.875 -0.96875,0 z m 6.28935,-1.84375 1,0.125 q -0.23437,0.875 -0.875,1.35938 -0.64062,0.48437 -1.625,0.48437 -1.25,0 -1.98437,-0.76562 -0.73438,-0.76563 -0.73438,-2.15625 0,-1.45313 0.73438,-2.23438 0.75,-0.79687 1.92187,-0.79687 1.15625,0 1.875,0.78125 0.71875,0.76562 0.71875,2.1875 0,0.0781 0,0.25 l -4.25,0 q 0.0469,0.9375 0.51563,1.4375 0.48437,0.5 1.20312,0.5 0.53125,0 0.90625,-0.26563 0.375,-0.28125 0.59375,-0.90625 z m -3.17187,-1.5625 3.1875,0 q -0.0625,-0.71875 -0.35938,-1.07812 -0.46875,-0.54688 -1.20312,-0.54688 -0.67188,0 -1.125,0.45313 -0.45313,0.4375 -0.5,1.17187 z m 5.19212,3.40625 0,-5.70312 0.85938,0 0,0.85937 q 0.34375,-0.60937 0.625,-0.79687 0.28125,-0.1875 0.60937,-0.1875 0.5,0 1,0.3125 l -0.32812,0.89062 q -0.35938,-0.20312 -0.71875,-0.20312 -0.3125,0 -0.5625,0.1875 -0.25,0.1875 -0.35938,0.53125 -0.15625,0.51562 -0.15625,1.125 l 0,2.98437 -0.96875,0 z" />
  <path
     style="fill:#6d9eeb;fill-rule:nonzero"
     inkscape:connector-curvature="0"
     id="path3191"
     d="m 449.00001,202.45847 72,0 0,30.55118 -72,0 z" />
  <path
     style="stroke:#000000;stroke-width:2;stroke-linecap:butt;stroke-linejoin:round"
     inkscape:connector-curvature="0"
     id="path3193"
     d="m 449.00001,202.45847 72,0 0,30.55118 -72,0 z" />
  <path
     style="fill:#000000;fill-rule:nonzero"
     inkscape:connector-curvature="0"
     id="path3195"
     d="m 469.84925,218.70845 1.04687,0.26562 q -0.32812,1.28125 -1.1875,1.96875 -0.84375,0.67188 -2.07812,0.67188 -1.28125,0 -2.07813,-0.51563 -0.79687,-0.53125 -1.21875,-1.51562 -0.40625,-0.98438 -0.40625,-2.10938 0,-1.21875 0.46875,-2.14062 0.46875,-0.92188 1.32813,-1.39063 0.875,-0.48437 1.92187,-0.48437 1.1875,0 1.98438,0.60937 0.8125,0.59375 1.125,1.6875 l -1.03125,0.25 q -0.26563,-0.85937 -0.79688,-1.25 -0.51562,-0.39062 -1.29687,-0.39062 -0.92188,0 -1.53125,0.4375 -0.60938,0.42187 -0.85938,1.15625 -0.23437,0.73437 -0.23437,1.51562 0,1 0.28125,1.75 0.29687,0.75 0.90625,1.125 0.625,0.375 1.34375,0.375 0.875,0 1.48437,-0.5 0.60938,-0.51562 0.82813,-1.51562 z m 1.58624,-0.0937 q 0,-1.57813 0.89063,-2.34375 0.73437,-0.625 1.79687,-0.625 1.17188,0 1.90625,0.76562 0.75,0.76563 0.75,2.125 0,1.10938 -0.32812,1.75 -0.32813,0.625 -0.96875,0.96875 -0.625,0.34375 -1.35938,0.34375 -1.20312,0 -1.95312,-0.76562 -0.73438,-0.76563 -0.73438,-2.21875 z m 1,0 q 0,1.10937 0.46875,1.65625 0.48438,0.53125 1.21875,0.53125 0.71875,0 1.1875,-0.54688 0.48438,-0.54687 0.48438,-1.67187 0,-1.04688 -0.48438,-1.59375 -0.48437,-0.54688 -1.1875,-0.54688 -0.73437,0 -1.21875,0.54688 -0.46875,0.53125 -0.46875,1.625 z m 5.28589,2.85937 0,-5.70312 0.875,0 0,0.79687 q 0.26563,-0.42187 0.70313,-0.67187 0.45312,-0.25 1.01562,-0.25 0.64063,0 1.04688,0.26562 0.40625,0.25 0.57812,0.73438 0.67188,-1 1.75,-1 0.85938,0 1.3125,0.46875 0.45313,0.46875 0.45313,1.4375 l 0,3.92187 -0.95313,0 0,-3.59375 q 0,-0.57812 -0.0937,-0.82812 -0.0937,-0.26563 -0.34375,-0.42188 -0.25,-0.15625 -0.57812,-0.15625 -0.60938,0 -1.01563,0.40625 -0.39062,0.40625 -0.39062,1.28125 l 0,3.3125 -0.96875,0 0,-3.70312 q 0,-0.64063 -0.23438,-0.96875 -0.23437,-0.32813 -0.76562,-0.32813 -0.40625,0 -0.76563,0.21875 -0.34375,0.21875 -0.5,0.64063 -0.15625,0.40625 -0.15625,1.1875 l 0,2.95312 -0.96875,0 z m 8.87671,2.1875 0,-7.89062 0.89063,0 0,0.73437 q 0.3125,-0.42187 0.70312,-0.64062 0.39063,-0.21875 0.95313,-0.21875 0.71875,0 1.28125,0.375 0.5625,0.375 0.84375,1.0625 0.28125,0.67187 0.28125,1.5 0,0.875 -0.3125,1.57812 -0.3125,0.6875 -0.92188,1.0625 -0.59375,0.375 -1.25,0.375 -0.48437,0 -0.875,-0.20312 -0.375,-0.20313 -0.625,-0.51563 l 0,2.78125 -0.96875,0 z m 0.875,-5 q 0,1.09375 0.45313,1.625 0.45312,0.51563 1.07812,0.51563 0.64063,0 1.09375,-0.53125 0.46875,-0.54688 0.46875,-1.70313 0,-1.07812 -0.45312,-1.625 -0.4375,-0.54687 -1.0625,-0.54687 -0.625,0 -1.10938,0.57812 -0.46875,0.57813 -0.46875,1.6875 z m 8.80151,2.8125 0,-0.84375 q -0.67187,0.96875 -1.8125,0.96875 -0.5,0 -0.95312,-0.1875 -0.4375,-0.20312 -0.65625,-0.48437 -0.20313,-0.29688 -0.28125,-0.71875 -0.0625,-0.28125 -0.0625,-0.90625 l 0,-3.53125 0.96875,0 0,3.15625 q 0,0.76562 0.0625,1.03125 0.0937,0.375 0.375,0.59375 0.29687,0.21875 0.73437,0.21875 0.4375,0 0.8125,-0.21875 0.39063,-0.23438 0.54688,-0.60938 0.15625,-0.39062 0.15625,-1.10937 l 0,-3.0625 0.96875,0 0,5.70312 -0.85938,0 z m 4.30152,-0.85937 0.125,0.84375 q -0.40625,0.0937 -0.71875,0.0937 -0.53125,0 -0.82813,-0.17188 -0.28125,-0.17187 -0.40625,-0.4375 -0.10937,-0.26562 -0.10937,-1.14062 l 0,-3.28125 -0.71875,0 0,-0.75 0.71875,0 0,-1.40625 0.95312,-0.59375 0,2 0.98438,0 0,0.75 -0.98438,0 0,3.34375 q 0,0.40625 0.0469,0.53125 0.0625,0.10937 0.17187,0.1875 0.125,0.0625 0.32813,0.0625 0.17187,0 0.4375,-0.0312 z m 4.74188,-0.98438 1,0.125 q -0.23437,0.875 -0.875,1.35938 -0.64062,0.48437 -1.625,0.48437 -1.25,0 -1.98437,-0.76562 -0.73438,-0.76563 -0.73438,-2.15625 0,-1.45313 0.73438,-2.23438 0.75,-0.79687 1.92187,-0.79687 1.15625,0 1.875,0.78125 0.71875,0.76562 0.71875,2.1875 0,0.0781 0,0.25 l -4.25,0 q 0.0469,0.9375 0.51563,1.4375 0.48437,0.5 1.20312,0.5 0.53125,0 0.90625,-0.26563 0.375,-0.28125 0.59375,-0.90625 z m -3.17187,-1.5625 3.1875,0 q -0.0625,-0.71875 -0.35938,-1.07812 -0.46875,-0.54688 -1.20312,-0.54688 -0.67188,0 -1.125,0.45313 -0.45313,0.4375 -0.5,1.17187 z" />
  <path
     style="fill:#6d9eeb;fill-rule:nonzero"
     inkscape:connector-curvature="0"
     id="path3197"
     d="m 449.00001,242.45847 72,0 0,30.55118 -72,0 z" />
  <path
     style="stroke:#000000;stroke-width:2;stroke-linecap:butt;stroke-linejoin:round"
     inkscape:connector-curvature="0"
     id="path3199"
     d="m 449.00001,242.45847 72,0 0,30.55118 -72,0 z" />
  <path
     style="fill:#000000;fill-rule:nonzero"
     inkscape:connector-curvature="0"
     id="path3201"
     d="m 469.84925,258.70845 1.04687,0.26562 q -0.32812,1.28125 -1.1875,1.96875 -0.84375,0.67188 -2.07812,0.67188 -1.28125,0 -2.07813,-0.51563 -0.79687,-0.53125 -1.21875,-1.51562 -0.40625,-0.98438 -0.40625,-2.10938 0,-1.21875 0.46875,-2.14062 0.46875,-0.92188 1.32813,-1.39063 0.875,-0.48437 1.92187,-0.48437 1.1875,0 1.98438,0.60937 0.8125,0.59375 1.125,1.6875 l -1.03125,0.25 q -0.26563,-0.85937 -0.79688,-1.25 -0.51562,-0.39062 -1.29687,-0.39062 -0.92188,0 -1.53125,0.4375 -0.60938,0.42187 -0.85938,1.15625 -0.23437,0.73437 -0.23437,1.51562 0,1 0.28125,1.75 0.29687,0.75 0.90625,1.125 0.625,0.375 1.34375,0.375 0.875,0 1.48437,-0.5 0.60938,-0.51562 0.82813,-1.51562 z m 1.58624,-0.0937 q 0,-1.57813 0.89063,-2.34375 0.73437,-0.625 1.79687,-0.625 1.17188,0 1.90625,0.76562 0.75,0.76563 0.75,2.125 0,1.10938 -0.32812,1.75 -0.32813,0.625 -0.96875,0.96875 -0.625,0.34375 -1.35938,0.34375 -1.20312,0 -1.95312,-0.76562 -0.73438,-0.76563 -0.73438,-2.21875 z m 1,0 q 0,1.10937 0.46875,1.65625 0.48438,0.53125 1.21875,0.53125 0.71875,0 1.1875,-0.54688 0.48438,-0.54687 0.48438,-1.67187 0,-1.04688 -0.48438,-1.59375 -0.48437,-0.54688 -1.1875,-0.54688 -0.73437,0 -1.21875,0.54688 -0.46875,0.53125 -0.46875,1.625 z m 5.28589,2.85937 0,-5.70312 0.875,0 0,0.79687 q 0.26563,-0.42187 0.70313,-0.67187 0.45312,-0.25 1.01562,-0.25 0.64063,0 1.04688,0.26562 0.40625,0.25 0.57812,0.73438 0.67188,-1 1.75,-1 0.85938,0 1.3125,0.46875 0.45313,0.46875 0.45313,1.4375 l 0,3.92187 -0.95313,0 0,-3.59375 q 0,-0.57812 -0.0937,-0.82812 -0.0937,-0.26563 -0.34375,-0.42188 -0.25,-0.15625 -0.57812,-0.15625 -0.60938,0 -1.01563,0.40625 -0.39062,0.40625 -0.39062,1.28125 l 0,3.3125 -0.96875,0 0,-3.70312 q 0,-0.64063 -0.23438,-0.96875 -0.23437,-0.32813 -0.76562,-0.32813 -0.40625,0 -0.76563,0.21875 -0.34375,0.21875 -0.5,0.64063 -0.15625,0.40625 -0.15625,1.1875 l 0,2.95312 -0.96875,0 z m 8.87671,2.1875 0,-7.89062 0.89063,0 0,0.73437 q 0.3125,-0.42187 0.70312,-0.64062 0.39063,-0.21875 0.95313,-0.21875 0.71875,0 1.28125,0.375 0.5625,0.375 0.84375,1.0625 0.28125,0.67187 0.28125,1.5 0,0.875 -0.3125,1.57812 -0.3125,0.6875 -0.92188,1.0625 -0.59375,0.375 -1.25,0.375 -0.48437,0 -0.875,-0.20312 -0.375,-0.20313 -0.625,-0.51563 l 0,2.78125 -0.96875,0 z m 0.875,-5 q 0,1.09375 0.45313,1.625 0.45312,0.51563 1.07812,0.51563 0.64063,0 1.09375,-0.53125 0.46875,-0.54688 0.46875,-1.70313 0,-1.07812 -0.45312,-1.625 -0.4375,-0.54687 -1.0625,-0.54687 -0.625,0 -1.10938,0.57812 -0.46875,0.57813 -0.46875,1.6875 z m 8.80151,2.8125 0,-0.84375 q -0.67187,0.96875 -1.8125,0.96875 -0.5,0 -0.95312,-0.1875 -0.4375,-0.20312 -0.65625,-0.48437 -0.20313,-0.29688 -0.28125,-0.71875 -0.0625,-0.28125 -0.0625,-0.90625 l 0,-3.53125 0.96875,0 0,3.15625 q 0,0.76562 0.0625,1.03125 0.0937,0.375 0.375,0.59375 0.29687,0.21875 0.73437,0.21875 0.4375,0 0.8125,-0.21875 0.39063,-0.23438 0.54688,-0.60938 0.15625,-0.39062 0.15625,-1.10937 l 0,-3.0625 0.96875,0 0,5.70312 -0.85938,0 z m 4.30152,-0.85937 0.125,0.84375 q -0.40625,0.0937 -0.71875,0.0937 -0.53125,0 -0.82813,-0.17188 -0.28125,-0.17187 -0.40625,-0.4375 -0.10937,-0.26562 -0.10937,-1.14062 l 0,-3.28125 -0.71875,0 0,-0.75 0.71875,0 0,-1.40625 0.95312,-0.59375 0,2 0.98438,0 0,0.75 -0.98438,0 0,3.34375 q 0,0.40625 0.0469,0.53125 0.0625,0.10937 0.17187,0.1875 0.125,0.0625 0.32813,0.0625 0.17187,0 0.4375,-0.0312 z m 4.74188,-0.98438 1,0.125 q -0.23437,0.875 -0.875,1.35938 -0.64062,0.48437 -1.625,0.48437 -1.25,0 -1.98437,-0.76562 -0.73438,-0.76563 -0.73438,-2.15625 0,-1.45313 0.73438,-2.23438 0.75,-0.79687 1.92187,-0.79687 1.15625,0 1.875,0.78125 0.71875,0.76562 0.71875,2.1875 0,0.0781 0,0.25 l -4.25,0 q 0.0469,0.9375 0.51563,1.4375 0.48437,0.5 1.20312,0.5 0.53125,0 0.90625,-0.26563 0.375,-0.28125 0.59375,-0.90625 z m -3.17187,-1.5625 3.1875,0 q -0.0625,-0.71875 -0.35938,-1.07812 -0.46875,-0.54688 -1.20312,-0.54688 -0.67188,0 -1.125,0.45313 -0.45313,0.4375 -0.5,1.17187 z" />
  <path
     style="fill:#6d9eeb;fill-rule:nonzero"
     inkscape:connector-curvature="0"
     id="path3203"
     d="m 449.00001,282.45847 72,0 0,30.55118 -72,0 z" />
  <path
     style="stroke:#000000;stroke-width:2;stroke-linecap:butt;stroke-linejoin:round"
     inkscape:connector-curvature="0"
     id="path3205"
     d="m 449.00001,282.45847 72,0 0,30.55118 -72,0 z" />
  <path
     style="fill:#000000;fill-rule:nonzero"
     inkscape:connector-curvature="0"
     id="path3207"
     d="m 469.84925,298.70845 1.04687,0.26562 q -0.32812,1.28125 -1.1875,1.96875 -0.84375,0.67188 -2.07812,0.67188 -1.28125,0 -2.07813,-0.51563 -0.79687,-0.53125 -1.21875,-1.51562 -0.40625,-0.98438 -0.40625,-2.10938 0,-1.21875 0.46875,-2.14062 0.46875,-0.92188 1.32813,-1.39063 0.875,-0.48437 1.92187,-0.48437 1.1875,0 1.98438,0.60937 0.8125,0.59375 1.125,1.6875 l -1.03125,0.25 q -0.26563,-0.85937 -0.79688,-1.25 -0.51562,-0.39062 -1.29687,-0.39062 -0.92188,0 -1.53125,0.4375 -0.60938,0.42187 -0.85938,1.15625 -0.23437,0.73437 -0.23437,1.51562 0,1 0.28125,1.75 0.29687,0.75 0.90625,1.125 0.625,0.375 1.34375,0.375 0.875,0 1.48437,-0.5 0.60938,-0.51562 0.82813,-1.51562 z m 1.58624,-0.0937 q 0,-1.57813 0.89063,-2.34375 0.73437,-0.625 1.79687,-0.625 1.17188,0 1.90625,0.76562 0.75,0.76563 0.75,2.125 0,1.10938 -0.32812,1.75 -0.32813,0.625 -0.96875,0.96875 -0.625,0.34375 -1.35938,0.34375 -1.20312,0 -1.95312,-0.76562 -0.73438,-0.76563 -0.73438,-2.21875 z m 1,0 q 0,1.10937 0.46875,1.65625 0.48438,0.53125 1.21875,0.53125 0.71875,0 1.1875,-0.54688 0.48438,-0.54687 0.48438,-1.67187 0,-1.04688 -0.48438,-1.59375 -0.48437,-0.54688 -1.1875,-0.54688 -0.73437,0 -1.21875,0.54688 -0.46875,0.53125 -0.46875,1.625 z m 5.28589,2.85937 0,-5.70312 0.875,0 0,0.79687 q 0.26563,-0.42187 0.70313,-0.67187 0.45312,-0.25 1.01562,-0.25 0.64063,0 1.04688,0.26562 0.40625,0.25 0.57812,0.73438 0.67188,-1 1.75,-1 0.85938,0 1.3125,0.46875 0.45313,0.46875 0.45313,1.4375 l 0,3.92187 -0.95313,0 0,-3.59375 q 0,-0.57812 -0.0937,-0.82812 -0.0937,-0.26563 -0.34375,-0.42188 -0.25,-0.15625 -0.57812,-0.15625 -0.60938,0 -1.01563,0.40625 -0.39062,0.40625 -0.39062,1.28125 l 0,3.3125 -0.96875,0 0,-3.70312 q 0,-0.64063 -0.23438,-0.96875 -0.23437,-0.32813 -0.76562,-0.32813 -0.40625,0 -0.76563,0.21875 -0.34375,0.21875 -0.5,0.64063 -0.15625,0.40625 -0.15625,1.1875 l 0,2.95312 -0.96875,0 z m 8.87671,2.1875 0,-7.89062 0.89063,0 0,0.73437 q 0.3125,-0.42187 0.70312,-0.64062 0.39063,-0.21875 0.95313,-0.21875 0.71875,0 1.28125,0.375 0.5625,0.375 0.84375,1.0625 0.28125,0.67187 0.28125,1.5 0,0.875 -0.3125,1.57812 -0.3125,0.6875 -0.92188,1.0625 -0.59375,0.375 -1.25,0.375 -0.48437,0 -0.875,-0.20312 -0.375,-0.20313 -0.625,-0.51563 l 0,2.78125 -0.96875,0 z m 0.875,-5 q 0,1.09375 0.45313,1.625 0.45312,0.51563 1.07812,0.51563 0.64063,0 1.09375,-0.53125 0.46875,-0.54688 0.46875,-1.70313 0,-1.07812 -0.45312,-1.625 -0.4375,-0.54687 -1.0625,-0.54687 -0.625,0 -1.10938,0.57812 -0.46875,0.57813 -0.46875,1.6875 z m 8.80151,2.8125 0,-0.84375 q -0.67187,0.96875 -1.8125,0.96875 -0.5,0 -0.95312,-0.1875 -0.4375,-0.20312 -0.65625,-0.48437 -0.20313,-0.29688 -0.28125,-0.71875 -0.0625,-0.28125 -0.0625,-0.90625 l 0,-3.53125 0.96875,0 0,3.15625 q 0,0.76562 0.0625,1.03125 0.0937,0.375 0.375,0.59375 0.29687,0.21875 0.73437,0.21875 0.4375,0 0.8125,-0.21875 0.39063,-0.23438 0.54688,-0.60938 0.15625,-0.39062 0.15625,-1.10937 l 0,-3.0625 0.96875,0 0,5.70312 -0.85938,0 z m 4.30152,-0.85937 0.125,0.84375 q -0.40625,0.0937 -0.71875,0.0937 -0.53125,0 -0.82813,-0.17188 -0.28125,-0.17187 -0.40625,-0.4375 -0.10937,-0.26562 -0.10937,-1.14062 l 0,-3.28125 -0.71875,0 0,-0.75 0.71875,0 0,-1.40625 0.95312,-0.59375 0,2 0.98438,0 0,0.75 -0.98438,0 0,3.34375 q 0,0.40625 0.0469,0.53125 0.0625,0.10937 0.17187,0.1875 0.125,0.0625 0.32813,0.0625 0.17187,0 0.4375,-0.0312 z m 4.74188,-0.98438 1,0.125 q -0.23437,0.875 -0.875,1.35938 -0.64062,0.48437 -1.625,0.48437 -1.25,0 -1.98437,-0.76562 -0.73438,-0.76563 -0.73438,-2.15625 0,-1.45313 0.73438,-2.23438 0.75,-0.79687 1.92187,-0.79687 1.15625,0 1.875,0.78125 0.71875,0.76562 0.71875,2.1875 0,0.0781 0,0.25 l -4.25,0 q 0.0469,0.9375 0.51563,1.4375 0.48437,0.5 1.20312,0.5 0.53125,0 0.90625,-0.26563 0.375,-0.28125 0.59375,-0.90625 z m -3.17187,-1.5625 3.1875,0 q -0.0625,-0.71875 -0.35938,-1.07812 -0.46875,-0.54688 -1.20312,-0.54688 -0.67188,0 -1.125,0.45313 -0.45313,0.4375 -0.5,1.17187 z" />
  <path
     style="fill:#6d9eeb;fill-rule:nonzero"
     inkscape:connector-curvature="0"
     id="path3209"
     d="m 449.00001,322.45847 72,0 0,30.55118 -72,0 z" />
  <path
     style="stroke:#000000;stroke-width:2;stroke-linecap:butt;stroke-linejoin:round"
     inkscape:connector-curvature="0"
     id="path3211"
     d="m 449.00001,322.45847 72,0 0,30.55118 -72,0 z" />
  <path
     style="fill:#000000;fill-rule:nonzero"
     inkscape:connector-curvature="0"
     id="path3213"
     d="m 469.84925,338.70845 1.04687,0.26562 q -0.32812,1.28125 -1.1875,1.96875 -0.84375,0.67188 -2.07812,0.67188 -1.28125,0 -2.07813,-0.51563 -0.79687,-0.53125 -1.21875,-1.51562 -0.40625,-0.98438 -0.40625,-2.10938 0,-1.21875 0.46875,-2.14062 0.46875,-0.92188 1.32813,-1.39063 0.875,-0.48437 1.92187,-0.48437 1.1875,0 1.98438,0.60937 0.8125,0.59375 1.125,1.6875 l -1.03125,0.25 q -0.26563,-0.85937 -0.79688,-1.25 -0.51562,-0.39062 -1.29687,-0.39062 -0.92188,0 -1.53125,0.4375 -0.60938,0.42187 -0.85938,1.15625 -0.23437,0.73437 -0.23437,1.51562 0,1 0.28125,1.75 0.29687,0.75 0.90625,1.125 0.625,0.375 1.34375,0.375 0.875,0 1.48437,-0.5 0.60938,-0.51562 0.82813,-1.51562 z m 1.58624,-0.0937 q 0,-1.57813 0.89063,-2.34375 0.73437,-0.625 1.79687,-0.625 1.17188,0 1.90625,0.76562 0.75,0.76563 0.75,2.125 0,1.10938 -0.32812,1.75 -0.32813,0.625 -0.96875,0.96875 -0.625,0.34375 -1.35938,0.34375 -1.20312,0 -1.95312,-0.76562 -0.73438,-0.76563 -0.73438,-2.21875 z m 1,0 q 0,1.10937 0.46875,1.65625 0.48438,0.53125 1.21875,0.53125 0.71875,0 1.1875,-0.54688 0.48438,-0.54687 0.48438,-1.67187 0,-1.04688 -0.48438,-1.59375 -0.48437,-0.54688 -1.1875,-0.54688 -0.73437,0 -1.21875,0.54688 -0.46875,0.53125 -0.46875,1.625 z m 5.28589,2.85937 0,-5.70312 0.875,0 0,0.79687 q 0.26563,-0.42187 0.70313,-0.67187 0.45312,-0.25 1.01562,-0.25 0.64063,0 1.04688,0.26562 0.40625,0.25 0.57812,0.73438 0.67188,-1 1.75,-1 0.85938,0 1.3125,0.46875 0.45313,0.46875 0.45313,1.4375 l 0,3.92187 -0.95313,0 0,-3.59375 q 0,-0.57812 -0.0937,-0.82812 -0.0937,-0.26563 -0.34375,-0.42188 -0.25,-0.15625 -0.57812,-0.15625 -0.60938,0 -1.01563,0.40625 -0.39062,0.40625 -0.39062,1.28125 l 0,3.3125 -0.96875,0 0,-3.70312 q 0,-0.64063 -0.23438,-0.96875 -0.23437,-0.32813 -0.76562,-0.32813 -0.40625,0 -0.76563,0.21875 -0.34375,0.21875 -0.5,0.64063 -0.15625,0.40625 -0.15625,1.1875 l 0,2.95312 -0.96875,0 z m 8.87671,2.1875 0,-7.89062 0.89063,0 0,0.73437 q 0.3125,-0.42187 0.70312,-0.64062 0.39063,-0.21875 0.95313,-0.21875 0.71875,0 1.28125,0.375 0.5625,0.375 0.84375,1.0625 0.28125,0.67187 0.28125,1.5 0,0.875 -0.3125,1.57812 -0.3125,0.6875 -0.92188,1.0625 -0.59375,0.375 -1.25,0.375 -0.48437,0 -0.875,-0.20312 -0.375,-0.20313 -0.625,-0.51563 l 0,2.78125 -0.96875,0 z m 0.875,-5 q 0,1.09375 0.45313,1.625 0.45312,0.51563 1.07812,0.51563 0.64063,0 1.09375,-0.53125 0.46875,-0.54688 0.46875,-1.70313 0,-1.07812 -0.45312,-1.625 -0.4375,-0.54687 -1.0625,-0.54687 -0.625,0 -1.10938,0.57812 -0.46875,0.57813 -0.46875,1.6875 z m 8.80151,2.8125 0,-0.84375 q -0.67187,0.96875 -1.8125,0.96875 -0.5,0 -0.95312,-0.1875 -0.4375,-0.20312 -0.65625,-0.48437 -0.20313,-0.29688 -0.28125,-0.71875 -0.0625,-0.28125 -0.0625,-0.90625 l 0,-3.53125 0.96875,0 0,3.15625 q 0,0.76562 0.0625,1.03125 0.0937,0.375 0.375,0.59375 0.29687,0.21875 0.73437,0.21875 0.4375,0 0.8125,-0.21875 0.39063,-0.23438 0.54688,-0.60938 0.15625,-0.39062 0.15625,-1.10937 l 0,-3.0625 0.96875,0 0,5.70312 -0.85938,0 z m 4.30152,-0.85937 0.125,0.84375 q -0.40625,0.0937 -0.71875,0.0937 -0.53125,0 -0.82813,-0.17188 -0.28125,-0.17187 -0.40625,-0.4375 -0.10937,-0.26562 -0.10937,-1.14062 l 0,-3.28125 -0.71875,0 0,-0.75 0.71875,0 0,-1.40625 0.95312,-0.59375 0,2 0.98438,0 0,0.75 -0.98438,0 0,3.34375 q 0,0.40625 0.0469,0.53125 0.0625,0.10937 0.17187,0.1875 0.125,0.0625 0.32813,0.0625 0.17187,0 0.4375,-0.0312 z m 4.74188,-0.98438 1,0.125 q -0.23437,0.875 -0.875,1.35938 -0.64062,0.48437 -1.625,0.48437 -1.25,0 -1.98437,-0.76562 -0.73438,-0.76563 -0.73438,-2.15625 0,-1.45313 0.73438,-2.23438 0.75,-0.79687 1.92187,-0.79687 1.15625,0 1.875,0.78125 0.71875,0.76562 0.71875,2.1875 0,0.0781 0,0.25 l -4.25,0 q 0.0469,0.9375 0.51563,1.4375 0.48437,0.5 1.20312,0.5 0.53125,0 0.90625,-0.26563 0.375,-0.28125 0.59375,-0.90625 z m -3.17187,-1.5625 3.1875,0 q -0.0625,-0.71875 -0.35938,-1.07812 -0.46875,-0.54688 -1.20312,-0.54688 -0.67188,0 -1.125,0.45313 -0.45313,0.4375 -0.5,1.17187 z" />
  <path
     style="fill:#000000;fill-opacity:0;fill-rule:nonzero"
     inkscape:connector-curvature="0"
     id="path3215"
     d="m 37.000009,143.56083 0,58.89764" />
  <path
     style="stroke:#000000;stroke-width:2;stroke-linecap:butt;stroke-linejoin:round"
     inkscape:connector-curvature="0"
     id="path3217"
     d="m 37.000009,143.56083 0,46.89764" />
  <path
     style="fill:#000000;fill-rule:evenodd;stroke:#000000;stroke-width:2;stroke-linecap:butt"
     inkscape:connector-curvature="0"
     id="path3219"
     d="m 33.696539,190.45847 3.30347,9.07619 3.30346,-9.07619 z" />
  <path
     style="fill:#000000;fill-opacity:0;fill-rule:nonzero"
     inkscape:connector-curvature="0"
     id="path3221"
     d="m 485.00001,201.00965 0,-57.44882" />
  <path
     style="stroke:#000000;stroke-width:2;stroke-linecap:butt;stroke-linejoin:round"
     inkscape:connector-curvature="0"
     id="path3223"
     d="m 485.00001,189.00965 0,-33.44882" />
  <path
     style="fill:#000000;fill-rule:evenodd;stroke:#000000;stroke-width:2;stroke-linecap:butt"
     inkscape:connector-curvature="0"
     id="path3225"
     d="m 481.69654,189.00965 3.30347,9.0762 3.30346,-9.0762 z" />
  <path
     style="fill:#000000;fill-rule:evenodd;stroke:#000000;stroke-width:2;stroke-linecap:butt"
     inkscape:connector-curvature="0"
     id="path3227"
     d="m 488.30348,155.56083 -3.30347,-9.07619 -3.30346,9.07619 z" />
  <path
     style="fill:#cfe2f3;fill-rule:nonzero"
     inkscape:connector-curvature="0"
     id="path3229"
     d="m 17.000009,69.009651 10,0 0,-68.0000004 20,0 0,68.0000004 10,0 -20,20 z" />
  <path
     style="stroke:#000000;stroke-width:2;stroke-linecap:butt;stroke-linejoin:round"
     inkscape:connector-curvature="0"
     id="path3231"
     d="m 17.000009,69.009651 10,0 0,-68.0000004 20,0 0,68.0000004 10,0 -20,20 z" />
  <path
     style="fill:#cfe2f3;fill-rule:nonzero"
     inkscape:connector-curvature="0"
     id="path3233"
     d="m 465.00001,21.009651 20,-20.0000004 20,20.0000004 -10,0 0,48 10,0 -20,20 -20,-20 10,0 0,-48 z" />
  <path
     style="stroke:#000000;stroke-width:2;stroke-linecap:butt;stroke-linejoin:round"
     inkscape:connector-curvature="0"
     id="path3235"
     d="m 465.00001,21.009651 20,-20.0000004 20,20.0000004 -10,0 0,48 10,0 -20,20 -20,-20 10,0 0,-48 z" />
  <path
     style="fill:#000000;fill-opacity:0;fill-rule:nonzero"
     inkscape:connector-curvature="0"
     id="path3237"
     d="m 73.000009,217.73405 376.000001,0" />
  <path
     style="stroke:#000000;stroke-width:2;stroke-linecap:butt;stroke-linejoin:round"
     inkscape:connector-curvature="0"
     id="path3239"
     d="m 73.000009,217.73405 364.000001,0" />
  <path
     style="fill:#000000;fill-rule:evenodd;stroke:#000000;stroke-width:2;stroke-linecap:butt"
     inkscape:connector-curvature="0"
     id="path3241"
     d="m 437.00001,221.03751 9.07617,-3.30347 -9.07617,-3.30345 z" />
</svg>
